<svg width="41" height="41" viewBox="0 0 41 41" fill="none" xmlns="http://www.w3.org/2000/svg">
<rect x="0.012207" y="0.751282" width="40" height="40" fill="white"/>
<path fill-rule="evenodd" clip-rule="evenodd" d="M16.0351 2.13579C15.1796 1.43708 13.9197 1.5642 13.221 2.4197L6.09102 11.1498C5.39231 12.0053 5.51943 13.2652 6.37493 13.9639L8.03173 15.317L4.64911 16.2835C3.7905 16.5288 3.19855 17.3136 3.19855 18.2065V18.778V33.2659V33.5053C3.19855 34.3982 3.7905 35.183 4.6491 35.4283L19.7375 39.7393L20.0122 39.8178L20.2869 39.7393L35.3754 35.4283C36.234 35.183 36.8259 34.3982 36.8259 33.5053L36.8259 33.2659V18.778L36.8259 18.2065C36.8259 17.3136 36.234 16.5288 35.3754 16.2835L29.8828 14.7142C29.9852 14.0383 29.7383 13.3274 29.1705 12.8636L16.0351 2.13579ZM28.7962 16.4838L26.7327 19.0103L32.1858 17.4522L28.7962 16.4838ZM23.3645 19.9726L27.9054 14.4127L14.77 3.68481L7.64004 12.4149L17.0197 20.0754L20.0122 20.9304L23.3645 19.9726ZM12.1567 18.686L9.91851 16.858L7.83863 17.4522L12.1567 18.686ZM21.0122 22.7247L34.8259 18.778V33.2659V33.5053L21.0122 37.452V22.7247ZM5.19855 33.2659V18.778L19.0122 22.7247V37.452L5.19855 33.5053V33.2659Z" fill="#5E6E7C"/>
</svg>
