<svg width="41" height="41" viewBox="0 0 41 41" fill="none" xmlns="http://www.w3.org/2000/svg">
<rect x="0.987793" y="0.751282" width="40" height="40" fill="white"/>
<path fill-rule="evenodd" clip-rule="evenodd" d="M30.4354 7.97503C31.544 6.8192 33.1275 6.24518 34.7192 6.42204C35.0338 6.457 35.2822 6.70534 35.3171 7.01993C35.494 8.6117 34.92 10.1951 33.7641 11.3038L27.8754 16.9521L27.4465 17.3635L27.6029 17.9369L31.6625 32.8222L29.6459 34.8388L23.0832 24.32L25.8786 21.6388C26.2771 21.2565 26.2903 20.6235 25.908 20.2249C25.5257 19.8263 24.8927 19.8131 24.4941 20.1954L21.1128 23.4387L15.2059 29.1046L14.7494 29.5424L14.9494 30.1425L16.1736 33.8152L15.0572 34.9316L12.2486 30.7188L15.0586 27.9089C15.4491 27.5183 15.4491 26.8852 15.0586 26.4946C14.6681 26.1041 14.0349 26.1041 13.6444 26.4946L10.7973 29.3417L6.80741 26.6818L7.92388 25.5653L11.5968 26.7896L12.1969 26.9896L12.6347 26.5332L18.3005 20.6263L21.5439 17.2449C21.9262 16.8463 21.913 16.2133 21.5145 15.831C21.1159 15.4487 20.4829 15.4618 20.1006 15.8604L17.4193 18.6558L6.8999 12.0928L8.91649 10.0762L23.8025 14.136L24.3759 14.2924L24.7873 13.8635L30.4354 7.97503ZM9.35506 30.784L5.37662 28.1316C4.49276 27.5424 4.36894 26.2918 5.12008 25.5407L6.64805 24.0127L7.35515 24.7198L6.64805 24.0127C7.0989 23.5619 7.76579 23.4044 8.37068 23.606L8.05445 24.5547L8.37068 23.606L11.6292 24.6922L16.0047 20.1306L5.50326 13.5787C4.58435 13.0054 4.43815 11.7261 5.204 10.9602L7.63221 8.53202C8.05936 8.10487 8.68264 7.93935 9.26544 8.09829L14.593 9.55125L16.5726 7.57162C17.3536 6.79057 18.62 6.79057 19.401 7.57162L20.5315 8.70205C21.2208 9.39145 21.3017 10.4589 20.7741 11.237L23.7554 12.0501L28.992 6.59058C30.5314 4.98573 32.7299 4.1887 34.9401 4.43428C36.1844 4.57253 37.1666 5.55478 37.3049 6.79907C37.5505 9.00923 36.7534 11.2078 35.1486 12.7471L29.6888 17.9841L30.5717 21.2214C31.3564 20.6088 32.4929 20.6635 33.2148 21.3854L34.3452 22.5158C35.1263 23.2969 35.1263 24.5632 34.3452 25.3443L32.2638 27.4257L33.6404 32.4732C33.7993 33.056 33.6338 33.6793 33.2066 34.1064L30.7784 36.5347C30.0126 37.3005 28.7332 37.1543 28.1599 36.2354L21.6085 25.7346L17.0468 30.1101L18.1329 33.3684C18.3345 33.9732 18.1771 34.6401 17.7262 35.091L16.1983 36.619C15.4471 37.3701 14.1966 37.2463 13.6073 36.3624L10.8064 32.161L10.3328 32.6346C9.9423 33.0252 9.30913 33.0252 8.91861 32.6346C8.52808 32.2441 8.52808 31.6109 8.91861 31.2204L9.35506 30.784ZM31.6577 25.2034L32.931 23.9301L31.8006 22.7996L31.1732 23.427L31.6577 25.2034ZM18.5917 10.6418L16.8153 10.1573L17.9868 8.98583L19.1172 10.1163L18.5917 10.6418Z" fill="#5E6E7C"/>
</svg>
