<svg width="41" height="41" viewBox="0 0 41 41" fill="none" xmlns="http://www.w3.org/2000/svg">
<rect x="0.987793" y="0.751282" width="40" height="40" fill="white"/>
<path fill-rule="evenodd" clip-rule="evenodd" d="M32.0542 8.86081C33.1053 7.04036 34.7325 5.12024 37.9543 4.07756C36.7743 6.11952 36.6431 7.72382 36.8613 9.16078C36.9381 9.66673 37.0702 10.1965 37.1835 10.6509C37.2358 10.8608 37.2841 11.0546 37.3212 11.2226C37.4517 11.8149 37.5087 12.3145 37.4214 12.8357C37.2471 13.8764 36.4347 14.6044 35.4479 15.1062C34.9709 15.3488 34.5009 15.5124 34.1471 15.6152C34.0694 15.6378 33.9979 15.6572 33.9341 15.6738L31.3807 14.1996C31.3728 14.159 31.3648 14.1156 31.3566 14.0694C31.2959 13.7266 31.2301 13.2384 31.2124 12.6676C31.1764 11.5117 31.3395 10.0988 32.0542 8.86081ZM30.7987 16.1729L32.4759 17.1413L29.9262 22.5485L27.3908 21.0847L30.7987 16.1729ZM26.3622 22.8002L28.9548 24.2971L23.6486 32.471C23.3619 32.9127 22.7795 33.0526 22.3234 32.7893C21.8674 32.526 21.6973 31.9517 21.9364 31.4825L26.3622 22.8002ZM29.3873 14.4184C29.4014 14.498 29.4154 14.5717 29.4288 14.639L25.0896 20.893L20.1546 30.5742C19.8854 31.1023 19.7878 31.6746 19.8427 32.2258C19.8435 32.2437 19.8444 32.2614 19.8454 32.2793C19.907 33.3202 20.4699 34.0632 20.8478 34.5619L20.8893 34.6167L20.949 34.6958L21.0231 34.7615C21.2276 34.9433 21.3353 35.0983 21.401 35.2431C21.4687 35.3922 21.5156 35.5825 21.5324 35.8666C21.5867 36.785 20.7972 37.6736 19.8789 37.7279C11.2446 38.2384 3.93504 31.7449 3.42458 23.1106C2.91408 14.4763 9.40758 7.16678 18.0419 6.6563C22.47 6.3945 26.4926 7.77043 29.4417 10.1572C29.2344 11.0891 29.19 11.9813 29.2133 12.7298C29.2347 13.4155 29.3134 14.0013 29.3873 14.4184ZM30.1496 8.17705C26.8519 5.73593 22.5384 4.38696 17.9238 4.65979C8.18687 5.23546 0.852372 13.4917 1.42806 23.2287C2.00371 32.9656 10.26 40.3001 19.9969 39.7244C22.0179 39.605 23.6484 37.7696 23.5289 35.7486C23.5114 35.4524 23.4696 35.1578 23.387 34.8674C24.1577 34.7178 24.8672 34.2669 25.3261 33.56L27.6213 30.0245C32.897 29.3038 36.7045 24.7371 36.3841 19.3185C36.3378 18.5366 36.2292 17.7728 36.0627 17.0304C36.159 16.9859 36.2564 16.9388 36.3544 16.889C37.5589 16.2765 39.0638 15.1373 39.394 13.166C39.5426 12.2785 39.428 11.4895 39.2743 10.7921C39.2119 10.5091 39.1496 10.2621 39.0907 10.0285L39.0906 10.0278L39.0904 10.0269C38.9917 9.63551 38.9026 9.28195 38.8386 8.8606C38.6655 7.72063 38.7411 6.32249 40.2957 4.13431C40.6775 3.59689 40.6476 2.94127 40.3616 2.46506C40.0682 1.97647 39.469 1.62849 38.7754 1.7839C34.0382 2.84535 31.7143 5.44968 30.3222 7.86081C30.2616 7.9657 30.2041 8.07117 30.1496 8.17705ZM34.2343 18.1016L31.2428 24.4456L29.2179 27.5649C32.4585 26.3196 34.6061 23.1323 34.3876 19.4365C34.3609 18.9854 34.3094 18.5401 34.2343 18.1016ZM11.2601 25.6499C10.5367 25.679 10.0047 26.2724 10.0315 26.9384C10.0583 27.6044 10.6362 28.1531 11.3596 28.124C12.083 28.0949 12.615 27.5015 12.5882 26.8355C12.5614 26.1695 11.9834 25.6208 11.2601 25.6499ZM8.0331 27.0188C7.9605 25.2148 9.38731 23.7237 11.1797 23.6516C12.972 23.5794 14.514 24.9511 14.5866 26.7551C14.6592 28.5592 13.2324 30.0502 11.44 30.1224C9.64766 30.1945 8.10567 28.8228 8.0331 27.0188ZM13.1098 15.6028C14.0011 16.2048 14.1878 17.3073 13.6964 18.035C13.2049 18.7627 12.1125 19.0013 11.2212 18.3993C10.3299 17.7973 10.1431 16.6949 10.6346 15.9672C11.126 15.2395 12.2185 15.0009 13.1098 15.6028ZM15.3538 19.1543C16.5236 17.4222 15.9442 15.1037 14.2291 13.9454C12.5141 12.7871 10.1469 13.1157 8.97716 14.8478C7.80736 16.5799 8.3868 18.8985 10.1018 20.0567C11.8168 21.215 14.184 20.8864 15.3538 19.1543ZM21.4324 15.6487C22.4803 15.7523 23.5447 14.9112 23.6744 13.5987C23.8042 12.2862 22.9249 11.2531 21.8769 11.1495C20.829 11.0459 19.7646 11.887 19.6349 13.1995C19.5051 14.512 20.3844 15.5452 21.4324 15.6487ZM25.6648 13.7954C25.4403 16.0669 23.5179 17.8646 21.2356 17.639C18.9534 17.4135 17.42 15.2743 17.6445 13.0028C17.869 10.7313 19.7914 8.93364 22.0737 9.15919C24.3559 9.38474 25.8892 11.5239 25.6648 13.7954ZM16.0131 34.5278C16.8639 34.5278 17.5536 33.838 17.5536 32.9872C17.5536 32.1364 16.8639 31.4467 16.0131 31.4467C15.1623 31.4467 14.4726 32.1364 14.4726 32.9872C14.4726 33.838 15.1623 34.5278 16.0131 34.5278Z" fill="#5E6E7C"/>
</svg>
