<svg width="41" height="41" viewBox="0 0 41 41" fill="none" xmlns="http://www.w3.org/2000/svg">
<rect x="0.987793" y="0.751282" width="40" height="40" fill="white"/>
<path fill-rule="evenodd" clip-rule="evenodd" d="M35.1733 28.8655V28.8392L35.1719 28.8129L34.1591 9.56799V4.75128C34.1591 3.64671 33.2636 2.75128 32.1591 2.75128H9.81653C8.71198 2.75128 7.81653 3.64671 7.81653 4.75128V9.56801L6.80365 28.8129L6.80225 28.8392V28.8654V36.7513C6.80225 37.8559 7.69769 38.7513 8.80225 38.7513H33.1733C34.2779 38.7513 35.1733 37.8559 35.1733 36.7513V28.8655ZM32.2103 10.5943L33.1733 28.8918V36.7513H8.80225V28.8918L9.81519 9.64685L9.81653 9.62059V9.59428V4.75128H32.1591V8.59428H9.83081V10.5943H32.2103ZM13.9376 12.0893H14.9376H27.1089H28.1089V13.0893V23.232V24.232H27.1089H14.9376H13.9376V23.232V13.0893V12.0893ZM15.9376 14.0893V22.232H26.1089V14.0893H15.9376ZM22.2744 27.8654C21.7222 27.8654 21.2744 28.3132 21.2744 28.8654C21.2744 29.4177 21.7222 29.8654 22.2744 29.8654H28.6302C29.1826 29.8654 29.6302 29.4177 29.6302 28.8654C29.6302 28.3132 29.1826 27.8654 28.6302 27.8654H22.2744ZM22.9329 6.24155C22.9329 5.96541 23.1567 5.74155 23.4329 5.74155H24.4614C24.7375 5.74155 24.9614 5.96541 24.9614 6.24155V7.2701C24.9614 7.54623 24.7375 7.7701 24.4614 7.7701H23.4329C23.1567 7.7701 22.9329 7.54623 22.9329 7.2701V6.24155ZM26.4756 5.74156C26.1995 5.74156 25.9756 5.96541 25.9756 6.24156V7.2701C25.9756 7.54625 26.1995 7.7701 26.4756 7.7701H29.5327C29.8088 7.7701 30.0327 7.54625 30.0327 7.2701V6.24156C30.0327 5.96542 29.8088 5.74156 29.5327 5.74156H26.4756ZM10.9285 22.4177C10.9285 22.3072 11.0181 22.2177 11.1285 22.2177H12.7571C12.8676 22.2177 12.9571 22.3072 12.9571 22.4177V24.0462C12.9571 24.1567 12.8676 24.2462 12.7571 24.2462H11.1285C11.0181 24.2462 10.9285 24.1567 10.9285 24.0462V22.4177ZM11.1285 18.8368C11.0181 18.8368 10.9285 18.9263 10.9285 19.0368V20.6653C10.9285 20.7758 11.0181 20.8653 11.1285 20.8653H12.7571C12.8676 20.8653 12.9571 20.7758 12.9571 20.6653V19.0368C12.9571 18.9263 12.8676 18.8368 12.7571 18.8368H11.1285ZM10.9285 15.6559C10.9285 15.5454 11.0181 15.4559 11.1285 15.4559H12.7571C12.8676 15.4559 12.9571 15.5454 12.9571 15.6559V17.2844C12.9571 17.3949 12.8676 17.4844 12.7571 17.4844H11.1285C11.0181 17.4844 10.9285 17.3949 10.9285 17.2844V15.6559ZM11.1285 12.075C11.0181 12.075 10.9285 12.1645 10.9285 12.275V13.9035C10.9285 14.014 11.0181 14.1035 11.1285 14.1035H12.7571C12.8676 14.1035 12.9571 14.014 12.9571 13.9035V12.275C12.9571 12.1645 12.8676 12.075 12.7571 12.075H11.1285ZM29.0185 22.4177C29.0185 22.3072 29.108 22.2177 29.2185 22.2177H30.847C30.9575 22.2177 31.0471 22.3072 31.0471 22.4177V24.0462C31.0471 24.1567 30.9575 24.2462 30.847 24.2462H29.2185C29.108 24.2462 29.0185 24.1567 29.0185 24.0462V22.4177ZM29.2185 18.8368C29.108 18.8368 29.0185 18.9263 29.0185 19.0368V20.6653C29.0185 20.7758 29.108 20.8653 29.2185 20.8653H30.847C30.9575 20.8653 31.0471 20.7758 31.0471 20.6653V19.0368C31.0471 18.9263 30.9575 18.8368 30.847 18.8368H29.2185ZM29.0185 15.6559C29.0185 15.5454 29.108 15.4559 29.2185 15.4559H30.847C30.9575 15.4559 31.0471 15.5454 31.0471 15.6559V17.2844C31.0471 17.3949 30.9575 17.4844 30.847 17.4844H29.2185C29.108 17.4844 29.0185 17.3949 29.0185 17.2844V15.6559ZM29.2185 12.075C29.1081 12.075 29.0186 12.1645 29.0186 12.275V13.9035C29.0186 14.014 29.1081 14.1035 29.2185 14.1035H30.847C30.9575 14.1035 31.0471 14.014 31.0471 13.9035V12.275C31.0471 12.1645 30.9575 12.075 30.847 12.075H29.2185Z" fill="#5E6E7C"/>
</svg>
