<svg width="41" height="41" viewBox="0 0 41 41" fill="none" xmlns="http://www.w3.org/2000/svg">
<rect x="0.987793" y="0.751343" width="40" height="40" fill="white"/>
<path fill-rule="evenodd" clip-rule="evenodd" d="M13.7834 2.30269C12.8515 1.82456 11.5091 1.78653 10.621 2.75823C8.70793 4.85135 8.32163 8.05198 9.41472 10.624C7.55958 13.0639 6.45838 16.1082 6.45838 19.4098V20.5274C3.98934 20.5274 1.98779 22.529 1.98779 24.998C1.98779 27.4671 3.98934 29.4686 6.45838 29.4686C6.69098 29.4686 6.91943 29.4508 7.14245 29.4166C9.01223 35.2804 14.504 39.5274 20.9878 39.5274C27.4715 39.5274 32.9634 35.2804 34.8331 29.4166C35.0562 29.4508 35.2846 29.4686 35.5172 29.4686C37.9862 29.4686 39.9878 27.4671 39.9878 24.998C39.9878 22.529 37.9862 20.5274 35.5172 20.5274V19.4098C35.5172 16.1083 34.416 13.0639 32.5609 10.6241C33.654 8.05208 33.2677 4.85146 31.3547 2.75835C30.4666 1.78665 29.1241 1.82468 28.1922 2.30282L23.561 4.67905C22.8603 4.07621 21.974 3.69836 20.9881 3.69836C20.0022 3.69836 19.1158 4.07625 18.4151 4.67915L13.7834 2.30269ZM31.4169 12.4633C31.3604 12.5282 31.3025 12.5922 31.2432 12.655C30.4462 13.5008 29.2924 13.5614 28.4005 13.2321C28.8698 14.526 29.653 15.7071 30.5985 16.703C31.5059 17.6588 32.5309 18.4102 33.5075 18.9115C33.4144 16.5316 32.6575 14.3223 31.4169 12.4633ZM26.0639 12.2055L23.5949 11.1141C22.8891 11.7341 21.99 12.1243 20.9881 12.1243C19.9861 12.1243 19.0869 11.734 18.381 11.1138L15.9117 12.2054C15.5127 14.51 14.3011 16.5279 12.8275 18.0801C11.5195 19.4578 9.95542 20.5212 8.45838 21.1094V22.5274H6.45838C5.09391 22.5274 3.98779 23.6335 3.98779 24.998C3.98779 26.3625 5.09391 27.4686 6.45838 27.4686C6.58897 27.4686 6.71595 27.4586 6.83891 27.4398L8.52859 27.1803L9.04792 28.809C10.6609 33.8676 15.3996 37.5274 20.9878 37.5274C26.576 37.5274 31.3146 33.8676 32.9277 28.809L33.447 27.1803L35.1367 27.4398C35.2596 27.4586 35.3866 27.4686 35.5172 27.4686C36.8817 27.4686 37.9878 26.3625 37.9878 24.998C37.9878 23.6335 36.8817 22.5274 35.5172 22.5274H33.5172V21.1094C32.0202 20.5212 30.4561 19.4578 29.1481 18.0801C27.6745 16.528 26.4629 14.5101 26.0639 12.2055ZM13.5751 13.232C12.6832 13.5613 11.5294 13.5007 10.7324 12.6549C10.6732 12.592 10.6153 12.5281 10.5588 12.4632C9.31807 14.3222 8.56119 16.5316 8.46811 18.9115C9.44466 18.4102 10.4697 17.6588 11.377 16.703C12.3226 15.707 13.1058 14.5259 13.5751 13.232ZM16.8636 7.85998C16.8557 8.40514 16.9634 8.94352 17.1811 9.45754L12.936 11.3341C12.5683 11.4966 12.2981 11.4001 12.188 11.2833C10.3872 9.37231 10.3492 6.02009 12.0973 4.10751C12.1606 4.03824 12.2496 3.99012 12.3812 3.9772C12.5212 3.96346 12.6974 3.99336 12.8704 4.08214L17.2075 6.30744C16.992 6.79698 16.8713 7.31984 16.8636 7.85998ZM29.0396 11.3342L24.795 9.45787C25.0135 8.94197 25.121 8.40198 25.1125 7.85565C25.1041 7.31659 24.9833 6.79518 24.7686 6.30735L29.1052 4.08226C29.2783 3.99348 29.4545 3.96358 29.5945 3.97732C29.726 3.99024 29.8151 4.03836 29.8784 4.10763C31.6264 6.02021 31.5885 9.37243 29.7877 11.2834C29.6776 11.4003 29.4074 11.4967 29.0396 11.3342ZM19.3957 6.53165C19.8332 5.98616 20.4037 5.69836 20.9881 5.69836C21.5725 5.69836 22.143 5.98613 22.5805 6.53157C22.94 6.97967 23.1059 7.44665 23.1128 7.88675C23.1195 8.32193 22.9722 8.80289 22.5804 9.29126C22.1428 9.83661 21.5724 10.1243 20.9881 10.1243C20.4037 10.1243 19.8332 9.83653 19.3957 9.29106C19.0051 8.80417 18.8571 8.32387 18.8633 7.88866C18.8697 7.44892 19.0348 6.98148 19.3957 6.53165ZM16.9266 26.9832L16.9265 26.9828L16.9265 26.9828C16.7891 26.4517 16.2489 26.1299 15.7158 26.2632C15.18 26.3971 14.8543 26.9401 14.9882 27.4759L15.9584 27.2333C14.9882 27.4759 14.9884 27.4764 14.9885 27.477L14.9888 27.4783L14.9895 27.481L14.9912 27.4873L14.9955 27.5038L14.9981 27.5131C14.9994 27.5181 15.0009 27.5235 15.0026 27.5292C15.0045 27.5359 15.0065 27.5432 15.0088 27.551C15.0198 27.5886 15.0352 27.6384 15.0556 27.6987C15.0964 27.819 15.1579 27.9822 15.2458 28.1739C15.4208 28.5557 15.7053 29.0615 16.1488 29.5683C17.0586 30.6081 18.5839 31.5863 20.9878 31.5863C23.3917 31.5863 24.917 30.6081 25.8268 29.5683C26.2702 29.0615 26.5548 28.5557 26.7298 28.1739C26.8177 27.9822 26.8792 27.819 26.92 27.6987C26.9404 27.6384 26.9558 27.5886 26.9668 27.551L26.9705 27.538L26.9801 27.5038L26.9844 27.4873L26.9861 27.481L26.9867 27.4783L26.9871 27.477C26.9872 27.4764 26.9873 27.4759 26.0172 27.2333L26.9873 27.4759C27.1213 26.9401 26.7955 26.3971 26.2597 26.2632C25.7266 26.1299 25.1864 26.4517 25.0491 26.9828L25.0468 26.991C25.0434 27.0025 25.0367 27.0247 25.026 27.0561C25.0046 27.1192 24.9679 27.2179 24.9117 27.3406C24.7985 27.5874 24.6116 27.9199 24.3216 28.2513C23.7645 28.888 22.775 29.5863 20.9878 29.5863C19.2005 29.5863 18.2111 28.888 17.654 28.2513C17.364 27.9199 17.177 27.5874 17.0639 27.3406C17.0077 27.2179 16.9709 27.1192 16.9496 27.0561C16.9389 27.0247 16.9322 27.0025 16.9288 26.991L16.9266 26.9832ZM15.9583 23.0405C16.8091 23.0405 17.4989 22.3508 17.4989 21.4999C17.4989 20.6491 16.8091 19.9594 15.9583 19.9594C15.1075 19.9594 14.4178 20.6491 14.4178 21.4999C14.4178 22.3508 15.1075 23.0405 15.9583 23.0405ZM27.5578 21.4999C27.5578 22.3507 26.8681 23.0405 26.0172 23.0405C25.1664 23.0405 24.4767 22.3507 24.4767 21.4999C24.4767 20.6491 25.1664 19.9594 26.0172 19.9594C26.8681 19.9594 27.5578 20.6491 27.5578 21.4999Z" fill="#5E6E7C"/>
</svg>
