<?xml version="1.0" encoding="utf-8"?>
<!-- Generator: Adobe Illustrator 25.2.3, SVG Export Plug-In . SVG Version: 6.00 Build 0)  -->
<svg version="1.1" id="Layer_1" xmlns="http://www.w3.org/2000/svg" xmlns:xlink="http://www.w3.org/1999/xlink" x="0px" y="0px"
	 viewBox="0 0 41 41" style="enable-background:new 0 0 41 41;" xml:space="preserve">
<style type="text/css">
	.st0{fill-rule:evenodd;clip-rule:evenodd;fill:#FFFFFF;}
</style>
<path class="st0" d="M14.2,5.7c-0.3-0.3-0.7-0.4-1.1-0.2L8.9,7.4C8.5,7.5,8.3,8,8.3,8.4l0.5,3.5c1.3-2.6,3.8-4.4,6.8-4.8L14.2,5.7z
	 M6.3,8.7l1.4,9.4L7.2,33.9c-0.1,2.3,1.7,4.1,4,4.1h1.2h1h15.1h1h1.2c2.3,0,4.1-1.9,4-4.1l-0.5-15.8l1.4-9.4
	c0.2-1.3-0.5-2.7-1.8-3.2l-4.2-1.8c-1.1-0.5-2.4-0.2-3.3,0.6l-1.6,1.6c-0.5-1.1-1.5-1.8-2.8-1.8h-2c-1.2,0-2.3,0.8-2.8,1.8l-1.6-1.6
	c-0.9-0.9-2.2-1.1-3.3-0.6L8.1,5.5C6.9,6.1,6.1,7.4,6.3,8.7z M22,6.1c0.6,0,1,0.4,1,1h-4c0-0.6,0.4-1,1-1H22z M26.3,7.1
	c3,0.4,5.5,2.2,6.8,4.8l0.5-3.5c0.1-0.4-0.2-0.9-0.6-1.1l-4.2-1.8c-0.4-0.2-0.8-0.1-1.1,0.2L26.3,7.1z M9.8,15.8
	c0.1-3.8,3.2-6.8,7-6.8h8.3c3.8,0,6.9,3,7,6.8L32.8,34c0,1.1-0.9,2.1-2,2.1h-1.3l-0.9-20.1c-0.1-1.6-1.4-2.9-3-2.9h-9.3
	c-1.6,0-2.9,1.3-3,2.9l-0.9,20.1h-1.3c-1.1,0-2-0.9-2-2.1L9.8,15.8z M14.5,36.1h13l-0.9-20c0-0.5-0.5-1-1-1h-9.3c-0.5,0-1,0.4-1,1
	L14.5,36.1z M17,18.6h8v-2h-8V18.6z"/>
</svg>
