<svg width="41" height="41" viewBox="0 0 41 41" fill="none" xmlns="http://www.w3.org/2000/svg">
<rect x="0.987793" y="0.751343" width="40" height="40" fill="white"/>
<path fill-rule="evenodd" clip-rule="evenodd" d="M14.2442 5.73341C13.9534 5.44263 13.5143 5.35951 13.1373 5.5239L8.9145 7.3656C8.49975 7.54648 8.25814 7.98332 8.32536 8.43077L8.8483 11.9118C10.177 9.35873 12.6913 7.52958 15.6506 7.13975L14.2442 5.73341ZM6.34755 8.72789L7.7596 18.1275L7.21488 33.9244C7.13688 36.1862 8.94933 38.0623 11.2125 38.0623L12.3829 38.0623H13.4273H28.5473H29.5917L30.762 38.0623C33.0252 38.0623 34.8377 36.1862 34.7597 33.9244L34.2149 18.126L35.628 8.72822C35.8299 7.38573 35.105 6.07498 33.8607 5.53227L29.638 3.69066C28.5072 3.19748 27.1897 3.44685 26.3174 4.3192L24.7487 5.88789C24.2917 4.81468 23.2274 4.06226 21.9873 4.06226H19.9873C18.7475 4.06226 17.6834 4.81426 17.2262 5.88699L15.6584 4.3192C14.7861 3.44685 13.4686 3.19748 12.3378 3.69066L8.11497 5.53236C6.87073 6.07501 6.14589 7.38552 6.34755 8.72789ZM21.9873 6.06226C22.5396 6.06226 22.9873 6.50997 22.9873 7.06226H18.9873C18.9873 6.50997 19.435 6.06226 19.9873 6.06226H21.9873ZM26.3251 7.1399C29.2843 7.53009 31.7982 9.35946 33.1267 11.9127L33.6502 8.43082C33.7175 7.98333 33.4759 7.54641 33.0611 7.36551L28.8385 5.5239C28.4615 5.35951 28.0224 5.44263 27.7316 5.73341L26.3251 7.1399ZM9.84032 15.821C9.97032 12.0512 13.0641 9.06226 16.8362 9.06226H25.1384C28.9105 9.06226 32.0042 12.0512 32.1342 15.821L32.7609 33.9933C32.7998 35.1242 31.8936 36.0623 30.762 36.0623H29.5047L28.6295 15.9319C28.5597 14.3273 27.2385 13.0623 25.6323 13.0623H16.3422C14.736 13.0623 13.4148 14.3273 13.345 15.9319L12.4698 36.0623H11.2125C10.0809 36.0623 9.17469 35.1242 9.21369 33.9933L9.84032 15.821ZM14.4717 36.0623H27.5028L26.6314 16.0188C26.6081 15.4839 26.1677 15.0623 25.6323 15.0623H16.3422C15.8068 15.0623 15.3664 15.4839 15.3432 16.0188L14.4717 36.0623ZM16.9873 18.5623H24.9873V16.5623H16.9873V18.5623Z" fill="#5E6E7C"/>
</svg>
