<svg width="41" height="41" viewBox="0 0 41 41" fill="none" xmlns="http://www.w3.org/2000/svg">
<rect x="0.987793" y="0.751282" width="40" height="40" fill="white"/>
<path fill-rule="evenodd" clip-rule="evenodd" d="M12.9006 7.88696C16.4114 5.67545 20.6304 5.03991 24.5482 5.98034C25.4535 8.57277 26.5472 10.5802 28.1157 12.2091L26.5618 13.763C26.4342 13.6336 26.305 13.5062 26.1743 13.3809C22.5188 9.87563 17.7533 8.03447 12.9006 7.88696ZM29.5302 10.7946C28.5173 9.73515 27.7093 8.45338 27.0044 6.79724C28.4297 7.41129 29.7802 8.25382 31 9.32483L29.5302 10.7946ZM27.8942 15.2591L29.6129 13.5404C31.2093 14.7585 33.1646 15.7089 35.601 16.5884C36.9215 21.24 35.9818 26.3981 32.7817 30.329C32.7416 24.0206 30.8745 18.9683 27.8942 15.2591ZM31.0419 12.1114C32.0271 12.8296 33.2007 13.4639 34.635 14.0677C34.057 12.8876 33.3167 11.767 32.4142 10.739L31.0419 12.1114ZM10.2952 9.95961C8.5798 11.675 7.31075 13.748 6.58732 15.9015C13.0599 13.4382 18.9482 14.2531 22.5724 17.7525L25.1476 15.1773C25.0297 15.0576 24.9105 14.94 24.79 14.8244C20.8831 11.0781 15.5352 9.41147 10.2952 9.95961ZM21.1578 19.1671C18.0451 16.1907 12.5329 15.3734 5.99177 18.313C5.28878 22.6593 6.47864 27.2523 9.56134 30.7635L21.1578 19.1671ZM22.4392 20.7141C24.6118 24.0468 24.9073 29.3125 21.7274 35.9252C17.9079 36.1102 14.0318 34.8611 10.9755 32.1777L22.4392 20.7141ZM24.0601 35.6309C26.9595 28.9268 26.6272 23.1354 23.8805 19.2728L26.4704 16.6828C29.3663 20.3795 31.1234 25.613 30.7269 32.4119C28.7509 34.0661 26.4533 35.1391 24.0601 35.6309ZM33.1442 8.59482C26.4304 1.88099 15.5452 1.88099 8.83133 8.59482C2.1175 15.3086 2.1175 26.1939 8.83133 32.9077C15.5452 39.6216 26.4304 39.6216 33.1442 32.9077C39.8581 26.1939 39.8581 15.3086 33.1442 8.59482Z" fill="#5E6E7C"/>
</svg>
