<svg width="41" height="41" viewBox="0 0 41 41" fill="none" xmlns="http://www.w3.org/2000/svg">
<rect x="0.987793" y="0.751282" width="40" height="40" fill="white"/>
<path fill-rule="evenodd" clip-rule="evenodd" d="M22.587 4.73901C21.7404 3.77144 20.2352 3.77144 19.3886 4.73901L13.0682 11.9623H6.11279C4.93919 11.9623 3.98779 12.9137 3.98779 14.0873V16.2123C3.98779 17.0568 4.48039 17.7862 5.19392 18.1289C5.1794 18.2786 5.18064 18.4325 5.19923 18.5886L7.0971 34.5261C7.22438 35.595 8.13078 36.3998 9.20719 36.3998H32.7684C33.8448 36.3998 34.7512 35.595 34.8785 34.5261L36.7764 18.5886C36.7949 18.4325 36.7962 18.2786 36.7817 18.1289C37.4952 17.7862 37.9878 17.0568 37.9878 16.2123V14.0873C37.9878 12.9137 37.0364 11.9623 35.8628 11.9623H28.9074L22.587 4.73901ZM26.0838 11.9623L20.9878 6.13834L15.8918 11.9623H26.0838ZM9.20719 34.2748L7.30932 18.3373H34.6663L32.7684 34.2748H9.20719ZM35.8628 16.2123H34.6663H7.30932H6.11279V14.0873H35.8628V16.2123ZM11.1638 22.5873C11.1638 22.0005 11.6395 21.5248 12.2263 21.5248C12.8131 21.5248 13.2888 22.0005 13.2888 22.5873V24.2955C13.2888 24.8823 12.8131 25.358 12.2263 25.358C11.6395 25.358 11.1638 24.8823 11.1638 24.2955V22.5873ZM15.5446 22.5873C15.5446 22.0005 16.0203 21.5248 16.6071 21.5248C17.1939 21.5248 17.6696 22.0005 17.6696 22.5873V24.2955C17.6696 24.8823 17.1939 25.358 16.6071 25.358C16.0203 25.358 15.5446 24.8823 15.5446 24.2955V22.5873ZM20.9878 21.5248C20.401 21.5248 19.9253 22.0005 19.9253 22.5873V24.2955C19.9253 24.8823 20.401 25.358 20.9878 25.358C21.5746 25.358 22.0503 24.8823 22.0503 24.2955V22.5873C22.0503 22.0005 21.5746 21.5248 20.9878 21.5248ZM24.3061 22.5873C24.3061 22.0005 24.7818 21.5248 25.3686 21.5248C25.9554 21.5248 26.4311 22.0005 26.4311 22.5873V24.2955C26.4311 24.8823 25.9554 25.358 25.3686 25.358C24.7818 25.358 24.3061 24.8823 24.3061 24.2955V22.5873ZM29.7493 21.5248C29.1625 21.5248 28.6868 22.0005 28.6868 22.5873V24.2955C28.6868 24.8823 29.1625 25.358 29.7493 25.358C30.3361 25.358 30.8118 24.8823 30.8118 24.2955V22.5873C30.8118 22.0005 30.3361 21.5248 29.7493 21.5248ZM11.1638 28.0633C11.1638 27.4765 11.6395 27.0008 12.2263 27.0008C12.8131 27.0008 13.2888 27.4765 13.2888 28.0633V29.7715C13.2888 30.3583 12.8131 30.834 12.2263 30.834C11.6395 30.834 11.1638 30.3583 11.1638 29.7715V28.0633ZM16.6071 27.0008C16.0203 27.0008 15.5446 27.4765 15.5446 28.0633V29.7715C15.5446 30.3583 16.0203 30.834 16.6071 30.834C17.1939 30.834 17.6696 30.3583 17.6696 29.7715V28.0633C17.6696 27.4765 17.1939 27.0008 16.6071 27.0008ZM19.9253 28.0633C19.9253 27.4765 20.401 27.0008 20.9878 27.0008C21.5746 27.0008 22.0503 27.4765 22.0503 28.0633V29.7715C22.0503 30.3583 21.5746 30.834 20.9878 30.834C20.401 30.834 19.9253 30.3583 19.9253 29.7715V28.0633ZM25.3686 27.0008C24.7818 27.0008 24.3061 27.4765 24.3061 28.0633V29.7715C24.3061 30.3583 24.7818 30.834 25.3686 30.834C25.9554 30.834 26.4311 30.3583 26.4311 29.7715V28.0633C26.4311 27.4765 25.9554 27.0008 25.3686 27.0008ZM28.6868 28.0633C28.6868 27.4765 29.1625 27.0008 29.7493 27.0008C30.3361 27.0008 30.8118 27.4765 30.8118 28.0633V29.7715C30.8118 30.3583 30.3361 30.834 29.7493 30.834C29.1625 30.834 28.6868 30.3583 28.6868 29.7715V28.0633Z" fill="#5E6E7C"/>
</svg>
