<svg width="41" height="41" viewBox="0 0 41 41" fill="none" xmlns="http://www.w3.org/2000/svg">
<rect x="0.987793" y="0.751343" width="40" height="40" fill="white"/>
<path fill-rule="evenodd" clip-rule="evenodd" d="M25.1653 2.93513C25.4761 2.85742 25.7917 3.04382 25.8737 3.35354C25.9576 3.67033 25.7653 3.99431 25.447 4.07243L22.8432 4.71154L22.0815 4.89849V5.68272V9.32415H20.8973V4.00212L25.1653 2.93513ZM18.8973 9.32415V4.00212C18.8973 3.08438 19.5219 2.28442 20.4123 2.06183L24.6802 0.994844C26.0522 0.65186 27.4451 1.47459 27.8071 2.84165C28.1773 4.23994 27.3285 5.66998 25.9238 6.01478L24.0815 6.46695V9.32415H31.1116C32.0294 9.32415 32.8293 9.94874 33.0519 10.8391L33.6424 13.2009C33.9566 14.458 33.0111 15.6759 31.7182 15.6859L29.6971 38.7602C29.6067 39.7932 28.7417 40.5857 27.7048 40.5857H14.2708C13.2339 40.5857 12.3689 39.7932 12.2784 38.7602L10.2574 15.6859C8.96449 15.6759 8.01895 14.458 8.33322 13.2009L8.92368 10.8391C9.14627 9.94874 9.94623 9.32415 10.864 9.32415H18.8973ZM12.2651 15.686H29.7105L29.4656 18.4826L12.51 18.4826L12.2651 15.686ZM12.6852 20.4826L29.2904 20.4826L28.5799 28.5942L13.3957 28.5942L12.6852 20.4826ZM13.5708 30.5942L14.2708 38.5857L27.7048 38.5857L28.4047 30.5942L13.5708 30.5942ZM10.864 11.3241L10.2735 13.686H31.7021L31.1116 11.3241H10.864Z" fill="#5E6E7C"/>
</svg>
