<svg width="41" height="41" viewBox="0 0 41 41" fill="none" xmlns="http://www.w3.org/2000/svg">
<rect x="0.987793" y="0.751282" width="40" height="40" fill="white"/>
<path fill-rule="evenodd" clip-rule="evenodd" d="M23.4141 6.90338C23.4141 6.3511 23.8618 5.90338 24.4141 5.90338H27.0053C28.394 5.90338 29.6012 6.85642 29.9234 8.20717L30.0077 8.56024H37.9538C39.193 8.56024 40.1339 9.67555 39.9253 10.897L38.9263 16.7448C38.7622 17.7055 37.9295 18.408 36.9549 18.408H32.3572L32.5834 19.3562C32.8335 19.3315 33.0871 19.3189 33.3437 19.3189C37.5654 19.3189 40.9879 22.7413 40.9879 26.963C40.9879 31.1848 37.5654 34.6072 33.3437 34.6072C29.1219 34.6072 25.6995 31.1848 25.6995 26.963C25.6995 23.6946 27.7508 20.9054 30.6361 19.8122L30.255 18.2149L29.103 18.2149C28.7479 18.2149 28.4193 18.4033 28.24 18.7098L23.2839 27.1784C22.2457 28.9525 20.2274 29.9104 18.1964 29.593L16.2891 29.2948C15.2301 32.3854 12.2994 34.6072 8.84974 34.6072C4.50771 34.6072 0.987793 31.0872 0.987793 26.7452C0.987793 22.4032 4.50771 18.8833 8.84974 18.8833C10.0803 18.8833 11.2449 19.166 12.282 19.67L14.7309 16.0886L14.0133 13.9458H12.2984C10.7876 13.9458 9.56275 12.721 9.56275 11.2101C9.56275 9.57503 10.9876 8.30507 12.612 8.49247L18.1115 9.12694C19.3313 9.26767 20.2518 10.3005 20.2518 11.5284C20.2518 12.8635 19.1695 13.9458 17.8344 13.9458H16.1225L16.4415 14.8983L28.9946 12.9323L27.978 8.67131C27.8706 8.22106 27.4682 7.90338 27.0053 7.90338H24.4141C23.8618 7.90338 23.4141 7.45567 23.4141 6.90338ZM31.88 16.408H36.9549L37.9538 10.5602H30.4848L31.88 16.408ZM8.84974 20.8833C9.66088 20.8833 10.4335 21.048 11.1361 21.3459L8.36274 25.4019C7.81358 25.601 7.42124 26.1273 7.42124 26.7452C7.42124 27.5341 8.0608 28.1737 8.84974 28.1737C8.9136 28.1737 8.97648 28.1695 9.03813 28.1614L14.2709 28.9793C13.3925 31.1086 11.2961 32.6072 8.84974 32.6072C5.61228 32.6072 2.98779 29.9827 2.98779 26.7452C2.98779 23.5078 5.61228 20.8833 8.84974 20.8833ZM12.8175 22.4302L10.1955 26.2649C10.2021 26.2834 10.2083 26.3021 10.2142 26.3209L14.7052 27.0229C14.7095 26.9309 14.7117 26.8383 14.7117 26.7452C14.7117 25.0382 13.982 23.5015 12.8175 22.4302ZM15.5275 18.467L13.9552 20.7664C15.6423 22.2083 16.7117 24.3519 16.7117 26.7452C16.7117 26.943 16.7044 27.1391 16.69 27.3332L18.5053 27.617C18.5356 27.6217 18.5659 27.626 18.5962 27.6298L15.5275 18.467ZM20.5601 27.196L17.0857 16.8218L29.4602 14.8838L29.7778 16.2149L29.103 16.2149C28.0375 16.2149 27.052 16.7801 26.5138 17.6997L21.5578 26.1682C21.3076 26.5958 20.9625 26.9443 20.5601 27.196ZM27.6995 26.963C27.6995 24.641 29.1017 22.6465 31.1055 21.78L32.1536 26.1727C32.0029 26.399 31.9152 26.6708 31.9152 26.963C31.9152 27.752 32.5547 28.3915 33.3437 28.3915C34.1326 28.3915 34.7722 27.752 34.7722 26.963C34.7722 26.4564 34.5084 26.0113 34.1107 25.7577L33.0534 21.3262C33.1496 21.3213 33.2463 21.3189 33.3437 21.3189C36.4609 21.3189 38.9879 23.8458 38.9879 26.963C38.9879 30.0802 36.4609 32.6072 33.3437 32.6072C30.2265 32.6072 27.6995 30.0802 27.6995 26.963ZM11.5627 11.2101C11.5627 10.7704 11.9459 10.4289 12.3828 10.4793L17.8823 11.1138C18.0929 11.1381 18.2518 11.3164 18.2518 11.5284C18.2518 11.759 18.0649 11.9458 17.8344 11.9458H14.733H12.2984C11.8921 11.9458 11.5627 11.6165 11.5627 11.2101Z" fill="#5E6E7C"/>
</svg>
