<svg width="41" height="41" viewBox="0 0 41 41" fill="none" xmlns="http://www.w3.org/2000/svg">
<rect x="0.987793" y="0.751282" width="40" height="40" fill="white"/>
<path fill-rule="evenodd" clip-rule="evenodd" d="M4.37994 7.99583C4.37994 5.65073 6.28103 3.74964 8.62613 3.74964H31.5956C33.8048 3.74964 35.5956 5.54051 35.5956 7.74964V36.6705V37.667L34.5991 37.6705L11.8758 37.7496L10.8723 37.7531V36.7496V23.0626H5.37994H4.37994V22.0626V7.99583ZM8.62616 5.74964C9.86668 5.74966 10.8723 6.75531 10.8723 7.99583V21.0626H6.37994V7.99583C6.37994 6.7553 7.38563 5.74964 8.62616 5.74964ZM31.5956 5.74964H12.2302C12.6372 6.40119 12.8723 7.17105 12.8723 7.99583V17.4529L12.8723 35.7461L33.5956 35.6739V7.74964C33.5956 6.64507 32.7002 5.74964 31.5956 5.74964ZM16.4337 11.2194C16.4337 10.9433 16.6576 10.7194 16.9337 10.7194H20.262C20.5381 10.7194 20.762 10.9433 20.762 11.2194V12.2194C20.762 12.4955 20.5381 12.7194 20.262 12.7194H16.9337C16.6576 12.7194 16.4337 12.4955 16.4337 12.2194V11.2194ZM16.4337 15.5477C16.4337 15.2715 16.6576 15.0477 16.9337 15.0477H20.262C20.5381 15.0477 20.762 15.2715 20.762 15.5477V16.5477C20.762 16.8238 20.5381 17.0477 20.262 17.0477H16.9337C16.6576 17.0477 16.4337 16.8238 16.4337 16.5477V15.5477ZM23.4261 15.0477C23.1499 15.0477 22.9261 15.2715 22.9261 15.5477V16.5477C22.9261 16.8238 23.1499 17.0477 23.4261 17.0477H30.0005C30.2767 17.0477 30.5005 16.8238 30.5005 16.5477V15.5477C30.5005 15.2715 30.2767 15.0477 30.0005 15.0477H23.4261ZM16.4337 19.8759C16.4337 19.5998 16.6576 19.3759 16.9337 19.3759H20.262C20.5381 19.3759 20.762 19.5998 20.762 19.8759V20.8759C20.762 21.1521 20.5381 21.3759 20.262 21.3759H16.9337C16.6576 21.3759 16.4337 21.1521 16.4337 20.8759V19.8759ZM23.4261 19.3759C23.1499 19.3759 22.9261 19.5998 22.9261 19.8759V20.8759C22.9261 21.1521 23.1499 21.3759 23.4261 21.3759H30.0005C30.2767 21.3759 30.5005 21.1521 30.5005 20.8759V19.8759C30.5005 19.5998 30.2767 19.3759 30.0005 19.3759H23.4261ZM16.4337 24.2042C16.4337 23.928 16.6576 23.7042 16.9337 23.7042H20.262C20.5381 23.7042 20.762 23.928 20.762 24.2042V25.2042C20.762 25.4803 20.5381 25.7042 20.262 25.7042H16.9337C16.6576 25.7042 16.4337 25.4803 16.4337 25.2042V24.2042ZM26.6723 28.0324C26.3962 28.0324 26.1723 28.2562 26.1723 28.5324V29.5324C26.1723 29.8085 26.3962 30.0324 26.6723 30.0324H30.0005C30.2767 30.0324 30.5005 29.8085 30.5005 29.5324V28.5324C30.5005 28.2562 30.2767 28.0324 30.0005 28.0324H26.6723ZM22.9261 24.2042C22.9261 23.928 23.1499 23.7042 23.4261 23.7042H30.0005C30.2767 23.7042 30.5005 23.928 30.5005 24.2042V25.2042C30.5005 25.4803 30.2767 25.7042 30.0005 25.7042H23.4261C23.1499 25.7042 22.9261 25.4803 22.9261 25.2042V24.2042Z" fill="#5E6E7C"/>
</svg>
