<svg width="41" height="41" viewBox="0 0 41 41" fill="none" xmlns="http://www.w3.org/2000/svg">
<rect x="0.987793" y="0.751282" width="40" height="40" fill="white"/>
<path fill-rule="evenodd" clip-rule="evenodd" d="M6.98779 22.0938V9.28952C7.15319 9.19577 7.39074 9.07861 7.71392 8.95742C8.58429 8.63103 10.0877 8.27109 12.4878 8.27109C14.9063 8.27109 16.8209 9.27418 18.1552 10.3108C18.8208 10.8279 19.331 11.3454 19.6728 11.7311C19.8034 11.8785 19.9086 12.0059 19.9878 12.1054L19.9878 24.2313C19.8 24.0668 19.5981 23.8991 19.3822 23.7314C17.8204 22.518 15.485 21.2711 12.4878 21.2711C9.88793 21.2711 8.11742 21.6701 6.98779 22.0938ZM19.9878 27.1054C19.9086 27.0059 19.8034 26.8785 19.6728 26.7311C19.331 26.3454 18.8208 25.8279 18.1552 25.3108C16.8209 24.2742 14.9063 23.2711 12.4878 23.2711C10.0877 23.2711 8.58429 23.631 7.71392 23.9574C7.39074 24.0786 7.15319 24.1958 6.98779 24.2895V26.9513L19.9878 29.5513L19.9878 27.1054ZM21.9878 29.5513L21.9878 27.1054C22.067 27.0059 22.1722 26.8785 22.3028 26.7311C22.6445 26.3454 23.1548 25.8279 23.8204 25.3108C25.1547 24.2742 27.0693 23.2711 29.4878 23.2711C31.8879 23.2711 33.3913 23.631 34.2617 23.9574C34.5848 24.0786 34.8224 24.1958 34.9878 24.2895V26.9513L21.9878 29.5513ZM21.9878 24.2313L21.9878 12.1054C22.067 12.0058 22.1722 11.8785 22.3028 11.7311C22.6445 11.3454 23.1548 10.8279 23.8204 10.3108C25.1547 9.27418 27.0693 8.27109 29.4878 8.27109C31.8879 8.27109 33.3913 8.63103 34.2617 8.95742C34.5848 9.07861 34.8224 9.19577 34.9878 9.28952V22.0938C33.8582 21.6701 32.0877 21.2711 29.4878 21.2711C26.4906 21.2711 24.1552 22.518 22.5934 23.7314C22.3775 23.8991 22.1756 24.0668 21.9878 24.2313ZM4.98779 23.3569V11.2711L3.98779 11.2711V29.8513L20.7917 33.2121C20.9211 33.238 21.0544 33.238 21.1839 33.2121L37.9878 29.8513V11.7711H36.9878V23.3569V23.7711V27.7711V28.5909L36.1839 28.7517L21.1839 31.7517L20.9878 31.7909L20.7917 31.7517L5.79168 28.7517L4.98779 28.5909V27.7711V23.7711V23.3569ZM3.98779 9.27109H4.98779V8.77109V8.35687L5.28186 8.06281L5.28306 8.06161L5.28559 8.05911L5.29108 8.05372L5.30389 8.04141C5.31324 8.03254 5.32422 8.02235 5.3369 8.01095C5.36225 7.98813 5.39435 7.96046 5.43368 7.92869C5.51238 7.86513 5.61973 7.78541 5.75954 7.69553C6.03952 7.51554 6.44704 7.2965 7.01167 7.08476C8.1413 6.66115 9.88793 6.27109 12.4878 6.27109C15.485 6.27108 17.8204 7.51799 19.3822 8.7314C20.055 9.25411 20.5924 9.77652 20.9878 10.2039C21.3832 9.77652 21.9206 9.25411 22.5934 8.7314C24.1552 7.51799 26.4906 6.27108 29.4878 6.27109C32.0877 6.27109 33.8343 6.66115 34.9639 7.08476C35.5285 7.2965 35.9361 7.51554 36.216 7.69553C36.3559 7.78541 36.4632 7.86513 36.5419 7.92869C36.5812 7.96046 36.6133 7.98813 36.6387 8.01095C36.6514 8.02235 36.6623 8.03254 36.6717 8.04141L36.6845 8.05372L36.69 8.05911L36.6925 8.06161L36.6937 8.06281L36.9878 8.35687V8.77109V9.77109H37.9878C39.0924 9.77109 39.9878 10.6665 39.9878 11.7711V29.8513C39.9878 30.8046 39.3149 31.6255 38.38 31.8124L21.5761 35.1732C21.1878 35.2509 20.7878 35.2509 20.3994 35.1732L3.59556 31.8124C2.66071 31.6255 1.98779 30.8046 1.98779 29.8513V11.2711C1.98779 10.1665 2.88322 9.27109 3.98779 9.27109Z" fill="#5E6E7C"/>
</svg>
