<svg width="41" height="41" viewBox="0 0 41 41" fill="none" xmlns="http://www.w3.org/2000/svg">
<rect x="0.987793" y="0.751282" width="40" height="40" fill="white"/>
<path fill-rule="evenodd" clip-rule="evenodd" d="M4.95793 5.50886C4.82398 4.97307 4.28104 4.6473 3.74525 4.78125C3.20945 4.9152 2.88369 5.45814 3.01764 5.99393L4.95793 13.7551C4.97776 13.8344 4.98779 13.9158 4.98779 13.9976V16.2514V33.7514C4.98779 35.4082 6.33093 36.7514 7.98779 36.7514H33.9878C35.6446 36.7514 36.9878 35.4083 36.9878 33.7514V16.2514V13.9976C36.9878 13.9158 36.9978 13.8344 37.0176 13.7551L38.9579 5.99393C39.0919 5.45814 38.7661 4.9152 38.2303 4.78125C37.6945 4.64731 37.1516 4.97307 37.0176 5.50886L35.457 11.7514H32.9878V8.7514C32.9878 7.09454 31.6446 5.7514 29.9878 5.7514H11.9878C10.3309 5.7514 8.98779 7.09454 8.98779 8.7514V11.7514H6.51856L4.95793 5.50886ZM8.98779 13.7514H6.98779V13.9976V16.2514H8.98779V13.7514ZM10.9878 16.2514H30.9878V8.7514C30.9878 8.19911 30.5401 7.7514 29.9878 7.7514H11.9878C11.4355 7.7514 10.9878 8.19911 10.9878 8.7514V16.2514ZM32.9878 16.2514H34.9878V13.9976V13.7514H32.9878V16.2514ZM6.98779 18.2514V33.7514C6.98779 34.3037 7.4355 34.7514 7.98779 34.7514H15.9878V18.2514H6.98779ZM19.9878 34.7514H17.9878V18.2514H19.9878V34.7514ZM21.9878 34.7514H23.9878V18.2514H21.9878V34.7514ZM25.9878 34.7514V18.2514H34.9878V33.7514C34.9878 34.3037 34.5401 34.7514 33.9878 34.7514H25.9878ZM28.9878 22.2514C28.9878 21.9753 29.2116 21.7514 29.4878 21.7514H32.4878C32.7639 21.7514 32.9878 21.9753 32.9878 22.2514V23.2514C32.9878 23.5275 32.7639 23.7514 32.4878 23.7514H29.4878C29.2116 23.7514 28.9878 23.5275 28.9878 23.2514V22.2514Z" fill="#5E6E7C"/>
</svg>
