<svg width="41" height="41" viewBox="0 0 41 41" fill="none" xmlns="http://www.w3.org/2000/svg">
<rect x="0.987793" y="0.751282" width="40" height="40" fill="white"/>
<path fill-rule="evenodd" clip-rule="evenodd" d="M25.9878 8.25128H34.9878V33.2513H25.9878V8.25128ZM23.9878 8.25128H21.9878V33.2513H23.9878V8.25128ZM17.9878 8.25128H19.9878V33.2513H17.9878V8.25128ZM15.9878 33.2513V8.25128H6.98779V33.2513H15.9878ZM4.98779 8.25128C4.98779 7.1467 5.88324 6.25128 6.98779 6.25128H34.9878C36.0923 6.25128 36.9878 7.1467 36.9878 8.25128V33.2513C36.9878 34.3559 36.0923 35.2513 34.9878 35.2513H6.98779C5.88324 35.2513 4.98779 34.3559 4.98779 33.2513V8.25128ZM29.4878 10.2513C29.2117 10.2513 28.9878 10.4751 28.9878 10.7513V11.7513C28.9878 12.0274 29.2117 12.2513 29.4878 12.2513H32.4878C32.7639 12.2513 32.9878 12.0274 32.9878 11.7513V10.7513C32.9878 10.4751 32.7639 10.2513 32.4878 10.2513H29.4878Z" fill="#5E6E7C"/>
</svg>
