<svg width="41" height="41" viewBox="0 0 41 41" fill="none" xmlns="http://www.w3.org/2000/svg">
<rect x="0.987793" y="0.751282" width="40" height="40" fill="white"/>
<path fill-rule="evenodd" clip-rule="evenodd" d="M4.48779 34.7513C3.38324 34.7513 2.48779 33.8558 2.48779 32.7513V8.75128C2.48779 7.64673 3.38324 6.75128 4.48779 6.75128H14.4878H15.4878H33.4878C34.5923 6.75128 35.4878 7.6467 35.4878 8.75128V15.0476H37.4878C38.5923 15.0476 39.4878 15.943 39.4878 17.0476V32.7513C39.4878 33.8558 38.5923 34.7513 37.4878 34.7513H30.4878H29.4878H28.4878H18.4878H15.4878H14.4878H4.48779ZM28.4878 32.7513V17.0476H18.4878V32.7513H28.4878ZM28.4878 15.0476H29.4878H30.4878H33.4878V8.75128H25.4563V15.0476H28.4878ZM15.4878 8.75128H23.4563V15.0476H18.4878C17.3832 15.0476 16.4878 15.943 16.4878 17.0476V32.7513H15.4878H14.4878V8.75128H15.4878ZM30.4878 17.0476V32.7513H37.4878V17.0476H30.4878ZM4.48779 8.75128H12.4878V32.7513H4.48779V8.75128ZM20.5959 18.4193C20.3198 18.4193 20.0959 18.6432 20.0959 18.9193V19.9193C20.0959 20.1955 20.3198 20.4193 20.5959 20.4193H23.5959C23.872 20.4193 24.0959 20.1955 24.0959 19.9193V18.9193C24.0959 18.6432 23.872 18.4193 23.5959 18.4193H20.5959Z" fill="#5E6E7C"/>
</svg>
