<svg width="41" height="41" viewBox="0 0 41 41" fill="none" xmlns="http://www.w3.org/2000/svg">
<rect x="0.987793" y="0.751282" width="40" height="40" fill="white"/>
<path fill-rule="evenodd" clip-rule="evenodd" d="M10.7211 3.75128C9.06427 3.75128 7.72113 5.09442 7.72113 6.75128V34.7513C7.72113 36.4081 9.06427 37.7513 10.7211 37.7513H31.2545C32.9113 37.7513 34.2545 36.4081 34.2545 34.7513V6.75128C34.2545 5.09442 32.9113 3.75128 31.2545 3.75128H10.7211ZM9.72113 6.75128C9.72113 6.19901 10.1688 5.75128 10.7211 5.75128H31.2545C31.8068 5.75128 32.2545 6.19901 32.2545 6.75128V34.7513C32.2545 35.3036 31.8068 35.7513 31.2545 35.7513H10.7211C10.1688 35.7513 9.72113 35.3036 9.72113 34.7513V6.75128ZM12.8792 7.62048C12.3214 7.62048 11.8692 8.07269 11.8692 8.63049V14.3413C11.8692 14.8991 12.3215 15.3513 12.8792 15.3513H29.0965C29.6543 15.3513 30.1065 14.8991 30.1065 14.3413V8.63049C30.1065 8.07263 29.6542 7.62048 29.0965 7.62048H12.8792ZM13.8692 13.3513V9.62048H28.1064V13.3513H13.8692ZM12.4545 18.0513C12.4545 17.7751 12.6783 17.5513 12.9545 17.5513H16.2211C16.4973 17.5513 16.7211 17.7751 16.7211 18.0513V19.1846C16.7211 19.4608 16.4973 19.6846 16.2211 19.6846H12.9545C12.6783 19.6846 12.4545 19.4608 12.4545 19.1846V18.0513ZM25.7545 17.5513C25.4783 17.5513 25.2545 17.7751 25.2545 18.0513V19.1846C25.2545 19.4608 25.4783 19.6846 25.7545 19.6846H29.0211C29.2973 19.6846 29.5211 19.4608 29.5211 19.1846V18.0513C29.5211 17.7751 29.2973 17.5513 29.0211 17.5513H25.7545ZM18.8545 18.0513C18.8545 17.7751 19.0783 17.5513 19.3545 17.5513H22.6212C22.8973 17.5513 23.1212 17.7751 23.1212 18.0513V19.1846C23.1212 19.4608 22.8973 19.6846 22.6212 19.6846H19.3545C19.0783 19.6846 18.8545 19.4608 18.8545 19.1846V18.0513ZM12.9545 21.818C12.6783 21.818 12.4545 22.0418 12.4545 22.318V23.4513C12.4545 23.7274 12.6783 23.9513 12.9545 23.9513H16.2211C16.4973 23.9513 16.7211 23.7274 16.7211 23.4513V22.318C16.7211 22.0418 16.4973 21.818 16.2211 21.818H12.9545ZM25.2545 22.318C25.2545 22.0418 25.4783 21.818 25.7545 21.818H29.0211C29.2973 21.818 29.5211 22.0418 29.5211 22.318V23.4513C29.5211 23.7274 29.2973 23.9513 29.0211 23.9513H25.7545C25.4783 23.9513 25.2545 23.7274 25.2545 23.4513V22.318ZM19.3545 21.818C19.0783 21.818 18.8545 22.0418 18.8545 22.318V23.4513C18.8545 23.7274 19.0783 23.9513 19.3545 23.9513H22.6212C22.8973 23.9513 23.1212 23.7274 23.1212 23.4513V22.318C23.1212 22.0418 22.8973 21.818 22.6212 21.818H19.3545ZM12.4545 26.5846C12.4545 26.3085 12.6783 26.0846 12.9545 26.0846H16.2211C16.4973 26.0846 16.7211 26.3085 16.7211 26.5846V27.718C16.7211 27.9941 16.4973 28.218 16.2211 28.218H12.9545C12.6783 28.218 12.4545 27.9941 12.4545 27.718V26.5846ZM25.7545 26.0846C25.4783 26.0846 25.2545 26.3085 25.2545 26.5846V27.718C25.2545 27.9941 25.4783 28.218 25.7545 28.218H29.0211C29.2973 28.218 29.5211 27.9941 29.5211 27.718V26.5846C29.5211 26.3085 29.2973 26.0846 29.0211 26.0846H25.7545ZM25.2545 30.8513C25.2545 30.5751 25.4783 30.3513 25.7545 30.3513H29.0211C29.2973 30.3513 29.5211 30.5751 29.5211 30.8513V31.9846C29.5211 32.2608 29.2973 32.4846 29.0211 32.4846H25.7545C25.4783 32.4846 25.2545 32.2608 25.2545 31.9846V30.8513ZM19.3545 26.0846C19.0783 26.0846 18.8545 26.3085 18.8545 26.5846V27.718C18.8545 27.9941 19.0783 28.218 19.3545 28.218H22.6212C22.8973 28.218 23.1212 27.9941 23.1212 27.718V26.5846C23.1212 26.3085 22.8973 26.0846 22.6212 26.0846H19.3545Z" fill="#5E6E7C"/>
</svg>
