<svg width="41" height="41" viewBox="0 0 41 41" fill="none" xmlns="http://www.w3.org/2000/svg">
<rect x="0.987793" y="0.751282" width="40" height="40" fill="white"/>
<path fill-rule="evenodd" clip-rule="evenodd" d="M11.4878 6.75128C11.4878 6.19899 11.9355 5.75128 12.4878 5.75128C13.0401 5.75128 13.4878 6.19899 13.4878 6.75128H28.4878C28.4878 6.19899 28.9355 5.75128 29.4878 5.75128C30.0401 5.75128 30.4878 6.19899 30.4878 6.75128H33.9878C35.6447 6.75128 36.9878 8.09442 36.9878 9.75128V13.7513V14.7513V24.6107V32.7513C36.9878 34.4081 35.6447 35.7513 33.9878 35.7513H7.98779C6.33093 35.7513 4.98779 34.4081 4.98779 32.7513V24.6107V14.7513V13.7513V9.75128C4.98779 8.09442 6.33093 6.75128 7.98779 6.75128H11.4878ZM13.4878 8.75128H28.4878V10.1332C28.1809 10.4079 27.9878 10.807 27.9878 11.2513C27.9878 12.0797 28.6594 12.7513 29.4878 12.7513C30.3162 12.7513 30.9878 12.0797 30.9878 11.2513C30.9878 10.807 30.7947 10.4079 30.4878 10.1332V8.75128H33.9878C34.5401 8.75128 34.9878 9.19899 34.9878 9.75128V13.7513H6.98779V9.75128C6.98779 9.19899 7.43549 8.75128 7.98779 8.75128H11.4878V10.1332C11.1809 10.4079 10.9878 10.807 10.9878 11.2513C10.9878 12.0797 11.6594 12.7513 12.4878 12.7513C13.3162 12.7513 13.9878 12.0797 13.9878 11.2513C13.9878 10.807 13.7947 10.4079 13.4878 10.1332V8.75128ZM6.98779 15.7513V24.6107V32.7513C6.98779 33.3036 7.43549 33.7513 7.98779 33.7513H33.9878C34.5401 33.7513 34.9878 33.3036 34.9878 32.7513V24.6107V15.7513H6.98779ZM14.4878 18.7513C14.4878 18.4751 14.7117 18.2513 14.9878 18.2513H16.9878C17.2639 18.2513 17.4878 18.4751 17.4878 18.7513V20.7513C17.4878 21.0274 17.2639 21.2513 16.9878 21.2513H14.9878C14.7117 21.2513 14.4878 21.0274 14.4878 20.7513V18.7513ZM19.9878 18.2513C19.7117 18.2513 19.4878 18.4751 19.4878 18.7513V20.7513C19.4878 21.0274 19.7117 21.2513 19.9878 21.2513H21.9878C22.2639 21.2513 22.4878 21.0274 22.4878 20.7513V18.7513C22.4878 18.4751 22.2639 18.2513 21.9878 18.2513H19.9878ZM9.48779 23.7513C9.48779 23.4751 9.71167 23.2513 9.98779 23.2513H11.9878C12.2639 23.2513 12.4878 23.4751 12.4878 23.7513V25.7513C12.4878 26.0274 12.2639 26.2513 11.9878 26.2513H9.98779C9.71167 26.2513 9.48779 26.0274 9.48779 25.7513V23.7513ZM14.9878 23.2513C14.7117 23.2513 14.4878 23.4751 14.4878 23.7513V25.7513C14.4878 26.0274 14.7117 26.2513 14.9878 26.2513H16.9878C17.2639 26.2513 17.4878 26.0274 17.4878 25.7513V23.7513C17.4878 23.4751 17.2639 23.2513 16.9878 23.2513H14.9878ZM19.4878 23.7513C19.4878 23.4751 19.7117 23.2513 19.9878 23.2513H21.9878C22.2639 23.2513 22.4878 23.4751 22.4878 23.7513V25.7513C22.4878 26.0274 22.2639 26.2513 21.9878 26.2513H19.9878C19.7117 26.2513 19.4878 26.0274 19.4878 25.7513V23.7513ZM24.9878 23.2513C24.7116 23.2513 24.4878 23.4751 24.4878 23.7513V25.7513C24.4878 26.0274 24.7116 26.2513 24.9878 26.2513H26.9878C27.2639 26.2513 27.4878 26.0274 27.4878 25.7513V23.7513C27.4878 23.4751 27.2639 23.2513 26.9878 23.2513H24.9878ZM9.48779 28.7513C9.48779 28.4751 9.71167 28.2513 9.98779 28.2513H11.9878C12.2639 28.2513 12.4878 28.4751 12.4878 28.7513V30.7513C12.4878 31.0274 12.2639 31.2513 11.9878 31.2513H9.98779C9.71167 31.2513 9.48779 31.0274 9.48779 30.7513V28.7513ZM14.9878 28.2513C14.7117 28.2513 14.4878 28.4751 14.4878 28.7513V30.7513C14.4878 31.0274 14.7117 31.2513 14.9878 31.2513H16.9878C17.2639 31.2513 17.4878 31.0274 17.4878 30.7513V28.7513C17.4878 28.4751 17.2639 28.2513 16.9878 28.2513H14.9878ZM19.4878 28.7513C19.4878 28.4751 19.7117 28.2513 19.9878 28.2513H21.9878C22.2639 28.2513 22.4878 28.4751 22.4878 28.7513V30.7513C22.4878 31.0274 22.2639 31.2513 21.9878 31.2513H19.9878C19.7117 31.2513 19.4878 31.0274 19.4878 30.7513V28.7513ZM24.9878 18.2513C24.7116 18.2513 24.4878 18.4751 24.4878 18.7513V20.7513C24.4878 21.0274 24.7116 21.2513 24.9878 21.2513H26.9878C27.2639 21.2513 27.4878 21.0274 27.4878 20.7513V18.7513C27.4878 18.4751 27.2639 18.2513 26.9878 18.2513H24.9878ZM29.4878 18.7513C29.4878 18.4751 29.7116 18.2513 29.9878 18.2513H31.9878C32.2639 18.2513 32.4878 18.4751 32.4878 18.7513V20.7513C32.4878 21.0274 32.2639 21.2513 31.9878 21.2513H29.9878C29.7116 21.2513 29.4878 21.0274 29.4878 20.7513V18.7513ZM29.9878 23.2513C29.7116 23.2513 29.4878 23.4751 29.4878 23.7513V25.7513C29.4878 26.0274 29.7116 26.2513 29.9878 26.2513H31.9878C32.2639 26.2513 32.4878 26.0274 32.4878 25.7513V23.7513C32.4878 23.4751 32.2639 23.2513 31.9878 23.2513H29.9878Z" fill="#5E6E7C"/>
</svg>
