<svg width="41" height="41" viewBox="0 0 41 41" fill="none" xmlns="http://www.w3.org/2000/svg">
<rect x="0.987793" y="0.751343" width="40" height="40" fill="white"/>
<path fill-rule="evenodd" clip-rule="evenodd" d="M36.1918 18.7657C35.5565 11.8605 30.0547 6.35874 23.1495 5.7234C22.5995 5.6728 22.1947 5.18594 22.2453 4.63598C22.2959 4.08602 22.7828 3.68121 23.3327 3.73181C31.1977 4.45545 37.4597 10.7175 38.1834 18.5824C38.234 19.1324 37.8292 19.6193 37.2792 19.6699C36.7292 19.7205 36.2424 19.3156 36.1918 18.7657ZM5.08478 9.6772L5.08503 9.67696L8.56133 6.18586C9.73013 5.01209 11.6244 5.01242 12.7928 6.18659L18.3889 11.8103C19.5578 12.985 19.5575 14.8896 18.3883 16.064L15.7802 18.6836L22.7869 25.7249L25.3961 23.1042C26.5649 21.9303 28.4593 21.9305 29.6278 23.1048L35.2236 28.7283C36.3926 29.903 36.3923 31.8078 35.2229 32.9821L31.7478 36.472L31.7476 36.4722C30.6939 37.531 29.2875 37.8682 27.8094 37.754C26.3484 37.641 24.7378 37.0865 23.0995 36.2633C19.8159 34.6135 16.179 31.7607 12.9759 28.5418C9.7729 25.323 6.93405 21.6682 5.29227 18.3684C4.47313 16.722 3.92133 15.1034 3.80898 13.6352C3.69531 12.1496 4.03102 10.7362 5.08478 9.6772ZM6.4954 11.095L6.49527 11.0951C5.9708 11.6224 5.71465 12.3898 5.79818 13.4815C5.88305 14.5907 6.31762 15.946 7.07672 17.4718C8.59144 20.5163 11.2766 23.9987 14.3867 27.1241C17.4967 30.2495 20.9622 32.9479 23.9917 34.4701C25.5099 35.2329 26.8586 35.6696 27.9624 35.7549C29.0488 35.8389 29.8125 35.5814 30.3371 35.0543L30.3373 35.054L31.6387 33.7472L24.6322 26.7061L23.8446 27.4972C23.2602 28.0842 22.313 28.0841 21.7288 27.4969L14.0167 19.7468C13.4322 19.1594 13.4324 18.2071 14.017 17.6199L14.7712 16.8624L7.76423 9.82078L6.49551 11.0949L6.4954 11.095ZM26.0433 25.2888L33.0499 32.3299L33.8127 31.5639C34.2025 31.1725 34.2026 30.5376 33.8129 30.146L28.217 24.5225C27.8275 24.131 27.1961 24.131 26.8065 24.5223L26.0433 25.2888ZM16.978 14.6459L16.1823 15.4451L9.17543 8.40357L9.97157 7.60404C10.3612 7.21279 10.9926 7.2129 11.3821 7.60429L16.9781 13.228C17.3678 13.6196 17.3677 14.2545 16.978 14.6459ZM21.9636 14.4477C24.7617 14.8139 26.9826 17.0348 27.3488 19.8329C27.4205 20.3805 27.9225 20.7664 28.4702 20.6947C29.0178 20.623 29.4036 20.121 29.3319 19.5733C28.848 15.8766 25.9199 12.9485 22.2232 12.4646C21.6756 12.3929 21.1735 12.7787 21.1018 13.3264C21.0302 13.874 21.416 14.376 21.9636 14.4477ZM33.8534 19.0247C33.0991 13.2614 28.5399 8.70224 22.7766 7.94785C22.229 7.87617 21.7269 8.26199 21.6553 8.8096C21.5836 9.35721 21.9694 9.85925 22.517 9.93093C27.3816 10.5677 31.2336 14.4197 31.8704 19.2843C31.942 19.8319 32.4441 20.2177 32.9917 20.146C33.5393 20.0744 33.9251 19.5723 33.8534 19.0247Z" fill="#5E6E7C"/>
</svg>
