<svg width="41" height="41" viewBox="0 0 41 41" fill="none" xmlns="http://www.w3.org/2000/svg">
<rect x="0.987793" y="0.751343" width="40" height="40" fill="white"/>
<path fill-rule="evenodd" clip-rule="evenodd" d="M16.0659 6.75134C15.1348 6.75134 14.2565 7.18364 13.6885 7.92144L11.476 10.7958H5.73334C4.07648 10.7958 2.73334 12.1389 2.73334 13.7958V31.7513C2.73334 33.4082 4.07648 34.7513 5.73334 34.7513H36.2422C37.8991 34.7513 39.2422 33.4082 39.2422 31.7513V13.7958C39.2422 12.1389 37.8991 10.7958 36.2422 10.7958H30.4038L28.1913 7.92144C27.6234 7.18364 26.7451 6.75134 25.814 6.75134H16.0659ZM15.2734 9.14137C15.4627 8.89544 15.7555 8.75134 16.0659 8.75134H25.814C26.1244 8.75134 26.4171 8.89544 26.6064 9.14137L29.1192 12.4058L29.4194 12.7958H29.9116H36.2422C36.7946 12.7958 37.2422 13.2435 37.2422 13.7958V31.7513C37.2422 32.3036 36.7946 32.7513 36.2422 32.7513H5.73334C5.18103 32.7513 4.73334 32.3036 4.73334 31.7513V13.7958C4.73334 13.2435 5.18103 12.7958 5.73334 12.7958H11.9682H12.4604L12.7607 12.4058L15.2734 9.14137ZM16.4965 21.8859C16.4965 19.4006 18.5112 17.3859 20.9965 17.3859C23.4818 17.3859 25.4965 19.4006 25.4965 21.8859C25.4965 24.3711 23.4818 26.3859 20.9965 26.3859C18.5112 26.3859 16.4965 24.3711 16.4965 21.8859ZM20.9965 15.3859C17.4067 15.3859 14.4965 18.296 14.4965 21.8859C14.4965 25.4757 17.4067 28.3859 20.9965 28.3859C24.5864 28.3859 27.4965 25.4757 27.4965 21.8859C27.4965 18.296 24.5864 15.3859 20.9965 15.3859ZM20.9965 13.894C16.5782 13.894 12.9965 17.4757 12.9965 21.894C12.9965 26.3122 16.5782 29.894 20.9965 29.894C25.4148 29.894 28.9965 26.3122 28.9965 21.894C28.9965 17.4757 25.4148 13.894 20.9965 13.894ZM10.9965 21.894C10.9965 16.3711 15.4737 11.894 20.9965 11.894C26.5193 11.894 30.9965 16.3711 30.9965 21.894C30.9965 27.4168 26.5193 31.894 20.9965 31.894C15.4737 31.894 10.9965 27.4168 10.9965 21.894ZM31.9965 14.7513C31.7204 14.7513 31.4965 14.9752 31.4965 15.2513V16.2513C31.4965 16.5275 31.7204 16.7513 31.9965 16.7513H34.9965C35.2726 16.7513 35.4965 16.5275 35.4965 16.2513V15.2513C35.4965 14.9752 35.2726 14.7513 34.9965 14.7513H31.9965Z" fill="#5E6E7C"/>
</svg>
