<svg width="41" height="41" viewBox="0 0 41 41" fill="none" xmlns="http://www.w3.org/2000/svg">
<rect x="0.987793" y="0.751282" width="40" height="40" fill="white"/>
<path fill-rule="evenodd" clip-rule="evenodd" d="M26.7404 4.99913C29.1076 6.7452 30.7021 9.39408 30.7021 12.8842C30.7021 13.6849 30.8602 14.1926 31.0692 14.5276C31.2724 14.8533 31.5767 15.101 32.0334 15.2905C33.016 15.6982 34.4702 15.7559 36.4105 15.7572H36.7219C38.21 15.7572 39.4163 16.9636 39.4163 18.4517C39.4163 19.283 39.0398 20.0264 38.448 20.5207V34.2953C39.0398 34.7896 39.4163 35.533 39.4163 36.3643C39.4163 37.8524 38.21 39.0588 36.7219 39.0588H5.25371C3.76561 39.0588 2.55927 37.8524 2.55927 36.3643C2.55927 35.533 2.93574 34.7896 3.52749 34.2954V20.5206C2.93574 20.0264 2.55927 19.283 2.55927 18.4517C2.55927 16.9636 3.7656 15.7572 5.2537 15.7572H6.69949C6.14385 14.9239 5.94816 13.9188 5.94816 12.8842C5.94816 9.39408 7.5426 6.74521 9.90987 4.99914C12.2482 3.27441 15.3126 2.44379 18.3251 2.44379C21.3377 2.44378 24.402 3.27441 26.7404 4.99913ZM36.3864 17.7572L36.4798 17.7572L36.7219 17.7572C37.1054 17.7572 37.4163 18.0681 37.4163 18.4517C37.4163 18.8352 37.1054 19.1461 36.7219 19.1461H5.25371C4.87018 19.1461 4.55927 18.8352 4.55927 18.4517C4.55927 18.0681 4.87018 17.7572 5.2537 17.7572H25.4549L25.5422 17.7572H25.5441V17.7572H30.7164L30.8015 17.7572L36.3864 17.7572ZM25.1732 14.1125C25.1732 14.7169 25.2679 15.2703 25.484 15.7572C25.1529 15.7567 24.8759 15.7519 24.6362 15.7305C24.3787 15.7075 24.2225 15.6696 24.1309 15.6316C24.0897 15.6145 24.0717 15.6014 24.0667 15.5974L24.0645 15.5956L24.0645 15.5955L24.0644 15.5954C24.0638 15.5944 24.0543 15.5792 24.0444 15.5385C24.0339 15.4955 24.0231 15.4247 24.0231 15.3167C24.0231 13.8029 23.3219 12.6363 22.2944 11.8785C21.2958 11.1419 20.0177 10.8054 18.7916 10.8054C17.5654 10.8054 16.2873 11.1419 15.2888 11.8785C14.2612 12.6363 13.56 13.8029 13.56 15.3167C13.56 15.4687 13.5741 15.6158 13.6012 15.7572H13.505V15.7563C12.4061 15.7563 12.0418 15.5175 11.9081 15.3707C11.7587 15.2068 11.6352 14.8812 11.6352 14.1125C11.6352 12.307 12.434 10.9841 13.6566 10.0823C14.9081 9.15917 16.6303 8.66587 18.4042 8.66586C20.1782 8.66586 21.9003 9.15916 23.1518 10.0823C24.3744 10.9841 25.1732 12.307 25.1732 14.1125ZM16.6855 15.7567V15.7572H22.0527C22.0323 15.6126 22.0231 15.4652 22.0231 15.3167C22.0231 14.4896 21.6665 13.9005 21.1072 13.488C20.5189 13.0541 19.6811 12.8054 18.7916 12.8054C17.902 12.8054 17.0642 13.0541 16.4759 13.488C15.9166 13.9005 15.56 14.4896 15.56 15.3167C15.56 15.4058 15.5808 15.4651 15.693 15.5412C15.8416 15.6419 16.1549 15.7567 16.6855 15.7567ZM29.4682 15.7322C29.4354 15.6847 29.4035 15.6361 29.3724 15.5864C28.9109 14.8468 28.7021 13.9414 28.7021 12.8842C28.7021 10.0808 27.4523 8.00941 25.5532 6.60867C23.6252 5.18657 21.0011 4.44379 18.3251 4.44379C15.6492 4.44379 13.0251 5.18658 11.097 6.60867C9.19797 8.00942 7.94816 10.0808 7.94816 12.8842C7.94816 13.9246 8.20073 14.5683 8.64561 14.9763C8.89527 15.2053 9.26219 15.4129 9.80268 15.5562C9.66697 15.0746 9.63521 14.5736 9.63521 14.1125C9.63521 11.6203 10.7786 9.71986 12.4694 8.47275C14.1313 7.247 16.2937 6.66587 18.4042 6.66586C20.5148 6.66586 22.6771 7.247 24.339 8.47275C26.0298 9.71985 27.1732 11.6203 27.1732 14.1125C27.1732 14.6186 27.2731 14.9022 27.3758 15.0668C27.4727 15.2221 27.6226 15.3531 27.8867 15.4627C28.2729 15.623 28.792 15.6984 29.4682 15.7322ZM5.52749 21.1461V33.6699H36.448V21.1461H5.52749ZM5.25371 37.0588C4.87018 37.0588 4.55927 36.7479 4.55927 36.3643C4.55927 35.9808 4.87018 35.6699 5.2537 35.6699H36.7219C37.1054 35.6699 37.4163 35.9808 37.4163 36.3643C37.4163 36.7479 37.1054 37.0588 36.7219 37.0588H5.25371ZM14.5401 30.6245C14.7954 30.3762 15.6732 29.544 16.8674 28.6371C18.6088 29.8056 20.8803 30.9894 23.0529 30.9894C24.8829 30.9894 26.3748 30.2284 27.3772 29.5124C27.8827 29.1514 28.2794 28.7908 28.5518 28.5184C28.6884 28.3818 28.795 28.2661 28.8695 28.1819C28.9069 28.1398 28.9363 28.1055 28.9575 28.0802L28.9832 28.0492L28.9915 28.0391L28.9944 28.0354L28.9956 28.0339L28.9961 28.0333C28.9964 28.033 28.9966 28.0327 28.2157 27.408L28.9966 28.0327L29.4964 27.408L28.9966 26.7833L28.2157 27.408C28.9966 26.7833 28.9964 26.783 28.9961 26.7827L28.9956 26.7821L28.9944 26.7806L28.9915 26.7769L28.9832 26.7668L28.9575 26.7358C28.9363 26.7105 28.9069 26.6762 28.8695 26.634C28.795 26.5498 28.6884 26.4342 28.5518 26.2975C28.2794 26.0252 27.8827 25.6646 27.3772 25.3035C26.3748 24.5876 24.8829 23.8266 23.0529 23.8266C20.8803 23.8266 18.6088 25.0104 16.8674 26.1789C15.6732 25.272 14.7954 24.4398 14.5401 24.1915C14.1931 23.854 13.7105 23.8266 13.3534 23.9996C13.0112 24.1654 12.7597 24.5208 12.7597 24.9476V29.8684C12.7597 30.2952 13.0112 30.6506 13.3534 30.8164C13.7105 30.9893 14.1931 30.962 14.5401 30.6245ZM23.0529 28.9894C21.7083 28.9894 20.1384 28.3184 18.6539 27.408C20.1384 26.4975 21.7083 25.8266 23.0529 25.8266C24.3206 25.8266 25.4101 26.3563 26.2147 26.931C26.4436 27.0945 26.6444 27.2582 26.814 27.408C26.6444 27.5578 26.4436 27.7215 26.2147 27.885C25.4101 28.4597 24.3206 28.9894 23.0529 28.9894ZM15.1894 27.408C15.04 27.5265 14.8965 27.6426 14.7597 27.7554V27.0606C14.8965 27.1734 15.04 27.2895 15.1894 27.408Z" fill="#5E6E7C"/>
</svg>
