<svg width="41" height="41" viewBox="0 0 41 41" fill="none" xmlns="http://www.w3.org/2000/svg">
<rect x="0.987793" y="0.751282" width="40" height="40" fill="white"/>
<path fill-rule="evenodd" clip-rule="evenodd" d="M5.98779 3.75128C4.88324 3.75128 3.98779 4.64671 3.98779 5.75128V12.0093C3.98779 13.1139 4.88324 14.0093 5.98779 14.0093H8.11682V15.1061H6.98779C5.33093 15.1061 3.98779 16.4493 3.98779 18.1061V30.5255V35.7513C3.98779 36.8559 4.88324 37.7513 5.98779 37.7513H35.9878C37.0923 37.7513 37.9878 36.8559 37.9878 35.7513V30.5255V18.1061C37.9878 16.4493 36.6447 15.1061 34.9878 15.1061H16.3104V14.0093H18.4394C19.5439 14.0093 20.4394 13.1139 20.4394 12.0093V5.75128C20.4394 4.64671 19.5439 3.75128 18.4394 3.75128H5.98779ZM14.3104 14.0093V15.1061H10.1168V14.0093H14.3104ZM5.98779 12.0093V5.75128H18.4394V12.0093H5.98779ZM35.9878 18.1061V28.5255H5.98779V18.1061C5.98779 17.5538 6.43549 17.1061 6.98779 17.1061H34.9878C35.5401 17.1061 35.9878 17.5538 35.9878 18.1061ZM5.98779 35.7513V30.5255H35.9878V35.7513H5.98779ZM8.08459 8.34805C8.08459 8.07191 8.30841 7.84805 8.58459 7.84805H15.8427C16.1188 7.84805 16.3427 8.07191 16.3427 8.34805V9.41257C16.3427 9.68872 16.1188 9.91257 15.8427 9.91257H8.58459C8.30841 9.91257 8.08459 9.68872 8.08459 9.41257V8.34805ZM16.3427 31.8679V32.9163C16.3427 33.7715 17.0359 34.4647 17.891 34.4647H23.0523C23.9075 34.4647 24.6007 33.7715 24.6007 32.9163V31.8679C24.6007 31.5918 24.3768 31.3679 24.1007 31.3679H23.0362C22.76 31.3679 22.5362 31.5918 22.5362 31.8679V32.4002H18.4072V31.8679C18.4072 31.5918 18.1833 31.3679 17.9072 31.3679H16.8427C16.5665 31.3679 16.3427 31.5918 16.3427 31.8679ZM19.4394 20.3179C19.4394 20.0417 19.6633 19.8179 19.9394 19.8179H22.0362C22.3123 19.8179 22.5362 20.0417 22.5362 20.3179V21.3824C22.5362 21.6585 22.3123 21.8824 22.0362 21.8824H19.9394C19.6633 21.8824 19.4394 21.6585 19.4394 21.3824V20.3179ZM30.262 19.8179C29.9858 19.8179 29.762 20.0417 29.762 20.3179V21.3824C29.762 21.6585 29.9858 21.8824 30.262 21.8824H32.3588C32.6349 21.8824 32.8588 21.6585 32.8588 21.3824V20.3179C32.8588 20.0417 32.6349 19.8179 32.3588 19.8179H30.262ZM24.6007 20.3179C24.6007 20.0417 24.8245 19.8179 25.1007 19.8179H27.1974C27.4736 19.8179 27.6974 20.0417 27.6974 20.3179V21.3824C27.6974 21.6585 27.4736 21.8824 27.1974 21.8824H25.1007C24.8245 21.8824 24.6007 21.6585 24.6007 21.3824V20.3179ZM19.9394 23.4145C19.6633 23.4145 19.4394 23.6384 19.4394 23.9145V24.979C19.4394 25.2552 19.6633 25.479 19.9394 25.479H22.0362C22.3123 25.479 22.5362 25.2552 22.5362 24.979V23.9145C22.5362 23.6384 22.3123 23.4145 22.0362 23.4145H19.9394ZM29.762 23.9145C29.762 23.6384 29.9858 23.4145 30.262 23.4145H32.3588C32.6349 23.4145 32.8588 23.6384 32.8588 23.9145V24.979C32.8588 25.2552 32.6349 25.479 32.3588 25.479H30.262C29.9858 25.479 29.762 25.2552 29.762 24.979V23.9145ZM25.1007 23.4145C24.8245 23.4145 24.6007 23.6384 24.6007 23.9145V24.979C24.6007 25.2552 24.8245 25.479 25.1007 25.479H27.1974C27.4736 25.479 27.6974 25.2552 27.6974 24.979V23.9145C27.6974 23.6384 27.4736 23.4145 27.1974 23.4145H25.1007Z" fill="#5E6E7C"/>
</svg>
