<svg width="41" height="41" viewBox="0 0 41 41" fill="none" xmlns="http://www.w3.org/2000/svg">
<rect x="0.987793" y="0.751282" width="40" height="40" fill="white"/>
<path fill-rule="evenodd" clip-rule="evenodd" d="M16.6577 6.21222C18.5822 2.87889 23.3935 2.87889 25.318 6.21222L38.3898 28.8532C40.3143 32.1866 37.9086 36.3532 34.0596 36.3532H7.91603C4.06703 36.3532 1.6614 32.1866 3.5859 28.8532L16.6577 6.21222ZM23.5859 7.21222C22.4312 5.21222 19.5444 5.21222 18.3897 7.21222L5.31795 29.8532C4.16325 31.8532 5.60663 34.3532 7.91603 34.3532H34.0596C36.369 34.3532 37.8124 31.8532 36.6577 29.8532L23.5859 7.21222ZM18.0223 14.9605C18.0223 14.1321 18.6939 13.4605 19.5223 13.4605H22.4533C23.2818 13.4605 23.9533 14.1321 23.9533 14.9605V23.4923C23.9533 24.3207 23.2818 24.9923 22.4533 24.9923H19.5223C18.6939 24.9923 18.0223 24.3207 18.0223 23.4923V14.9605ZM20.0223 15.4605V22.9923H21.9533V15.4605H20.0223ZM19.5223 31.6582C18.6939 31.6582 18.0223 30.9866 18.0223 30.1582V27.2272C18.0223 26.3987 18.6939 25.7272 19.5223 25.7272H22.4533C23.2817 25.7272 23.9533 26.3987 23.9533 27.2272V30.1582C23.9533 30.9866 23.2817 31.6582 22.4533 31.6582H19.5223ZM20.0223 27.7272V29.6582H21.9533V27.7272H20.0223Z" fill="#5E6E7C"/>
</svg>
