<svg width="41" height="41" viewBox="0 0 41 41" fill="none" xmlns="http://www.w3.org/2000/svg">
<rect x="0.987793" y="0.751282" width="40" height="40" fill="white"/>
<path fill-rule="evenodd" clip-rule="evenodd" d="M8.98779 6.5567C6.22637 6.5567 3.98779 8.79528 3.98779 11.5567V25.5567C3.98779 28.3181 6.22637 30.5567 8.98779 30.5567H9.78958L9.00392 34.8778L8.62791 36.9459L10.4697 35.9329L20.2446 30.5567H32.9878C35.7492 30.5567 37.9878 28.3181 37.9878 25.5567V11.5567C37.9878 8.79528 35.7492 6.5567 32.9878 6.5567H8.98779ZM5.98779 11.5567C5.98779 9.89985 7.33094 8.5567 8.98779 8.5567H32.9878C34.6446 8.5567 35.9878 9.89985 35.9878 11.5567V25.5567C35.9878 27.2136 34.6446 28.5567 32.9878 28.5567H19.9878H19.7309L19.5059 28.6805L11.3477 33.1675L11.9717 29.7356L12.186 28.5567H10.9878H8.98779C7.33094 28.5567 5.98779 27.2136 5.98779 25.5567V11.5567ZM29.356 15.6611C29.356 15.385 29.1322 15.1611 28.856 15.1611H13.1196C12.8434 15.1611 12.6196 15.385 12.6196 15.6611V16.6611C12.6196 16.9373 12.8434 17.1611 13.1196 17.1611H28.856C29.1322 17.1611 29.356 16.9373 29.356 16.6611V15.6611ZM13.1196 19.7937C12.8434 19.7937 12.6196 20.0175 12.6196 20.2937V21.2937C12.6196 21.5698 12.8434 21.7937 13.1196 21.7937H22.5798C22.856 21.7937 23.0798 21.5698 23.0798 21.2937V20.2937C23.0798 20.0175 22.856 19.7937 22.5798 19.7937H13.1196ZM25.6719 19.7937C25.3957 19.7937 25.1719 20.0175 25.1719 20.2937V21.2937C25.1719 21.5698 25.3957 21.7937 25.6719 21.7937H28.856C29.1321 21.7937 29.356 21.5698 29.356 21.2937V20.2937C29.356 20.0175 29.1321 19.7937 28.856 19.7937H25.6719Z" fill="#5E6E7C"/>
</svg>
