<svg width="41" height="41" viewBox="0 0 41 41" fill="none" xmlns="http://www.w3.org/2000/svg">
<rect x="0.987793" y="0.751282" width="40" height="40" fill="white"/>
<path fill-rule="evenodd" clip-rule="evenodd" d="M5.70837 18.9565C5.70837 13.1212 12.0356 7.57001 20.9878 7.57001C29.94 7.57001 36.2672 13.1212 36.2672 18.9565C36.2672 24.7917 29.94 30.3429 20.9878 30.3429C19.8035 30.3429 18.6529 30.2417 17.5495 30.051L17.269 30.0025L17.0055 29.9569L16.7545 30.0489L10.0704 32.4983L11.5382 28.8959L11.8378 28.1605L11.1894 27.702L10.4987 27.2137C7.4365 25.0488 5.70837 22.0807 5.70837 18.9565ZM20.9878 5.57001C11.4228 5.57001 3.70837 11.582 3.70837 18.9565C3.70837 22.8696 5.87702 26.3956 9.3441 28.8468L9.38635 28.8767L7.36493 33.8381L6.5116 35.9325L8.63509 35.1544L17.1917 32.0188L17.2089 32.0217C18.4251 32.232 19.6897 32.3429 20.9878 32.3429C30.5528 32.3429 38.2672 26.3309 38.2672 18.9565C38.2672 11.582 30.5528 5.57001 20.9878 5.57001ZM13.2065 20.0606C12.9303 20.0606 12.7065 20.2845 12.7065 20.5606V21.5606C12.7065 21.8368 12.9303 22.0606 13.2065 22.0606H22.6668C22.9429 22.0606 23.1668 21.8368 23.1668 21.5606V20.5606C23.1668 20.2845 22.9429 20.0606 22.6668 20.0606H13.2065ZM25.2588 20.5606C25.2588 20.2845 25.4826 20.0606 25.7588 20.0606H28.9429C29.219 20.0606 29.4429 20.2845 29.4429 20.5606V21.5606C29.4429 21.8368 29.219 22.0606 28.9429 22.0606H25.7588C25.4826 22.0606 25.2588 21.8368 25.2588 21.5606V20.5606ZM28.9429 15.4281C29.2191 15.4281 29.4429 15.652 29.4429 15.9281V16.9281C29.4429 17.2043 29.2191 17.4281 28.9429 17.4281H13.2065C12.9304 17.4281 12.7065 17.2043 12.7065 16.9281V15.9281C12.7065 15.652 12.9304 15.4281 13.2065 15.4281H28.9429Z" fill="#5E6E7C"/>
</svg>
