<svg width="41" height="41" viewBox="0 0 41 41" fill="none" xmlns="http://www.w3.org/2000/svg">
<rect x="0.987793" y="0.751282" width="40" height="40" fill="white"/>
<path fill-rule="evenodd" clip-rule="evenodd" d="M38.7371 7.20561C39.0086 7.40294 39.0688 7.78304 38.8715 8.05461L35.3639 12.8821L34.3804 12.1675L37.8881 7.34004C38.0854 7.06847 38.4655 7.00829 38.7371 7.20561ZM33.2048 13.7855L34.1882 14.5001L28.4943 22.3365C28.4739 22.3645 28.4534 22.3925 28.4327 22.4204L27.4501 21.7064C27.4702 21.6781 27.4905 21.65 27.5109 21.6219L33.2048 13.7855ZM26.4384 23.4435C26.2195 23.9134 26.0338 24.3989 25.883 24.8964C26.3096 24.5992 26.7139 24.2726 27.0932 23.9193L26.4384 23.4435ZM40.4895 9.23024C41.3361 8.06508 41.0778 6.43422 39.9127 5.5876C38.7479 4.74132 37.1178 4.99907 36.2709 6.16313C35.4221 5.77172 34.3876 6.01995 33.8173 6.80495L31.4547 10.0564H4.7326C3.62805 10.0564 2.7326 10.9519 2.7326 12.0564V33.0564C2.7326 34.161 3.62805 35.0564 4.7326 35.0564H34.7326C35.8372 35.0564 36.7326 34.161 36.7326 33.0564V14.4008L40.4895 9.23024ZM34.7326 17.1533V33.0564H4.7326V16.0564H29.0825L25.8929 20.4463C24.9766 21.7074 24.2946 23.123 23.8794 24.6256L23.2748 26.8133C23.0165 27.7485 24.056 28.5038 24.8656 27.9691L26.7596 26.7183C28.0604 25.8592 29.196 24.7732 30.1123 23.5121L34.7326 17.1533ZM29.9682 14.0564C29.7362 13.4165 29.7576 12.6951 30.0585 12.0564H4.7326V14.0564H29.9682ZM8.2326 18.9971C7.95648 18.9971 7.7326 19.221 7.7326 19.4971V20.4971C7.7326 20.7733 7.95648 20.9971 8.2326 20.9971H11.2326C11.5087 20.9971 11.7326 20.7733 11.7326 20.4971V19.4971C11.7326 19.221 11.5087 18.9971 11.2326 18.9971H8.2326ZM7.7326 23.4971C7.7326 23.221 7.95648 22.9971 8.2326 22.9971H14.2326C14.5087 22.9971 14.7326 23.221 14.7326 23.4971V24.4971C14.7326 24.7733 14.5087 24.9971 14.2326 24.9971H8.2326C7.95648 24.9971 7.7326 24.7733 7.7326 24.4971V23.4971ZM17.2326 28.9971C16.9565 28.9971 16.7326 29.221 16.7326 29.4971V30.4971C16.7326 30.7733 16.9565 30.9971 17.2326 30.9971H32.2326C32.5087 30.9971 32.7326 30.7733 32.7326 30.4971V29.4971C32.7326 29.221 32.5087 28.9971 32.2326 28.9971H17.2326Z" fill="#5E6E7C"/>
</svg>
