<svg width="41" height="41" viewBox="0 0 41 41" fill="none" xmlns="http://www.w3.org/2000/svg">
<rect x="0.987793" y="0.751282" width="40" height="40" fill="white"/>
<path fill-rule="evenodd" clip-rule="evenodd" d="M26.4511 6.65045C26.3777 6.17309 26.49 5.85544 26.6465 5.64243C26.814 5.41463 27.0853 5.23646 27.4238 5.15304C28.1284 4.9794 28.8349 5.25459 29.1256 5.89541L29.6708 7.09748L30.6804 6.24726C31.3951 5.64545 32.2803 5.80438 32.8341 6.4373C33.1058 6.74787 33.2723 7.15711 33.2623 7.61631C33.2572 7.84985 33.2058 8.1164 33.0801 8.40686C32.1713 7.76857 31.0658 7.39683 29.8813 7.39683C27.5726 7.39683 25.5919 8.8017 24.7476 10.8032C23.7547 10.4496 23.44 9.66067 23.4933 9.02473C23.5275 8.61727 23.7086 8.26694 23.98 8.04535C24.2351 7.83693 24.649 7.67759 25.2938 7.78804L26.662 8.02239L26.4511 6.65045ZM24.3156 12.7648C22.3207 12.1702 21.3639 10.4857 21.5003 8.85769C21.5747 7.96998 21.9791 7.09718 22.7149 6.4963C23.2033 6.09737 23.8028 5.84682 24.4781 5.77425C24.563 5.28449 24.7539 4.84034 25.0351 4.45791C25.5175 3.80161 26.2179 3.3904 26.9453 3.21114C28.0672 2.93465 29.4208 3.18844 30.3238 4.13734C31.7955 3.50692 33.3925 4.03818 34.3393 5.12037C34.9205 5.78469 35.2834 6.67275 35.2618 7.65992C35.2455 8.41032 35.0085 9.1749 34.5364 9.90752C35.0049 10.6195 35.3155 11.4482 35.4161 12.3467L35.5037 13.1291L37.2093 13.7171C38.3346 14.1051 38.5815 15.5862 37.6428 16.3181L36.0037 17.5962L36.7149 23.9508C37.5772 31.655 31.5479 38.3968 23.7956 38.3968H16.7546C9.57494 38.3968 3.75464 32.5765 3.75464 25.3968V16.1561C3.75464 14.9865 5.03364 14.2669 6.03327 14.874L7.89766 16.0063C8.05413 16.1013 8.23369 16.1515 8.41675 16.1515H9.75732C9.75554 16.0886 9.75464 16.0255 9.75464 15.9621C9.75464 12.3362 12.694 9.39683 16.3199 9.39683C19.9459 9.39683 22.8852 12.3362 22.8852 15.9621C22.8852 16.0255 22.8843 16.0886 22.8826 16.1515H24.312V12.9661C24.312 12.8987 24.3132 12.8316 24.3156 12.7648ZM10.1288 18.1515H8.41675C7.86756 18.1515 7.3289 18.0008 6.85949 17.7157L5.75464 17.0447V24.4159L19.4575 28.9423C23.2437 30.193 26.8988 26.7259 25.8496 22.8791L24.5603 18.1515H22.5111C22.356 18.5899 22.1558 19.0069 21.916 19.3968H23.2546C23.5308 19.3968 23.7546 19.6207 23.7546 19.8968L23.7546 20.8968C23.7546 21.173 23.5308 21.3968 23.2546 21.3968L9.25464 21.3968C8.9785 21.3968 8.75464 21.173 8.75464 20.8968V19.8968C8.75464 19.6207 8.9785 19.3968 9.25464 19.3968H10.7239C10.4841 19.0069 10.2838 18.5899 10.1288 18.1515ZM20.8852 15.9621C20.8852 17.331 20.2839 18.5587 19.3275 19.3968L13.3124 19.3968C12.356 18.5587 11.7546 17.331 11.7546 15.9621C11.7546 13.4408 13.7986 11.3968 16.3199 11.3968C18.8413 11.3968 20.8852 13.4408 20.8852 15.9621ZM27.7792 22.3528L26.2679 16.8117C26.2968 16.6864 26.312 16.556 26.312 16.422V12.9661C26.312 10.9949 27.9101 9.39683 29.8813 9.39683C31.699 9.39683 33.2263 10.7628 33.4285 12.5691L33.5864 13.9798L33.6567 14.6079L34.2543 14.8139L35.6863 15.3076L34.3328 16.3629L33.8916 16.7069L33.9539 17.2628L34.7273 24.1733C35.457 30.6922 30.3553 36.3968 23.7956 36.3968H16.7546C11.0661 36.3968 6.3861 32.0788 5.8135 26.5417L18.8302 30.8414C24.1308 32.5923 29.2479 27.7384 27.7792 22.3528ZM31.7546 14.8469C32.3069 14.8469 32.7546 14.3992 32.7546 13.8469C32.7546 13.2946 32.3069 12.8469 31.7546 12.8469C31.2024 12.8469 30.7546 13.2946 30.7546 13.8469C30.7546 14.3992 31.2024 14.8469 31.7546 14.8469Z" fill="#5E6E7C"/>
</svg>
