<svg width="41" height="41" viewBox="0 0 41 41" fill="none" xmlns="http://www.w3.org/2000/svg">
<rect x="0.987793" y="0.751343" width="40" height="40" fill="white"/>
<path fill-rule="evenodd" clip-rule="evenodd" d="M13.4102 4.75134C13.4102 3.78484 14.1937 3.00134 15.1602 3.00134H29.4102V6.50134H26.4102C25.104 6.50134 23.9928 7.33615 23.5809 8.50134H18.4102V8.21563C18.4102 7.26885 17.6427 6.50134 16.6959 6.50134H15.1602C14.1937 6.50134 13.4102 5.71784 13.4102 4.75134ZM16.4102 8.50134H15.1602C13.0891 8.50134 11.4102 6.82241 11.4102 4.75134C11.4102 2.68027 13.0891 1.00134 15.1602 1.00134H29.4102C29.9599 1.00134 30.4577 1.22307 30.8192 1.58195L33.1696 2.32689C34.0007 2.59028 34.5654 3.36164 34.5654 4.23343V5.26926C34.5654 6.14105 34.0007 6.9124 33.1696 7.17579L30.8192 7.92073C30.4577 8.27962 29.9599 8.50134 29.4102 8.50134H28.2441C28.2436 8.51003 28.243 8.51992 28.2425 8.53096C28.2396 8.58675 28.2363 8.67142 28.2352 8.77831C28.2329 8.99349 28.2397 9.29136 28.2749 9.62074C28.3501 10.3228 28.5366 10.9849 28.8653 11.3764C29.4234 12.0413 29.967 12.4568 30.3568 12.7015C30.5519 12.824 30.7087 12.9038 30.8093 12.9505C30.8596 12.9738 30.8958 12.9888 30.9156 12.9966L30.9319 13.0029C31.4493 13.1838 31.7252 13.7484 31.5486 14.2685C31.371 14.7914 30.8031 15.0714 30.2802 14.8938L30.2787 14.8933L30.277 14.8927L30.2735 14.8915L30.2649 14.8885L30.2424 14.8804C30.2251 14.874 30.2031 14.8656 30.1766 14.8551C30.1238 14.8341 30.0535 14.8045 29.968 14.7649C29.7972 14.6857 29.5656 14.5663 29.2934 14.3953C28.7483 14.0532 28.0407 13.5049 27.3334 12.6623C26.6106 11.8013 26.3727 10.6409 26.2863 9.83364C26.2408 9.40835 26.2324 9.02984 26.2353 8.75731C26.2363 8.66455 26.2385 8.58323 26.2412 8.51557C25.7694 8.59589 25.4102 9.00667 25.4102 9.50134V13.2598C25.4102 14.8649 26.2297 16.389 27.6395 17.3347L29.2951 18.4453C31.2362 19.7474 32.4102 21.8828 32.4102 24.1811V37.5013C32.4102 39.2036 30.9758 40.5013 29.3102 40.5013H12.5102C10.8447 40.5013 9.41022 39.2036 9.41022 37.5013V24.1811C9.41022 21.8828 10.5842 19.7474 12.5253 18.4453L14.181 17.3347C15.5907 16.389 16.4102 14.8649 16.4102 13.2598V9.50134V8.50134ZM32.5654 5.26926L31.4102 5.63538V3.86731L32.5654 4.23343V5.26926ZM18.4102 10.5013V13.2598C18.4102 15.5581 17.2362 17.6935 15.2951 18.9956L13.6395 20.1062C13.312 20.3259 13.0164 20.5768 12.7555 20.8526L29.0649 20.8526C28.804 20.5768 28.5084 20.3259 28.181 20.1062L26.5253 18.9956C24.5842 17.6935 23.4102 15.5581 23.4102 13.2598V10.5013H18.4102ZM11.4102 24.1811C11.4102 23.7281 11.4755 23.2815 11.6009 22.8526L30.2195 22.8526C30.3449 23.2815 30.4102 23.7281 30.4102 24.1811V34.2525H11.4102V24.1811ZM11.4102 36.2525H30.4102V37.5013C30.4102 38.0082 29.9643 38.5013 29.3102 38.5013H12.5102C11.8562 38.5013 11.4102 38.0082 11.4102 37.5013V36.2525Z" fill="#5E6E7C"/>
</svg>
