<svg width="41" height="41" viewBox="0 0 41 41" fill="none" xmlns="http://www.w3.org/2000/svg">
<rect x="0.987793" y="0.751282" width="40" height="40" fill="white"/>
<path fill-rule="evenodd" clip-rule="evenodd" d="M5.98779 20.7513C5.98779 12.467 12.7035 5.75128 20.9878 5.75128C29.2721 5.75128 35.9878 12.467 35.9878 20.7513C35.9878 29.0356 29.2721 35.7513 20.9878 35.7513C12.7035 35.7513 5.98779 29.0356 5.98779 20.7513ZM20.9878 3.75128C11.599 3.75128 3.98779 11.3624 3.98779 20.7513C3.98779 30.1401 11.599 37.7513 20.9878 37.7513C30.3766 37.7513 37.9878 30.1401 37.9878 20.7513C37.9878 11.3624 30.3766 3.75128 20.9878 3.75128ZM9.98779 20.7513C9.98779 14.6761 14.9127 9.75128 20.9878 9.75128C27.0629 9.75128 31.9878 14.6761 31.9878 20.7513C31.9878 26.8264 27.0629 31.7513 20.9878 31.7513C14.9127 31.7513 9.98779 26.8264 9.98779 20.7513ZM20.9878 7.75128C13.8081 7.75128 7.98779 13.5716 7.98779 20.7513C7.98779 27.931 13.8081 33.7513 20.9878 33.7513C28.1675 33.7513 33.9878 27.931 33.9878 20.7513C33.9878 13.5716 28.1675 7.75128 20.9878 7.75128ZM20.9878 10.7513C21.5401 10.7513 21.9878 11.199 21.9878 11.7513V19.0188C22.5856 19.3647 22.9878 20.011 22.9878 20.7513C22.9878 20.8164 22.9847 20.8808 22.9786 20.9444L28.569 24.9375C29.0184 25.2586 29.1225 25.8831 28.8015 26.3325C28.4805 26.7819 27.856 26.886 27.4066 26.565L21.8164 22.5721C21.564 22.6872 21.2834 22.7513 20.9878 22.7513C19.8832 22.7513 18.9878 21.8559 18.9878 20.7513C18.9878 20.011 19.39 19.3647 19.9878 19.0188V11.7513C19.9878 11.199 20.4355 10.7513 20.9878 10.7513Z" fill="#5E6E7C"/>
</svg>
