<svg width="41" height="41" viewBox="0 0 41 41" fill="none" xmlns="http://www.w3.org/2000/svg">
<rect x="0.987793" y="0.751282" width="40" height="40" fill="white"/>
<path fill-rule="evenodd" clip-rule="evenodd" d="M20.5193 5.40753C19.898 5.40753 19.3943 5.91121 19.3943 6.53253C19.3943 7.15385 19.898 7.65753 20.5193 7.65753C21.1406 7.65753 21.6443 7.15385 21.6443 6.53253C21.6443 5.91121 21.1406 5.40753 20.5193 5.40753ZM17.3943 6.53253C17.3943 4.80664 18.7934 3.40753 20.5193 3.40753C22.2452 3.40753 23.6443 4.80664 23.6443 6.53253C23.6443 6.73503 23.625 6.93303 23.5882 7.1248L30.496 14.0326H35.9878C37.6446 14.0326 38.9878 15.3757 38.9878 17.0326V31.0951C38.9878 32.7519 37.6446 34.0951 35.9878 34.0951H5.98779C4.33094 34.0951 2.98779 32.7519 2.98779 31.0951V17.0326C2.98779 15.3757 4.33094 14.0326 5.98779 14.0326H10.5426L17.4503 7.1248C17.4135 6.93303 17.3943 6.73503 17.3943 6.53253ZM20.5193 9.65753C21.2927 9.65753 22.0005 9.37657 22.5462 8.91114L27.6676 14.0326H13.371L18.4924 8.91114C19.0381 9.37657 19.7459 9.65753 20.5193 9.65753ZM4.98779 17.0326C4.98779 16.4803 5.43551 16.0326 5.98779 16.0326H35.9878C36.5401 16.0326 36.9878 16.4803 36.9878 17.0326V31.0951C36.9878 31.6473 36.5401 32.0951 35.9878 32.0951H5.98779C5.43551 32.0951 4.98779 31.6473 4.98779 31.0951V17.0326ZM8.38037 26.383C8.69537 26.543 9.05787 26.623 9.46787 26.623C9.87787 26.623 10.2379 26.548 10.5479 26.398C10.8629 26.243 11.1054 26.028 11.2754 25.753C11.4504 25.478 11.5379 25.1605 11.5379 24.8005C11.5379 24.7555 11.5004 24.7305 11.4254 24.7255L10.2404 24.6655C10.2054 24.6605 10.1779 24.6655 10.1579 24.6805C10.1379 24.6955 10.1279 24.718 10.1279 24.748C10.1279 24.948 10.0679 25.1105 9.94787 25.2355C9.82787 25.3555 9.66787 25.4155 9.46787 25.4155C9.26787 25.4155 9.10787 25.3555 8.98787 25.2355C8.86787 25.1105 8.80787 24.948 8.80787 24.748V23.1355C8.80787 22.9305 8.86787 22.768 8.98787 22.648C9.10787 22.523 9.26787 22.4605 9.46787 22.4605C9.66787 22.4605 9.82787 22.523 9.94787 22.648C10.0679 22.768 10.1279 22.9305 10.1279 23.1355C10.1279 23.1905 10.1579 23.218 10.2179 23.218H10.2404L11.4254 23.143C11.5004 23.133 11.5379 23.1055 11.5379 23.0605C11.5379 22.7005 11.4504 22.3855 11.2754 22.1155C11.1054 21.8405 10.8629 21.628 10.5479 21.478C10.2379 21.328 9.87787 21.253 9.46787 21.253C9.05787 21.253 8.69537 21.333 8.38037 21.493C8.07037 21.653 7.82787 21.878 7.65287 22.168C7.48287 22.458 7.39787 22.793 7.39787 23.173V24.688C7.39787 25.073 7.48287 25.413 7.65287 25.708C7.82787 25.998 8.07037 26.223 8.38037 26.383ZM12.2157 26.533C12.2357 26.553 12.2632 26.563 12.2982 26.563H15.9507C15.9857 26.563 16.0132 26.553 16.0332 26.533C16.0532 26.513 16.0632 26.4855 16.0632 26.4505V25.468C16.0632 25.433 16.0532 25.4055 16.0332 25.3855C16.0132 25.3655 15.9857 25.3555 15.9507 25.3555H13.6332C13.6082 25.3555 13.5957 25.343 13.5957 25.318V21.4255C13.5957 21.3905 13.5857 21.363 13.5657 21.343C13.5457 21.323 13.5182 21.313 13.4832 21.313H12.2982C12.2632 21.313 12.2357 21.323 12.2157 21.343C12.1957 21.363 12.1857 21.3905 12.1857 21.4255V26.4505C12.1857 26.4855 12.1957 26.513 12.2157 26.533ZM17.4918 26.4055C17.8118 26.5705 18.1793 26.653 18.5943 26.653C19.0143 26.653 19.3818 26.5705 19.6968 26.4055C20.0168 26.2355 20.2643 26.0005 20.4393 25.7005C20.6143 25.3955 20.7018 25.043 20.7018 24.643V23.233C20.7018 22.843 20.6143 22.498 20.4393 22.198C20.2643 21.898 20.0168 21.6655 19.6968 21.5005C19.3818 21.3355 19.0143 21.253 18.5943 21.253C18.1793 21.253 17.8118 21.3355 17.4918 21.5005C17.1768 21.6655 16.9318 21.898 16.7568 22.198C16.5818 22.498 16.4943 22.843 16.4943 23.233V24.643C16.4943 25.043 16.5818 25.3955 16.7568 25.7005C16.9318 26.0005 17.1768 26.2355 17.4918 26.4055ZM19.0968 25.243C18.9718 25.378 18.8043 25.4455 18.5943 25.4455C18.3893 25.4455 18.2218 25.378 18.0918 25.243C17.9668 25.103 17.9043 24.918 17.9043 24.688V23.218C17.9043 22.988 17.9668 22.8055 18.0918 22.6705C18.2218 22.5305 18.3893 22.4605 18.5943 22.4605C18.8043 22.4605 18.9718 22.5305 19.0968 22.6705C19.2268 22.8055 19.2918 22.988 19.2918 23.218V24.688C19.2918 24.918 19.2268 25.103 19.0968 25.243ZM22.255 26.4205C22.57 26.5555 22.9375 26.623 23.3575 26.623C23.7625 26.623 24.1175 26.558 24.4225 26.428C24.7275 26.298 24.965 26.113 25.135 25.873C25.305 25.628 25.39 25.338 25.39 25.003C25.39 24.658 25.285 24.3655 25.075 24.1255C24.865 23.8805 24.6025 23.713 24.2875 23.623C23.9775 23.528 23.8025 23.473 23.7625 23.458C23.4725 23.368 23.2575 23.2955 23.1175 23.2405C22.9775 23.1805 22.8725 23.1205 22.8025 23.0605C22.7375 22.9955 22.705 22.918 22.705 22.828C22.705 22.713 22.75 22.623 22.84 22.558C22.935 22.493 23.0625 22.4605 23.2225 22.4605C23.4525 22.4605 23.635 22.523 23.77 22.648C23.905 22.768 23.9725 22.903 23.9725 23.053V23.0605C23.9725 23.0955 23.9825 23.123 24.0025 23.143C24.0225 23.163 24.05 23.173 24.085 23.173H25.2475C25.2825 23.173 25.31 23.163 25.33 23.143C25.35 23.123 25.36 23.0955 25.36 23.0605V22.993C25.36 22.653 25.2675 22.3505 25.0825 22.0855C24.9025 21.8205 24.6525 21.6155 24.3325 21.4705C24.0175 21.3255 23.665 21.253 23.275 21.253C22.905 21.253 22.57 21.318 22.27 21.448C21.975 21.578 21.7425 21.7655 21.5725 22.0105C21.4025 22.2505 21.3175 22.528 21.3175 22.843C21.3175 23.318 21.485 23.6805 21.82 23.9305C22.155 24.1805 22.57 24.3805 23.065 24.5305L23.2825 24.5905C23.5475 24.6705 23.73 24.738 23.83 24.793C23.93 24.848 23.98 24.9305 23.98 25.0405C23.98 25.1355 23.94 25.223 23.86 25.303C23.78 25.378 23.6475 25.4155 23.4625 25.4155C23.2175 25.4155 23.02 25.363 22.87 25.258C22.725 25.148 22.6525 25.023 22.6525 24.883V24.838C22.6525 24.803 22.6425 24.7755 22.6225 24.7555C22.6025 24.7355 22.575 24.7255 22.54 24.7255H21.3775C21.3425 24.7255 21.315 24.7355 21.295 24.7555C21.275 24.7755 21.265 24.803 21.265 24.838V24.943C21.265 25.278 21.35 25.573 21.52 25.828C21.695 26.083 21.94 26.2805 22.255 26.4205ZM29.8042 22.4905C29.8242 22.4705 29.8342 22.443 29.8342 22.408V21.4255C29.8342 21.3905 29.8242 21.363 29.8042 21.343C29.7842 21.323 29.7567 21.313 29.7217 21.313H26.1442C26.1092 21.313 26.0817 21.323 26.0617 21.343C26.0417 21.363 26.0317 21.3905 26.0317 21.4255V26.4505C26.0317 26.4855 26.0417 26.513 26.0617 26.533C26.0817 26.553 26.1092 26.563 26.1442 26.563H29.7217C29.7567 26.563 29.7842 26.553 29.8042 26.533C29.8242 26.513 29.8342 26.4855 29.8342 26.4505V25.468C29.8342 25.433 29.8242 25.4055 29.8042 25.3855C29.7842 25.3655 29.7567 25.3555 29.7217 25.3555H27.4792C27.4542 25.3555 27.4417 25.343 27.4417 25.318V24.538C27.4417 24.513 27.4542 24.5005 27.4792 24.5005H28.8667C28.9017 24.5005 28.9292 24.4905 28.9492 24.4705C28.9692 24.4505 28.9792 24.423 28.9792 24.388V23.413C28.9792 23.378 28.9692 23.3505 28.9492 23.3305C28.9292 23.3105 28.9017 23.3005 28.8667 23.3005H27.4792C27.4542 23.3005 27.4417 23.288 27.4417 23.263V22.558C27.4417 22.533 27.4542 22.5205 27.4792 22.5205H29.7217C29.7567 22.5205 29.7842 22.5105 29.8042 22.4905ZM30.489 26.533C30.509 26.553 30.5365 26.563 30.5715 26.563H32.499C32.904 26.563 33.2615 26.493 33.5715 26.353C33.8865 26.213 34.129 26.0155 34.299 25.7605C34.469 25.5055 34.554 25.2105 34.554 24.8755V23.0005C34.554 22.6655 34.469 22.3705 34.299 22.1155C34.129 21.8605 33.8865 21.663 33.5715 21.523C33.2615 21.383 32.904 21.313 32.499 21.313H30.5715C30.5365 21.313 30.509 21.323 30.489 21.343C30.469 21.363 30.459 21.3905 30.459 21.4255V26.4505C30.459 26.4855 30.469 26.513 30.489 26.533ZM31.9065 25.3555C31.8815 25.3555 31.869 25.343 31.869 25.318V22.558C31.869 22.533 31.8815 22.5205 31.9065 22.5205H32.544C32.724 22.5205 32.869 22.588 32.979 22.723C33.089 22.853 33.144 23.0255 33.144 23.2405V24.6355C33.139 24.8505 33.0815 25.0255 32.9715 25.1605C32.8615 25.2905 32.7215 25.3555 32.5515 25.3555H31.9065Z" fill="#5E6E7C"/>
</svg>
