<svg width="41" height="41" viewBox="0 0 41 41" fill="none" xmlns="http://www.w3.org/2000/svg">
<rect x="0.987793" y="0.751282" width="40" height="40" fill="white"/>
<path fill-rule="evenodd" clip-rule="evenodd" d="M20.1878 5.50128C14.257 5.50128 9.32955 9.89078 8.82955 15.5513C4.44929 16.0113 0.987793 19.5876 0.987793 24.0013C0.987793 28.7323 4.96501 32.5013 9.78779 32.5013H14.2167C14.8538 34.5298 16.749 36.0013 18.9878 36.0013H27.9878C30.2333 36.0013 32.133 34.5211 32.7645 32.4832C37.3236 32.197 40.9878 28.5423 40.9878 24.0013C40.9878 19.2703 37.0106 15.5013 32.1878 15.5013H31.5415C31.017 9.86493 26.1011 5.50128 20.1878 5.50128ZM32.9588 30.4602C36.3802 30.0929 38.9878 27.31 38.9878 24.0013C38.9878 20.448 35.9807 17.5013 32.1878 17.5013H30.5878H29.5878V16.5013C29.5878 11.5673 25.4166 7.50128 20.1878 7.50128C14.959 7.50128 10.7878 11.5673 10.7878 16.5013V17.5013H9.78779C5.99493 17.5013 2.98779 20.448 2.98779 24.0013C2.98779 27.5545 5.99493 30.5013 9.78779 30.5013H14.0125C14.2633 27.9746 16.3951 26.0013 18.9878 26.0013H19.2169C19.8543 23.9725 21.7486 22.5013 23.9878 22.5013C26.2497 22.5013 28.1598 24.0025 28.7777 26.0633C30.9888 26.4142 32.7172 28.2146 32.9588 30.4602ZM21.0111 27.125C21.1955 25.6462 22.4587 24.5013 23.9878 24.5013C25.5169 24.5013 26.7801 25.6462 26.9645 27.125L27.0738 28.0013H27.9568H27.9878C29.6446 28.0013 30.9878 29.3444 30.9878 31.0013C30.9878 32.6581 29.6446 34.0013 27.9878 34.0013H18.9878C17.3309 34.0013 15.9878 32.6581 15.9878 31.0013C15.9878 29.3444 17.3309 28.0013 18.9878 28.0013H20.0187H20.9018L21.0111 27.125Z" fill="#5E6E7C"/>
</svg>
