<svg width="41" height="41" viewBox="0 0 41 41" fill="none" xmlns="http://www.w3.org/2000/svg">
<rect x="0.987793" y="0.751282" width="40" height="40" fill="white"/>
<path fill-rule="evenodd" clip-rule="evenodd" d="M11.4931 12.2025C11.7112 12.3719 12.0246 12.3318 12.2019 12.1202C14.6701 9.17449 18.3735 7.30402 22.5142 7.30402C29.9409 7.30402 35.9614 13.3246 35.9614 20.7513C35.9614 28.178 29.9409 34.1985 22.5142 34.1985C18.3735 34.1985 14.6701 32.3281 12.2019 29.3824C12.0246 29.1707 11.7112 29.1306 11.4931 29.3L10.7034 29.9135C10.4853 30.0829 10.4452 30.3976 10.6216 30.6101C13.4536 34.0226 17.73 36.1985 22.5142 36.1985C31.0454 36.1985 37.9614 29.2826 37.9614 20.7513C37.9614 12.22 31.0454 5.30402 22.5142 5.30402C17.73 5.30402 13.4536 7.47993 10.6216 10.8925C10.4452 11.105 10.4853 11.4197 10.7034 11.5891L11.4931 12.2025ZM16.0467 12.7274C16.2201 12.9423 16.5342 12.9747 16.7576 12.8124C18.3742 11.6379 20.3622 10.9458 22.5142 10.9458C27.9296 10.9458 32.3197 15.3358 32.3197 20.7513C32.3197 26.1667 27.9296 30.5568 22.5142 30.5568C20.3622 30.5568 18.3742 29.8646 16.7576 28.6901C16.5342 28.5278 16.2201 28.5603 16.0467 28.7752L15.4186 29.5533C15.2452 29.7682 15.2782 30.0839 15.5002 30.2482C17.4612 31.6986 19.8886 32.5568 22.5142 32.5568C29.0342 32.5568 34.3197 27.2713 34.3197 20.7513C34.3197 14.2313 29.0342 8.94577 22.5142 8.94577C19.8886 8.94577 17.4612 9.80394 15.5002 11.2544C15.2782 11.4186 15.2452 11.7343 15.4186 11.9492L16.0467 12.7274ZM3.01416 14.7513L17.5142 14.7513C18.0664 14.7513 18.5142 15.199 18.5142 15.7513C18.5142 16.3035 18.0664 16.7513 17.5142 16.7513L3.01416 16.7513C2.46188 16.7513 2.01416 16.3035 2.01416 15.7513C2.01416 15.199 2.46188 14.7513 3.01416 14.7513ZM13.5142 24.7513L3.01416 24.7513C2.46188 24.7513 2.01416 25.199 2.01416 25.7513C2.01416 26.3036 2.46188 26.7513 3.01416 26.7513L13.5142 26.7513C14.0664 26.7513 14.5142 26.3036 14.5142 25.7513C14.5142 25.199 14.0664 24.7513 13.5142 24.7513ZM10.0142 20.7513C10.0142 20.199 10.4619 19.7513 11.0142 19.7513L20.5142 19.7513C21.0664 19.7513 21.5142 20.199 21.5142 20.7513C21.5142 21.3035 21.0664 21.7513 20.5142 21.7513L11.0142 21.7513C10.4619 21.7513 10.0142 21.3035 10.0142 20.7513ZM5.01416 19.7513C4.46188 19.7513 4.01416 20.199 4.01416 20.7513C4.01416 21.3035 4.46188 21.7513 5.01416 21.7513H7.01416C7.56644 21.7513 8.01416 21.3035 8.01416 20.7513C8.01416 20.199 7.56644 19.7513 7.01416 19.7513H5.01416Z" fill="#5E6E7C"/>
</svg>
