<svg width="41" height="41" viewBox="0 0 41 41" fill="none" xmlns="http://www.w3.org/2000/svg">
<rect x="0.987793" y="0.751282" width="40" height="40" fill="white"/>
<path fill-rule="evenodd" clip-rule="evenodd" d="M6.98779 10.5016C6.98779 10.3728 7.07693 10.0555 7.70698 9.60213C8.31341 9.16577 9.25549 8.73144 10.5096 8.34974C13.0055 7.59014 16.5139 7.10547 20.4322 7.10547C24.3506 7.10547 27.859 7.59014 30.3548 8.34974C31.609 8.73144 32.5511 9.16577 33.1575 9.60213C33.7875 10.0555 33.8767 10.3728 33.8767 10.5016C33.8767 10.5019 33.8767 10.5023 33.8767 10.5026C33.8762 10.6321 33.7859 10.9489 33.1575 11.4011C32.5511 11.8374 31.609 12.2718 30.3548 12.6535C27.859 13.4131 24.3506 13.8977 20.4322 13.8977C16.5139 13.8977 13.0055 13.4131 10.5096 12.6535C9.25549 12.2718 8.31341 11.8374 7.70698 11.4011C7.07693 10.9477 6.98779 10.6304 6.98779 10.5016ZM6.98779 13.3209C7.78664 13.8066 8.79196 14.2213 9.92731 14.5668C12.6593 15.3983 16.3732 15.8977 20.4322 15.8977C24.4913 15.8977 28.2051 15.3983 30.9372 14.5668C32.0725 14.2213 33.0778 13.8066 33.8767 13.3209V16.9388C33.8767 17.0291 33.8084 17.3253 33.1715 17.7673C32.5644 18.1885 31.6206 18.6081 30.3644 18.9768C27.8651 19.7103 24.3533 20.1779 20.4322 20.1779C16.5112 20.1779 12.9994 19.7103 10.5001 18.9768C9.24386 18.6081 8.30008 18.1885 7.69298 17.7673C7.05606 17.3253 6.98779 17.0291 6.98779 16.9388V13.3209ZM35.8767 10.5047V15.5172C36.5061 16.0779 36.9878 16.801 36.9878 17.6888L36.9878 17.6888V24.126C36.9878 25.0023 36.5008 25.7066 35.8767 26.2469V31.158C35.8767 32.2383 35.1366 33.0573 34.3116 33.6297C33.4569 34.2227 32.2853 34.7166 30.9276 35.115C28.199 35.9158 24.4886 36.3971 20.4322 36.3971C16.3758 36.3971 12.6655 35.9158 9.93687 35.115C8.57915 34.7166 7.40759 34.2227 6.55284 33.6297C5.7279 33.0573 4.98779 32.2383 4.98779 31.158V24.7208V24.7208C4.98779 23.833 5.46945 23.1098 6.0989 22.5491V19.0596C5.47473 18.5194 4.98779 17.815 4.98779 16.9388V10.5016C4.98779 9.4164 5.70703 8.57726 6.53884 7.97873C7.39426 7.3632 8.56752 6.85024 9.92731 6.43639C12.6593 5.6049 16.3732 5.10547 20.4322 5.10547C24.4913 5.10547 28.2051 5.6049 30.9372 6.43639C32.2969 6.85024 33.4702 7.3632 34.3256 7.97873C35.1574 8.57726 35.8767 9.4164 35.8767 10.5016C35.8767 10.5026 35.8767 10.5036 35.8767 10.5047ZM6.98779 27.5401V31.158C6.98779 31.2483 7.05606 31.5445 7.69298 31.9865C8.30008 32.4077 9.24386 32.8273 10.5001 33.196C12.9994 33.9295 16.5112 34.3971 20.4322 34.3971C24.3533 34.3971 27.8651 33.9295 30.3644 33.196C31.6206 32.8273 32.5644 32.4077 33.1715 31.9865C33.8084 31.5445 33.8767 31.2483 33.8767 31.158V27.7683C33.5503 27.9645 33.1969 28.1415 32.8263 28.3019C31.8692 28.7161 30.7196 29.0522 29.4451 29.3177C26.8951 29.8489 23.7494 30.1169 20.4322 30.1169C16.3732 30.1169 12.6593 29.6175 9.92731 28.786C8.79196 28.4404 7.78664 28.0258 6.98779 27.5401ZM34.9878 20.5081C34.1889 20.9938 33.1836 21.4085 32.0483 21.754C29.3162 22.5855 25.6024 23.0849 21.5433 23.0849C18.5072 23.0849 15.6714 22.8056 13.2974 22.3201C11.1916 21.8895 9.37085 21.2813 8.0989 20.5081V24.126C8.0989 24.2164 8.16716 24.5126 8.80409 24.9545C9.41119 25.3757 10.355 25.7953 11.6112 26.164C14.1105 26.8975 17.6223 27.3652 21.5433 27.3652C25.4644 27.3652 28.9762 26.8975 31.4755 26.164C32.7317 25.7953 33.6755 25.3757 34.2826 24.9545C34.9195 24.5126 34.9878 24.2164 34.9878 24.126V20.5081Z" fill="#5E6E7C"/>
</svg>
