<svg width="41" height="41" viewBox="0 0 41 41" fill="none" xmlns="http://www.w3.org/2000/svg">
<rect x="0.987793" y="0.751343" width="40" height="40" fill="white"/>
<path fill-rule="evenodd" clip-rule="evenodd" d="M7.20737 2.87396C5.55051 2.87396 4.20737 4.21711 4.20737 5.87397V21.6672C4.20737 22.7023 4.74101 23.6643 5.6192 24.2123L10.6987 27.3819V36.6287C10.6987 37.7333 11.5941 38.6287 12.6987 38.6287H14.5935C15.698 38.6287 16.5935 37.7333 16.5935 36.6287V27.3819L21.6729 24.2123C22.5511 23.6643 23.0848 22.7023 23.0848 21.6672V17.3432H29.4941V36.6287C29.4941 37.7333 30.3895 38.6287 31.4941 38.6287H33.2061C34.3106 38.6287 35.2061 37.7333 35.2061 36.6287V17.3432H36.4499C37.5432 17.3432 38.4827 16.4437 38.4232 15.2894C38.2208 11.3618 36.8727 8.37426 34.7122 6.3713C32.558 4.37424 29.6967 3.4493 26.6372 3.4493C25.1933 3.4493 23.7936 3.65529 22.4916 4.08275C21.9446 3.34909 21.0702 2.87396 20.0848 2.87396H7.20737ZM20.4939 4.96125C20.369 4.90516 20.2305 4.87396 20.0848 4.87396H7.20737C6.65508 4.87396 6.20737 5.32168 6.20737 5.87397V21.6672C6.20737 22.0122 6.38525 22.3329 6.67798 22.5156L12.2281 25.9788L12.6987 26.2725V26.8272V36.6287H14.5935V26.8272V26.2725L15.0641 25.9788L20.6141 22.5156C20.9069 22.3329 21.0848 22.0122 21.0848 21.6672V17.3432H19.0577V18.7199C19.0577 19.2721 18.61 19.7199 18.0577 19.7199C17.5054 19.7199 17.0577 19.2721 17.0577 18.7199V17.3432H16.8245C15.7312 17.3432 14.7917 16.4437 14.8512 15.2894C15.0536 11.3618 16.4017 8.37426 18.5622 6.3713C19.156 5.82086 19.8034 5.35187 20.4939 4.96125ZM10.2344 7.56616C10.2344 7.01388 9.78669 6.56616 9.23441 6.56616C8.68212 6.56616 8.23441 7.01388 8.23441 7.56616V18.7199C8.23441 19.2721 8.68212 19.7199 9.23441 19.7199C9.78669 19.7199 10.2344 19.2721 10.2344 18.7199V7.56616ZM13.646 6.56616C14.1983 6.56616 14.646 7.01388 14.646 7.56616V18.7199C14.646 19.2721 14.1983 19.7199 13.646 19.7199C13.0937 19.7199 12.646 19.2721 12.646 18.7199V7.56616C12.646 7.01388 13.0937 6.56616 13.646 6.56616ZM29.4941 15.3432H16.8512C17.0407 11.8559 18.2229 9.41314 19.9219 7.83799C21.6354 6.24955 23.976 5.4493 26.6372 5.4493C29.2984 5.4493 31.639 6.24955 33.3525 7.83799C35.0515 9.41314 36.2337 11.8559 36.4232 15.3432H35.2061C34.1015 15.3432 33.2061 16.2387 33.2061 17.3432V36.6287L31.4941 36.6287V17.3432C31.4941 16.2387 30.5986 15.3432 29.4941 15.3432Z" fill="#5E6E7C"/>
</svg>
