<svg width="41" height="41" viewBox="0 0 41 41" fill="none" xmlns="http://www.w3.org/2000/svg">
<rect x="0.987793" y="0.751282" width="40" height="40" fill="white"/>
<path fill-rule="evenodd" clip-rule="evenodd" d="M16.1153 5.43878C9.21171 5.43878 3.61526 11.0352 3.61526 17.9388C3.61526 24.8423 9.21171 30.4388 16.1153 30.4388C23.0188 30.4388 28.6153 24.8423 28.6153 17.9388C28.6153 11.0352 23.0188 5.43878 16.1153 5.43878ZM23.4683 30.4388C27.7455 27.9173 30.6153 23.2632 30.6153 17.9388C30.6153 9.93065 24.1234 3.43878 16.1153 3.43878C8.10714 3.43878 1.61526 9.93065 1.61526 17.9388C1.61526 23.2632 4.48506 27.9173 8.76225 30.4388H3.61526C2.5107 30.4388 1.61526 31.3342 1.61526 32.4388V35.0638C1.61526 36.7206 2.95841 38.0638 4.61527 38.0638H27.6153C29.2721 38.0638 30.6153 36.7206 30.6153 35.0638V32.4388C30.6153 31.3342 29.7198 30.4388 28.6153 30.4388H23.4683ZM3.61526 32.4388H11.9413C12.2659 33.1048 12.9495 33.5638 13.7403 33.5638H18.4903C19.281 33.5638 19.9646 33.1048 20.2892 32.4388H28.6153V35.0638C28.6153 35.6161 28.1675 36.0638 27.6153 36.0638H4.61527C4.06298 36.0638 3.61526 35.6161 3.61526 35.0638V32.4388ZM16.1153 9.37628C11.3863 9.37628 7.55276 13.2098 7.55276 17.9388C7.55276 22.6677 11.3863 26.5013 16.1153 26.5013C20.8442 26.5013 24.6778 22.6677 24.6778 17.9388C24.6778 13.2098 20.8442 9.37628 16.1153 9.37628ZM5.55276 17.9388C5.55276 12.1053 10.2818 7.37628 16.1153 7.37628C21.9488 7.37628 26.6778 12.1053 26.6778 17.9388C26.6778 23.7723 21.9488 28.5013 16.1153 28.5013C10.2818 28.5013 5.55276 23.7723 5.55276 17.9388ZM34.1728 22.3138H37.7978V25.9388H34.1728V22.3138ZM34.1728 20.3138H37.7978V11.8394C37.0097 12.1393 36.1373 12.735 35.4346 13.5111C34.6378 14.3912 34.1728 15.3745 34.1728 16.2513V20.3138ZM39.7978 22.3138V11.6263C39.7978 11.0814 39.5747 10.556 39.1739 10.1949C38.7572 9.81937 38.1569 9.63759 37.5333 9.81973C36.2596 10.1917 34.947 11.0697 33.952 12.1688C32.9616 13.2627 32.1728 14.7038 32.1728 16.2513V22.3138V26.5482C31.8246 26.9081 31.6103 27.3984 31.6103 27.9388V36.0638C31.6103 37.1684 32.5058 38.0638 33.6103 38.0638H38.3603C39.4649 38.0638 40.3603 37.1684 40.3603 36.0638V27.9388C40.3603 27.3984 40.146 26.9081 39.7978 26.5482V22.3138ZM38.3603 27.9388H33.6103V36.0638H38.3603V27.9388Z" fill="#5E6E7C"/>
</svg>
