<svg width="41" height="41" viewBox="0 0 41 41" fill="none" xmlns="http://www.w3.org/2000/svg">
<rect x="0.987793" y="0.751282" width="40" height="40" fill="white"/>
<path fill-rule="evenodd" clip-rule="evenodd" d="M18.4561 11.0638C18.0342 12.3694 16.8088 13.3138 15.3628 13.3138C13.9167 13.3138 12.6913 12.3694 12.2695 11.0638H4.98779C4.43549 11.0638 3.98779 11.5115 3.98779 12.0638V29.4388C3.98779 29.9911 4.43549 30.4388 4.98779 30.4388H12.2695C12.6913 29.1331 13.9167 28.1888 15.3628 28.1888C16.8088 28.1888 18.0342 29.1331 18.4561 30.4388H36.9878C37.5401 30.4388 37.9878 29.9911 37.9878 29.4388V12.0638C37.9878 11.5115 37.5401 11.0638 36.9878 11.0638H18.4561ZM16.6128 10.0695C16.6152 9.5231 17.057 9.06378 17.6228 9.06378H36.9878C38.6447 9.06378 39.9878 10.4069 39.9878 12.0638V29.4388C39.9878 31.0956 38.6447 32.4388 36.9878 32.4388H17.6228C17.057 32.4388 16.6152 31.9794 16.6128 31.4331C16.6098 30.7454 16.0513 30.1888 15.3628 30.1888C14.6743 30.1888 14.1158 30.7454 14.1128 31.4331C14.1104 31.9795 13.6686 32.4388 13.1028 32.4388H4.98779C3.33093 32.4388 1.98779 31.0956 1.98779 29.4388V12.0638C1.98779 10.4069 3.33093 9.06378 4.98779 9.06378H13.1028C13.6686 9.06378 14.1104 9.52313 14.1128 10.0695C14.1158 10.7571 14.6743 11.3138 15.3628 11.3138C16.0513 11.3138 16.6098 10.7571 16.6128 10.0695ZM24.5012 19.8376C23.9883 19.8376 23.5144 19.7149 23.0795 19.4696C22.6447 19.2132 22.299 18.8675 22.0426 18.4326C21.7861 17.9978 21.6579 17.5239 21.6579 17.011C21.6579 16.4981 21.7861 16.0298 22.0426 15.6061C22.299 15.1712 22.6447 14.8311 23.0795 14.5858C23.5144 14.3294 23.9883 14.2012 24.5012 14.2012C25.0141 14.2012 25.4824 14.3294 25.9061 14.5858C26.3409 14.8311 26.6866 15.1712 26.9431 15.6061C27.1995 16.0298 27.3278 16.4981 27.3278 17.011C27.3278 17.5239 27.1995 17.9978 26.9431 18.4326C26.6978 18.8675 26.3577 19.2132 25.9229 19.4696C25.488 19.7149 25.0141 19.8376 24.5012 19.8376ZM23.7318 26.0426C23.5869 26.0426 23.5144 25.9868 23.5144 25.8754C23.5144 25.8196 23.5256 25.775 23.5479 25.7415L29.803 14.5022C29.8588 14.3907 29.9592 14.335 30.1041 14.335H31.7767L31.7878 14.3351C31.7928 14.3353 31.7977 14.3355 31.8026 14.3359C31.8145 14.3367 31.8257 14.3382 31.8364 14.3402C31.8464 14.3422 31.856 14.3447 31.865 14.3477C31.8751 14.3511 31.8846 14.3552 31.8934 14.36C31.9061 14.3669 31.9174 14.3753 31.9272 14.3852C31.9388 14.391 31.9489 14.3976 31.9575 14.4049C31.9661 14.4122 31.9731 14.4202 31.9787 14.429C31.989 14.4453 31.9941 14.4641 31.9941 14.4855C31.9941 14.5301 31.9774 14.5803 31.9439 14.636L25.7054 25.8754C25.6497 25.9868 25.5493 26.0426 25.4044 26.0426H23.7318ZM24.5012 18.048C24.7799 18.048 25.0141 17.9476 25.2036 17.7469C25.4044 17.5462 25.5047 17.3009 25.5047 17.011C25.5047 16.7322 25.4044 16.4925 25.2036 16.2918C25.0141 16.0911 24.7799 15.9908 24.5012 15.9908C24.2224 15.9908 23.9827 16.0911 23.782 16.2918C23.5813 16.4814 23.481 16.7211 23.481 17.011C23.481 17.3009 23.5757 17.5462 23.7653 17.7469C23.966 17.9476 24.2113 18.048 24.5012 18.048ZM31.208 26.1764C30.6951 26.1764 30.2212 26.0538 29.7863 25.8085C29.3515 25.552 29.0059 25.2064 28.7494 24.7715C28.4929 24.3366 28.3647 23.8628 28.3647 23.3499C28.3647 22.8369 28.4929 22.3687 28.7494 21.9449C29.0059 21.5101 29.3515 21.17 29.7863 20.9247C30.2212 20.6682 30.6951 20.54 31.208 20.54C31.7209 20.54 32.1892 20.6682 32.6129 20.9247C33.0477 21.17 33.3934 21.5101 33.6498 21.9449C33.9063 22.3687 34.0345 22.8369 34.0345 23.3499C34.0345 23.8628 33.9063 24.3366 33.6498 24.7715C33.4045 25.2064 33.0645 25.552 32.6296 25.8085C32.1948 26.0538 31.7209 26.1764 31.208 26.1764ZM31.208 24.3868C31.4868 24.3868 31.7209 24.2865 31.9105 24.0858C32.1111 23.8851 32.2115 23.6398 32.2115 23.3499C32.2115 23.0711 32.1111 22.8314 31.9105 22.6307C31.7209 22.43 31.4868 22.3296 31.208 22.3296C30.9293 22.3296 30.6895 22.43 30.4888 22.6307C30.2881 22.8202 30.1877 23.0599 30.1877 23.3499C30.1877 23.6398 30.2825 23.8851 30.4721 24.0858C30.6728 24.2865 30.9181 24.3868 31.208 24.3868ZM15.2378 14.5638C14.6855 14.5638 14.2378 15.0115 14.2378 15.5638V16.6842C14.2378 17.2365 14.6855 17.6842 15.2378 17.6842H15.3181C15.8703 17.6842 16.3181 17.2365 16.3181 16.6842V15.5638C16.3181 15.0115 15.8704 14.5638 15.3181 14.5638H15.2378ZM14.2378 20.0638C14.2378 19.5115 14.6855 19.0638 15.2378 19.0638H15.3181C15.8703 19.0638 16.3181 19.5115 16.3181 20.0638V21.1842C16.3181 21.7365 15.8703 22.1842 15.3181 22.1842H15.2378C14.6855 22.1842 14.2378 21.7365 14.2378 21.1842V20.0638ZM15.2378 23.5638C14.6855 23.5638 14.2378 24.0115 14.2378 24.5638V25.6841C14.2378 26.2365 14.6855 26.6841 15.2378 26.6841H15.3181C15.8703 26.6841 16.3181 26.2365 16.3181 25.6841V24.5638C16.3181 24.0115 15.8703 23.5638 15.3181 23.5638H15.2378Z" fill="#5E6E7C"/>
</svg>
