<svg width="41" height="41" viewBox="0 0 41 41" fill="none" xmlns="http://www.w3.org/2000/svg">
<rect x="0.987793" y="0.751282" width="40" height="40" fill="white"/>
<path fill-rule="evenodd" clip-rule="evenodd" d="M1.99335 6.05695C1.99335 4.95238 2.88878 4.05695 3.99335 4.05695H14.1844C15.289 4.05695 16.1844 4.95238 16.1844 6.05695V14.0797H19.8408C21.4468 14.0797 22.7488 15.3817 22.7488 16.9877C22.7488 18.5424 21.5287 19.8121 19.9938 19.8917V26.7571C19.9938 27.3094 20.4416 27.7571 20.9938 27.7571H25.3742C25.7062 27.7571 26.0165 27.5923 26.2025 27.3173L29.5076 22.4298C29.666 22.1957 29.7178 21.9054 29.6503 21.6309L26.9244 10.541H24.0726C23.5204 10.541 23.0726 10.0933 23.0726 9.54102C23.0726 8.98873 23.5204 8.54102 24.0726 8.54102L30.2729 8.54102C30.2971 8.54102 30.3212 8.54131 30.3453 8.54189C30.3411 8.47183 30.339 8.40105 30.339 8.32958C30.339 7.23289 30.8348 6.29713 31.6891 5.64557C32.5155 5.01536 33.6326 4.67911 34.8971 4.60452C35.7862 4.55208 36.4561 5.27657 36.4561 6.08837V10.5708C36.4561 11.3826 35.7862 12.1071 34.8971 12.0546C34.3747 12.0238 33.8775 11.9484 33.4155 11.826L35.6737 21.0309C35.8342 21.6854 35.8592 22.3579 35.7553 23.0092C38.7838 23.9279 40.9878 26.7404 40.9878 30.0691C40.9878 34.143 37.6852 37.4456 33.6113 37.4456C30.6243 37.4456 28.054 35.6706 26.8938 33.1203L26.8793 33.1203H15.8383C14.5496 35.6854 11.8945 37.4456 8.8282 37.4456C4.49806 37.4456 0.987793 33.9353 0.987793 29.6052C0.987793 26.8914 2.3665 24.4997 4.46167 23.0922C3.82473 22.5421 3.42164 21.7286 3.42164 20.8209V19.7673C2.2339 19.4015 1.37067 18.2954 1.37067 16.9877C1.37067 16.3087 1.60336 15.6841 1.99335 15.1892V6.05695ZM8.08893 6.05695L3.99335 6.05695V14.0797H8.08893V6.05695ZM10.0889 6.05695V14.0797H14.1844L14.1844 6.05695L10.0889 6.05695ZM32.902 7.23587C33.2346 6.98222 33.7459 6.7649 34.4561 6.65836V10.0008C33.7459 9.89426 33.2346 9.67694 32.902 9.42329C32.5158 9.12876 32.339 8.76812 32.339 8.32958C32.339 7.89104 32.5158 7.5304 32.902 7.23587ZM8.0148 23.8209C5.17426 24.2168 2.98779 26.6556 2.98779 29.6052C2.98779 30.1292 3.05681 30.6371 3.18626 31.1203H14.4701C14.5996 30.6371 14.6686 30.1292 14.6686 29.6052C14.6686 26.3796 12.0538 23.7648 8.8282 23.7648C8.56663 23.7648 8.30908 23.7819 8.05661 23.8153C8.07322 23.819 8.09048 23.8209 8.10822 23.8209H8.0148ZM16.6686 29.6052C16.6686 30.1235 16.6183 30.6301 16.5223 31.1203H26.8793C27.8651 31.1203 28.7861 30.6294 29.3357 29.811L33.3083 23.8945C33.7788 23.1937 33.9324 22.3272 33.7313 21.5074L31.224 11.287C31.1166 10.849 30.7239 10.541 30.2729 10.541L28.9839 10.541L31.5925 21.1535C31.7949 21.977 31.6394 22.8477 31.1644 23.5502L27.8593 28.4376C27.3013 29.2627 26.3702 29.7571 25.3742 29.7571H20.9938C19.337 29.7571 17.9938 28.4139 17.9938 26.7571V19.9188H5.42164V20.8209C5.42164 21.3732 5.86935 21.8209 6.42163 21.8209H7.88469C8.19402 21.7838 8.50888 21.7648 8.8282 21.7648C13.1583 21.7648 16.6686 25.275 16.6686 29.6052ZM8.8282 35.4456C6.92235 35.4456 5.22971 34.5327 4.16368 33.1203H13.4927C12.4267 34.5327 10.734 35.4456 8.8282 35.4456ZM33.6113 35.4456C31.5924 35.4456 29.8316 34.3324 28.9124 32.6844C29.6939 32.3331 30.3813 31.7807 30.8962 31.0691H38.895C38.4263 33.5606 36.2389 35.4456 33.6113 35.4456ZM38.8949 29.0691H32.2428L34.9687 25.0094C34.996 24.9688 35.0226 24.9278 35.0486 24.8866C37.0058 25.428 38.515 27.0497 38.8949 29.0691ZM3.37067 16.9877C3.37067 16.4862 3.77717 16.0797 4.27861 16.0797H19.8408C20.3423 16.0797 20.7488 16.4862 20.7488 16.9877C20.7488 17.4891 20.3423 17.8956 19.8408 17.8956H4.27861C3.77717 17.8956 3.37067 17.4891 3.37067 16.9877Z" fill="#5E6E7C"/>
</svg>
