<svg width="41" height="41" viewBox="0 0 41 41" fill="none" xmlns="http://www.w3.org/2000/svg">
<rect x="0.987793" y="0.751282" width="40" height="40" fill="white"/>
<path fill-rule="evenodd" clip-rule="evenodd" d="M0.987793 9.27435C0.987793 8.16978 1.88322 7.27435 2.98779 7.27435H26.958C28.0626 7.27435 28.958 8.16979 28.958 9.27435V11.6404H35.4793C36.0561 11.6404 36.6047 11.8894 36.9845 12.3234L40.493 16.3331C40.812 16.6977 40.9878 17.1656 40.9878 17.6501V27.1859C40.9878 28.2904 40.0924 29.1859 38.9878 29.1859H38.0916C38.0849 31.9718 35.8244 34.2282 33.0369 34.2282C31.221 34.2282 29.6287 33.2706 28.7375 31.8329H15.325C14.4338 33.2706 12.8416 34.2282 11.0257 34.2282C8.23407 34.2282 5.97101 31.9651 5.97101 29.1735C5.97101 29.0513 5.97534 28.9301 5.98387 28.8101H2.98779C1.88322 28.8101 0.987793 27.9147 0.987793 26.8101V9.27435ZM38.9878 27.1859H37.6858C36.9137 25.3824 35.1229 24.1188 33.0369 24.1188C31.3623 24.1188 29.8778 24.9332 28.958 26.1874V13.6404H35.4793L38.9878 17.6501V27.1859ZM27.958 28.8101H27.995C27.9865 28.9301 27.9822 29.0513 27.9822 29.1735C27.9822 29.397 27.9967 29.6171 28.0248 29.8329H16.0378C16.0659 29.6171 16.0804 29.397 16.0804 29.1735C16.0804 29.0513 16.0761 28.9301 16.0675 28.8101H27.958ZM26.958 26.8101H15.495C14.6467 25.2093 12.9636 24.1188 11.0257 24.1188C9.08785 24.1188 7.40469 25.2093 6.55642 26.8101H2.98779V9.27435L26.958 9.27435L26.958 26.8101ZM30.1296 15.8556C30.1296 15.3309 30.5549 14.9056 31.0796 14.9056H34.6726C34.9516 14.9056 35.2165 15.0282 35.397 15.2409L37.4765 17.6918C37.6222 17.8634 37.7021 18.0813 37.7021 18.3064L37.7021 19.6103C37.7021 20.1349 37.2768 20.5603 36.7521 20.5603H31.0796C30.5549 20.5603 30.1296 20.1349 30.1296 19.6102L30.1296 15.8556ZM31.9296 16.7056L31.9296 18.7603H35.9021V18.6184L34.2791 16.7056H31.9296ZM11.0257 26.1188C9.33864 26.1188 7.97101 27.4864 7.97101 29.1735C7.97101 30.8606 9.33864 32.2282 11.0257 32.2282C12.7128 32.2282 14.0804 30.8606 14.0804 29.1735C14.0804 27.4864 12.7128 26.1188 11.0257 26.1188ZM11.0721 30.6306C11.8591 30.6306 12.4971 29.9926 12.4971 29.2056C12.4971 28.4186 11.8591 27.7806 11.0721 27.7806C10.2851 27.7806 9.64709 28.4186 9.64709 29.2056C9.64709 29.9926 10.2851 30.6306 11.0721 30.6306ZM33.0369 26.1188C31.3498 26.1188 29.9822 27.4864 29.9822 29.1735C29.9822 30.8606 31.3498 32.2282 33.0369 32.2282C34.7239 32.2282 36.0916 30.8606 36.0916 29.1735C36.0916 27.4864 34.7239 26.1188 33.0369 26.1188ZM33.0369 30.6306C33.8239 30.6306 34.4619 29.9926 34.4619 29.2056C34.4619 28.4186 33.8239 27.7806 33.0369 27.7806C32.2499 27.7806 31.6119 28.4186 31.6119 29.2056C31.6119 29.9926 32.2499 30.6306 33.0369 30.6306Z" fill="#5E6E7C"/>
</svg>
