<svg width="41" height="41" viewBox="0 0 41 41" fill="none" xmlns="http://www.w3.org/2000/svg">
<rect x="0.987793" y="0.751282" width="40" height="40" fill="white"/>
<path fill-rule="evenodd" clip-rule="evenodd" d="M2.48779 10.3319C2.48779 8.67506 3.83094 7.33191 5.48779 7.33191H36.4878C38.1446 7.33191 39.4878 8.67506 39.4878 10.3319V31.1706C39.4878 32.8275 38.1446 34.1706 36.4878 34.1706H5.48779C3.83094 34.1706 2.48779 32.8275 2.48779 31.1706V10.3319ZM5.48779 9.33191C4.93551 9.33191 4.48779 9.77962 4.48779 10.3319V12.9771H37.4878V10.3319C37.4878 9.77962 37.0401 9.33191 36.4878 9.33191H5.48779ZM4.48779 18.0577V14.9771H37.4878V18.0577H4.48779ZM4.48779 20.0577V31.1706C4.48779 31.7229 4.93551 32.1706 5.48779 32.1706H36.4878C37.0401 32.1706 37.4878 31.7229 37.4878 31.1706V20.0577H4.48779ZM9.46711 26.0874C8.7723 26.0874 8.20905 26.6507 8.20905 27.3455C8.20905 28.0403 8.7723 28.6036 9.46711 28.6036C10.1619 28.6036 10.7252 28.0403 10.7252 27.3455C10.7252 26.6507 10.1619 26.0874 9.46711 26.0874ZM6.20905 27.3455C6.20905 25.5461 7.66773 24.0874 9.46711 24.0874C11.2665 24.0874 12.7252 25.5461 12.7252 27.3455C12.7252 29.1449 11.2665 30.6036 9.46711 30.6036C7.66773 30.6036 6.20905 29.1449 6.20905 27.3455ZM28.6937 27.4349C28.4175 27.4349 28.1937 27.6588 28.1937 27.9349V29.1224C28.1937 29.3986 28.4175 29.6224 28.6937 29.6224H34.4679C34.744 29.6224 34.9679 29.3986 34.9679 29.1224V27.9349C34.9679 27.6588 34.744 27.4349 34.4679 27.4349H28.6937Z" fill="#5E6E7C"/>
</svg>
