<svg width="41" height="41" viewBox="0 0 41 41" fill="none" xmlns="http://www.w3.org/2000/svg">
<rect x="0.987793" y="0.751282" width="40" height="40" fill="white"/>
<path fill-rule="evenodd" clip-rule="evenodd" d="M7.82605 8.53982C7.98124 7.00789 9.271 5.84219 10.8108 5.84219H34.8812C36.6576 5.84219 38.045 7.3772 37.8659 9.14457L35.453 32.9627C35.2978 34.4947 34.008 35.6604 32.4683 35.6604H8.39782C6.62141 35.6604 5.23405 34.1254 5.4131 32.358L5.71195 29.4081C5.76761 28.8586 6.25817 28.4583 6.80764 28.514C7.35712 28.5696 7.75743 29.0602 7.70176 29.6097L7.40291 32.5596C7.34323 33.1487 7.80568 33.6604 8.39782 33.6604H19.7686L21.124 21.2361L12.3668 21.2361C11.8145 21.2361 11.3668 20.7884 11.3668 20.2361C11.3668 19.6838 11.8145 19.2361 12.3668 19.2361L21.3421 19.2361L22.5851 7.84219H10.8108C10.2975 7.84219 9.8676 8.23076 9.81586 8.7414L9.52836 11.5793C9.47269 12.1288 8.98213 12.5291 8.43266 12.4735C7.88319 12.4178 7.48288 11.9272 7.53854 11.3778L7.82605 8.53982ZM32.4683 33.6604H21.7804L24.597 7.84219H34.8812C35.4733 7.84219 35.9358 8.35386 35.8761 8.94298L33.4632 32.7612C33.4114 33.2718 32.9815 33.6604 32.4683 33.6604ZM29.9724 9.93311C29.6963 9.93311 29.4724 10.157 29.4724 10.4331V11.4937C29.4724 11.7699 29.6963 11.9937 29.9724 11.9937H33.0936C33.3698 11.9937 33.5936 11.7699 33.5936 11.4937V10.4331C33.5936 10.157 33.3698 9.93311 33.0936 9.93311H29.9724ZM4.12436 14.0846L19.0638 14.0846C19.616 14.0846 20.0638 14.5323 20.0638 15.0846C20.0638 15.6369 19.616 16.0846 19.0638 16.0846L4.12436 16.0846C3.57207 16.0846 3.12436 15.6369 3.12436 15.0846C3.12436 14.5323 3.57207 14.0846 4.12436 14.0846ZM13.9123 24.3877L3.09409 24.3877C2.5418 24.3877 2.09409 24.8354 2.09409 25.3877C2.09409 25.9399 2.5418 26.3877 3.09408 26.3877L13.9123 26.3877C14.4646 26.3877 14.9123 25.9399 14.9123 25.3877C14.9123 24.8354 14.4646 24.3877 13.9123 24.3877ZM6.18497 19.2361C5.63268 19.2361 5.18497 19.6838 5.18497 20.2361C5.18497 20.7884 5.63268 21.2361 6.18497 21.2361H8.24557C8.79786 21.2361 9.24557 20.7884 9.24557 20.2361C9.24557 19.6838 8.79786 19.2361 8.24557 19.2361H6.18497Z" fill="#5E6E7C"/>
</svg>
