<svg width="41" height="41" viewBox="0 0 41 41" fill="none" xmlns="http://www.w3.org/2000/svg">
<rect x="0.987793" y="0.751282" width="40" height="40" fill="white"/>
<path fill-rule="evenodd" clip-rule="evenodd" d="M2.98779 7.11237C1.88322 7.11237 0.987793 8.0078 0.987793 9.11237V11.8068C0.987793 12.329 1.18788 12.8044 1.51557 13.1605V34.8901C1.51557 35.7186 2.18714 36.3901 3.01557 36.3901H6.01557C6.844 36.3901 7.51557 35.7186 7.51557 34.8901V29.1124H34.4878V34.8901C34.4878 35.7186 35.1594 36.3901 35.9878 36.3901H38.9878C39.8162 36.3901 40.4878 35.7186 40.4878 34.8901V13.1297C40.799 12.7771 40.9878 12.314 40.9878 11.8068V9.11237C40.9878 8.0078 40.0924 7.11237 38.9878 7.11237H2.98779ZM34.4878 19.1124V13.8068H32.1508C32.1064 14.318 31.6774 14.7192 31.1546 14.7192H27.9878C27.465 14.7192 27.036 14.318 26.9916 13.8068H24.0989V19.1124L34.4878 19.1124ZM26.9878 21.1124H24.0989V27.1124L34.4878 27.1124V21.1124H32.1546C32.1492 21.6601 31.7036 22.1024 31.1546 22.1024H27.9878C27.4388 22.1024 26.9932 21.6601 26.9878 21.1124ZM22.0989 27.1124V13.8068H7.51557V27.1124H22.0989ZM36.4878 34.3901V13.8068H38.4878V34.3901H36.4878ZM5.51557 13.8068H3.51557V34.3901H5.51557V13.8068ZM2.98779 9.11237H38.9878V11.8068H2.98779V9.11237Z" fill="#5E6E7C"/>
</svg>
