<svg width="41" height="41" viewBox="0 0 41 41" fill="none" xmlns="http://www.w3.org/2000/svg">
<rect x="0.987793" y="0.751282" width="40" height="40" fill="white"/>
<path fill-rule="evenodd" clip-rule="evenodd" d="M22.4042 4.7556C21.6226 3.97168 20.353 3.97168 19.5714 4.7556L18.0997 6.23183L16.1751 5.43118C15.153 5.00602 13.98 5.49189 13.558 6.51522L12.7632 8.44229L10.6787 8.43911C9.57172 8.43743 8.67394 9.33521 8.67562 10.4422L8.6788 12.5267L6.75173 13.3215C5.7284 13.7435 5.24253 14.9165 5.6677 15.9386L6.46834 17.8632L4.99212 19.3349C4.20819 20.1165 4.20819 21.3861 4.99212 22.1677L6.46834 23.6394L5.6677 25.564C5.24253 26.5861 5.7284 27.7591 6.75173 28.1811L8.6788 28.9759L8.67562 31.0604C8.67394 32.1674 9.57172 33.0652 10.6787 33.0635L12.7632 33.0603L13.558 34.9874C13.98 36.0107 15.153 36.4966 16.1751 36.0714L18.0997 35.2708L19.5714 36.747C20.353 37.5309 21.6226 37.5309 22.4042 36.747L23.8759 35.2708L25.8005 36.0714C26.8226 36.4966 27.9956 36.0107 28.4176 34.9874L29.2124 33.0603L31.2969 33.0635C32.4039 33.0652 33.3017 32.1674 33.3 31.0604L33.2968 28.9759L35.2239 28.1811C36.2472 27.7591 36.7331 26.5861 36.3079 25.564L35.5073 23.6394L36.9835 22.1677C37.7674 21.3861 37.7674 20.1165 36.9835 19.3349L35.5073 17.8632L36.3079 15.9386C36.7331 14.9165 36.2472 13.7435 35.2239 13.3215L33.2968 12.5267L33.3 10.4422C33.3017 9.33521 32.4039 8.43743 31.2969 8.43911L29.2124 8.44229L28.4176 6.51522C27.9956 5.49189 26.8226 5.00602 25.8005 5.43118L23.8759 6.23183L22.4042 4.7556ZM20.9878 6.16766L22.6962 7.88126C23.1257 8.31209 23.7729 8.44083 24.3346 8.20716L26.5687 7.27778L27.4913 9.51471C27.7232 10.0771 28.2719 10.4437 28.8803 10.4428L31.3 10.4391L31.2963 12.8588C31.2954 13.4672 31.662 14.0158 32.2244 14.2478L34.4613 15.1704L33.5319 17.4045C33.2983 17.9662 33.427 18.6134 33.8578 19.0429L35.5714 20.7513L33.8578 22.4597C33.427 22.8892 33.2983 23.5364 33.5319 24.0981L34.4613 26.3322L32.2244 27.2548C31.662 27.4867 31.2954 28.0354 31.2963 28.6438L31.3 31.0635L28.8803 31.0598C28.2719 31.0589 27.7232 31.4255 27.4913 31.9879L26.5687 34.2248L24.3346 33.2954C23.7729 33.0618 23.1257 33.1905 22.6962 33.6213L20.9878 35.3349L19.2794 33.6213C18.8499 33.1905 18.2027 33.0618 17.641 33.2954L15.4069 34.2248L14.4843 31.9879C14.2524 31.4255 13.7037 31.0589 13.0953 31.0598L10.6756 31.0635L10.6793 28.6438C10.6802 28.0354 10.3136 27.4867 9.75122 27.2548L7.51429 26.3322L8.44368 24.0981C8.67734 23.5364 8.5486 22.8892 8.11778 22.4597L6.40417 20.7513L8.11778 19.0429C8.5486 18.6134 8.67734 17.9662 8.44368 17.4045L7.51429 15.1704L9.75122 14.2478C10.3136 14.0158 10.6802 13.4672 10.6793 12.8588L10.6756 10.4391L13.0953 10.4428C13.7037 10.4437 14.2524 10.0771 14.4843 9.51471L15.4069 7.27778L17.641 8.20716C18.2027 8.44083 18.8499 8.31209 19.2794 7.88126L20.9878 6.16766ZM15.5959 19.9105C16.0878 20.1973 16.6238 20.3407 17.204 20.3407C17.7842 20.3407 18.3202 20.1973 18.8121 19.9105C19.304 19.6107 19.6887 19.2066 19.9662 18.6982C20.2563 18.1898 20.4013 17.6358 20.4013 17.0362C20.4013 16.4366 20.2563 15.8891 19.9662 15.3938C19.6761 14.8854 19.2851 14.4878 18.7932 14.201C18.3139 13.9012 17.7842 13.7513 17.204 13.7513C16.6238 13.7513 16.0878 13.9012 15.5959 14.201C15.104 14.4878 14.713 14.8854 14.4229 15.3938C14.1328 15.8891 13.9878 16.4366 13.9878 17.0362C13.9878 17.6358 14.1328 18.1898 14.4229 18.6982C14.713 19.2066 15.104 19.6107 15.5959 19.9105ZM16.0878 27.3993C16.0878 27.5297 16.1698 27.5949 16.3337 27.5949H18.2256C18.3896 27.5949 18.5031 27.5297 18.5662 27.3993L25.6229 14.2597C25.6608 14.1945 25.6797 14.1358 25.6797 14.0837C25.6797 14.0316 25.6545 13.9924 25.604 13.9664C25.5662 13.9273 25.5094 13.9077 25.4338 13.9077H23.5419C23.3779 13.9077 23.2644 13.9729 23.2013 14.1032L16.1256 27.2429C16.1004 27.282 16.0878 27.3342 16.0878 27.3993ZM17.9986 17.8965C17.7842 18.1312 17.5193 18.2485 17.204 18.2485C16.8761 18.2485 16.5986 18.1312 16.3716 17.8965C16.1572 17.6619 16.05 17.3751 16.05 17.0362C16.05 16.6973 16.1635 16.417 16.3905 16.1954C16.6175 15.9608 16.8887 15.8435 17.204 15.8435C17.5193 15.8435 17.7842 15.9608 17.9986 16.1954C18.2256 16.4301 18.3392 16.7103 18.3392 17.0362C18.3392 17.3751 18.2256 17.6619 17.9986 17.8965ZM23.1824 27.3211C23.6743 27.6079 24.2103 27.7513 24.7905 27.7513C25.3707 27.7513 25.9067 27.6079 26.3986 27.3211C26.8905 27.0213 27.2752 26.6172 27.5527 26.1088C27.8428 25.6005 27.9878 25.0464 27.9878 24.4468C27.9878 23.8472 27.8428 23.2997 27.5527 22.8044C27.2626 22.296 26.8716 21.8984 26.3797 21.6116C25.9004 21.3118 25.3707 21.1619 24.7905 21.1619C24.2103 21.1619 23.6743 21.3118 23.1824 21.6116C22.6905 21.8984 22.2995 22.296 22.0094 22.8044C21.7193 23.2997 21.5743 23.8472 21.5743 24.4468C21.5743 25.0464 21.7193 25.6005 22.0094 26.1088C22.2995 26.6172 22.6905 27.0213 23.1824 27.3211ZM25.5851 25.3072C25.3707 25.5418 25.1058 25.6591 24.7905 25.6591C24.4626 25.6591 24.1851 25.5418 23.9581 25.3072C23.7437 25.0725 23.6365 24.7857 23.6365 24.4468C23.6365 24.1079 23.75 23.8276 23.977 23.606C24.204 23.3714 24.4752 23.2541 24.7905 23.2541C25.1058 23.2541 25.3707 23.3714 25.5851 23.606C25.8121 23.8407 25.9256 24.1209 25.9256 24.4468C25.9256 24.7857 25.8121 25.0725 25.5851 25.3072Z" fill="#5E6E7C"/>
</svg>
