<svg width="41" height="41" viewBox="0 0 41 41" fill="none" xmlns="http://www.w3.org/2000/svg">
<rect x="0.987793" y="0.751282" width="40" height="40" fill="white"/>
<path fill-rule="evenodd" clip-rule="evenodd" d="M30.7225 11.8073C32.4538 10.4253 33.4018 8.86454 33.6559 7.29082C33.9287 5.60128 33.3772 4.03761 32.385 2.87681C30.5281 0.704442 27.0103 -0.157056 24.1728 2.06736C23.1737 1.71963 22.1017 1.52954 20.9875 1.52621V1.52617L20.9759 1.52618L20.9758 1.52618L20.972 1.52618L20.9577 1.52617V1.52622C19.8435 1.52955 18.7714 1.71964 17.7724 2.06736C14.9349 -0.157049 11.417 0.704449 9.5602 2.87682C8.56801 4.03762 8.01647 5.60128 8.28929 7.29083C8.54342 8.86454 9.4914 10.4253 11.2227 11.8073C11.299 13.3112 11.7151 14.7255 12.3958 15.9749C9.44533 16.9196 6.54988 18.9119 4.88585 22.9817C4.49859 23.9289 4.65453 25.0991 5.49438 25.8614C6.19366 26.4962 7.1207 27.1251 8.13933 27.5383C8.73206 27.7788 9.38511 27.9577 10.0587 28.006C9.99483 28.5164 9.96149 29.0233 9.96149 29.5218C9.96149 29.9968 9.99175 30.4528 10.0519 30.89L7.53154 32.0728C7.07862 32.2854 6.53573 32.6698 6.26652 33.3263C5.07256 36.2378 7.38013 40.2698 11.6433 40.7234C12.4241 40.8065 13.1345 40.5109 13.6537 40.0843L16.7115 37.5717C18.2989 37.9746 20.0032 38.1457 20.9875 38.1457C22.8914 38.1457 23.8743 37.9691 25.2704 37.5774L28.3213 40.0843C28.8405 40.5109 29.5509 40.8065 30.3317 40.7234C34.5949 40.2698 36.9024 36.2378 35.7085 33.3263C35.4393 32.6698 34.8964 32.2854 34.4435 32.0728L31.9231 30.89C31.9832 30.4528 32.0135 29.9968 32.0135 29.5218C32.0135 29.0233 31.9802 28.5164 31.9163 28.006C32.5899 27.9577 33.2429 27.7788 33.8357 27.5383C34.8543 27.1251 35.7813 26.4962 36.4806 25.8614C37.3214 25.0982 37.4732 23.9302 37.0953 22.9868C35.4097 18.7786 32.5907 16.7754 29.6066 15.8681C30.2534 14.6452 30.6483 13.2686 30.7225 11.8073ZM6.73708 23.7386C8.24506 20.0505 10.8874 18.4301 13.5975 17.7061C13.9144 18.0716 14.258 18.4133 14.6252 18.7283C14.5077 18.8404 14.3982 18.9712 14.2992 19.1225C13.8797 19.7635 13.64 20.5068 13.5774 21.2662C11.7326 22.7628 10.9035 24.4145 10.4558 26.0185C9.97461 26.025 9.44377 25.9092 8.8912 25.6851C8.11944 25.372 7.3887 24.8798 6.8386 24.3805C6.70158 24.2561 6.62504 24.0127 6.73708 23.7386ZM13.9716 23.6295C12.945 24.7483 12.5055 25.9288 12.2382 27.1348C12.0556 27.9586 11.9615 28.763 11.9615 29.5218C11.9615 30.1586 12.0277 30.728 12.1481 31.2374L12.335 32.0277L11.5998 32.3728L8.38127 33.8834C8.2859 33.9281 8.2181 33.9743 8.17436 34.014C8.13266 34.0519 8.12054 34.0764 8.11697 34.0851C7.51129 35.5621 8.69235 38.3981 11.8549 38.7346C11.9952 38.7495 12.1875 38.7004 12.384 38.539L14.5027 36.7981C14.1937 36.6533 13.8951 36.4947 13.6086 36.3213L14.6444 34.6104C15.2523 34.9784 15.9596 35.2779 16.7569 35.5114C18.2794 35.9573 20.0673 36.1457 20.9875 36.1457C22.8781 36.1457 23.6622 35.9671 25.2181 35.5114C26.0154 35.2779 26.7227 34.9784 27.3306 34.6104L28.3664 36.3213C28.0799 36.4947 27.7813 36.6533 27.4723 36.7981L29.591 38.539C29.7875 38.7004 29.9798 38.7495 30.1201 38.7346C33.2827 38.3981 34.4637 35.5621 33.858 34.0851C33.8545 34.0764 33.8423 34.0519 33.8006 34.014C33.7569 33.9743 33.6891 33.9281 33.5937 33.8834L30.3752 32.3728L29.64 32.0277L29.8269 31.2374C29.9473 30.728 30.0135 30.1586 30.0135 29.5218C30.0135 28.763 29.9194 27.9586 29.7368 27.1348C29.4677 25.921 29.0243 24.7329 27.9833 23.6077C27.8675 23.8715 27.7268 24.1246 27.5613 24.3625C26.7743 25.4934 25.3805 25.4266 24.5167 25.0447L22.5315 24.1672C22.0938 24.4829 21.5621 24.679 20.9728 24.679C20.3834 24.679 19.8515 24.4829 19.4139 24.1671L17.4286 25.0447C16.5647 25.4265 15.1709 25.4933 14.3839 24.3624C14.223 24.1312 14.0855 23.8854 13.9716 23.6295ZM28.3656 21.2403C30.2328 22.7437 31.0689 24.4053 31.5192 26.0185C32.0004 26.025 32.5312 25.9092 33.0838 25.6851C33.8556 25.372 34.5863 24.8798 35.1364 24.3805C35.2724 24.257 35.3514 24.0118 35.2387 23.7305C33.7445 20.0001 31.3023 18.4026 28.7233 17.6944C28.6238 17.6671 28.5242 17.6411 28.4245 17.6164C28.0865 18.0158 27.7171 18.3877 27.3199 18.7283C27.4375 18.8405 27.547 18.9712 27.646 19.1226C28.0607 19.7563 28.2998 20.49 28.3656 21.2403ZM20.6627 21.0759C20.7607 21.0791 20.859 21.0809 20.9577 21.0812V21.0812L20.9684 21.0812L20.9717 21.0812L20.9717 21.0812L20.9875 21.0812V21.0812C21.0863 21.0809 21.1847 21.0791 21.2828 21.0759C21.3757 21.1271 21.4678 21.2038 21.5538 21.311C21.7086 21.504 21.7631 21.6825 21.7654 21.8283C21.7676 21.9692 21.7226 22.1502 21.5537 22.3606C21.3706 22.5889 21.1592 22.679 20.9728 22.679C20.7863 22.679 20.5749 22.5889 20.3918 22.3605C20.2234 22.1507 20.1781 21.9699 20.1801 21.8289C20.1822 21.6833 20.2362 21.5049 20.3917 21.311C20.4777 21.2039 20.5698 21.1272 20.6627 21.0759ZM26.089 17.1484C27.7113 15.7231 28.7352 13.6329 28.7352 11.3037V10.7969L29.1438 10.4973C30.8176 9.26989 31.5124 8.01891 31.6814 6.97199C31.8505 5.92484 31.5182 4.94095 30.8647 4.17629C29.8035 2.93476 27.9823 2.34618 26.2897 3.1068C26.9927 3.56489 27.6327 4.11076 28.1944 4.72869C28.5659 5.13735 28.5358 5.7698 28.1271 6.1413C27.7185 6.51279 27.086 6.48266 26.7145 6.07399C25.9599 5.24387 25.0289 4.57813 23.982 4.13578C23.0583 3.74552 22.0426 3.52836 20.9739 3.52618C19.9043 3.528 18.8877 3.7452 17.9632 4.13579C16.9162 4.57814 15.9853 5.24388 15.2307 6.074C14.8592 6.48267 14.2267 6.5128 13.818 6.1413C13.4094 5.76981 13.3792 5.13736 13.7507 4.72869C14.3125 4.11077 14.9525 3.5649 15.6554 3.1068C13.9629 2.34618 12.1417 2.93477 11.0805 4.1763C10.4269 4.94096 10.0946 5.92485 10.2637 6.972C10.4328 8.01892 11.1276 9.2699 12.8013 10.4973L13.21 10.797V11.3037C13.21 13.6497 14.2487 15.7531 15.8913 17.1791C15.8379 16.8713 15.8105 16.5458 15.8105 16.2034C15.8105 13.1541 18.0124 10.4584 20.9875 10.4584C23.9627 10.4584 26.1645 13.1541 26.1645 16.2034C26.1645 16.5344 26.139 16.8497 26.089 17.1484ZM17.5591 10.3284C18.0978 10.3284 18.5344 9.89175 18.5344 9.35312C18.5344 8.81449 18.0978 8.37784 17.5591 8.37784C17.0205 8.37784 16.5839 8.81449 16.5839 9.35312C16.5839 9.89175 17.0205 10.3284 17.5591 10.3284ZM25.3614 9.35312C25.3614 9.89175 24.9247 10.3284 24.3861 10.3284C23.8475 10.3284 23.4108 9.89175 23.4108 9.35312C23.4108 8.81449 23.8475 8.37784 24.3861 8.37784C24.9247 8.37784 25.3614 8.81449 25.3614 9.35312ZM17.8105 16.2034C17.8105 14.0115 19.3489 12.4584 20.9875 12.4584C22.6261 12.4584 24.1645 14.0115 24.1645 16.2034C24.1645 17.2482 23.8078 17.8357 23.3359 18.1945C22.8186 18.5877 22.0205 18.8123 20.9875 18.8123C19.9545 18.8123 19.1564 18.5877 18.6392 18.1945C18.1672 17.8357 17.8105 17.2482 17.8105 16.2034ZM21.9628 14.0358C21.9628 14.5744 21.5262 15.011 20.9875 15.011C20.4489 15.011 20.0123 14.5744 20.0123 14.0358C20.0123 13.4971 20.4489 13.0605 20.9875 13.0605C21.5262 13.0605 21.9628 13.4971 21.9628 14.0358ZM18.1803 21.8002C18.1769 22.0343 18.2047 22.2652 18.2616 22.4897L16.6199 23.2154C16.4475 23.2916 16.2833 23.3092 16.1715 23.2926C16.0743 23.2781 16.0436 23.246 16.0255 23.2199C15.4245 22.3563 15.406 21.0836 15.9727 20.2177C15.9886 20.1934 16.0135 20.1626 16.1114 20.1506C16.2272 20.1364 16.3999 20.1613 16.5759 20.2516L18.2776 21.1247C18.2173 21.3421 18.1836 21.5681 18.1803 21.8002ZM25.3253 23.2155L23.6839 22.4899C23.7411 22.2643 23.7688 22.0323 23.7652 21.7972C23.7616 21.566 23.7278 21.341 23.6679 21.1247L25.3693 20.2517C25.5453 20.1614 25.718 20.1364 25.8338 20.1507C25.9317 20.1627 25.9566 20.1934 25.9725 20.2178C26.5392 21.0836 26.5207 22.3564 25.9197 23.22C25.9016 23.246 25.871 23.2782 25.7737 23.2926C25.6619 23.3092 25.4977 23.2917 25.3253 23.2155Z" fill="#5E6E7C"/>
</svg>
