<svg width="41" height="41" viewBox="0 0 41 41" fill="none" xmlns="http://www.w3.org/2000/svg">
<rect x="0.987793" y="0.751343" width="40" height="40" fill="white"/>
<path fill-rule="evenodd" clip-rule="evenodd" d="M22.4764 5.60834C15.702 5.60834 10.2103 11.1001 10.2103 17.8745C10.2103 19.782 10.6457 21.5878 11.4226 23.198L14.4918 21.6733L14.5278 21.6559L22.5531 13.4612L23.982 14.8605L18.4313 20.5283C19.8143 20.3724 21.224 20.4553 22.5977 20.7841L22.6153 20.7883L22.9371 20.8777L32.757 11.181C32.0891 10.1573 31.2724 9.23946 30.3377 8.45823L26.0918 12.7491L24.6701 11.3424L28.6797 7.29029C26.8598 6.22131 24.7397 5.60834 22.4764 5.60834ZM33.7434 13.0176L25.1582 21.4952L27.2148 22.0668C28.8743 22.5281 30.6097 23.981 30.5183 26.0465L31.7633 25.888C33.6197 23.7385 34.7425 20.9376 34.7425 17.8745C34.7425 16.1491 34.3863 14.507 33.7434 13.0176ZM34.5113 25.5383C35.9239 23.3246 36.7425 20.6952 36.7425 17.8745C36.7425 9.9955 30.3554 3.60834 22.4764 3.60834C14.5974 3.60834 8.21026 9.9955 8.21026 17.8745C8.21026 20.1017 8.72066 22.2098 9.63088 24.0881L4.05062 26.8602C3.09032 27.3372 2.3341 28.3729 2.4932 29.6121C2.85034 32.3935 4.49556 35.6196 6.9439 37.2828C8.10722 38.0731 9.50008 37.8273 10.4797 37.254L12.5909 36.0184C13.0117 35.7722 13.5079 35.6881 13.9862 35.782L24.2746 37.8008C25.4449 38.0304 26.6587 37.8342 27.697 37.2476L37.9791 31.4382C39.1926 30.7525 39.7741 29.3212 39.3825 27.9834L39.2365 27.4848C38.8223 26.0698 37.4413 25.1654 35.9786 25.3516L34.5113 25.5383ZM4.94041 28.6513L15.3711 23.4696C17.4664 22.4498 19.8489 22.1869 22.115 22.7251L26.6792 23.9938C27.909 24.3356 28.6132 25.254 28.509 26.0895C28.5033 26.1359 28.4968 26.1784 28.4899 26.2171L22.109 25.6261C21.5591 25.5751 21.072 25.9797 21.021 26.5296C20.9701 27.0795 21.3746 27.5666 21.9245 27.6176L28.9224 28.2657L36.2311 27.3356C36.7186 27.2735 37.179 27.575 37.3171 28.0467L37.463 28.5453C37.5936 28.9912 37.3998 29.4683 36.9952 29.6969L26.7131 35.5063C26.0902 35.8583 25.3619 35.976 24.6597 35.8382L14.3713 33.8194C13.4146 33.6316 12.4222 33.7998 11.5808 34.2923L9.46947 35.5279C8.90537 35.858 8.38394 35.8432 8.06776 35.6284C6.18702 34.3508 4.7769 31.6937 4.47692 29.3573C4.44805 29.1325 4.57883 28.831 4.94041 28.6513Z" fill="#5E6E7C"/>
</svg>
