<svg width="41" height="41" viewBox="0 0 41 41" fill="none" xmlns="http://www.w3.org/2000/svg">
<rect x="0.987793" y="0.751343" width="40" height="40" fill="white"/>
<path fill-rule="evenodd" clip-rule="evenodd" d="M9.98779 2.61267C8.33094 2.61267 6.98779 3.95582 6.98779 5.61267V19.5546C6.98779 20.3247 7.7982 20.8255 8.48697 20.4811L10.9878 19.2307V26.5739C10.9878 27.4023 11.6594 28.0739 12.4878 28.0739H17.1577V30.1896H13.4555C12.4998 30.1896 12.041 31.3625 12.743 32.0109L21.6307 40.2205C22.397 40.9283 23.5786 40.9283 24.3448 40.2205L33.2325 32.0109C33.9345 31.3625 33.4757 30.1896 32.5201 30.1896H28.8178V28.0739H33.4878C34.3162 28.0739 34.9878 27.4023 34.9878 26.5739V5.61267C34.9878 3.95582 33.6446 2.61267 31.9878 2.61267H9.98779ZM28.8178 26.0739H32.9878V5.61267C32.9878 5.06039 32.5401 4.61267 31.9878 4.61267H12.8171C12.9276 4.92545 12.9878 5.26204 12.9878 5.61267V17.1127V17.6127V18.2307V26.0739H17.1577V22.1127H19.1577V31.1896V32.1896H18.1577H15.884L22.9878 38.7513L30.0915 32.1896H27.8178H26.8178V31.1896V22.1127H28.8178V26.0739ZM8.98779 5.61267C8.98779 5.06039 9.43551 4.61267 9.98779 4.61267C10.5401 4.61267 10.9878 5.06039 10.9878 5.61267V16.9946L8.98779 17.9946V5.61267ZM17.4878 8.61267C17.2117 8.61267 16.9878 8.83653 16.9878 9.11267V10.1127C16.9878 10.3888 17.2117 10.6127 17.4878 10.6127H20.4878C20.7639 10.6127 20.9878 10.3888 20.9878 10.1127V9.11267C20.9878 8.83653 20.7639 8.61267 20.4878 8.61267H17.4878ZM17.4878 12.6127C17.2117 12.6127 16.9878 12.8365 16.9878 13.1127V14.1127C16.9878 14.3888 17.2117 14.6127 17.4878 14.6127H20.4878C20.7639 14.6127 20.9878 14.3888 20.9878 14.1127V13.1127C20.9878 12.8365 20.7639 12.6127 20.4878 12.6127H17.4878ZM22.9878 13.1127C22.9878 12.8365 23.2117 12.6127 23.4878 12.6127H29.4878C29.7639 12.6127 29.9878 12.8365 29.9878 13.1127V14.1127C29.9878 14.3888 29.7639 14.6127 29.4878 14.6127H23.4878C23.2117 14.6127 22.9878 14.3888 22.9878 14.1127V13.1127ZM17.4878 16.6127C17.2117 16.6127 16.9878 16.8365 16.9878 17.1127V18.1127C16.9878 18.3888 17.2117 18.6127 17.4878 18.6127H20.4878C20.7639 18.6127 20.9878 18.3888 20.9878 18.1127V17.1127C20.9878 16.8365 20.7639 16.6127 20.4878 16.6127H17.4878ZM22.9878 17.1127C22.9878 16.8365 23.2117 16.6127 23.4878 16.6127H29.4878C29.7639 16.6127 29.9878 16.8365 29.9878 17.1127V18.1127C29.9878 18.3888 29.7639 18.6127 29.4878 18.6127H23.4878C23.2117 18.6127 22.9878 18.3888 22.9878 18.1127V17.1127Z" fill="#5E6E7C"/>
</svg>
