<svg width="41" height="41" viewBox="0 0 41 41" fill="none" xmlns="http://www.w3.org/2000/svg">
<rect x="0.987793" y="0.751343" width="40" height="40" fill="white"/>
<path fill-rule="evenodd" clip-rule="evenodd" d="M12.9859 3.41565C11.6175 3.41565 10.5082 4.52497 10.5082 5.89339V18.675C10.5082 18.9922 10.251 19.2494 9.93371 19.2494C9.60745 19.2494 9.34668 18.978 9.35972 18.652L9.86734 5.96017C9.92288 4.57163 8.81221 3.41565 7.42256 3.41565C6.11548 3.41565 5.03921 4.44301 4.97847 5.74868L4.10004 24.6302V24.6535C4.10004 26.9076 5.20915 29.0136 7.08318 30.5286L7.84816 31.1471C8.82896 31.94 9.32368 32.9641 9.32368 33.9739V36.6745C9.32368 37.7791 10.2191 38.6745 11.3237 38.6745H14.5473C15.6519 38.6745 16.5473 37.7791 16.5473 36.6745V33.9739C16.5473 32.9641 17.042 31.94 18.0228 31.1471L18.7878 30.5286C19.2862 30.1257 19.7305 29.681 20.1142 29.2029C20.7653 30.1015 21.5193 30.877 22.3585 31.5097C23.6333 32.4707 24.461 33.5828 24.461 34.6965V36.1379C24.461 37.2424 25.3564 38.1379 26.461 38.1379H29.5322C30.6368 38.1379 31.5322 37.2424 31.5322 36.1379V34.6965C31.5322 33.5828 32.3599 32.4707 33.6347 31.5097C36.6703 29.2211 38.5778 25.0877 38.5778 19.9469C38.5778 16.0058 37.4607 11.9466 35.633 8.84674C33.8306 5.79001 31.1712 3.41565 27.9966 3.41565C26.0529 3.41565 24.2948 4.31587 22.831 5.68914C22.1658 6.31317 21.5508 7.04379 20.9926 7.85421L20.8933 5.74675C20.8318 4.44193 19.756 3.41565 18.4497 3.41565C17.0592 3.41565 15.9483 4.57319 16.0055 5.96253L16.5294 18.6944C16.5419 18.9972 16.2998 19.2494 15.9968 19.2494C15.7023 19.2494 15.4636 19.0108 15.4636 18.7163V5.89339C15.4636 4.52497 14.3543 3.41565 12.9859 3.41565ZM21.1713 11.6444L21.771 24.3645V24.6535C21.771 24.7239 21.7699 24.7942 21.7677 24.8644C21.7419 25.704 21.5624 26.521 21.2472 27.2921C21.8938 28.3691 22.6813 29.2483 23.5625 29.9127C24.9688 30.9729 26.461 32.604 26.461 34.6965V36.1379H29.5322V34.6965C29.5322 32.604 31.0244 30.9729 32.4307 29.9127C34.8509 28.0881 36.5778 24.6182 36.5778 19.9469C36.5778 16.3503 35.5501 12.6439 33.9101 9.86256C32.2447 7.03807 30.1136 5.41565 27.9966 5.41565C26.7024 5.41565 25.4101 6.01195 24.1994 7.14774C23.0309 8.24395 21.9865 9.80225 21.1713 11.6444ZM19.1518 11.2764L18.8955 5.84093C18.8843 5.60288 18.688 5.41565 18.4497 5.41565C18.196 5.41565 17.9934 5.62683 18.0038 5.88029L18.5278 18.6122C18.587 20.0508 17.4366 21.2494 15.9968 21.2494C14.5978 21.2494 13.4636 20.1153 13.4636 18.7163V5.89339C13.4636 5.62954 13.2498 5.41565 12.9859 5.41565C12.7221 5.41565 12.5082 5.62954 12.5082 5.89339V18.675C12.5082 20.0968 11.3555 21.2494 9.93371 21.2494C8.47152 21.2494 7.30288 20.0331 7.36132 18.5721L7.86894 5.88024C7.87908 5.62672 7.67629 5.41565 7.42256 5.41565C7.18391 5.41565 6.9874 5.60323 6.97631 5.84163L6.10009 24.6756C6.1073 26.2379 6.87684 27.79 8.34054 28.9733L9.10552 29.5917C10.4897 30.7108 11.3237 32.2798 11.3237 33.9739V36.6745H14.5473V33.9739C14.5473 32.2798 15.3813 30.7108 16.7655 29.5917L17.5305 28.9733C19.0011 27.7844 19.771 26.2232 19.771 24.6535V24.4116L19.1518 11.2764Z" fill="#5E6E7C"/>
</svg>
