<svg width="41" height="41" viewBox="0 0 41 41" fill="none" xmlns="http://www.w3.org/2000/svg">
<rect x="0.987793" y="0.751282" width="40" height="40" fill="white"/>
<path fill-rule="evenodd" clip-rule="evenodd" d="M24.1947 8.82076C24.4708 8.82076 24.6947 8.5969 24.6947 8.32076L24.6947 7.32076C24.6947 7.04462 24.4708 6.82076 24.1947 6.82076L7.36133 6.82076C6.5329 6.82076 5.86133 7.49233 5.86133 8.32076L5.86133 33.3208C5.86133 34.1492 6.5329 34.8208 7.36133 34.8208H34.3613C35.1898 34.8208 35.8613 34.1492 35.8613 33.3208V15.4117C35.8613 15.1355 35.6375 14.9117 35.3613 14.9117L34.3613 14.9117C34.0852 14.9117 33.8613 15.1355 33.8613 15.4117V32.8208H7.86133L7.86133 8.82076H24.1947ZM30.8368 5.56047C32.0084 4.3889 33.9078 4.3889 35.0794 5.56047L35.5246 6.00564C36.6962 7.17721 36.6962 9.07671 35.5246 10.2483L18.1156 27.6572L17.9487 27.8242L17.7247 27.8988L12.9092 29.504C12.0884 29.7776 11.3074 28.9967 11.5811 28.1758L13.1862 23.3603L13.2609 23.1364L13.4278 22.9694L30.8368 5.56047ZM33.6652 6.97469C33.2747 6.58416 32.6415 6.58416 32.251 6.97469L30.6603 8.56536L32.5197 10.4247L34.1104 8.83407C34.5009 8.44354 34.5009 7.81038 34.1104 7.41985L33.6652 6.97469ZM31.1055 11.839L29.2461 9.97957L15.8111 23.4146L17.6705 25.274L31.1055 11.839ZM15.9502 26.3821L14.7029 25.1349L14.0793 27.0058L15.9502 26.3821Z" fill="#5E6E7C"/>
</svg>
