<svg width="41" height="41" viewBox="0 0 41 41" fill="none" xmlns="http://www.w3.org/2000/svg">
<rect x="0.987793" y="0.751282" width="40" height="40" fill="white"/>
<path fill-rule="evenodd" clip-rule="evenodd" d="M7.87238 6.75128C7.87238 5.64671 8.76781 4.75128 9.87238 4.75128H26.3339C27.4385 4.75128 28.3339 5.64671 28.3339 6.75128V10.5205H31.6031H32.1031H37.8724C38.9769 10.5205 39.8724 11.4159 39.8724 12.5205V34.7513C39.8724 35.8559 38.9769 36.7513 37.8724 36.7513H32.1031H20.5647H20.4108H14.6416H4.10315C2.99858 36.7513 2.10315 35.8559 2.10315 34.7513V12.5205C2.10315 11.4159 2.99858 10.5205 4.10315 10.5205H7.87238V6.75128ZM28.3339 28.982V12.5205H31.6031H32.1031V34.7513H22.5647V30.982H26.3339C27.4385 30.982 28.3339 30.0866 28.3339 28.982ZM26.3339 28.982H22.5647V12.5205C22.5647 11.4159 21.6693 10.5205 20.5647 10.5205H9.87238V6.75128L26.3339 6.75128V28.982ZM20.5647 34.7513L20.5647 12.5205H4.10315V34.7513H14.6416H20.4108H20.5647ZM34.1031 34.7513V12.5205H37.8724V34.7513H34.1031ZM6.10315 16.2513C6.10315 16.5274 6.32701 16.7513 6.60315 16.7513H12.6031C12.8793 16.7513 13.1031 16.5274 13.1031 16.2513V15.2513C13.1031 14.9751 12.8793 14.7513 12.6031 14.7513H6.60315C6.32701 14.7513 6.10315 14.9751 6.10315 15.2513V16.2513ZM18.6031 21.2513C18.6031 21.5274 18.3793 21.7513 18.1031 21.7513H6.60315C6.32701 21.7513 6.10315 21.5274 6.10315 21.2513V20.2513C6.10315 19.9751 6.32701 19.7513 6.60315 19.7513H18.1031C18.3793 19.7513 18.6031 19.9751 18.6031 20.2513V21.2513ZM6.10315 26.2513C6.10315 26.5274 6.32701 26.7513 6.60315 26.7513H18.1031C18.3793 26.7513 18.6031 26.5274 18.6031 26.2513V25.2513C18.6031 24.9751 18.3793 24.7513 18.1031 24.7513H6.60315C6.32701 24.7513 6.10315 24.9751 6.10315 25.2513V26.2513Z" fill="#5E6E7C"/>
</svg>
