<?xml version="1.0" encoding="utf-8"?>
<!-- Generator: Adobe Illustrator 25.2.3, SVG Export Plug-In . SVG Version: 6.00 Build 0)  -->
<svg version="1.1" id="Layer_1" xmlns="http://www.w3.org/2000/svg" xmlns:xlink="http://www.w3.org/1999/xlink" x="0px" y="0px"
	 viewBox="0 0 41 41" style="enable-background:new 0 0 41 41;" xml:space="preserve">
<style type="text/css">
	.st0{fill-rule:evenodd;clip-rule:evenodd;fill:#FFFFFF;}
</style>
<path class="st0" d="M3,7.1c-0.6,0-1,0.4-1,1s0.4,1,1,1h0.9v4.1c0,0.8,0.3,1.5,0.8,2.1l12.8,13.3c0.2,0.2,0.3,0.4,0.3,0.7V36
	c0,1.1,0.9,2,2,2H22c1.1,0,2-0.9,2-2v-6.7c0-0.3,0.1-0.5,0.3-0.7l12.8-13.3c0.5-0.6,0.8-1.3,0.8-2.1V9.1H39c0.6,0,1-0.4,1-1
	s-0.4-1-1-1h-2.1h-32C4.9,7.1,3,7.1,3,7.1z M5.9,13.1v-4h30v4.1c0,0.3-0.1,0.5-0.3,0.7L35,14.5c-4.2-0.2-7.8,0.5-11.2,1.1
	c-1.1,0.2-2.1,0.4-3.2,0.5c-4.3,0.7-8.4,0.8-13.5-1.4l-0.9-0.9C6,13.6,5.9,13.4,5.9,13.1z M10.1,17.9l8.8,9.2
	c0.5,0.6,0.8,1.3,0.8,2.1v6.7H22v-6.7c0-0.8,0.3-1.5,0.8-2.1L33,16.5c-3.2,0.1-6,0.6-8.8,1.1c-1.1,0.2-2.2,0.4-3.4,0.6
	C17.5,18.7,14,18.9,10.1,17.9z"/>
</svg>
