<svg width="41" height="41" viewBox="0 0 41 41" fill="none" xmlns="http://www.w3.org/2000/svg">
<rect x="0.987793" y="0.751282" width="40" height="40" fill="white"/>
<path fill-rule="evenodd" clip-rule="evenodd" d="M20.9271 6.28253C13.5532 6.28253 7.62494 10.978 6.61334 16.8672C6.55127 17.2285 6.84967 17.6888 7.45837 17.6888H7.48779H34.3959C35.0046 17.6888 35.303 17.2285 35.2409 16.8672C34.2293 10.978 28.301 6.28253 20.9271 6.28253ZM4.64221 16.5287C4.51208 17.2861 4.70203 17.9615 5.0838 18.4915C4.1145 19.2214 3.48779 20.3819 3.48779 21.6888V22.9075C3.48779 23.9389 3.87811 24.879 4.51904 25.5884V26.1105C4.51904 26.8316 4.70251 27.5337 5.04364 28.1545C4.71759 28.5149 4.51904 28.9927 4.51904 29.5169V32.22C4.51904 34.9815 6.75763 37.22 9.51904 37.22H32.4565C35.218 37.22 37.4565 34.9815 37.4565 32.22V29.5169C37.4565 28.9927 37.258 28.5149 36.9319 28.1545C37.2731 27.5337 37.4565 26.8316 37.4565 26.1105V25.5884C38.0975 24.879 38.4878 23.9389 38.4878 22.9075V21.6888C38.4878 20.3462 37.8264 19.1582 36.8116 18.4327C37.1657 17.9119 37.3374 17.2584 37.212 16.5287C36.0044 9.49804 29.0784 4.28253 20.9271 4.28253C12.7758 4.28253 5.84985 9.49804 4.64221 16.5287ZM35.3428 26.8159C35.0674 26.8759 34.7812 26.9075 34.4878 26.9075H7.48779C7.19434 26.9075 6.9082 26.8759 6.63275 26.8159C6.74176 27.1451 6.92664 27.4478 7.17645 27.6976L8.80426 29.3254C9.83759 30.3588 11.513 30.3588 12.5463 29.3254C14.3607 27.511 17.3024 27.511 19.1168 29.3254C20.1501 30.3588 21.8255 30.3588 22.8588 29.3254C24.6732 27.511 27.6149 27.511 29.4293 29.3254C30.4626 30.3588 32.138 30.3588 33.1713 29.3254L34.7991 27.6976C35.049 27.4478 35.2338 27.1451 35.3428 26.8159ZM35.4565 29.8686L34.5855 30.7396C32.7711 32.554 29.8295 32.554 28.0151 30.7396C26.9818 29.7063 25.3063 29.7063 24.273 30.7396C22.4586 32.554 19.517 32.554 17.7026 30.7396C16.6693 29.7063 14.9938 29.7063 13.9605 30.7396C12.1461 32.554 9.20447 32.554 7.39008 30.7396L6.51904 29.8686V32.22C6.51904 33.8769 7.86218 35.22 9.51904 35.22H32.4565C34.1134 35.22 35.4565 33.8769 35.4565 32.22V29.8686ZM5.48779 21.6888C5.48779 20.8709 5.97876 20.1676 6.68207 19.8577L15.0844 23.8378C15.8788 24.2141 16.7982 24.223 17.5998 23.8623L26.8743 19.6888H34.3959H34.4878C35.5923 19.6888 36.4878 20.5842 36.4878 21.6888V22.9075C36.4878 24.0121 35.5923 24.9075 34.4878 24.9075H7.48779C6.38324 24.9075 5.48779 24.0121 5.48779 22.9075V21.6888ZM15.9406 22.0303L10.9974 19.6888H22.0006L16.7791 22.0385C16.5118 22.1587 16.2054 22.1557 15.9406 22.0303ZM16.8021 9.31019C17.3544 9.31019 17.8021 9.75791 17.8021 10.3102C17.8021 10.8625 17.3544 11.3102 16.8021 11.3102C16.2498 11.3102 15.8021 10.8625 15.8021 10.3102C15.8021 9.75791 16.2498 9.31019 16.8021 9.31019ZM25.0521 9.31019C25.6044 9.31019 26.0521 9.75791 26.0521 10.3102C26.0521 10.8625 25.6044 11.3102 25.0521 11.3102C24.4998 11.3102 24.0521 10.8625 24.0521 10.3102C24.0521 9.75791 24.4998 9.31019 25.0521 9.31019ZM13.6771 14.4352C13.6771 13.8829 13.2294 13.4352 12.6771 13.4352C12.1248 13.4352 11.6771 13.8829 11.6771 14.4352C11.6771 14.9875 12.1248 15.4352 12.6771 15.4352C13.2294 15.4352 13.6771 14.9875 13.6771 14.4352ZM20.9271 13.4352C21.4794 13.4352 21.9271 13.8829 21.9271 14.4352C21.9271 14.9875 21.4794 15.4352 20.9271 15.4352C20.3748 15.4352 19.9271 14.9875 19.9271 14.4352C19.9271 13.8829 20.3748 13.4352 20.9271 13.4352ZM30.1771 14.4352C30.1771 13.8829 29.7294 13.4352 29.1771 13.4352C28.6248 13.4352 28.1771 13.8829 28.1771 14.4352C28.1771 14.9875 28.6248 15.4352 29.1771 15.4352C29.7294 15.4352 30.1771 14.9875 30.1771 14.4352Z" fill="#5E6E7C"/>
</svg>
