<svg width="41" height="41" viewBox="0 0 41 41" fill="none" xmlns="http://www.w3.org/2000/svg">
<rect x="0.987793" y="0.751282" width="40" height="40" fill="white"/>
<path fill-rule="evenodd" clip-rule="evenodd" d="M18.1763 1.57753C18.5484 1.16942 19.1809 1.14023 19.589 1.51234C20.8599 2.67113 21.6102 3.81921 22.023 5.08451C22.0574 5.18996 22.0892 5.29572 22.1188 5.40183C26.1961 5.65682 29.4241 9.04447 29.4241 13.186C29.4241 14.6424 29.8919 16.081 30.8139 16.9422C33.4441 19.3986 35.0904 22.9005 35.0904 26.7853C35.0904 34.2224 29.0615 40.2513 21.6245 40.2513C14.1874 40.2513 8.15848 34.2224 8.15848 26.7853C8.15848 22.9005 9.80482 19.3986 12.435 16.9422C13.0709 16.3482 13.4907 15.4797 13.6901 14.5201C13.3829 14.5563 13.0703 14.5756 12.7531 14.5756C10.0009 14.5756 7.59539 13.1216 5.94955 11.7841C5.11306 11.1044 4.43847 10.4267 3.97254 9.91896C3.73901 9.66445 3.55638 9.45097 3.43052 9.29899C3.36755 9.22296 3.31868 9.16219 3.28464 9.11923C3.26762 9.09775 3.25429 9.08071 3.24476 9.06842L3.2333 9.0536L3.22973 9.04894L3.22848 9.04731L2.76663 8.4405L3.2276 7.83485L3.22973 7.83206L3.2333 7.8274L3.24476 7.81258C3.25429 7.80029 3.26762 7.78325 3.28464 7.76177C3.31868 7.71881 3.36755 7.65804 3.43052 7.58201C3.55638 7.43004 3.73901 7.21655 3.97254 6.96204C4.43847 6.45427 5.11306 5.77664 5.94955 5.09687C7.59539 3.7594 10.0009 2.30537 12.7531 2.30537C14.9356 2.30537 16.8948 3.2203 18.4175 4.24965C19.0246 4.66003 19.575 5.09722 20.0574 5.51951C19.7555 4.69772 19.2252 3.88715 18.2415 2.99024C17.8334 2.61813 17.8042 1.98564 18.1763 1.57753ZM13.8001 18.4038C15.0406 17.2452 15.6357 15.5853 15.7858 14.007C16.7571 13.648 17.6437 13.1545 18.4175 12.6313C19.1002 12.1699 19.7113 11.6745 20.2344 11.2045C20.5804 11.4034 21.0132 11.5216 21.4828 11.5216C22.6172 11.5216 23.5368 10.8319 23.5368 9.98104C23.5368 9.40214 23.1111 8.89782 22.4816 8.63459C22.4813 8.59308 22.4809 8.55162 22.4804 8.51023C22.482 8.48719 22.4828 8.46394 22.4828 8.4405C22.4828 8.40684 22.4811 8.37358 22.4779 8.34078C22.4724 8.03841 22.4618 7.73948 22.4425 7.44367C25.2582 7.8412 27.4241 10.2607 27.4241 13.186C27.4241 14.9868 27.9905 17.0418 29.4488 18.4038C31.6909 20.4979 33.0904 23.4774 33.0904 26.7853C33.0904 33.1178 27.957 38.2513 21.6245 38.2513C15.292 38.2513 10.1585 33.1178 10.1585 26.7853C10.1585 23.4774 11.558 20.4979 13.8001 18.4038ZM19.1978 7.4405C18.6724 6.9449 18.0289 6.40107 17.2974 5.90658C15.9491 4.99514 14.3821 4.30537 12.7531 4.30537C10.6839 4.30537 8.72457 5.4189 7.21087 6.64899C6.46759 7.25301 5.86374 7.85917 5.44617 8.31423C5.40618 8.35781 5.36795 8.39995 5.33153 8.4405C5.36795 8.48105 5.40618 8.52319 5.44617 8.56677C5.86374 9.02183 6.46759 9.62799 7.21087 10.232C8.72457 11.4621 10.6839 12.5756 12.7531 12.5756C14.3821 12.5756 15.9491 11.8859 17.2974 10.9744C18.0289 10.4799 18.6724 9.9361 19.1978 9.4405H12.2395C11.6872 9.4405 11.2395 8.99278 11.2395 8.4405C11.2395 7.88821 11.6872 7.4405 12.2395 7.4405H19.1978Z" fill="#5E6E7C"/>
</svg>
