<svg width="41" height="41" viewBox="0 0 41 41" fill="none" xmlns="http://www.w3.org/2000/svg">
<rect x="0.987793" y="0.751282" width="40" height="40" fill="white"/>
<path fill-rule="evenodd" clip-rule="evenodd" d="M10.5912 6.52258C7.09075 6.52258 4.12839 9.10839 3.65542 12.5768L1.54018 28.0884C1.04308 31.7338 3.87667 34.98 7.55577 34.98C10.0016 34.98 12.2086 33.5123 13.1546 31.2568L14.5402 27.9528C15.1992 26.3815 16.7367 25.3591 18.4406 25.3591H23.535C25.2389 25.3591 26.7764 26.3815 27.4353 27.9528L28.821 31.2568C29.7669 33.5123 31.9739 34.98 34.4198 34.98C38.0989 34.98 40.9325 31.7338 40.4354 28.0884L38.2195 11.8381C37.8042 8.79291 35.2033 6.52258 32.1299 6.52258H32.0511C30.9409 6.52258 29.8786 6.95647 29.0874 7.72519H14.0907C13.2996 6.95647 12.2373 6.52258 11.1272 6.52258H10.5912ZM5.63708 12.847C5.97492 10.3696 8.09089 8.52258 10.5912 8.52258H11.1272C11.7633 8.52258 12.3697 8.7915 12.7968 9.26293C13.0634 9.55728 13.4421 9.72519 13.8392 9.72519H29.3389C29.7361 9.72519 30.1147 9.55729 30.3814 9.26295C30.8085 8.79151 31.4149 8.52258 32.0511 8.52258H32.1299C34.2031 8.52258 35.9577 10.0541 36.2378 12.1084L38.4537 28.3586C38.7871 30.8031 36.8869 32.98 34.4198 32.98C32.7796 32.98 31.2997 31.9958 30.6653 30.4833L29.2797 27.1793C28.3091 24.865 26.0446 23.3591 23.535 23.3591H18.4406C15.931 23.3591 13.6665 24.865 12.6959 27.1793L11.3102 30.4833C10.6759 31.9958 9.19591 32.98 7.55577 32.98C5.08864 32.98 3.1885 30.8031 3.52184 28.3586L5.63708 12.847ZM11.231 11.7381C10.4026 11.7381 9.73099 12.4096 9.73099 13.2381V13.8893H9.07971C8.25129 13.8893 7.57971 14.5609 7.57971 15.3893V17.5406C7.57971 18.369 8.25128 19.0406 9.07971 19.0406H9.73099V19.6919C9.73099 20.5203 10.4026 21.1919 11.231 21.1919H13.3822C14.2107 21.1919 14.8822 20.5203 14.8822 19.6919V19.0406H15.5335C16.3619 19.0406 17.0335 18.369 17.0335 17.5406V15.3893C17.0335 14.5609 16.3619 13.8893 15.5335 13.8893H14.8822V13.2381C14.8822 12.4096 14.2107 11.7381 13.3822 11.7381H11.231ZM11.731 14.8893V13.7381H12.8822V14.8893V15.8893H13.8822H15.0335V17.0406H13.8822H12.8822V18.0406V19.1919H11.731V18.0406V17.0406H10.731H9.57971V15.8893H10.731H11.731V14.8893ZM31.7673 12.8969C31.3008 12.8969 30.9226 13.275 30.9226 13.7415C30.9226 14.208 31.3008 14.5862 31.7673 14.5862C32.2338 14.5862 32.612 14.208 32.612 13.7415C32.612 13.275 32.2338 12.8969 31.7673 12.8969ZM28.9226 13.7415C28.9226 12.1705 30.1962 10.8969 31.7673 10.8969C33.3384 10.8969 34.612 12.1705 34.612 13.7415C34.612 15.3126 33.3384 16.5862 31.7673 16.5862C30.1962 16.5862 28.9226 15.3126 28.9226 13.7415ZM26.419 18.3472C26.419 17.8807 26.7972 17.5025 27.2637 17.5025C27.7302 17.5025 28.1084 17.8807 28.1084 18.3472C28.1084 18.8137 27.7302 19.1919 27.2637 19.1919C26.7972 19.1919 26.419 18.8137 26.419 18.3472ZM27.2637 15.5025C25.6926 15.5025 24.419 16.7761 24.419 18.3472C24.419 19.9183 25.6926 21.1919 27.2637 21.1919C28.8348 21.1919 30.1084 19.9183 30.1084 18.3472C30.1084 16.7761 28.8348 15.5025 27.2637 15.5025Z" fill="#5E6E7C"/>
</svg>
