<svg width="41" height="41" viewBox="0 0 41 41" fill="none" xmlns="http://www.w3.org/2000/svg">
<rect x="0.987793" y="0.751282" width="40" height="40" fill="white"/>
<path fill-rule="evenodd" clip-rule="evenodd" d="M10.3547 4.93936H31.6209L39.3033 13.1302L20.9878 36.5632L2.6723 13.1302L10.3547 4.93936ZM11.2209 6.93936L6.29675 12.1894H13.3194L15.4918 6.93936H11.2209ZM17.6562 6.93936L15.4838 12.1894H26.4918L24.3194 6.93936H17.6562ZM26.4838 6.93936L28.6562 12.1894H35.6788L30.7547 6.93936H26.4838ZM35.937 14.1894H28.7165L23.6621 29.8939L35.937 14.1894ZM20.9878 31.6753L26.6154 14.1894H15.3602L20.9878 31.6753ZM13.2591 14.1894L18.3135 29.8939L6.03862 14.1894H13.2591Z" fill="#5E6E7C"/>
</svg>
