<svg width="41" height="41" viewBox="0 0 41 41" fill="none" xmlns="http://www.w3.org/2000/svg">
<rect x="0.987793" y="0.751282" width="40" height="40" fill="white"/>
<path fill-rule="evenodd" clip-rule="evenodd" d="M6.1312 12.679C6.29498 12.3633 6.62096 12.1652 6.97656 12.1652H8.93574C9.46173 12.1652 9.88813 11.7388 9.88813 11.2128C9.88813 10.6868 9.46173 10.2604 8.93574 10.2604H6.97656C5.90976 10.2604 4.93182 10.8548 4.44048 11.8017L1.25739 17.9362L1.17951 18.0863L1.15806 18.254C0.621811 22.4469 1.38494 25.6846 2.98705 27.9032C4.59632 30.1317 6.98523 31.2332 9.4583 31.2421C11.9598 31.2512 14.4817 30.161 16.4135 28.0926C16.4659 28.1497 16.526 28.2012 16.5937 28.2456C17.0334 28.5342 17.6239 28.4117 17.9124 27.9719L19.3606 25.7652C19.6492 25.3254 19.5267 24.735 19.087 24.4464C18.9891 24.3822 18.8838 24.3383 18.776 24.3138C18.9001 24.002 19.0147 23.6803 19.119 23.3489L19.1216 23.3499C19.5722 22.1941 20.3639 21.7831 21.0072 21.7876C21.6463 21.7921 22.4131 22.2079 22.8395 23.2944C22.9484 23.6451 23.0687 23.9849 23.1996 24.3138C23.0918 24.3383 22.9865 24.3822 22.8887 24.4464C22.4489 24.735 22.3264 25.3254 22.615 25.7652L24.0632 27.9719C24.3518 28.4117 24.9422 28.5342 25.382 28.2456C25.4496 28.2012 25.5098 28.1497 25.5621 28.0927C27.4939 30.161 30.0158 31.2512 32.5173 31.2421C34.9904 31.2332 37.3793 30.1317 38.9885 27.9032C40.5906 25.6846 41.3538 22.4469 40.8175 18.254L40.7961 18.0863L40.7182 17.9362L37.5351 11.8017C37.0438 10.8548 36.0658 10.2605 34.999 10.2605H33.0398C32.5139 10.2605 32.0875 10.6869 32.0875 11.2128C32.0875 11.7388 32.5139 12.1652 33.0398 12.1652H34.999C35.3546 12.1652 35.6806 12.3633 35.8444 12.679L37.7258 16.3049C37.5554 16.2634 37.3813 16.2248 37.2043 16.1888C35.7872 15.9013 34.0844 15.7669 32.3647 15.7556C30.6409 15.7441 28.8688 15.8561 27.3046 16.0738C25.9786 16.2583 24.744 16.5265 23.8074 16.8884C22.6721 17.1298 21.8196 17.2436 20.9867 17.2449C20.1548 17.2462 19.3034 17.1353 18.1716 16.8897C17.2346 16.5271 15.9986 16.2585 14.671 16.0738C13.1068 15.8561 11.3347 15.7441 9.61086 15.7555C7.89114 15.7669 6.18841 15.9013 4.77133 16.1888C4.59425 16.2248 4.42015 16.2634 4.24978 16.3049L6.1312 12.679ZM24.6358 22.669L24.6393 22.6677L24.6212 22.6205C24.3136 21.5908 24.1155 20.4409 24.0567 19.1695C24.051 19.0464 24.0757 18.9469 24.1071 18.8835C24.1354 18.8265 24.1633 18.8066 24.1853 18.7963C24.8904 18.4641 26.0796 18.1674 27.5671 17.9604C29.0329 17.7564 30.7127 17.6494 32.3521 17.6603C33.9957 17.6712 35.5675 17.8003 36.8254 18.0556C37.4547 18.1833 37.9816 18.3378 38.3904 18.5124C38.651 18.6237 38.8381 18.7324 38.9681 18.829C39.3786 22.5109 38.6517 25.1161 37.4443 26.7881C36.2079 28.5002 34.4025 29.3305 32.5104 29.3373C29.453 29.3484 25.9981 27.1616 24.6358 22.669ZM22.2128 20.1007C21.8331 19.9603 21.432 19.8858 21.0206 19.8829C20.5865 19.8798 20.1626 19.9566 19.7622 20.1073C19.7884 19.8288 19.8083 19.5455 19.8216 19.2575C19.8241 19.203 19.8249 19.1477 19.8238 19.0916C20.2182 19.1306 20.6026 19.1503 20.9897 19.1496C21.3757 19.149 21.7589 19.1283 22.1518 19.0888C22.1507 19.1458 22.1514 19.2021 22.154 19.2575C22.1672 19.5433 22.1869 19.8243 22.2128 20.1007ZM3.58523 18.5124C3.3246 18.6237 3.13748 18.7324 3.00753 18.829C2.59702 22.5109 3.32387 25.1161 4.53128 26.7881C5.76766 28.5002 7.57311 29.3305 9.46519 29.3373C13.2317 29.351 17.6015 26.029 17.9189 19.1695C17.9246 19.0464 17.8999 18.9469 17.8685 18.8835C17.8402 18.8265 17.8123 18.8066 17.7903 18.7963C17.0852 18.4641 15.896 18.1674 14.4084 17.9604C12.9427 17.7564 11.2629 17.6494 9.62347 17.6603C7.97994 17.6712 6.40813 17.8003 5.15015 18.0556C4.5209 18.1833 3.99395 18.3378 3.58523 18.5124Z" fill="#5E6E7C"/>
</svg>
