<svg width="41" height="41" viewBox="0 0 41 41" fill="none" xmlns="http://www.w3.org/2000/svg">
<rect x="0.987793" y="0.751282" width="40" height="40" fill="white"/>
<path fill-rule="evenodd" clip-rule="evenodd" d="M14.7693 4.75128C14.7693 4.199 14.3216 3.75128 13.7693 3.75128C13.217 3.75128 12.7693 4.199 12.7693 4.75128V20.8823L2.7206 35.3975C2.03188 36.3923 2.74392 37.7513 3.9539 37.7513H36.0212C37.3867 37.7513 38.042 36.0754 37.0387 35.1491L27.7394 26.5638L27.0774 25.9527L26.4007 26.5476L22.5528 29.9309L14.7693 20.8731V19.2807H23.9458V19.8101C23.9458 21.4675 25.2903 22.8101 26.9466 22.8101H26.9641H26.9816H26.9991H27.0166H27.034H27.0514H27.0688H27.0862H27.1036H27.1209H27.1382H27.1556H27.1728H27.1901H27.2074H27.2246H27.2419H27.2591H27.2763H27.2934H27.3106H27.3277H27.3449H27.362H27.3791H27.3961H27.4132H27.4302H27.4473H27.4643H27.4813H27.4983H27.5152H27.5322H27.5491H27.566H27.5829H27.5998H27.6167H27.6335H27.6504H27.6672H27.684H27.7008H27.7176H27.7344H27.7511H27.7679H27.7846H27.8013H27.818H27.8347H27.8514H27.868H27.8847H27.9013H27.9179H27.9345H27.9511H27.9677H27.9842H28.0008H28.0173H28.0338H28.0504H28.0669H28.0833H28.0998H28.1163H28.1327H28.1492H28.1656H28.182H28.1984H28.2148H28.2312H28.2475H28.2639H28.2802H28.2966H28.3129H28.3292H28.3455H28.3618H28.3781H28.3943H28.4106H28.4268H28.4431H28.4593H28.4755H28.4917H28.5079H28.5241H28.5402H28.5564H28.5726H28.5887H28.6048H28.621H28.6371H28.6532H28.6693H28.6854H28.7014H28.7175H28.7336H28.7496H28.7657H28.7817H28.7977H28.8137H28.8297H28.8457H28.8617H28.8777H28.8937H28.9097H28.9256H28.9416H28.9575H28.9735H28.9894H29.0053H29.0212H29.0371H29.0531H29.0689H29.0848H29.1007H29.1166H29.1325H29.1483H29.1642H29.18H29.1959H29.2117H29.2275H29.2434H29.2592H29.275H29.2908H29.3066H29.3224H29.3382H29.354H29.3698H29.3855H29.4013H29.4171H29.4328H29.4486H29.4643H29.4801H29.4958H29.5116H29.5273H29.543H29.5588H29.5745H29.5902H29.6059H29.6216H29.6373H29.653H29.6687H29.6844H29.7001H29.7158H29.7315H29.7472H29.7629H29.7785H29.7942H29.8099H29.8256H29.8412H29.8569H29.8726H29.8882H29.9039H29.9195H29.9352H29.9508H29.9665H29.9821H29.9978H30.0134H30.0291H30.0447H30.0604H30.076H30.0917H30.1073H30.1229H30.1386H30.1542H30.1699H30.1855H30.2011H30.2168H30.2324H30.248H30.2637H30.2793H30.2949H30.3106H30.3262H30.3419H30.3575H30.3731H30.3888H30.4044H30.4201H30.4357H30.4514H30.467H30.4826H30.4983H30.5139H30.5296H30.5453H30.5609H30.5766H30.5922H30.6079H30.6235H30.6392H30.6549H30.6706H30.6862H30.7019H30.7176H30.7333H30.7489H30.7646H30.7803H30.796H30.8117H30.8274H30.8431H30.8588H30.8745H30.8902H30.906H30.9217H30.9374H30.9531H30.9689H30.9846H31.0004H31.0161H31.0319H31.0476H31.0634H31.0791H31.0949H31.1107H31.1265H31.1423H31.158H31.1738H31.1896H31.2055H31.2213H31.2371H31.2529H31.2687H31.2846H31.3004H31.3163H31.3321H31.348H31.3639H31.3797H31.3956H31.4115H31.4274H31.4433H31.4592H31.4751H31.491H31.507H31.5229H31.5389H31.5548H31.5708H31.5867H31.6027H31.6187H31.6347H31.6507H31.6667H31.6827H31.6988H31.7148H31.7308H31.7469H31.7629H31.779H31.7951H31.8112H31.8273H31.8434H31.8595H31.8756H31.8918H31.9079H31.9241H31.9402H31.9564H31.9726H31.9888H32.005H32.0212H32.0374H32.0536H32.0699H32.0861H32.1024H32.1187H32.135H32.1513H32.1676H32.1839H32.2002H32.2166H32.2329H32.2493H32.2657H32.2821H32.2985H32.3149H32.3313H32.3477H32.3642H32.3807H32.3971H32.4136H32.4301H32.4466H32.4632H32.4797H32.4962H32.5128H32.5294H32.546H32.5626H32.5792H32.5958H32.6125H32.6291H32.6458H32.6625H32.6792H32.6959H32.7126H32.7294H32.7461H32.7629H32.7797H32.7965H32.8133H32.8301H32.847H32.8638H32.8807H32.8976H32.9145H32.9314H32.9483H32.9653H32.9822H32.9992H33.0162H33.0332H33.0503H33.0673H33.0844H33.1014H33.1185H33.1356H33.1528H33.1699H33.1871H33.2042H33.2214H33.2386H33.2559H33.2731H33.2904H33.3077H33.325H33.3423H33.3596H33.377H33.3943H33.4117H33.4291H33.4465H33.464H33.4814H33.4989H33.5164H33.5339H33.5514H33.569H33.5865H33.6041H33.6217H33.6394H33.657H33.6747H33.6924H33.7101H33.7278H33.7455H33.7633H33.7811H33.7989H33.8167H33.8345H33.8524H33.8703H33.8882H33.9061H33.924H33.942H33.96H33.978H33.996H34.0141H34.0321H34.0502H34.0683H34.0865H34.1046H34.1228H34.141H34.1592H34.1774H34.1957H34.214H34.2323H34.2506H34.269H34.2873H34.3057H34.3242H34.3426H34.3611H34.3796H34.3981H34.4166H34.4351H34.4537H34.4723H34.491H34.5096H34.5283H34.547H34.5657H34.5844H34.6032H34.622H34.6408H34.6596H34.6785H34.6974H34.7163H34.7352H34.7542H34.7732H34.7922H34.8112H34.8303H34.8494H34.8685H34.8876H34.9068H34.926H34.9452H34.9645H34.9837H35.003H35.0223H35.0417H35.061H35.0804H35.0999H35.1193H35.1388H35.1583H35.1778H35.1974H35.2169H35.2366H35.2562H35.2759H35.2955H35.3153H35.335H35.3548H35.3746H35.3944H35.4143H35.4341H35.4541H35.474H35.494H35.514H35.534H37.4855L36.3457 21.2261L31.7505 14.8395L36.3457 8.45298L37.4855 6.86893H35.534H25.6804C25.2096 5.82828 24.1623 5.10423 22.9458 5.10423H14.7693V4.75128ZM25.9458 8.86893V18.2807V19.2807H25.9458V19.8101C25.9458 20.3618 26.3938 20.8101 26.9466 20.8101H26.9641H26.9816H26.9991H27.0166H27.034H27.0514H27.0688H27.0862H27.1036H27.1209H27.1382H27.1556H27.1728H27.1901H27.2074H27.2246H27.2419H27.2591H27.2763H27.2934H27.3106H27.3277H27.3449H27.362H27.3791H27.3961H27.4132H27.4302H27.4473H27.4643H27.4813H27.4983H27.5152H27.5322H27.5491H27.566H27.5829H27.5998H27.6167H27.6335H27.6504H27.6672H27.684H27.7008H27.7176H27.7344H27.7511H27.7679H27.7846H27.8013H27.818H27.8347H27.8514H27.868H27.8847H27.9013H27.9179H27.9345H27.9511H27.9677H27.9842H28.0008H28.0173H28.0338H28.0504H28.0669H28.0833H28.0998H28.1163H28.1327H28.1492H28.1656H28.182H28.1984H28.2148H28.2312H28.2475H28.2639H28.2802H28.2966H28.3129H28.3292H28.3455H28.3618H28.3781H28.3943H28.4106H28.4268H28.4431H28.4593H28.4755H28.4917H28.5079H28.5241H28.5402H28.5564H28.5726H28.5887H28.6048H28.621H28.6371H28.6532H28.6693H28.6854H28.7014H28.7175H28.7336H28.7496H28.7657H28.7817H28.7977H28.8137H28.8297H28.8457H28.8617H28.8777H28.8937H28.9097H28.9256H28.9416H28.9575H28.9735H28.9894H29.0053H29.0212H29.0371H29.0531H29.0689H29.0848H29.1007H29.1166H29.1325H29.1483H29.1642H29.18H29.1959H29.2117H29.2275H29.2434H29.2592H29.275H29.2908H29.3066H29.3224H29.3382H29.354H29.3698H29.3855H29.4013H29.4171H29.4328H29.4486H29.4643H29.4801H29.4958H29.5116H29.5273H29.543H29.5588H29.5745H29.5902H29.6059H29.6216H29.6373H29.653H29.6687H29.6844H29.7001H29.7158H29.7315H29.7472H29.7629H29.7785H29.7942H29.8099H29.8256H29.8412H29.8569H29.8726H29.8882H29.9039H29.9195H29.9352H29.9508H29.9665H29.9821H29.9978H30.0134H30.0291H30.0447H30.0604H30.076H30.0917H30.1073H30.1229H30.1386H30.1542H30.1699H30.1855H30.2011H30.2168H30.2324H30.248H30.2637H30.2793H30.2949H30.3106H30.3262H30.3419H30.3575H30.3731H30.3888H30.4044H30.4201H30.4357H30.4514H30.467H30.4826H30.4983H30.5139H30.5296H30.5453H30.5609H30.5766H30.5922H30.6079H30.6235H30.6392H30.6549H30.6706H30.6862H30.7019H30.7176H30.7333H30.7489H30.7646H30.7803H30.796H30.8117H30.8274H30.8431H30.8588H30.8745H30.8902H30.906H30.9217H30.9374H30.9531H30.9689H30.9846H31.0004H31.0161H31.0319H31.0476H31.0634H31.0791H31.0949H31.1107H31.1265H31.1423H31.158H31.1738H31.1896H31.2055H31.2213H31.2371H31.2529H31.2687H31.2846H31.3004H31.3163H31.3321H31.348H31.3639H31.3797H31.3956H31.4115H31.4274H31.4433H31.4592H31.4751H31.491H31.507H31.5229H31.5389H31.5548H31.5708H31.5867H31.6027H31.6187H31.6347H31.6507H31.6667H31.6827H31.6988H31.7148H31.7308H31.7469H31.7629H31.779H31.7951H31.8112H31.8273H31.8434H31.8595H31.8756H31.8918H31.9079H31.9241H31.9402H31.9564H31.9726H31.9888H32.005H32.0212H32.0374H32.0536H32.0699H32.0861H32.1024H32.1187H32.135H32.1513H32.1676H32.1839H32.2002H32.2166H32.2329H32.2493H32.2657H32.2821H32.2985H32.3149H32.3313H32.3477H32.3642H32.3807H32.3971H32.4136H32.4301H32.4466H32.4632H32.4797H32.4962H32.5128H32.5294H32.546H32.5626H32.5792H32.5958H32.6125H32.6291H32.6458H32.6625H32.6792H32.6959H32.7126H32.7294H32.7461H32.7629H32.7797H32.7965H32.8133H32.8301H32.847H32.8638H32.8807H32.8976H32.9145H32.9314H32.9483H32.9653H32.9822H32.9992H33.0162H33.0332H33.0503H33.0673H33.0844H33.1014H33.1185H33.1356H33.1528H33.1699H33.1871H33.2042H33.2214H33.2386H33.2559H33.2731H33.2904H33.3077H33.325H33.3423H33.3596H33.377H33.3943H33.4117H33.4291H33.4465H33.464H33.4814H33.4989H33.5164H33.5339H33.5514H33.569H33.5825L29.7068 15.4236L29.2866 14.8395L29.7068 14.2555L33.5825 8.86893H25.9458ZM23.9458 17.2807H14.7693V7.10423H22.9458C23.4981 7.10423 23.9458 7.55195 23.9458 8.10423V17.2807ZM4.90817 35.7513L13.8358 22.8555L21.6951 32.0015L22.3543 32.7686L23.1138 32.1007L27.0447 28.6445L34.7426 35.7513H4.90817Z" fill="#5E6E7C"/>
</svg>
