<svg width="41" height="41" viewBox="0 0 41 41" fill="none" xmlns="http://www.w3.org/2000/svg">
<rect x="0.987793" y="0.751282" width="40" height="40" fill="white"/>
<path fill-rule="evenodd" clip-rule="evenodd" d="M14.3576 3.5075C14.4808 2.50474 15.3324 1.75128 16.3427 1.75128H26.24C27.2502 1.75128 28.1019 2.50474 28.225 3.5075L29.2385 11.7598C31.0048 13.3222 32.3073 15.3969 32.9133 17.7513H33.8136C34.9182 17.7513 35.8136 18.6467 35.8136 19.7513V21.7513C35.8136 22.8559 34.9182 23.7513 33.8136 23.7513H32.9133C32.3073 26.1057 31.0048 28.1804 29.2385 29.7427L28.225 37.9951C28.1019 38.9978 27.2502 39.7513 26.24 39.7513H16.3427C15.3324 39.7513 14.4808 38.9978 14.3576 37.9951L13.3442 29.7427C10.8585 27.5441 9.29132 24.3307 9.29132 20.7513C9.29132 17.1719 10.8585 13.9585 13.3442 11.7598L14.3576 3.5075ZM33.2913 20.7513C33.2913 20.4145 33.2774 20.081 33.2502 19.7513H33.8136L33.8136 21.7513H33.2502C33.2774 21.4215 33.2913 21.088 33.2913 20.7513ZM15.5493 31.2909L16.3427 37.7513H26.24L27.0333 31.2909C25.3278 32.2221 23.3714 32.7513 21.2913 32.7513C19.2113 32.7513 17.2548 32.2221 15.5493 31.2909ZM26.24 3.75128L27.0333 10.2116C25.3278 9.28051 23.3714 8.75128 21.2913 8.75128C19.2113 8.75128 17.2548 9.28051 15.5493 10.2116L16.3427 3.75128L26.24 3.75128ZM21.2913 10.7513C15.7685 10.7513 11.2913 15.2284 11.2913 20.7513C11.2913 26.2741 15.7685 30.7513 21.2913 30.7513C26.8142 30.7513 31.2913 26.2741 31.2913 20.7513C31.2913 15.2284 26.8142 10.7513 21.2913 10.7513ZM22.2913 14.7513V20.2161L26.346 22.9192L25.2366 24.5833L20.7366 21.5833L20.2913 21.2865V20.7513V14.7513H22.2913Z" fill="#5E6E7C"/>
</svg>
