<svg width="41" height="41" viewBox="0 0 41 41" fill="none" xmlns="http://www.w3.org/2000/svg">
<rect x="0.987793" y="0.751343" width="40" height="40" fill="white"/>
<path fill-rule="evenodd" clip-rule="evenodd" d="M21.0017 3.63739C18.4069 3.63739 16.7732 3.71489 15.3001 3.96625C13.8257 4.21785 12.5466 4.63859 10.6823 5.26887C7.98842 6.17961 4.41254 8.26871 3.4095 8.86806C2.87767 9.18585 2.59951 9.79766 2.70703 10.4059C3.18144 13.0897 4.02664 16.0537 5.80228 18.1797C6.22147 18.6816 6.8949 18.8237 7.46087 18.6115L9.92915 17.6859L9.04577 35.6775C8.99747 36.6611 9.67437 37.5402 10.6487 37.7329C18.6005 39.3062 23.5126 39.3056 31.3594 37.7341C32.3316 37.5394 33.0059 36.6614 32.9577 35.6798L32.0742 17.6859L34.4931 18.5929C35.1327 18.8328 35.8801 18.6132 36.2687 18.0084C37.6999 15.7813 38.5501 13.1267 39.2415 10.5138C39.4101 9.87657 39.1432 9.1958 38.5655 8.85113C37.5275 8.23187 33.9914 6.17165 31.3211 5.26887C29.4567 4.63859 28.1777 4.21785 26.7032 3.96625C25.2302 3.71489 23.5964 3.63739 21.0017 3.63739ZM7.1074 16.608L10.0026 15.5223V12.9003C10.0026 12.348 10.4503 11.9003 11.0026 11.9003C11.5548 11.9003 12.0026 12.348 12.0026 12.9003V13.6956L30.0008 13.6956V12.9003C30.0008 12.348 30.4485 11.9003 31.0008 11.9003C31.5531 11.9003 32.0008 12.348 32.0008 12.9003V15.5223L34.8052 16.574C35.8744 14.7881 36.5903 12.6576 37.209 10.3724C35.8953 9.60152 32.9043 7.91532 30.6805 7.16353C28.7998 6.52769 27.6635 6.15902 26.3668 5.93775C26.3139 5.92874 26.2608 5.91995 26.2072 5.9114C26.0912 8.68616 23.805 10.9001 21.0017 10.9001C18.1984 10.9001 15.9122 8.68616 15.7961 5.9114C15.7426 5.91995 15.6894 5.92873 15.6365 5.93775C14.3398 6.15902 13.2035 6.52769 11.3228 7.16353C9.06689 7.92621 6.022 9.65017 4.73976 10.4045C5.17984 12.7413 5.88637 14.9903 7.1074 16.608ZM12.0026 16.2153V15.6956L30.0008 15.6956V16.2153V16.2399L30.002 16.2644L30.1339 18.9501H11.8695L12.0013 16.2644L12.0026 16.2399V16.2153ZM11.7713 20.9501L11.0435 35.7723C18.7344 37.2934 23.3801 37.2918 30.9599 35.7744L30.2321 20.9501H11.7713ZM17.7916 5.70726C17.8009 7.47221 19.2345 8.90009 21.0017 8.90009C22.7688 8.90009 24.2024 7.47221 24.2118 5.70727C23.3442 5.65787 22.3132 5.63739 21.0017 5.63739C19.6901 5.63739 18.6591 5.65786 17.7916 5.70726Z" fill="#5E6E7C"/>
</svg>
