<svg width="41" height="41" viewBox="0 0 41 41" fill="none" xmlns="http://www.w3.org/2000/svg">
<rect x="0.987793" y="0.751282" width="40" height="40" fill="white"/>
<path fill-rule="evenodd" clip-rule="evenodd" d="M8.98779 7.75128C8.43551 7.75128 7.98779 8.199 7.98779 8.75128V15.7513H5.98779V8.75128C5.98779 7.09443 7.33094 5.75128 8.98779 5.75128H16.9878V7.75128H8.98779ZM32.9878 7.75128C33.5401 7.75128 33.9878 8.199 33.9878 8.75128V15.7513H35.9878V8.75128C35.9878 7.09443 34.6446 5.75128 32.9878 5.75128H24.9878V7.75128H32.9878ZM7.98779 32.7513C7.98779 33.3036 8.43551 33.7513 8.98779 33.7513H16.9878V35.7513H8.98779C7.33094 35.7513 5.98779 34.4081 5.98779 32.7513V25.7513H7.98779V32.7513ZM32.9878 33.7513C33.5401 33.7513 33.9878 33.3036 33.9878 32.7513V25.7513H35.9878V32.7513C35.9878 34.4081 34.6446 35.7513 32.9878 35.7513H24.9878V33.7513H32.9878ZM3.98779 21.2513C3.98779 21.5274 4.21165 21.7513 4.48779 21.7513H37.4878C37.7639 21.7513 37.9878 21.5274 37.9878 21.2513V20.2513C37.9878 19.9751 37.7639 19.7513 37.4878 19.7513H4.48779C4.21165 19.7513 3.98779 19.9751 3.98779 20.2513V21.2513Z" fill="#5E6E7C"/>
</svg>
