<svg width="41" height="41" viewBox="0 0 41 41" fill="none" xmlns="http://www.w3.org/2000/svg">
<rect x="0.987793" y="0.751343" width="40" height="40" fill="white"/>
<path fill-rule="evenodd" clip-rule="evenodd" d="M18.09 8.45923C16.9109 8.45923 15.9379 9.14825 15.3726 10.0101C13.5318 12.8166 9.89668 14.6393 5.21202 13.9016C3.7253 13.6674 2.03508 14.4668 1.65867 16.1649C1.48315 16.9567 1.30091 17.9114 1.19631 18.8483C0.820822 22.2114 1.04791 28.746 1.14833 31.1395C1.19351 32.2163 2.08142 33.0435 3.14091 33.0435H11.701C12.4742 33.0435 13.101 32.4167 13.101 31.6435C13.101 31.3121 13.3696 31.0435 13.701 31.0435H14.3488C14.5999 31.0435 14.8418 31.1379 15.0264 31.3081L16.479 32.6466C16.7539 32.8998 17.1146 33.0435 17.4941 33.0435H17.4966H17.4991H17.5017H17.5042H17.5068H17.5095H17.5121H17.5147H17.5174H17.5201H17.5229H17.5256H17.5284H17.5312H17.534H17.5368H17.5397H17.5425H17.5455H17.5484H17.5513H17.5543H17.5573H17.5603H17.5634H17.5664H17.5695H17.5726H17.5758H17.5789H17.5821H17.5853H17.5886H17.5918H17.5951H17.5984H17.6018H17.6051H17.6085H17.6119H17.6153H17.6188H17.6223H17.6258H17.6293H17.6329H17.6365H17.6401H17.6437H17.6474H17.6511H17.6548H17.6585H17.6623H17.6661H17.6699H17.6737H17.6776H17.6815H17.6854H17.6894H17.6933H17.6973H17.7014H17.7054H17.7095H17.7136H17.7178H17.7219H17.7261H17.7304H17.7346H17.7389H17.7432H17.7475H17.7519H17.7563H17.7607H17.7651H17.7696H17.7741H17.7787H17.7832H17.7878H17.7924H17.7971H17.8018H17.8065H17.8112H17.816H17.8208H17.8256H17.8304H17.8353H17.8402H17.8452H17.8501H17.8551H17.8602H17.8652H17.8703H17.8755H17.8806H17.8858H17.891H17.8963H17.9015H17.9069H17.9122H17.9176H17.923H17.9284H17.9339H17.9394H17.9449H17.9505H17.956H17.9617H17.9673H17.973H17.9787H17.9845H17.9903H17.9961H18.0019H18.0078H18.0137H18.0197H18.0257H18.0317H18.0377H18.0438H18.0499H18.0561H18.0623H18.0685H18.0747H18.081H18.0873H18.0937H18.1H18.1065H18.1129H18.1194H18.1259H18.1325H18.1391H18.1457H18.1523H18.159H18.1658H18.1725H18.1793H18.1862H18.193H18.1999H18.2069H18.2138H18.2209H18.2279H18.235H18.2421H18.2493H18.2564H18.2637H18.2709H18.2782H18.2856H18.2929H18.3003H18.3078H18.3153H18.3228H18.3303H18.3379H18.3456H18.3532H18.3609H18.3687H18.3765H18.3843H18.3921H18.4H18.4079H18.4159H18.4239H18.432H18.4401H18.4482H18.4563H18.4645H18.4728H18.481H18.4894H18.4977H18.5061H18.5145H18.523H18.5315H18.5401H18.5486H18.5573H18.5659H18.5746H18.5834H18.5922H18.601H18.6099H18.6188H18.6277H18.6367H18.6457H18.6548H18.6639H18.6731H18.6823H18.6915H18.7008H18.7101H18.7194H18.7288H18.7383H18.7477H18.7573H18.7668H18.7764H18.7861H18.7958H18.8055H18.8153H18.8251H18.8349H18.8448H18.8548H18.8647H18.8748H18.8848H18.8949H18.9051H18.9153H18.9255H18.9358H18.9461H18.9565H18.9669H18.9774H18.9879H18.9984H19.009H19.0196H19.0303H19.041H19.0518H19.0626H19.0735H19.0844H19.0953H19.1063H19.1173H19.1284H19.1395H19.1507H19.1619H19.1731H19.1844H19.1958H19.2072H19.2186H19.2301H19.2416H19.2532H19.2648H19.2765H19.2882H19.2999H19.3117H19.3236H19.3355H19.3474H19.3594H19.3714H19.3835H19.3957H19.4078H19.4201H19.4323H19.4446H19.457H19.4694H19.4819H19.4944H19.5069H19.5195H19.5322H19.5449H19.5576H19.5704H19.5833H19.5962H19.6091H19.6221H19.6351H19.6482H19.6613H19.6745H19.6878H19.701H19.7144H19.7277H19.7412H19.7547H19.7682H19.7818H19.7954H19.8091H19.8228H19.8366H19.8504H19.8643H19.8782H19.8922H19.9062H19.9203H19.9344H19.9486H19.9628H19.9771H19.9914H20.0058H20.0202H20.0347H20.0492H20.0638H20.0785H20.0932H20.1079H20.1227H20.1375H20.1524H20.1674H20.1824H20.1974H20.2125H20.2277H20.2429H20.2582H20.2735H20.2889H20.3043H20.3198H20.3353H20.3509H20.3665H20.3822H20.3979H20.4137H20.4296H20.4455H20.4614H20.4774H20.4935H20.5096H20.5258H20.542H20.5583H20.5746H20.591H20.6074H20.6239H20.6405H20.6571H20.6738H20.6905H20.7072H20.7241H20.741H20.7579H20.7749H20.7919H20.809H20.8262H20.8434H20.8607H20.878H20.8954H20.9128H20.9303H20.9479H20.9655H20.9832H21.0009H21.0187H21.0365H21.0544H21.0723H21.0903H21.1084H21.1265H21.1447H21.1629H21.1812H21.1996H21.218H21.2364H21.255H21.2736H21.2922H21.3109H21.3296H21.3485H21.3673H21.3863H21.4053H21.4243H21.4434H21.4626H21.4818H21.5011H21.5204H21.5398H21.5593H21.5788H21.5984H21.618H21.6377H21.6575H21.6773H21.6972H21.7171H21.7371H21.7572H21.7773H21.7975H21.8178H21.8381H21.8584H21.8788H21.8993H21.9199H21.9405H21.9612H21.9819H22.0027H22.0235H22.0444H22.0654H22.0865H22.1076H22.1287H22.1499H22.1712H22.1926H22.214H22.2355H22.257H22.2786H22.3002H22.322H22.3437H22.3656H22.3875H22.4095H22.4315H22.4536H22.4758H22.498H22.5203H22.5427H22.5651H22.5876H22.6101H22.6327H22.6554H22.6781H22.7009H22.7238H22.7467H22.7697H22.7928H22.8159H22.8391H22.8623H22.8857H22.909H22.9325H22.956H22.9796H23.0032H23.0269H23.0507H23.0746H23.0985H23.1224H23.1465H23.1706H23.1948H23.219H23.2433H23.2677H23.2921H23.3166H23.3412H23.3658H23.3905H23.4153H23.4401H23.465H23.49H23.515H23.5401H23.5653H23.5906C34.3249 33.0435 38.3907 32.1383 39.7968 31.6654C40.6069 31.3929 40.9876 30.6419 40.9876 29.9533V24.387C40.9876 21.9138 39.1927 19.854 36.8434 19.3281C34.6175 18.8297 31.7776 18.0636 29.586 17.0518C29.4576 16.6784 29.2203 16.3375 28.8816 16.0833C27.4092 14.9786 25.9136 13.6855 24.5771 12.3032C24.1584 11.8703 23.5831 11.6564 23.0141 11.6819C22.1896 10.815 21.4865 10.0305 21.0209 9.50037C20.446 8.84562 19.617 8.45923 18.733 8.45923H18.09ZM21.2391 12.7154C20.5314 11.9614 19.9319 11.2912 19.5181 10.82C19.3145 10.5882 19.029 10.4592 18.733 10.4592H18.09C17.7358 10.4592 17.346 10.6681 17.0666 11.0748L17.0729 11.0782C16.5049 12.133 16.1832 13.3124 15.8464 14.5466L15.8464 14.5467C15.7204 15.0086 15.5923 15.4782 15.4484 15.9519C14.9755 17.5081 14.2581 19.3519 12.3962 19.9163C9.73673 20.7224 7.03272 20.8378 3.09479 20.0989C2.97951 21.8306 2.97201 24.0952 3.0045 26.1864H22.2723C27.178 26.1864 30.8306 26.1862 33.633 26.0624C36.0021 25.9578 37.6981 25.7663 38.9876 25.4374V24.387C38.9876 22.915 37.9071 21.6157 36.4065 21.2797C34.3061 20.8095 31.5137 20.0739 29.181 19.0612C29.1343 19.1126 29.0843 19.1623 29.0311 19.21L25.1572 22.6825C24.4689 23.2994 23.4219 23.3783 22.6529 22.8001C21.0085 21.5637 19.2856 19.9825 18.0067 18.3723C17.366 17.5657 17.495 16.4518 18.1744 15.7738L21.2391 12.7154ZM33.7213 28.0605C35.8579 27.9661 37.5723 27.7998 38.9876 27.4917V29.8247C37.6959 30.2199 33.7642 31.0435 23.5906 31.0435H23.5653H23.5401H23.515H23.49H23.465H23.4401H23.4153H23.3905H23.3658H23.3412H23.3166H23.2921H23.2677H23.2433H23.219H23.1948H23.1706H23.1465H23.1224H23.0985H23.0746H23.0507H23.0269H23.0032H22.9796H22.956H22.9325H22.909H22.8857H22.8623H22.8391H22.8159H22.7928H22.7697H22.7467H22.7238H22.7009H22.6781H22.6554H22.6327H22.6101H22.5876H22.5651H22.5427H22.5203H22.498H22.4758H22.4536H22.4315H22.4095H22.3875H22.3656H22.3437H22.322H22.3002H22.2786H22.257H22.2355H22.214H22.1926H22.1712H22.1499H22.1287H22.1076H22.0865H22.0654H22.0444H22.0235H22.0027H21.9819H21.9612H21.9405H21.9199H21.8993H21.8788H21.8584H21.8381H21.8178H21.7975H21.7773H21.7572H21.7371H21.7171H21.6972H21.6773H21.6575H21.6377H21.618H21.5984H21.5788H21.5593H21.5398H21.5204H21.5011H21.4818H21.4626H21.4434H21.4243H21.4053H21.3863H21.3673H21.3485H21.3296H21.3109H21.2922H21.2736H21.255H21.2364H21.218H21.1996H21.1812H21.1629H21.1447H21.1265H21.1084H21.0903H21.0723H21.0544H21.0365H21.0187H21.0009H20.9832H20.9655H20.9479H20.9303H20.9128H20.8954H20.878H20.8607H20.8434H20.8262H20.809H20.7919H20.7749H20.7579H20.741H20.7241H20.7072H20.6905H20.6738H20.6571H20.6405H20.6239H20.6074H20.591H20.5746H20.5583H20.542H20.5258H20.5096H20.4935H20.4774H20.4614H20.4455H20.4296H20.4137H20.3979H20.3822H20.3665H20.3509H20.3353H20.3198H20.3043H20.2889H20.2735H20.2582H20.2429H20.2277H20.2125H20.1974H20.1824H20.1674H20.1524H20.1375H20.1227H20.1079H20.0932H20.0785H20.0638H20.0492H20.0347H20.0202H20.0058H19.9914H19.9771H19.9628H19.9486H19.9344H19.9203H19.9062H19.8922H19.8782H19.8643H19.8504H19.8366H19.8228H19.8091H19.7954H19.7818H19.7682H19.7547H19.7412H19.7277H19.7144H19.701H19.6878H19.6745H19.6613H19.6482H19.6351H19.6221H19.6091H19.5962H19.5833H19.5704H19.5576H19.5449H19.5322H19.5195H19.5069H19.4944H19.4819H19.4694H19.457H19.4446H19.4323H19.4201H19.4078H19.3957H19.3835H19.3714H19.3594H19.3474H19.3355H19.3236H19.3117H19.2999H19.2882H19.2765H19.2648H19.2532H19.2416H19.2301H19.2186H19.2072H19.1958H19.1844H19.1731H19.1619H19.1507H19.1395H19.1284H19.1173H19.1063H19.0953H19.0844H19.0735H19.0626H19.0518H19.041H19.0303H19.0196H19.009H18.9984H18.9879H18.9774H18.9669H18.9565H18.9461H18.9358H18.9255H18.9153H18.9051H18.8949H18.8848H18.8748H18.8647H18.8548H18.8448H18.8349H18.8251H18.8153H18.8055H18.7958H18.7861H18.7764H18.7668H18.7573H18.7477H18.7383H18.7288H18.7194H18.7101H18.7008H18.6915H18.6823H18.6731H18.6639H18.6548H18.6457H18.6367H18.6277H18.6188H18.6099H18.601H18.5922H18.5834H18.5746H18.5659H18.5573H18.5486H18.5401H18.5315H18.523H18.5145H18.5061H18.4977H18.4894H18.481H18.4728H18.4645H18.4563H18.4482H18.4401H18.432H18.4239H18.4159H18.4079H18.4H18.3921H18.3843H18.3765H18.3687H18.3609H18.3532H18.3456H18.3379H18.3303H18.3228H18.3153H18.3078H18.3003H18.2929H18.2856H18.2782H18.2709H18.2637H18.2564H18.2493H18.2421H18.235H18.2279H18.2209H18.2138H18.2069H18.1999H18.193H18.1862H18.1793H18.1725H18.1658H18.159H18.1523H18.1457H18.1391H18.1325H18.1259H18.1194H18.1129H18.1065H18.1H18.0937H18.0873H18.081H18.0747H18.0685H18.0623H18.0561H18.0499H18.0438H18.0377H18.0317H18.0257H18.0197H18.0137H18.0078H18.0019H17.9961H17.9903H17.9845H17.9787H17.973H17.9673H17.9617H17.956H17.9505H17.9449H17.9394H17.9339H17.9284H17.923H17.9176H17.9122H17.9069H17.9015H17.8963H17.891H17.8858H17.8806H17.8755H17.8703H17.8652H17.8602H17.8551H17.8501H17.8452H17.8402H17.8353H17.8304H17.8256H17.8208H17.816H17.8112H17.8065H17.8018H17.7971H17.7924H17.7878H17.7832H17.7787H17.7741H17.7696H17.7651H17.7607H17.7563H17.7519H17.7475H17.7432H17.7389H17.7346H17.7304H17.7261H17.7219H17.7178H17.7136H17.7095H17.7054H17.7014H17.6973H17.6933H17.6907L16.3817 29.8373C15.8277 29.3268 15.102 29.0435 14.3488 29.0435H13.701C12.4716 29.0435 11.4415 29.8968 11.1706 31.0435H3.14606C3.11699 30.3496 3.07905 29.3438 3.04761 28.1864H22.2723H22.2993C27.1729 28.1864 30.8695 28.1864 33.7213 28.0605ZM11.816 18.0023C9.51332 18.7003 7.11549 18.8336 3.31826 18.1056C3.40427 17.5807 3.50772 17.0649 3.61128 16.5977C3.71007 16.152 4.21849 15.7698 4.90089 15.8772C8.38569 16.426 11.4788 15.7434 13.8547 14.2363C13.7445 14.6411 13.64 15.0239 13.5347 15.3705C13.0361 17.0114 12.5539 17.7786 11.816 18.0023ZM23.1028 13.681L23.1033 13.6805C23.1043 13.6803 23.1064 13.6799 23.1096 13.6799C23.1145 13.68 23.1199 13.6811 23.1249 13.6833C23.1293 13.6852 23.134 13.6881 23.1393 13.6935C24.5571 15.1598 26.1338 16.522 27.6813 17.6831C27.6881 17.6882 27.691 17.6924 27.6928 17.696C27.6953 17.7006 27.697 17.7066 27.6974 17.7128C27.6975 17.7163 27.6972 17.7186 27.697 17.7199L27.6961 17.7207L23.8321 21.1844C22.3097 20.0372 20.7462 18.5954 19.6063 17.1704L23.1028 13.681Z" fill="#5E6E7C"/>
</svg>
