<svg width="41" height="41" viewBox="0 0 41 41" fill="none" xmlns="http://www.w3.org/2000/svg">
<rect x="0.987793" y="0.751343" width="40" height="40" fill="white"/>
<path fill-rule="evenodd" clip-rule="evenodd" d="M4.43901 10.0112C3.69875 11.8985 3.34935 14.6494 3.27634 17.7834C7.13952 17.8729 9.95837 18.4764 12.0684 19.3905C14.3793 20.3916 15.7907 21.7442 16.7742 23.1008C17.2586 23.769 17.6328 24.4292 17.951 25.0166C18.0244 25.1521 18.0936 25.2814 18.1599 25.4051L18.16 25.4053L18.16 25.4053C18.3914 25.8372 18.5864 26.2013 18.7957 26.5274C19.0579 26.936 19.2876 27.1931 19.5243 27.3535C19.7411 27.5005 20.0182 27.6037 20.4504 27.6037H21.6791C29.3279 27.6037 33.2368 27.0244 35.3663 26.3526C36.4123 26.0227 37.009 25.6762 37.4057 25.3774C37.5737 25.2509 37.7162 25.1253 37.8534 24.9959C36.9516 23.3421 35.4006 22.0705 33.4877 21.5555L27.1292 19.8436C26.6116 20.2035 25.6538 20.8337 24.8477 21.1577C23.1532 21.8388 21.468 21.4834 19.9881 20.6892C18.5223 19.9027 17.166 18.6428 16.003 17.3198C12.8117 13.6896 8.94181 10.7113 4.43901 10.0112ZM3.26872 20.021C3.26754 19.9417 3.2665 19.8627 3.26561 19.7837C6.93085 19.8719 9.46898 20.444 11.2734 21.2257C13.2178 22.0681 14.3566 23.1735 15.155 24.2748C15.5616 24.8356 15.8865 25.4044 16.1924 25.9691C16.2526 26.0804 16.3133 26.1937 16.3744 26.308L16.3744 26.308C16.6118 26.7515 16.8562 27.2083 17.1124 27.6075C17.4417 28.1207 17.8456 28.6317 18.402 29.009C18.9783 29.3997 19.6536 29.6037 20.4504 29.6037H21.6791C29.3786 29.6037 33.5377 29.0266 35.968 28.26C37.1816 27.8771 37.9815 27.442 38.579 26.9975C38.6678 27.4448 38.7141 27.9056 38.7141 28.3751C38.7141 28.6678 38.6268 28.8841 38.5101 29.013C38.0453 29.526 37.2335 30.1688 34.7475 30.679C32.2306 31.1955 28.1081 31.5532 21.1309 31.5532H19.5589C18.5196 31.5532 17.8736 31.1631 17.3057 30.5079C16.8128 29.9393 16.4237 29.2328 15.9527 28.3775L15.9526 28.3774C15.8124 28.1228 15.665 27.8551 15.5054 27.5739C14.8451 26.4105 14.021 25.1189 12.7318 24.0964C11.4214 23.0569 9.69957 22.3479 7.32515 22.2146L6.2691 22.1553V23.213V31.5532H4.20598C3.73926 28.1291 3.32748 23.9554 3.26872 20.021ZM2.81596 8.72042C3.07091 8.16957 3.64083 7.89436 4.18723 7.95865C8.86028 8.50842 12.807 11.1706 16.007 14.3934L17.8835 12.3506C18.6038 11.5664 19.8123 11.4841 20.6323 12.1635L22.6721 13.8533C23.5998 14.6218 23.6425 16.0301 22.763 16.8535L20.6928 18.7915C20.7731 18.8387 20.8535 18.8838 20.9337 18.9269C22.0845 19.5444 23.1323 19.6917 24.1018 19.302C24.8656 18.995 25.9492 18.2339 26.2697 18.0012C26.563 17.7882 26.9354 17.7202 27.284 17.814L34.0076 19.6243C37.9644 20.6895 40.7141 24.2774 40.7141 28.3751C40.7141 29.0389 40.5177 29.7759 39.9922 30.3559C39.1529 31.2821 37.8999 32.0737 35.1495 32.6381C32.4299 33.1962 28.1444 33.5532 21.1309 33.5532H19.5589C17.8485 33.5532 16.6782 32.8374 15.7945 31.818C15.1484 31.0727 14.6226 30.1147 14.1352 29.2266C14.0101 28.9985 13.8875 28.7751 13.766 28.5611C13.1358 27.4508 12.4659 26.4381 11.489 25.6633C10.7124 25.0474 9.69764 24.548 8.2691 24.3221V32.5532V33.5532H7.2691H3.33638H2.47012L2.3466 32.6958C1.82492 29.0749 1.3344 24.4334 1.26894 20.0508C1.20426 15.7197 1.54842 11.4592 2.81596 8.72042ZM19.0611 17.5795L21.3962 15.3934L19.3564 13.7036L17.3788 15.8564C17.421 15.904 17.4631 15.9516 17.5051 15.9993C18.0094 16.5731 18.531 17.1082 19.0611 17.5795Z" fill="#5E6E7C"/>
</svg>
