<svg width="41" height="41" viewBox="0 0 41 41" fill="none" xmlns="http://www.w3.org/2000/svg">
<rect x="0.987793" y="0.751282" width="40" height="40" fill="white"/>
<path fill-rule="evenodd" clip-rule="evenodd" d="M20.9878 4.16531L21.5092 4.48398L39.0826 15.2233C39.3182 15.3672 39.3925 15.675 39.2485 15.9106L38.7271 16.7639C38.5831 16.9995 38.2753 17.0738 38.0397 16.9298L36.9878 16.287V35.3373H37.4878C37.7639 35.3373 37.9878 35.5611 37.9878 35.8373V36.8373C37.9878 37.1134 37.7639 37.3373 37.4878 37.3373H36.9878H35.9878H30.9878H19.9878H18.9878H10.9878H5.9878H4.9878H4.4878C4.21165 37.3373 3.9878 37.1134 3.9878 36.8373V35.8373C3.9878 35.5611 4.21165 35.3373 4.4878 35.3373H4.9878V16.287L3.93589 16.9298C3.70026 17.0738 3.39252 16.9995 3.24852 16.7639L2.72707 15.9106C2.58308 15.675 2.65736 15.3672 2.89299 15.2233L20.4663 4.48398L20.9878 4.16531ZM20.9878 6.50921L34.9878 15.0648V35.3373H32.9878V26.3373C32.9878 25.2327 32.0924 24.3373 30.9878 24.3373V19.3373C30.9878 18.2327 30.0924 17.3373 28.9878 17.3373H23.9878C22.8832 17.3373 21.9878 18.2327 21.9878 19.3373V24.3373H19.9878H18.9878H10.9878C9.88323 24.3373 8.9878 25.2327 8.9878 26.3373V35.3373H6.9878V15.0648L20.9878 6.50921ZM28.9878 26.3373H23.9878H19.9878V35.3373H30.9878V26.3373H28.9878ZM28.9878 24.3373V19.3373H23.9878V24.3373H28.9878ZM10.9878 26.3373H17.9878V35.3373H10.9878V26.3373ZM26.4878 27.3373C26.2117 27.3373 25.9878 27.5611 25.9878 27.8373V28.8373C25.9878 29.1134 26.2117 29.3373 26.4878 29.3373H29.4878C29.7639 29.3373 29.9878 29.1134 29.9878 28.8373V27.8373C29.9878 27.5611 29.7639 27.3373 29.4878 27.3373H26.4878Z" fill="#5E6E7C"/>
</svg>
