<svg width="41" height="41" viewBox="0 0 41 41" fill="none" xmlns="http://www.w3.org/2000/svg">
<rect x="0.987793" y="0.751282" width="40" height="40" fill="white"/>
<path fill-rule="evenodd" clip-rule="evenodd" d="M6.98779 5.75128H5.98779V6.75128V16.7513V17.7513H6.98779H16.9878H17.9878V16.7513V6.75128V5.75128H16.9878H6.98779ZM7.98779 15.7513V7.75128H15.9878V15.7513H7.98779ZM6.98779 23.7513H5.98779V24.7513V34.7513V35.7513H6.98779H16.9878H17.9878V34.7513V24.7513V23.7513H16.9878H6.98779ZM7.98779 33.7513V25.7513H15.9878V33.7513H7.98779ZM23.9878 5.75128H24.9878H34.9878H35.9878V6.75128V16.7513V17.7513H34.9878H24.9878H23.9878V16.7513V6.75128V5.75128ZM25.9878 7.75128V15.7513H33.9878V7.75128H25.9878ZM28.9878 9.75128H27.9878V10.7513V12.7513V13.7513H28.9878H30.9878H31.9878V12.7513V10.7513V9.75128H30.9878H28.9878ZM9.98779 9.75128H10.9878H12.9878H13.9878V10.7513V12.7513V13.7513H12.9878H10.9878H9.98779V12.7513V10.7513V9.75128ZM10.9878 27.7513H9.98779V28.7513V30.7513V31.7513H10.9878H12.9878H13.9878V30.7513V28.7513V27.7513H12.9878H10.9878ZM27.9878 27.7513H28.9878H30.9878H31.9878V28.7513V30.7513V31.7513H30.9878H28.9878H27.9878V30.7513V28.7513V27.7513ZM24.9878 23.7513H23.9878V24.7513V34.7513V35.7513H24.9878H34.9878H35.9878V34.7513V24.7513V23.7513H34.9878H24.9878ZM25.9878 33.7513V25.7513H33.9878V33.7513H25.9878ZM19.9878 19.7513V5.75128H21.9878V19.7513L29.9878 19.7513V21.7513L21.9878 21.7513V29.7513H19.9878V21.7513L5.98779 21.7513V19.7513L19.9878 19.7513ZM31.9878 21.7513V19.7513H35.9878V21.7513H31.9878ZM21.9878 31.7513H19.9878V35.7513H21.9878V31.7513Z" fill="#5E6E7C"/>
</svg>
