<svg width="41" height="41" viewBox="0 0 41 41" fill="none" xmlns="http://www.w3.org/2000/svg">
<rect x="0.987793" y="0.751343" width="40" height="40" fill="white"/>
<path fill-rule="evenodd" clip-rule="evenodd" d="M6.67529 18.8373C6.67529 10.9327 13.0832 4.52478 20.9878 4.52478C28.8924 4.52478 35.3003 10.9327 35.3003 18.8373V20.0248H33.4722V18.8373C33.4722 11.9424 27.8827 6.35292 20.9878 6.35292C14.0929 6.35292 8.50342 11.9424 8.50342 18.8373V20.0248H6.67529V18.8373ZM29.9253 17.8373C30.4846 17.8373 31.0082 17.9903 31.4564 18.2569C31.1551 12.7365 26.5834 8.35292 20.9878 8.35292C15.3922 8.35292 10.8204 12.7365 10.5192 18.2569C10.9674 17.9903 11.491 17.8373 12.0503 17.8373H12.4253C14.0821 17.8373 15.4253 19.1804 15.4253 20.8373V32.1498C15.4253 33.8066 14.0821 35.1498 12.4253 35.1498H12.0503C10.675 35.1498 9.51588 34.2244 9.16162 32.9623H7.76904V35.9779C7.76904 36.5302 8.21676 36.9779 8.76904 36.9779H15.9889C16.0134 36.4474 16.4512 36.0248 16.9878 36.0248H19.4175C20.233 36.0248 20.894 36.6859 20.894 37.5013C20.894 38.3168 20.233 38.9779 19.4175 38.9779H8.76904C7.11219 38.9779 5.76904 37.6348 5.76904 35.9779V32.8979C3.90292 32.5593 2.48779 30.926 2.48779 28.9623V24.0248C2.48779 22.4681 3.37705 21.1191 4.67529 20.458V18.8373C4.67529 9.82813 11.9786 2.52478 20.9878 2.52478C29.9969 2.52478 37.3003 9.82813 37.3003 18.8373V20.458C38.5985 21.1191 39.4878 22.4681 39.4878 24.0248V28.9623C39.4878 31.1714 37.6969 32.9623 35.4878 32.9623H32.814C32.4597 34.2244 31.3006 35.1498 29.9253 35.1498H29.5503C27.8934 35.1498 26.5503 33.8066 26.5503 32.1498V20.8373C26.5503 19.1804 27.8934 17.8373 29.5503 17.8373H29.9253ZM7.76904 30.9623V27.5873C7.76904 27.035 7.32133 26.5873 6.76904 26.5873C6.21676 26.5873 5.76904 27.035 5.76904 27.5873V30.8292C5.01957 30.5405 4.48779 29.8135 4.48779 28.9623V24.0248C4.48779 22.9202 5.38322 22.0248 6.48779 22.0248H9.05029V30.9623H7.76904ZM11.0503 21.0248V20.8373C11.0503 20.285 11.498 19.8373 12.0503 19.8373H12.4253C12.9776 19.8373 13.4253 20.285 13.4253 20.8373V32.1498C13.4253 32.7021 12.9776 33.1498 12.4253 33.1498H12.0503C11.498 33.1498 11.0503 32.7021 11.0503 32.1498V31.9623V21.0248ZM29.9253 33.1498C30.4776 33.1498 30.9253 32.7021 30.9253 32.1498V31.9623V21.0248V20.8373C30.9253 20.285 30.4776 19.8373 29.9253 19.8373H29.5503C28.998 19.8373 28.5503 20.285 28.5503 20.8373V32.1498C28.5503 32.7021 28.998 33.1498 29.5503 33.1498H29.9253ZM35.4878 30.9623H32.9253V22.0248H35.4878C36.5924 22.0248 37.4878 22.9202 37.4878 24.0248V28.9623C37.4878 30.0668 36.5924 30.9623 35.4878 30.9623Z" fill="#5E6E7C"/>
</svg>
