<svg width="41" height="41" viewBox="0 0 41 41" fill="none" xmlns="http://www.w3.org/2000/svg">
<rect x="0.987793" y="0.751282" width="40" height="40" fill="white"/>
<path fill-rule="evenodd" clip-rule="evenodd" d="M16.9877 5.6326C8.5739 7.04829 2.88353 15.3067 4.37077 24.1456C4.71956 26.2186 5.43205 28.1336 6.4272 29.8321H8.99597C9.7203 29.8321 10.4202 30.0942 10.9664 30.5699L15.4822 34.5033C16.6384 35.5104 18.1199 36.0651 19.6532 36.0651V36.0662L20.967 36.0791C24.3769 36.1124 26.819 32.7976 25.7765 29.5508L23.4854 22.4151C23.1358 21.3264 23.4356 20.1336 24.2584 19.3394L31.9771 11.8896C28.5541 7.23084 22.8561 4.6452 16.9877 5.6326ZM14.17 36.0127L14.1686 36.0115L9.65277 32.078C9.4707 31.9195 9.23741 31.8321 8.99597 31.8321H7.8076C9.16585 33.5171 10.8348 34.9015 12.7014 35.9034C12.815 35.9644 12.9547 36.0008 13.1121 36.0023L14.17 36.0127ZM2.39849 24.4775C0.740155 14.6216 7.08182 5.27124 16.6559 3.66032C23.6447 2.48439 30.3641 5.77567 34.1192 11.4668L34.3156 11.7644L39.1391 15.9048C40.5475 17.1137 39.6926 19.4223 37.8365 19.4223H37.7907C38.4546 21.2665 38.8317 23.553 38.8115 25.8968C38.7845 29.0316 38.0457 32.4138 36.1773 35.094C35.8384 35.5801 35.3516 35.9335 34.8013 36.1152C31.7307 37.1291 28.5156 37.1165 24.8778 36.9226C23.766 37.661 22.4213 38.0934 20.9475 38.079L13.0926 38.0022C12.6408 37.9978 12.1787 37.8927 11.7555 37.6656C6.98636 35.1057 3.38575 30.345 2.39849 24.4775ZM26.8126 35.0035C29.6011 35.0862 31.9517 34.9499 34.1742 34.2161C34.3264 34.1658 34.4524 34.071 34.5366 33.9502C36.1056 31.6995 36.7869 28.7513 36.8116 25.8796C36.833 23.3857 36.3586 21.0582 35.6394 19.4223H32.6863C32.2001 19.4223 31.7212 19.5405 31.2908 19.7667L25.682 22.7141L27.6808 28.9394C28.3788 31.1134 27.9609 33.3092 26.8126 35.0035ZM26.3422 20.1079L33.2254 13.4644L37.8365 17.4223H32.6863C31.876 17.4223 31.0778 17.6193 30.3604 17.9963L26.3422 20.1079ZM19.6532 28.5293C18.9894 28.5293 18.4513 29.0674 18.4513 29.7311C18.4513 30.3949 18.9894 30.933 19.6532 30.933C20.3169 30.933 20.855 30.3949 20.855 29.7311C20.855 29.0674 20.3169 28.5293 19.6532 28.5293ZM16.4513 29.7311C16.4513 27.9628 17.8848 26.5293 19.6532 26.5293C21.4215 26.5293 22.855 27.9628 22.855 29.7311C22.855 31.4995 21.4215 32.933 19.6532 32.933C17.8848 32.933 16.4513 31.4995 16.4513 29.7311Z" fill="#5E6E7C"/>
</svg>
