<svg width="41" height="41" viewBox="0 0 41 41" fill="none" xmlns="http://www.w3.org/2000/svg">
<rect x="0.987793" y="0.751282" width="40" height="40" fill="white"/>
<path fill-rule="evenodd" clip-rule="evenodd" d="M22.2073 4.29021C21.4818 3.75678 20.4938 3.75678 19.7682 4.29021L4.11725 15.7971C3.7215 16.0881 3.48779 16.55 3.48779 17.0412L3.4878 20.6272C3.4878 21.4799 4.17912 22.1713 5.03191 22.1713H5.84073V36.0683C5.84073 36.9211 6.53206 37.6124 7.38485 37.6124H14.8113H15.2718H26.6496V37.6115C26.6675 37.6121 26.6856 37.6124 26.7037 37.6124H34.5907C35.4435 37.6124 36.1349 36.9211 36.1349 36.0683V22.1713H36.9437C37.7965 22.1713 38.4878 21.4799 38.4878 20.6271V17.0412C38.4878 16.55 38.2541 16.0881 37.8583 15.7971L22.2073 4.29021ZM25.1596 35.5536H16.816V23.2007H25.1596V35.5536ZM20.9878 5.94896L36.429 17.3016V20.1124H35.2381L21.6198 9.52046L20.9992 9.03775L20.3701 9.5095L6.23289 20.1124H5.54662L5.54662 17.3016L20.9878 5.94896ZM7.89956 21.436L20.9764 11.6283L34.076 21.8169V35.5536H27.2184V22.686C27.2184 21.8332 26.5271 21.1419 25.6743 21.1419H16.3013C15.4485 21.1419 14.7571 21.8332 14.7571 22.686V35.5536H7.89956V21.436ZM24.1406 28.1755C24.1406 27.595 23.6701 27.1245 23.0897 27.1245C22.5093 27.1245 22.0387 27.595 22.0387 28.1755V30.2774C22.0387 30.8578 22.5093 31.3283 23.0897 31.3283C23.6701 31.3283 24.1406 30.8578 24.1406 30.2774V28.1755Z" fill="#5E6E7C"/>
</svg>
