<svg width="41" height="41" viewBox="0 0 41 41" fill="none" xmlns="http://www.w3.org/2000/svg">
<rect x="0.987793" y="0.751343" width="40" height="40" fill="white"/>
<path fill-rule="evenodd" clip-rule="evenodd" d="M16.7614 5.54312C19.3437 3.86269 22.5002 3.85085 25.2286 5.62638C26.5188 6.46599 27.2509 7.90755 27.5223 9.85428L27.5381 9.9677C27.5404 9.98377 27.5426 9.99985 27.5448 10.016C27.1363 10.3505 26.6882 10.5931 26.2098 10.7557H26.1542V10.7742C25.0168 11.1444 23.7117 11.0696 22.3625 10.7084C20.3769 10.1769 18.5391 9.07906 17.5827 8.32809L16.8369 7.7424L16.1551 8.40151L14.323 10.1725C14.3353 10.0875 14.3475 10.0032 14.3597 9.91966C14.651 7.92371 15.4476 6.3981 16.7614 5.54312ZM12.7025 16.2779L12.4839 16.9041C12.2637 17.5351 12.2997 18.2273 12.5843 18.832C13.3431 20.4444 13.1307 22.3466 12.035 23.752L10.901 25.2064L15.982 23.5473V21.3565C15.9052 21.2797 15.8299 21.2015 15.7563 21.122C14.6895 19.9694 13.9185 18.4878 13.6608 16.9084C13.2866 16.7866 12.9569 16.5662 12.7025 16.2779ZM7.21864 26.5617L7.13613 26.4974L10.3195 22.4144C10.911 21.6557 11.0257 20.6288 10.616 19.7583C10.0889 18.6381 10.0221 17.356 10.4301 16.1872L11.4822 13.1729C11.8372 12.156 11.9937 11.077 12.1675 9.87791L12.2071 9.60546C12.5522 7.24134 13.5572 5.03292 15.5749 3.71986C18.8966 1.55822 22.9836 1.57005 26.4151 3.80312C28.4208 5.10839 29.355 7.24587 29.6768 9.55386L29.6787 9.56738C29.864 10.8963 30.0308 12.0929 30.436 13.204L31.5181 16.1718C31.9445 17.3412 31.8923 18.6316 31.3728 19.7627C30.9752 20.6285 31.0933 21.6436 31.6791 22.395L34.8776 26.4974L34.788 26.5673C36.8592 27.7432 38.29 29.8434 38.5858 32.2652L39.158 36.9504C39.3164 38.2467 38.3047 39.3894 36.9987 39.3894H4.97686C3.67087 39.3894 2.65924 38.2467 2.81758 36.9504L3.38824 32.278C3.68563 29.8432 5.13015 27.7339 7.21864 26.5617ZM31.1052 25.1968L29.9635 23.7325C28.8781 22.3403 28.6592 20.4591 29.396 18.8548C29.6763 18.2444 29.7045 17.5481 29.4744 16.917L29.2505 16.3029C28.9808 16.5993 28.6303 16.8209 28.2339 16.9329C27.9789 18.4967 27.2309 19.9667 26.186 21.1152C26.0987 21.2111 26.0091 21.3051 25.9171 21.3971V23.4865L31.1052 25.1968ZM26.1542 13.0257C24.6846 13.3404 23.161 13.1741 21.8 12.8098C19.9304 12.3093 18.2075 11.3998 17.0127 10.598L15.7424 11.8259V15.7632C15.7424 17.1427 16.3523 18.5634 17.3528 19.6444C18.3526 20.7246 19.6619 21.3822 20.9878 21.3822C22.3108 21.3822 23.598 20.7272 24.577 19.6512C25.5572 18.5738 26.1542 17.1515 26.1542 15.7632V13.0257ZM18.1574 22.9038V23.9418C18.1574 24.6477 17.7033 25.2736 17.0323 25.4927L16.4117 25.6953C16.7022 26.1199 17.0415 26.589 17.4143 27.0563C18.0134 27.8076 18.6727 28.5207 19.3299 29.038C20.0099 29.5732 20.5539 29.7928 20.9429 29.7956C21.3381 29.7984 21.8895 29.5831 22.5792 29.0503C23.2464 28.5349 23.9166 27.8207 24.5264 27.0668C24.9165 26.5845 25.2709 26.0997 25.5724 25.6633L24.8624 25.4293C24.1936 25.2088 23.7417 24.584 23.7417 23.8798V22.9343C22.8956 23.3287 21.966 23.5575 20.9878 23.5575C19.9845 23.5575 19.0278 23.3168 18.1574 22.9038ZM9.25767 28.0314L14.2642 26.3966C14.64 26.9724 15.1374 27.6903 15.7136 28.4127C16.3647 29.2291 17.1428 30.0849 17.9845 30.7474C18.8033 31.3919 19.8197 31.9629 20.9272 31.9709C22.0459 31.9789 23.0769 31.4146 23.9091 30.7718C24.7639 30.1115 25.5552 29.254 26.2177 28.4348C26.8171 27.6938 27.3332 26.9564 27.7189 26.371L32.731 28.0233C34.7314 28.6828 36.1711 30.4381 36.4265 32.5289L36.9987 37.2141H33.4015V33.6497C33.4015 33.049 32.9145 32.562 32.3138 32.562C31.7131 32.562 31.2261 33.049 31.2261 33.6497L31.2262 37.2141L10.7495 37.2141L10.7495 33.6497C10.7495 33.049 10.2625 32.562 9.66184 32.562C9.06114 32.562 8.57417 33.049 8.57417 33.6497V37.2141H4.97686L5.54753 32.5418C5.80357 30.4454 7.25009 28.6869 9.25767 28.0314Z" fill="#5E6E7C"/>
</svg>
