<svg width="41" height="41" viewBox="0 0 41 41" fill="none" xmlns="http://www.w3.org/2000/svg">
<rect x="0.987793" y="0.751343" width="40" height="40" fill="white"/>
<path fill-rule="evenodd" clip-rule="evenodd" d="M25.2285 5.62638C22.5002 3.85085 19.3436 3.86269 16.7614 5.54312C15.1603 6.58503 13.9262 8.51762 13.6505 10.7557H13.7197L16.155 8.4015L16.8369 7.74239L17.5827 8.32808C17.7483 8.45812 17.9214 8.59676 18.1013 8.74092L18.1014 8.74097C19.1324 9.56697 20.3899 10.5744 21.7689 11.1843C22.5599 11.5342 23.3205 11.7175 24.0334 11.6782C24.7234 11.6402 25.4339 11.391 26.1534 10.7598L26.1542 10.7607V10.7557H28.3251C28.0518 8.54045 26.834 6.67115 25.2285 5.62638ZM11.4531 10.8589C11.7094 7.85691 13.321 5.18663 15.5749 3.71986C18.8966 1.55822 22.9836 1.57005 26.415 3.80312C28.6629 5.26598 30.2674 7.86307 30.5225 10.859C31.3991 11.1397 32.0336 11.9613 32.0336 12.931V15.0054C32.0336 16.2068 31.0597 17.1807 29.8583 17.1807H28.1892C27.8988 18.6516 27.1755 20.0276 26.186 21.1151C26.0987 21.2111 26.009 21.3051 25.917 21.3971V23.4865L33.4121 25.9573C36.2126 26.8806 38.2283 29.338 38.5858 32.2651L39.158 36.9504C39.3163 38.2467 38.3047 39.3894 36.9987 39.3894H4.97685C3.67085 39.3894 2.65923 38.2467 2.81756 36.9504L3.38823 32.278C3.74668 29.3432 5.77182 26.8812 8.58242 25.9635L15.982 23.5473V21.3565C15.9052 21.2797 15.8299 21.2015 15.7563 21.122C15.6628 21.021 15.5716 20.9174 15.4828 20.8115H14.3333C12.5312 20.8115 11.0703 19.3506 11.0703 17.5485V16.9127C10.3977 16.5427 9.94183 15.8273 9.94183 15.0054V12.931C9.94183 11.9612 10.5765 11.1396 11.4531 10.8589ZM13.2456 17.1807V17.5485C13.2456 18.0872 13.6373 18.5344 14.1513 18.621C13.9593 18.1567 13.8101 17.6742 13.7105 17.1807H13.2456ZM18.8396 20.8115H20.1637C20.7645 20.8115 21.2514 20.3245 21.2514 19.7238C21.2514 19.1231 20.7645 18.6362 20.1637 18.6362H16.5915C16.0518 17.7494 15.7424 16.7458 15.7424 15.7632V11.8259L16.9787 10.6308C17.9813 11.433 19.3717 12.5027 20.889 13.1737C21.877 13.6108 22.9891 13.9145 24.1532 13.8503C24.8303 13.8129 25.5021 13.6521 26.1542 13.3455V15.7632C26.1542 17.1515 25.5572 18.5738 24.577 19.6512C23.598 20.7272 22.3108 21.3822 20.9878 21.3822C20.2497 21.3822 19.5169 21.1784 18.8396 20.8115ZM18.1573 23.9418V22.9038C18.7032 23.1628 19.283 23.354 19.8869 23.4607V26.0502L17.5046 28.4325L16.6432 25.6197L17.0323 25.4927C17.7033 25.2736 18.1573 24.6477 18.1573 23.9418ZM14.575 26.2951L9.25765 28.0314C7.25008 28.6869 5.80355 30.4454 5.54752 32.5417L4.97685 37.2141H17.9188L14.575 26.2951ZM20.1938 37.2141H21.7817L23.7073 30.9265L20.8971 28.1163L18.2258 30.7876L20.1938 37.2141ZM36.9987 37.2141L24.0568 37.2141L27.4087 26.2687L32.731 28.0233C34.7314 28.6828 36.1711 30.4381 36.4265 32.5289L36.9987 37.2141ZM24.8624 25.4293L25.3423 25.5875L24.4285 28.5713L22.0622 26.205V23.465C22.6491 23.3634 23.2117 23.1813 23.7417 22.9343V23.8798C23.7417 24.584 24.1936 25.2088 24.8624 25.4293ZM27.4702 33.3949C27.4702 33.0945 27.7136 32.851 28.014 32.851H33.0423C33.3427 32.851 33.5862 33.0945 33.5862 33.3949V34.5243C33.5862 34.8246 33.3427 35.0681 33.0423 35.0681H28.014C27.7136 35.0681 27.4702 34.8246 27.4702 34.5243V33.3949ZM11.9086 13.6206C11.9086 13.3445 12.1325 13.1206 12.4086 13.1206H13.2665C13.5426 13.1206 13.7665 13.3445 13.7665 13.6206V14.5066C13.7665 14.7828 13.5426 15.0066 13.2665 15.0066H12.4086C12.1325 15.0066 11.9086 14.7828 11.9086 14.5066V13.6206ZM28.209 13.6206C28.209 13.3445 28.4329 13.1206 28.709 13.1206H29.5669C29.843 13.1206 30.0669 13.3445 30.0669 13.6206V14.5066C30.0669 14.7828 29.843 15.0066 29.5669 15.0066H28.709C28.4329 15.0066 28.209 14.7828 28.209 14.5066V13.6206Z" fill="#5E6E7C"/>
</svg>
