<svg width="41" height="41" viewBox="0 0 41 41" fill="none" xmlns="http://www.w3.org/2000/svg">
<rect x="0.987793" y="0.751343" width="40" height="40" fill="white"/>
<path fill-rule="evenodd" clip-rule="evenodd" d="M17.3796 5.2277C19.554 3.96988 22.2296 3.96053 24.5293 5.29086C25.7233 5.98154 26.1123 7.25299 26.1509 9.28956C22.8416 7.98223 19.0467 7.99279 15.7452 9.32126C15.7816 7.25595 16.1813 5.9209 17.3796 5.2277ZM28.3295 9.64716V10.3908C28.5431 10.525 28.7531 10.6658 28.9592 10.813C29.448 11.1622 29.5612 11.8415 29.2121 12.3303C29.2068 12.3376 29.2015 12.3449 29.1961 12.3521C29.58 12.7443 29.8166 13.2813 29.8166 13.8734V14.8393C29.8166 15.8352 29.1472 16.6749 28.2339 16.9329C28.0512 18.0533 27.6154 19.1255 26.9987 20.0659H27.0256V23.4865L34.5206 25.9573C37.3212 26.8806 39.3368 29.3381 39.6943 32.2652L40.2665 36.9504C40.4249 38.2467 39.4132 39.3894 38.1072 39.3894H3.86833C2.56233 39.3894 1.55071 38.2467 1.70904 36.9504L2.27971 32.278C2.63816 29.3432 4.66329 26.8813 7.4739 25.9635L14.8735 23.5473V20.0659H14.9241C14.2931 19.1201 13.8453 18.0393 13.6608 16.9084C12.789 16.6248 12.1588 15.8056 12.1588 14.8393V13.8734C12.1588 13.2812 12.3955 12.7442 12.7794 12.352C12.7764 12.3479 12.7734 12.3439 12.7704 12.3398C12.7681 12.3366 12.7658 12.3335 12.7635 12.3303C12.4144 11.8415 12.5276 11.1622 13.0164 10.813C13.1971 10.684 13.3807 10.5599 13.5671 10.4409V9.64716C13.5671 7.37116 13.8945 4.73067 16.2904 3.34471C19.1547 1.6878 22.6612 1.69715 25.6186 3.40787C28.0124 4.79259 28.3295 7.36616 28.3295 9.64716ZM15.7424 11.7056C18.9618 10.1009 22.9228 10.0879 26.1542 11.6666V15.7632C26.1542 17.1515 25.5572 18.5738 24.577 19.6512C23.598 20.7273 22.3108 21.3822 20.9878 21.3822C19.6619 21.3822 18.3526 20.7246 17.3528 19.6444C16.3523 18.5634 15.7424 17.1427 15.7424 15.7632V11.7056ZM17.0488 23.9418V22.2551C17.8951 22.8509 18.8621 23.282 19.9001 23.463V27.4674C18.6868 27.2108 17.6694 26.5436 16.8811 25.8246C16.6825 25.6434 16.5018 25.4619 16.3399 25.2875C16.7757 24.9887 17.0488 24.4894 17.0488 23.9418ZM19.9001 29.6768C17.9722 29.3941 16.4557 28.3809 15.4152 27.4318C14.8839 26.9471 14.4599 26.4646 14.149 26.0722L8.14913 28.0314C6.14156 28.6869 4.69503 30.4454 4.439 32.5418L3.86833 37.2141H19.9001L19.9001 29.6768ZM22.0754 37.2141V29.6685C23.9714 29.3765 25.4745 28.3832 26.5144 27.4494C27.0738 26.947 27.5176 26.4461 27.8382 26.0449L33.8395 28.0233C35.8399 28.6828 37.2796 30.4381 37.535 32.5289L38.1072 37.2141H22.0754ZM22.0754 27.4558V23.4627C23.0871 23.2854 24.0266 22.8689 24.8502 22.2931V23.8798C24.8502 24.4569 25.1537 24.9807 25.6314 25.2723C25.4614 25.4534 25.2709 25.6423 25.061 25.8308C24.274 26.5375 23.2668 27.192 22.0754 27.4558ZM27.4701 33.2335C27.4701 32.9332 27.7136 32.6897 28.014 32.6897H33.0423C33.3427 32.6897 33.5861 32.9332 33.5861 33.2335V34.3629C33.5861 34.6633 33.3427 34.9067 33.0423 34.9067H28.014C27.7136 34.9067 27.4701 34.6633 27.4701 34.3629V33.2335Z" fill="#5E6E7C"/>
</svg>
