<svg width="41" height="41" viewBox="0 0 41 41" fill="none" xmlns="http://www.w3.org/2000/svg">
<rect x="0.987793" y="0.751343" width="40" height="40" fill="white"/>
<path fill-rule="evenodd" clip-rule="evenodd" d="M17.3796 5.2277C19.554 3.96988 22.2296 3.96053 24.5293 5.29086C25.7917 6.02111 26.1542 7.40058 26.1542 9.64717V9.7672C24.8463 9.82466 23.554 9.37861 22.1248 8.40728L21.4804 7.96933L20.8584 8.43855L19.028 9.81936C18.1106 9.62398 17.5396 9.41249 17.0797 9.11499C16.6752 8.85336 16.3003 8.48867 15.8502 7.88816C16.036 6.61951 16.4855 5.74493 17.3796 5.2277ZM21.5655 10.63C23.0438 11.5118 24.5556 11.9945 26.1542 11.9447V15.7632C26.1542 17.1515 25.5572 18.5738 24.577 19.6512C23.598 20.7273 22.3108 21.3822 20.9878 21.3822C19.6619 21.3822 18.3526 20.7246 17.3528 19.6444C16.3523 18.5634 15.7424 17.1427 15.7424 15.7632V10.8369C15.7936 10.8726 15.8455 10.9075 15.8983 10.9416C16.7936 11.5207 17.8137 11.8122 19.0955 12.0504L19.5667 12.1379L19.9492 11.8493L21.5655 10.63ZM13.5671 9.64717C13.5671 9.26385 13.5763 8.87019 13.6032 8.47393L13.6008 8.47028L13.6036 8.4684C13.7371 6.51353 14.2998 4.49616 16.2904 3.34471C19.1547 1.6878 22.6612 1.69715 25.6186 3.40787C28.0124 4.79259 28.3295 7.36616 28.3295 9.64717V11.8093C29.1936 12.0973 29.8165 12.9126 29.8165 13.8734V14.8393C29.8165 15.8352 29.1472 16.6748 28.2339 16.9329C27.9789 18.4967 27.2309 19.9667 26.186 21.1152C26.0987 21.2111 26.009 21.3051 25.917 21.3971V23.4656L34.353 26.0145C37.2418 26.8874 39.3424 29.3841 39.7083 32.3797L40.2665 36.9504C40.4249 38.2467 39.4133 39.3894 38.1073 39.3894H3.86833C2.56233 39.3894 1.55071 38.2467 1.70904 36.9504L2.26572 32.3926C2.63252 29.3894 4.7427 26.8883 7.6413 26.0213L15.982 23.5264V21.3565C15.9052 21.2797 15.8299 21.2015 15.7563 21.122C14.6895 19.9694 13.9185 18.4878 13.6608 16.9084C12.789 16.6249 12.1588 15.8057 12.1588 14.8393V13.8734C12.1588 12.942 12.7442 12.1474 13.5671 11.8372V9.64717ZM18.1573 23.9313V22.9038C19.0278 23.3168 19.9845 23.5575 20.9878 23.5575C21.966 23.5575 22.8955 23.3287 23.7417 22.9343V23.8694C23.7417 24.5886 24.2128 25.2231 24.9013 25.4311L25.3445 25.565C25.2543 25.6531 25.1598 25.742 25.0609 25.8308C24.0347 26.7523 22.6342 27.585 20.939 27.5785C19.2606 27.572 17.885 26.7403 16.881 25.8246C16.7985 25.7494 16.7192 25.6741 16.6429 25.5992L16.9934 25.4944C17.6841 25.2878 18.1573 24.6523 18.1573 23.9313ZM14.3274 26.2919L8.26471 28.1054C6.19428 28.7247 4.68701 30.5112 4.42501 32.6563L3.86833 37.2141H8.57416V33.6497C8.57416 33.049 9.06113 32.562 9.66183 32.562C10.2625 32.562 10.7495 33.049 10.7495 33.6497V37.2141H31.2261V33.6497C31.2261 33.049 31.7131 32.562 32.3138 32.562C32.9145 32.562 33.4015 33.049 33.4015 33.6497V37.2141H38.1072L37.549 32.6434C37.2877 30.5038 35.7872 28.7204 33.7238 28.0969L27.6585 26.2642C27.3586 26.6215 26.9758 27.035 26.5143 27.4494C25.273 28.5639 23.372 29.7632 20.9306 29.7538C18.5077 29.7445 16.6345 28.5441 15.4151 27.4318C14.9792 27.0342 14.6156 26.638 14.3274 26.2919Z" fill="#5E6E7C"/>
</svg>
