<svg width="41" height="41" viewBox="0 0 41 41" fill="none" xmlns="http://www.w3.org/2000/svg">
<rect x="0.987793" y="0.751343" width="40" height="40" fill="white"/>
<path fill-rule="evenodd" clip-rule="evenodd" d="M6.98779 6.25134C5.33094 6.25134 3.98779 7.59449 3.98779 9.25134V32.2513C3.98779 33.9082 5.33094 35.2513 6.98779 35.2513H34.9878C36.6446 35.2513 37.9878 33.9082 37.9878 32.2513V9.25134C37.9878 7.59449 36.6446 6.25134 34.9878 6.25134H6.98779ZM5.98779 9.25134C5.98779 8.69906 6.43551 8.25134 6.98779 8.25134H34.9878C35.5401 8.25134 35.9878 8.69906 35.9878 9.25134V19.8828L30.0425 15.9193L29.4491 15.5237L28.8818 15.9559L18.9491 23.5237L13.5425 19.9193L12.9538 19.5268L12.3878 19.9513L5.98779 24.7513V9.25134ZM5.98779 27.2513V28.6654H35.9878V22.2865L29.5265 17.979L19.5938 25.5468L19.0265 25.979L18.4331 25.5834L13.0218 21.9759L5.98779 27.2513ZM5.98779 32.2513V30.6654H35.9878V32.2513C35.9878 32.8036 35.5401 33.2513 34.9878 33.2513H6.98779C6.43551 33.2513 5.98779 32.8036 5.98779 32.2513ZM11.4878 14.2513C11.4878 13.4229 12.1594 12.7513 12.9878 12.7513C13.8162 12.7513 14.4878 13.4229 14.4878 14.2513C14.4878 15.0798 13.8162 15.7513 12.9878 15.7513C12.1594 15.7513 11.4878 15.0798 11.4878 14.2513ZM12.9878 10.7513C11.0548 10.7513 9.48779 12.3183 9.48779 14.2513C9.48779 16.1843 11.0548 17.7513 12.9878 17.7513C14.9208 17.7513 16.4878 16.1843 16.4878 14.2513C16.4878 12.3183 14.9208 10.7513 12.9878 10.7513Z" fill="#5E6E7C"/>
</svg>
