<svg width="41" height="41" viewBox="0 0 41 41" fill="none" xmlns="http://www.w3.org/2000/svg">
<rect x="0.987793" y="0.751282" width="40" height="40" fill="white"/>
<path fill-rule="evenodd" clip-rule="evenodd" d="M20.9878 6.55038C13.1448 6.55038 6.78687 12.9083 6.78687 20.7513C6.78687 28.5942 13.1448 34.9522 20.9878 34.9522C28.8307 34.9522 35.1887 28.5942 35.1887 20.7513C35.1887 12.9083 28.8307 6.55038 20.9878 6.55038ZM4.78687 20.7513C4.78687 11.8038 12.0403 4.55038 20.9878 4.55038C29.9353 4.55038 37.1887 11.8038 37.1887 20.7513C37.1887 29.6988 29.9353 36.9522 20.9878 36.9522C12.0403 36.9522 4.78687 29.6988 4.78687 20.7513ZM17.4877 20.6772C17.4877 18.7442 19.0547 17.1772 20.9877 17.1772C22.9207 17.1772 24.4877 18.7442 24.4877 20.6772V28.6772C24.4877 30.6102 22.9207 32.1772 20.9877 32.1772C19.0547 32.1772 17.4877 30.6102 17.4877 28.6772V20.6772ZM20.9877 19.1772C20.1593 19.1772 19.4877 19.8488 19.4877 20.6772V28.6772C19.4877 29.5057 20.1593 30.1772 20.9877 30.1772C21.8162 30.1772 22.4877 29.5057 22.4877 28.6772V20.6772C22.4877 19.8488 21.8162 19.1772 20.9877 19.1772ZM20.9877 9.32532C19.0547 9.32532 17.4877 10.8923 17.4877 12.8253C17.4877 14.7583 19.0547 16.3253 20.9877 16.3253C22.9207 16.3253 24.4877 14.7583 24.4877 12.8253C24.4877 10.8923 22.9207 9.32532 20.9877 9.32532ZM19.4877 12.8253C19.4877 11.9969 20.1593 11.3253 20.9877 11.3253C21.8162 11.3253 22.4877 11.9969 22.4877 12.8253C22.4877 13.6537 21.8162 14.3253 20.9877 14.3253C20.1593 14.3253 19.4877 13.6537 19.4877 12.8253Z" fill="#5E6E7C"/>
</svg>
