<svg width="41" height="41" viewBox="0 0 41 41" fill="none" xmlns="http://www.w3.org/2000/svg">
<rect x="0.987793" y="0.751282" width="40" height="40" fill="white"/>
<path fill-rule="evenodd" clip-rule="evenodd" d="M14.5179 5.21521C12.7843 6.83325 11.5821 9.29373 11.5821 12.6828C11.5821 15.6961 11.4828 17.8012 11.1257 19.8047C10.7679 21.8127 10.1584 23.6774 9.18466 26.217C9.09603 26.4481 9.10265 26.6482 9.15855 26.7887C11.2718 32.1006 20.8535 38.9874 35.1348 31.8385C35.1064 31.7649 35.0664 31.6906 35.0133 31.6173L32.7942 28.5531C25.6379 33.6312 16.9757 33.3438 12.3591 27.9675C11.9993 27.5485 12.0473 26.9171 12.4663 26.5574C12.8853 26.1976 13.5166 26.2456 13.8764 26.6646C17.7014 31.119 25.3926 31.6244 32.0824 26.5964C32.3691 26.381 32.506 25.9557 32.3473 25.5249C31.4907 23.2009 30.9967 21.4347 30.7235 19.5034C30.4527 17.5883 30.404 15.5429 30.404 12.6828C30.404 9.29374 29.2019 6.83325 27.4683 5.21521C25.72 3.58347 23.3691 2.75128 20.9931 2.75128C18.617 2.75128 16.2662 3.58347 14.5179 5.21521ZM34.1782 27.0544C34.4766 26.3543 34.4881 25.5501 34.2238 24.8333C33.3974 22.5912 32.9507 20.9689 32.7038 19.2234C32.4547 17.4617 32.404 15.542 32.404 12.6828C32.404 8.78416 31.0034 5.7789 28.8329 3.7531C26.6771 1.74101 23.8225 0.751282 20.9931 0.751282C18.1637 0.751282 15.309 1.74101 13.1532 3.7531C10.9827 5.7789 9.58212 8.78416 9.58212 12.6828C9.58212 15.6655 9.48212 17.6283 9.15678 19.4538C8.83223 21.2748 8.27608 23.0002 7.31723 25.5009C7.08472 26.1073 7.02455 26.8351 7.30021 27.528C7.31048 27.5539 7.32089 27.5797 7.33142 27.6055L5.3204 30.4601C4.63716 31.4299 4.55322 32.7986 5.39948 33.8109C7.2606 36.037 12.242 40.7513 20.9931 40.7513C29.724 40.7513 34.7027 36.0586 36.5738 33.8263C37.4314 32.803 37.3371 31.4163 36.6331 30.4442L34.1782 27.0544ZM8.38501 29.5827L6.95539 31.6119C6.71534 31.9527 6.7519 32.3104 6.9339 32.5281C8.57424 34.4902 13.0445 38.7513 20.9931 38.7513C25.9749 38.7513 29.5903 37.0774 31.9991 35.3448C20.4304 39.4044 11.8473 34.8189 8.38501 29.5827ZM17.2236 9.06442C19.4966 7.71915 22.2899 7.70936 24.6932 9.13169C25.3721 9.5335 25.8049 10.1179 26.067 10.9076C24.2866 10.259 22.6778 9.91355 21.034 9.91161C19.3478 9.90963 17.6836 10.2691 15.8182 10.9529C16.081 10.1058 16.5233 9.47888 17.2236 9.06442ZM15.4969 13.2254C15.4904 13.4235 15.4874 13.6279 15.4874 13.8387V19.3533C15.4874 20.8507 16.1339 22.3835 17.1843 23.5447C18.2348 24.706 19.607 25.4093 20.993 25.4093C22.3761 25.4093 23.7255 24.7088 24.7545 23.5516C25.7841 22.3938 26.4165 20.8593 26.4165 19.3533V13.8387C26.4165 13.6135 26.4132 13.3961 26.406 13.1865C24.3099 12.3184 22.6555 11.9135 21.0316 11.9116C19.3821 11.9097 17.6807 12.3234 15.4969 13.2254ZM28.5918 13.8387C28.5918 11.418 28.2641 8.71733 25.8011 7.25965C22.7312 5.44276 19.0884 5.43298 16.1156 7.19237C13.6506 8.65127 13.3121 11.4229 13.3121 13.8387V19.3533C13.3121 21.4537 14.204 23.4928 15.5711 25.004C16.938 26.5151 18.8624 27.5847 20.993 27.5847C23.1266 27.5847 25.0328 26.5123 26.3801 24.9971C27.727 23.4825 28.5918 21.4451 28.5918 19.3533V13.8387Z" fill="#5E6E7C"/>
</svg>
