<svg width="41" height="41" viewBox="0 0 41 41" fill="none" xmlns="http://www.w3.org/2000/svg">
<rect x="0.987793" y="0.751282" width="40" height="40" fill="white"/>
<path fill-rule="evenodd" clip-rule="evenodd" d="M20.9878 3.34189C15.0355 3.34189 10.2102 8.16717 10.2102 14.1194C10.2102 17.0603 11.3868 19.7243 13.2971 21.6699C15.0314 23.4361 16.8409 25.7091 17.2091 28.4303H17.4806V24.8646C17.4806 23.6666 18.8158 22.952 19.8126 23.6166L20.9878 24.4L22.163 23.6166C23.1598 22.952 24.495 23.6666 24.495 24.8646V28.4303H24.7665C25.1347 25.7091 26.9442 23.4361 28.6785 21.6699C30.5888 19.7243 31.7653 17.0603 31.7653 14.1194C31.7653 8.16717 26.9401 3.34189 20.9878 3.34189ZM22.495 28.4303V25.7989L21.8198 26.249C21.316 26.5849 20.6596 26.5849 20.1557 26.249L19.4806 25.7989V28.4303H22.495ZM8.21024 14.1194C8.21024 7.0626 13.9309 1.34189 20.9878 1.34189C28.0446 1.34189 33.7653 7.0626 33.7653 14.1194C33.7653 17.6053 32.3682 20.7667 30.1056 23.0711C28.2068 25.0049 26.6988 27.1151 26.6988 29.4303V30.4303V35.394C26.6988 36.8902 25.6035 38.1306 24.171 38.3571C23.7799 39.4103 22.7659 40.1607 21.5766 40.1607H20.3989C19.2096 40.1607 18.1955 39.4103 17.8045 38.3571C16.372 38.1305 15.2768 36.8902 15.2768 35.394V29.4252C15.2746 27.112 13.7674 25.0035 11.87 23.0711C9.6074 20.7667 8.21024 17.6053 8.21024 14.1194ZM17.2768 35.394V34.4109H24.6988V35.394C24.6988 35.9463 24.2511 36.394 23.6988 36.394H18.2768C17.7245 36.394 17.2768 35.9463 17.2768 35.394ZM24.6988 30.4303V32.4109H17.2768V30.4303H24.6988Z" fill="#5E6E7C"/>
</svg>
