<svg width="41" height="41" viewBox="0 0 41 41" fill="none" xmlns="http://www.w3.org/2000/svg">
<rect x="0.987793" y="0.751282" width="40" height="40" fill="white"/>
<path fill-rule="evenodd" clip-rule="evenodd" d="M4.57788 5.87366C4.57788 4.76909 5.47333 3.87366 6.57788 3.87366H35.3978C36.5023 3.87366 37.3978 4.76909 37.3978 5.87366V22.2292C37.3978 22.571 37.312 22.8929 37.1608 23.1743C37.329 23.445 37.4347 23.7594 37.457 24.098L38.2061 35.4978C38.2819 36.6515 37.3666 37.6289 36.2104 37.6289H5.76514C4.60895 37.6289 3.69361 36.6515 3.76947 35.4978L4.51856 24.098C4.54084 23.7593 4.64655 23.4449 4.81482 23.1742C4.66364 22.8928 4.57788 22.571 4.57788 22.2292V5.87366ZM35.3978 5.87366V22.2292H33.3067C33.3067 21.6769 32.859 21.2292 32.3067 21.2292H9.66889C9.11658 21.2292 8.66889 21.6769 8.66889 22.2292H6.57788V5.87366H35.3978ZM6.51429 24.2292H6.57788H35.3978H35.4612L36.2104 35.6289H5.76514L6.51429 24.2292ZM8.7378 26.008C8.46167 26.008 8.2378 26.2319 8.2378 26.508V27.508C8.2378 27.7841 8.46167 28.008 8.7378 28.008H10.7378C11.0139 28.008 11.2378 27.7841 11.2378 27.508V26.508C11.2378 26.2319 11.0139 26.008 10.7378 26.008H8.7378ZM12.7378 26.508C12.7378 26.2319 12.9617 26.008 13.2378 26.008H15.2378C15.5139 26.008 15.7378 26.2319 15.7378 26.508V27.508C15.7378 27.7841 15.5139 28.008 15.2378 28.008H13.2378C12.9617 28.008 12.7378 27.7841 12.7378 27.508V26.508ZM17.7378 26.008C17.4617 26.008 17.2378 26.2319 17.2378 26.508V27.508C17.2378 27.7841 17.4617 28.008 17.7378 28.008H19.7378C20.0139 28.008 20.2378 27.7841 20.2378 27.508V26.508C20.2378 26.2319 20.0139 26.008 19.7378 26.008H17.7378ZM21.7378 26.508C21.7378 26.2319 21.9617 26.008 22.2378 26.008H24.2378C24.5139 26.008 24.7378 26.2319 24.7378 26.508V27.508C24.7378 27.7841 24.5139 28.008 24.2378 28.008H22.2378C21.9617 28.008 21.7378 27.7841 21.7378 27.508V26.508ZM26.7378 26.008C26.4617 26.008 26.2378 26.2319 26.2378 26.508V27.508C26.2378 27.7841 26.4617 28.008 26.7378 28.008H28.7378C29.0139 28.008 29.2378 27.7841 29.2378 27.508V26.508C29.2378 26.2319 29.0139 26.008 28.7378 26.008H26.7378ZM30.7378 26.508C30.7378 26.2319 30.9617 26.008 31.2378 26.008H33.2378C33.5139 26.008 33.7378 26.2319 33.7378 26.508V27.508C33.7378 27.7841 33.5139 28.008 33.2378 28.008H31.2378C30.9617 28.008 30.7378 27.7841 30.7378 27.508V26.508ZM10.9878 29.2673C10.7117 29.2673 10.4878 29.4911 10.4878 29.7673V30.7673C10.4878 31.0434 10.7117 31.2673 10.9878 31.2673H12.9878C13.2639 31.2673 13.4878 31.0434 13.4878 30.7673V29.7673C13.4878 29.4911 13.2639 29.2673 12.9878 29.2673H10.9878ZM14.9878 29.7673C14.9878 29.4911 15.2117 29.2673 15.4878 29.2673H17.4878C17.7639 29.2673 17.9878 29.4911 17.9878 29.7673V30.7673C17.9878 31.0434 17.7639 31.2673 17.4878 31.2673H15.4878C15.2117 31.2673 14.9878 31.0434 14.9878 30.7673V29.7673ZM19.9878 29.2673C19.7117 29.2673 19.4878 29.4911 19.4878 29.7673V30.7673C19.4878 31.0434 19.7117 31.2673 19.9878 31.2673H21.9878C22.2639 31.2673 22.4878 31.0434 22.4878 30.7673V29.7673C22.4878 29.4911 22.2639 29.2673 21.9878 29.2673H19.9878ZM16.5147 33.1063C16.5147 32.8301 16.7385 32.6063 17.0147 32.6063H24.9608C25.237 32.6063 25.4608 32.8301 25.4608 33.1063V34.1063C25.4608 34.3824 25.237 34.6063 24.9608 34.6063H17.0147C16.7385 34.6063 16.5147 34.3824 16.5147 34.1063V33.1063ZM24.4878 29.2673C24.2117 29.2673 23.9878 29.4911 23.9878 29.7673V30.7673C23.9878 31.0434 24.2117 31.2673 24.4878 31.2673H26.4878C26.7639 31.2673 26.9878 31.0434 26.9878 30.7673V29.7673C26.9878 29.4911 26.7639 29.2673 26.4878 29.2673H24.4878ZM28.4878 29.7673C28.4878 29.4911 28.7117 29.2673 28.9878 29.2673H30.9878C31.2639 29.2673 31.4878 29.4911 31.4878 29.7673V30.7673C31.4878 31.0434 31.2639 31.2673 30.9878 31.2673H28.9878C28.7117 31.2673 28.4878 31.0434 28.4878 30.7673V29.7673Z" fill="#5E6E7C"/>
</svg>
