<svg width="41" height="41" viewBox="0 0 41 41" fill="none" xmlns="http://www.w3.org/2000/svg">
<rect x="0.012207" y="0.751282" width="40" height="40" fill="white"/>
<path fill-rule="evenodd" clip-rule="evenodd" d="M28.9073 1.80324L29.812 0.87738L30.5611 2.1262C30.611 2.21294 30.6822 2.33895 30.7708 2.5013C30.9481 2.82591 31.1952 3.29637 31.4806 3.88935C32.0508 5.07401 32.7768 6.7546 33.4021 8.74333C34.6451 12.6962 35.5298 17.9918 33.8569 23.0421C32.1884 28.079 28.7185 31.4287 25.7156 33.5044C24.2108 34.5446 22.8093 35.275 21.7813 35.7465C21.3759 35.9325 21.0275 36.0787 20.7525 36.1881V39.7513C20.7525 40.3036 20.3048 40.7513 19.7525 40.7513C19.2002 40.7513 18.7525 40.3036 18.7525 39.7513L18.7525 35.9137L18.6925 35.8526C18.4609 35.6152 18.1383 35.2694 17.7636 34.8256C17.4165 34.4146 17.0229 33.9175 16.6146 33.3429C15.0669 32.7147 12.86 31.7266 10.8197 30.2149C8.65697 28.6124 6.61485 26.3717 5.78656 23.2805C5.06819 20.5995 5.21054 18.1951 5.40156 15.574L5.43005 15.1855C5.61609 12.6566 5.82373 9.83404 5.44824 6.12234L5.294 4.59774L6.75165 5.07046L6.75418 5.07128L6.75947 5.07301L6.77815 5.07915L6.84704 5.10208C6.9066 5.12206 6.99301 5.1514 7.10333 5.18979C7.32393 5.26654 7.64048 5.37957 8.02961 5.52639C8.80704 5.81973 9.87845 6.24958 11.0555 6.79641C13.2681 7.82434 15.9806 9.32211 17.7631 11.1774C18.5768 10.2648 19.4461 9.47692 20.3628 8.73515C21.2236 8.03869 22.0923 7.40412 22.9799 6.75577C24.8396 5.39735 26.782 3.97846 28.9073 1.80324ZM16.5058 12.7617C15.0211 11.1123 12.4854 9.66598 10.2128 8.61023C9.20955 8.14412 8.28442 7.76617 7.56837 7.49087C7.77123 10.6277 7.58657 13.1345 7.4259 15.3158L7.39627 15.7194C7.20468 18.3483 7.09703 20.4438 7.71841 22.7629C8.39012 25.2697 10.0647 27.1663 12.0103 28.6079C12.9307 29.2898 13.8967 29.8588 14.8193 30.3331C13.7765 28.1979 12.9572 25.5544 13.0311 22.593C13.028 22.5609 13.0264 22.5284 13.0264 22.4956C13.0264 17.1231 11.7358 14.528 10.4724 12.9521C10.127 12.5212 10.1962 11.8918 10.6271 11.5464C11.058 11.2009 11.6874 11.2702 12.0329 11.7011C12.9724 12.873 13.8403 14.4121 14.397 16.6433C15.0318 15.1193 15.7376 13.8534 16.5058 12.7617ZM29.6785 4.75666C29.5714 4.53411 29.4702 4.33044 29.3771 4.14709C27.4774 5.94757 25.6432 7.28984 23.999 8.49312C23.1499 9.11445 22.3515 9.69876 21.6208 10.2899C19.2195 12.2329 17.2195 14.4585 15.6996 18.8426C14.2409 23.2534 15.3854 27.2007 16.9498 30.1046C17.5546 31.2271 18.2167 32.1824 18.8014 32.9314C19.2085 24.3784 22.0763 19.0601 24.5325 14.5053C25.2668 13.1435 25.9644 11.8499 26.5483 10.5586C26.7759 10.0554 27.3683 9.83189 27.8715 10.0595C28.3748 10.287 28.5982 10.8794 28.3707 11.3827C27.7209 12.8195 26.9765 14.2035 26.2132 15.6226C23.6907 20.3125 20.9623 25.3851 20.764 34.0118C20.8235 33.9852 20.8847 33.9574 20.9474 33.9287C21.893 33.4949 23.1887 32.8198 24.5783 31.8592C27.3643 29.9335 30.4719 26.9006 31.9583 22.4132C33.4403 17.9393 32.6825 13.1221 31.4942 9.34326C30.904 7.46613 30.2172 5.87612 29.6785 4.75666Z" fill="#5E6E7C"/>
</svg>
