<svg width="41" height="41" viewBox="0 0 41 41" fill="none" xmlns="http://www.w3.org/2000/svg">
<rect x="0.987793" y="0.751282" width="40" height="40" fill="white"/>
<path fill-rule="evenodd" clip-rule="evenodd" d="M22.3181 4.03103C20.7386 3.3024 18.8827 4.16559 18.4223 5.84305L17.2696 10.0426C17.1982 10.3024 17.0881 10.55 16.9427 10.7768L13.2109 16.6017L13.0844 16.7993H7.58667C5.92981 16.7993 4.58667 18.1425 4.58667 19.7993V32.7319C4.58667 34.3888 5.92981 35.7319 7.58667 35.7319L14.053 35.7319H32.1717C33.451 35.7319 34.4996 35.3697 35.2596 34.7331C36.0179 34.0979 36.4293 33.2366 36.501 32.3646C36.565 31.5869 36.3585 30.7927 35.8836 30.1488C36.924 29.5448 37.5792 28.5979 37.748 27.5421C37.8787 26.7252 37.6993 25.8709 37.1742 25.1882C37.3033 25.1036 37.4258 25.0122 37.5415 24.9144C38.3175 24.2583 38.7108 23.3742 38.7726 22.4957C38.8312 21.6631 38.5791 20.7836 38.0521 20.1047C38.8864 19.4401 39.3487 18.4485 39.3864 17.4431C39.4187 16.5798 39.1395 15.6849 38.5019 14.9991C37.8523 14.3003 36.9028 13.8955 35.7478 13.8955H25.0105V8.23803C25.0105 6.43058 23.9594 4.78813 22.3181 4.03103ZM13.053 33.7319V18.7993H7.58667C7.03436 18.7993 6.58667 19.2471 6.58667 19.7993V32.7319C6.58667 33.2842 7.03436 33.7319 7.58667 33.7319H13.053ZM33.1241 30.8299V30.8334C33.6719 30.8334 34.0112 31.0308 34.2123 31.2593C34.4253 31.5015 34.5374 31.841 34.5078 32.2007C34.4788 32.5534 34.3135 32.9167 33.9753 33.2C33.6389 33.4818 33.0715 33.7319 32.1717 33.7319H15.053V17.434L18.6267 11.8557C18.8809 11.4591 19.0735 11.0262 19.1982 10.5719L20.351 6.37243C20.4844 5.88613 21.0225 5.63588 21.4803 5.84712C22.4131 6.27739 23.0105 7.21082 23.0105 8.23803V13.8955H22.2706C21.7183 13.8955 21.2706 14.3432 21.2706 14.8955C21.2706 15.4478 21.7183 15.8955 22.2706 15.8955H24.0105H35.7478C36.418 15.8955 36.8116 16.1183 37.037 16.3608C37.2746 16.6163 37.4024 16.9765 37.3878 17.3683C37.3596 18.1211 36.8127 18.9159 35.5774 18.9159L33.1852 18.9163C32.6329 18.9163 32.1852 19.3641 32.1852 19.9163C32.1852 20.4686 32.6329 20.9163 33.1852 20.9163H35.6108C36.3188 20.9351 36.8342 21.551 36.7775 22.3552C36.751 22.7315 36.5873 23.1021 36.2502 23.3871C35.9285 23.6591 35.3796 23.9097 34.4866 23.9332H33.1852C32.6329 23.9332 32.1852 24.3809 32.1852 24.9332C32.1852 25.4855 32.6329 25.9332 33.1852 25.9332H34.3487V25.935C35.0117 25.935 35.369 26.1541 35.5497 26.36C35.7375 26.5739 35.8287 26.8785 35.7731 27.2263C35.6721 27.8581 34.9996 28.7959 33.2314 28.8323H33.194C33.1785 28.8323 33.1631 28.8327 33.1479 28.8334C33.14 28.8334 33.132 28.8334 33.1241 28.8334V28.8348C32.6044 28.8706 32.194 29.3036 32.194 29.8323C32.194 30.3611 32.6044 30.7941 33.1241 30.8299ZM11.3198 30.6523C11.3198 31.4808 10.6483 32.1523 9.81982 32.1523C8.99139 32.1523 8.31982 31.4808 8.31982 30.6523C8.31982 29.8239 8.99139 29.1523 9.81982 29.1523C10.6483 29.1523 11.3198 29.8239 11.3198 30.6523Z" fill="#5E6E7C"/>
</svg>
