<svg width="41" height="41" viewBox="0 0 41 41" fill="none" xmlns="http://www.w3.org/2000/svg">
<rect x="0.987793" y="0.751282" width="40" height="40" fill="white"/>
<path fill-rule="evenodd" clip-rule="evenodd" d="M19.9024 14.9228C19.9024 10.1812 23.7462 6.33734 28.4878 6.33734C33.2294 6.33734 37.0732 10.1812 37.0732 14.9228C37.0732 16.538 36.8232 17.8632 35.5609 20.0371C34.342 22.1364 32.2069 24.9774 28.4878 29.5223C24.7687 24.9774 22.6336 22.1364 21.4146 20.0371C20.1524 17.8632 19.9024 16.538 19.9024 14.9228ZM17.9457 13.9588C17.917 14.2763 17.9024 14.5978 17.9024 14.9228C17.9024 16.9021 18.2514 18.5723 19.6851 21.0414C20.6529 22.7083 22.1278 24.7615 24.3388 27.5608L15.9023 30.2864L10.7119 28.6095V28.5944V28.5571V28.5198V28.4825V28.4453V28.4082V28.3711V28.3341V28.2971V28.2602V28.2234V28.1866V28.1498V28.1132V28.0765V28.04V28.0034V27.967V27.9306V27.8942V27.8579V27.8217V27.7855V27.7493V27.7132V27.6772V27.6412V27.6053V27.5694V27.5336V27.4978V27.4621V27.4264V27.3908V27.3552V27.3197V27.2842V27.2488V27.2134V27.1781V27.1428V27.1076V27.0724V27.0373V27.0022V26.9672V26.9322V26.8973V26.8624V26.8275V26.7928V26.758V26.7233V26.6886V26.654V26.6195V26.585V26.5505V26.5161V26.4817V26.4473V26.413V26.3788V26.3446V26.3104V26.2763V26.2422V26.2082V26.1742V26.1403V26.1063V26.0725V26.0387V26.0049V25.9711V25.9374V25.9038V25.8702V25.8366V25.803V25.7696V25.7361V25.7027V25.6693V25.636V25.6027V25.5694V25.5362V25.503V25.4698V25.4367V25.4037V25.3706V25.3376V25.3047V25.2717V25.2388V25.206V25.1732V25.1404V25.1076V25.0749V25.0422V25.0096V24.977V24.9444V24.9119V24.8794V24.8469V24.8144V24.782V24.7497V24.7173V24.685V24.6527V24.6205V24.5882V24.5561V24.5239V24.4918V24.4597V24.4276V24.3956V24.3636V24.3316V24.2997V24.2678V24.2359V24.204V24.1722V24.1404V24.1086V24.0769V24.0452V24.0135V23.9818V23.9502V23.9186V23.887V23.8554V23.8239V23.7924V23.7609V23.7294V23.698V23.6666V23.6352V23.6039V23.5725V23.5412V23.51V23.4787V23.4475V23.4162V23.385V23.3539V23.3227V23.2916V23.2605V23.2294V23.1984V23.1673V23.1363V23.1053V23.0743V23.0434V23.0124V22.9815V22.9506V22.9197V22.8889V22.858V22.8272V22.7964V22.7656V22.7348V22.7041V22.6733V22.6426V22.6119V22.5812V22.5506V22.5199V22.4893V22.4586V22.428V22.3974V22.3669V22.3363V22.3058V22.2752V22.2447V22.2142V22.1837V22.1532V22.1228V22.0923V22.0619V22.0314V22.001V21.9706V21.9402V21.9099V21.8795V21.8491V21.8188V21.7885V21.7581V21.7278V21.6975V21.6672V21.6369V21.6066V21.5764V21.5461V21.5159V21.4856V21.4554V21.4252V21.3949V21.3647V21.3345V21.3043V21.2741V21.2439V21.2138V21.1836V21.1534V21.1233V21.0931V21.0629V21.0328V21.0026V20.9725V20.9424V20.9122V20.8821V20.852V20.8219V20.7917V20.7616V20.7315V20.7014V20.6713V20.6412V20.6111V20.581V20.5509V20.5208V20.4907V20.4606V20.4305V20.4004V20.3702V20.3401V20.31V20.2799V20.2498V20.2197V20.1896V20.1595V20.1294V20.0993V20.0691V20.039V20.0089V19.9788V19.9486V19.9185V19.8883V19.8582V19.8281V19.7979V19.7677V19.7376V19.7074V19.6772V19.647V19.6168V19.5867V19.5564V19.5262V19.496V19.4658V19.4356V19.4053V19.3751V19.3448V19.3146V19.2843V19.254V19.2237V19.1934V19.1631V19.1328V19.1025V19.0721V19.0418V19.0114V18.981V18.9506V18.9202V18.8898V18.8594V18.829V18.7985V18.7681V18.7376V18.7071V18.6766V18.6461V18.6156V18.585V18.5545V18.5239V18.4933V18.4627V18.4321V18.4015V18.3709V18.3402V18.3095V18.2788V18.2481V18.2174V18.1866V18.1559V18.1251V18.0943V18.0635V18.0327V18.0018V17.9709V17.94V17.9091V17.8782V17.8473V17.8163V17.7853V17.7543V17.7233V17.6922V17.6611V17.63V17.5989V17.5678V17.5366V17.5054V17.4742V17.443V17.4118V17.3805V17.3492V17.3179V17.2865V17.2552V17.2238V17.1924V17.1609V17.1295V17.098V17.0664V17.0349V17.0033V16.9717V16.9401V16.9085V16.8768V16.8451V16.8134V16.7816V16.7498V16.718V16.6862V16.6543V16.6224V16.5905V16.5585V16.5265V16.4945V16.4624V16.4304V16.3983V16.3661V16.334V16.3018V16.2695V16.2373V16.205V16.1726V16.1403V16.1079V16.0755V16.043V16.0105V15.978V15.9454V15.9128V15.8802V15.8475V15.8149V15.7821V15.7494V15.7166V15.6837V15.6508V15.6179V15.585V15.552V15.519V15.4859V15.4529V15.4197V15.3866V15.3534V15.3201V15.2868V15.2535V15.2201V15.1868V15.1533V15.1198V15.0863V15.0528V15.0192V14.9855V14.9519V14.9181V14.8844V14.8506V14.8167V14.7829V14.7489V14.715V14.6809V14.6469V14.6128V14.5787V14.5445V14.5102V14.476V14.4417V14.4073V14.3729V14.3384V14.3039V14.2694V14.2348V14.2002V14.1655V14.1308V14.096V14.0612V14.0263V13.9914V13.9565V13.9215V13.8864V13.8513V13.8162V13.781V13.7457V13.7104V13.6751V13.6397V13.6042V13.5687V13.5332V13.4976V13.4619V13.4262V13.3905V13.3547V13.3188V13.2829V13.247V13.211V13.1749V13.1388V13.1026V13.0664V13.0301V12.9938V12.9574V12.9421L15.4412 14.47C15.741 14.5669 16.0637 14.5669 16.3635 14.47L17.9457 13.9588ZM18.3985 11.7108L15.9023 12.5172L10.673 10.8277C9.70274 10.5143 8.71187 11.2393 8.71187 12.2556V12.2931V12.3305V12.3678V12.4051V12.4423V12.4795V12.5166V12.5536V12.5906V12.6275V12.6644V12.7012V12.738V12.7747V12.8114V12.848V12.8845V12.921V12.9574V12.9938V13.0301V13.0664V13.1026V13.1388V13.1749V13.211V13.247V13.2829V13.3188V13.3547V13.3905V13.4262V13.4619V13.4976V13.5332V13.5687V13.6042V13.6397V13.6751V13.7104V13.7457V13.781V13.8162V13.8513V13.8864V13.9215V13.9565V13.9914V14.0263V14.0612V14.096V14.1308V14.1655V14.2002V14.2348V14.2694V14.3039V14.3384V14.3729V14.4073V14.4417V14.476V14.5102V14.5445V14.5787V14.6128V14.6469V14.6809V14.715V14.7489V14.7829V14.8167V14.8506V14.8844V14.9181V14.9519V14.9855V15.0192V15.0528V15.0863V15.1198V15.1533V15.1868V15.2201V15.2535V15.2868V15.3201V15.3534V15.3866V15.4197V15.4529V15.4859V15.519V15.552V15.585V15.6179V15.6508V15.6837V15.7166V15.7494V15.7821V15.8149V15.8475V15.8802V15.9128V15.9454V15.978V16.0105V16.043V16.0755V16.1079V16.1403V16.1726V16.205V16.2373V16.2695V16.3018V16.334V16.3661V16.3983V16.4304V16.4624V16.4945V16.5265V16.5585V16.5905V16.6224V16.6543V16.6862V16.718V16.7498V16.7816V16.8134V16.8451V16.8768V16.9085V16.9401V16.9717V17.0033V17.0349V17.0664V17.098V17.1295V17.1609V17.1924V17.2238V17.2552V17.2865V17.3179V17.3492V17.3805V17.4118V17.443V17.4742V17.5054V17.5366V17.5678V17.5989V17.63V17.6611V17.6922V17.7233V17.7543V17.7853V17.8163V17.8473V17.8782V17.9091V17.94V17.9709V18.0018V18.0327V18.0635V18.0943V18.1251V18.1559V18.1866V18.2174V18.2481V18.2788V18.3095V18.3402V18.3709V18.4015V18.4321V18.4627V18.4933V18.5239V18.5545V18.585V18.6156V18.6461V18.6766V18.7071V18.7376V18.7681V18.7985V18.829V18.8594V18.8898V18.9202V18.9506V18.981V19.0114V19.0418V19.0721V19.1025V19.1328V19.1631V19.1934V19.2237V19.254V19.2843V19.3146V19.3448V19.3751V19.4053V19.4356V19.4658V19.496V19.5262V19.5564V19.5867V19.6168V19.647V19.6772V19.7074V19.7376V19.7677V19.7979V19.8281V19.8582V19.8883V19.9185V19.9486V19.9788V20.0089V20.039V20.0691V20.0993V20.1294V20.1595V20.1896V20.2197V20.2498V20.2799V20.31V20.3401V20.3702V20.4004V20.4305V20.4606V20.4907V20.5208V20.5509V20.581V20.6111V20.6412V20.6713V20.7014V20.7315V20.7616V20.7917V20.8219V20.852V20.8821V20.9122V20.9424V20.9725V21.0026V21.0328V21.0629V21.0931V21.1233V21.1534V21.1836V21.2138V21.2439V21.2741V21.3043V21.3345V21.3647V21.3949V21.4252V21.4554V21.4856V21.5159V21.5461V21.5764V21.6066V21.6369V21.6672V21.6975V21.7278V21.7581V21.7885V21.8188V21.8491V21.8795V21.9099V21.9402V21.9706V22.001V22.0314V22.0619V22.0923V22.1228V22.1532V22.1837V22.2142V22.2447V22.2752V22.3058V22.3363V22.3669V22.3974V22.428V22.4586V22.4893V22.5199V22.5506V22.5812V22.6119V22.6426V22.6733V22.7041V22.7348V22.7656V22.7964V22.8272V22.858V22.8889V22.9197V22.9506V22.9815V23.0124V23.0434V23.0743V23.1053V23.1363V23.1673V23.1984V23.2294V23.2605V23.2916V23.3227V23.3539V23.385V23.4162V23.4475V23.4787V23.51V23.5412V23.5725V23.6039V23.6352V23.6666V23.698V23.7294V23.7609V23.7924V23.8239V23.8554V23.887V23.9186V23.9502V23.9818V24.0135V24.0452V24.0769V24.1086V24.1404V24.1722V24.204V24.2359V24.2678V24.2997V24.3316V24.3636V24.3956V24.4276V24.4597V24.4918V24.5239V24.5561V24.5882V24.6205V24.6527V24.685V24.7173V24.7497V24.782V24.8144V24.8469V24.8794V24.9119V24.9444V24.977V25.0096V25.0422V25.0749V25.1076V25.1404V25.1732V25.206V25.2388V25.2717V25.3047V25.3376V25.3706V25.4037V25.4367V25.4698V25.503V25.5362V25.5694V25.6027V25.636V25.6693V25.7027V25.7361V25.7696V25.803V25.8366V25.8702V25.9038V25.9374V25.9711V26.0049V26.0387V26.0725V26.1063V26.1403V26.1742V26.2082V26.2422V26.2763V26.3104V26.3446V26.3788V26.413V26.4473V26.4817V26.5161V26.5505V26.585V26.6195V26.654V26.6886V26.7233V26.758V26.7928V26.8275V26.8624V26.8973V26.9322V26.9672V27.0022V27.0373V27.0724V27.1076V27.1428V27.1781V27.2134V27.2488V27.2842V27.3197V27.3552V27.3908V27.4264V27.4621V27.4978V27.5336V27.5694V27.6053V27.6412V27.6772V27.7132V27.7493V27.7855V27.8217V27.8579V27.8942V27.9306V27.967V28.0034V28.04V28.0765V28.1132V28.1498V28.1866V28.2234V28.2602V28.2971V28.3341V28.3711V28.4082V28.4453V28.4825V28.5198V28.5571V28.5944V28.6318V28.6693V28.7069V28.7445V28.7821V28.8198V28.8576V28.8955V28.9333V28.9713C8.71187 29.6171 9.12676 30.1992 9.75072 30.4008L15.4412 32.2392C15.741 32.3361 16.0637 32.3361 16.3635 32.2392L25.6736 29.2314C26.2738 29.9749 26.9189 30.7655 27.6123 31.6081L26.5172 31.2543C26.1175 31.1252 25.6872 31.1252 25.2875 31.2543L15.9024 34.2864L6.90236 31.3787V7.71131L15.2875 10.4204C15.6872 10.5495 16.1175 10.5495 16.5172 10.4204L19.4019 9.48836C18.9864 10.1816 18.648 10.9264 18.3985 11.7108ZM22.0238 6.53951L15.9024 8.51721L7.51722 5.80817C6.22562 5.39088 4.90236 6.35397 4.90236 7.71131V31.3787C4.90236 32.2464 5.46184 33.0151 6.2875 33.2819L15.2875 36.1896C15.6872 36.3187 16.1175 36.3187 16.5172 36.1896L25.9024 33.1575L34.2875 35.8665C35.5791 36.2838 36.9024 35.3207 36.9024 33.9634V21.6869C37.04 21.4652 37.1692 21.2503 37.2905 21.0414C38.7242 18.5723 39.0732 16.9021 39.0732 14.9228C39.0732 9.0766 34.334 4.33734 28.4878 4.33734C26.0539 4.33734 23.8119 5.15877 22.0238 6.53951ZM34.9024 24.6034C34.3678 25.3299 33.7671 26.1185 33.0928 26.9807V29.4196C33.0928 30.4376 32.1004 31.1599 31.1317 30.8469L30.2271 30.5547C29.9154 30.9362 29.5931 31.3291 29.2597 31.7339L28.9953 32.0549L34.9024 33.9634V24.6034ZM26.4923 14.3237C26.4923 13.2216 27.3857 12.3282 28.4878 12.3282C29.5899 12.3282 30.4832 13.2216 30.4832 14.3237C30.4832 15.4257 29.5899 16.3191 28.4878 16.3191C27.3857 16.3191 26.4923 15.4257 26.4923 14.3237ZM28.4878 10.3282C26.2812 10.3282 24.4923 12.1171 24.4923 14.3237C24.4923 16.5303 26.2812 18.3191 28.4878 18.3191C30.6944 18.3191 32.4832 16.5303 32.4832 14.3237C32.4832 12.1171 30.6944 10.3282 28.4878 10.3282Z" fill="#5E6E7C"/>
</svg>
