<svg width="41" height="41" viewBox="0 0 41 41" fill="none" xmlns="http://www.w3.org/2000/svg">
<rect x="0.987793" y="0.751282" width="40" height="40" fill="white"/>
<path fill-rule="evenodd" clip-rule="evenodd" d="M10.9878 15.0643C10.9878 9.54149 15.4649 5.06433 20.9878 5.06433C26.5106 5.06433 30.9878 9.54149 30.9878 15.0643V18.4643H29.1378V15.0643C29.1378 10.5632 25.4889 6.91434 20.9878 6.91434C16.4867 6.91434 12.8378 10.5632 12.8378 15.0643V18.4643H10.9878V15.0643ZM27.1378 15.0643V18.4643H14.8378V15.0643C14.8378 11.6678 17.5912 8.91434 20.9878 8.91434C24.3843 8.91434 27.1378 11.6678 27.1378 15.0643ZM8.98778 18.4643V15.0643C8.98778 8.43692 14.3604 3.06433 20.9878 3.06433C27.6152 3.06433 32.9878 8.43692 32.9878 15.0643V18.4643H33.4683C34.5728 18.4643 35.4683 19.3598 35.4683 20.4643V36.4383C35.4683 37.5428 34.5728 38.4383 33.4683 38.4383H8.50734C7.40277 38.4383 6.50734 37.5428 6.50734 36.4383V20.4643C6.50734 19.3598 7.40277 18.4643 8.50734 18.4643H8.98778ZM8.50734 20.4643H33.4683V36.4383H8.50734V20.4643ZM20.9878 24.4054C19.3719 24.4054 18.0619 25.7154 18.0619 27.3313V29.5713C18.0619 31.1872 19.3719 32.4972 20.9878 32.4972C22.6037 32.4972 23.9137 31.1872 23.9137 29.5713V27.3313C23.9137 25.7154 22.6037 24.4054 20.9878 24.4054ZM20.0619 27.3313C20.0619 26.8199 20.4764 26.4054 20.9878 26.4054C21.4991 26.4054 21.9137 26.8199 21.9137 27.3313V29.5713C21.9137 30.0827 21.4991 30.4972 20.9878 30.4972C20.4764 30.4972 20.0619 30.0827 20.0619 29.5713V27.3313Z" fill="#5E6E7C"/>
</svg>
