<svg width="41" height="41" viewBox="0 0 41 41" fill="none" xmlns="http://www.w3.org/2000/svg">
<rect x="0.987793" y="0.751282" width="40" height="40" fill="white"/>
<path fill-rule="evenodd" clip-rule="evenodd" d="M10.9878 15.0922C10.9878 9.56932 15.4649 5.09216 20.9878 5.09216C26.1944 5.09216 30.4721 9.07175 30.9444 14.1546L29.1109 14.2676C28.7713 10.1271 25.253 6.8865 21.044 6.8865C16.5531 6.8865 12.8378 10.5252 12.8378 15.0365V18.4365H10.9878V15.0922ZM8.98776 18.4365V15.0922C8.98776 8.46475 14.3603 3.09216 20.9878 3.09216C27.4343 3.09216 32.6931 8.175 32.9758 14.5523C33.0135 15.403 32.3493 16.0718 31.5549 16.1208L28.6032 16.3027C27.8089 16.3517 27.1378 15.7207 27.1378 14.9249C27.1378 11.6001 24.3891 8.8865 21.044 8.8865C17.6372 8.8865 14.8378 11.6501 14.8378 15.0365V18.4365H33.4682C34.5728 18.4365 35.4682 19.3319 35.4682 20.4365V36.4104C35.4682 37.515 34.5728 38.4104 33.4682 38.4104H8.50732C7.40275 38.4104 6.50732 37.515 6.50732 36.4104V20.4365C6.50732 19.3319 7.40275 18.4365 8.50732 18.4365H8.98776ZM33.4682 20.4365H8.50732V36.4104H33.4682V20.4365ZM18.0619 27.3035C18.0619 25.6875 19.3719 24.3776 20.9878 24.3776C22.6037 24.3776 23.9137 25.6875 23.9137 27.3035V29.5435C23.9137 31.1594 22.6037 32.4694 20.9878 32.4694C19.3719 32.4694 18.0619 31.1594 18.0619 29.5435V27.3035ZM20.9878 26.3776C20.4764 26.3776 20.0619 26.7921 20.0619 27.3035V29.5435C20.0619 30.0548 20.4764 30.4694 20.9878 30.4694C21.4991 30.4694 21.9137 30.0548 21.9137 29.5435V27.3035C21.9137 26.7921 21.4991 26.3776 20.9878 26.3776Z" fill="#5E6E7C"/>
</svg>
