<svg width="41" height="41" viewBox="0 0 41 41" fill="none" xmlns="http://www.w3.org/2000/svg">
<rect x="0.987793" y="0.751282" width="40" height="40" fill="white"/>
<path fill-rule="evenodd" clip-rule="evenodd" d="M7.71911 25.8674C2.64229 20.7906 2.64229 12.5594 7.71911 7.4826C12.7959 2.40578 21.0271 2.40578 26.1039 7.4826C31.1807 12.5594 31.1807 20.7906 26.1039 25.8674C21.0271 30.9442 12.7959 30.9442 7.71911 25.8674ZM6.3049 6.06839C0.447033 11.9263 0.447033 21.4237 6.3049 27.2816C11.3106 32.2873 18.974 33.0155 24.753 29.4662L26.4574 31.1707L27.1646 31.8778L34.2356 38.9488C35.4072 40.1204 37.3067 40.1204 38.4783 38.9488L39.1854 38.2417C40.3569 37.0702 40.3569 35.1707 39.1854 33.9991L32.1143 26.928L31.4072 26.2209L29.7027 24.5164C33.252 18.7375 32.5238 11.0741 27.5181 6.06839C21.6602 0.210522 12.1628 0.210522 6.3049 6.06839ZM28.5264 26.1686C28.2122 26.552 27.8761 26.9236 27.5181 27.2816C27.1601 27.6396 26.7886 27.9757 26.4051 28.2899L27.1646 29.0493L29.2859 26.928L28.5264 26.1686ZM30.7001 28.3422L28.5788 30.4636L35.6498 37.5346C36.0404 37.9252 36.6735 37.9252 37.064 37.5346L37.7712 36.8275C38.1617 36.437 38.1617 35.8038 37.7712 35.4133L30.7001 28.3422ZM10.194 23.3925C6.48402 19.6825 6.48402 13.6675 10.194 9.95747C13.904 6.24749 19.9191 6.24749 23.629 9.95747C27.339 13.6675 27.339 19.6825 23.629 23.3925C19.9191 27.1025 13.904 27.1025 10.194 23.3925ZM8.77979 8.54326C4.28876 13.0343 4.28876 20.3157 8.77979 24.8067C13.2708 29.2977 20.5522 29.2977 25.0432 24.8067C29.5343 20.3157 29.5343 13.0343 25.0432 8.54326C20.5522 4.05223 13.2708 4.05223 8.77979 8.54326Z" fill="#5E6E7C"/>
</svg>
