<svg width="41" height="41" viewBox="0 0 41 41" fill="none" xmlns="http://www.w3.org/2000/svg">
<rect x="0.987793" y="0.751282" width="40" height="40" fill="white"/>
<path fill-rule="evenodd" clip-rule="evenodd" d="M7.48779 8.75128C5.83094 8.75128 4.48779 10.0944 4.48779 11.7513V29.7513C4.48779 31.4081 5.83094 32.7513 7.48779 32.7513H34.4878C36.1446 32.7513 37.4878 31.4081 37.4878 29.7513V11.7513C37.4878 10.0944 36.1446 8.75128 34.4878 8.75128H7.48779ZM6.48779 11.7513C6.48779 11.199 6.93551 10.7513 7.48779 10.7513H34.4878C35.0401 10.7513 35.4878 11.199 35.4878 11.7513V12.6756L21.4899 20.8034C21.1794 20.9836 20.7961 20.9836 20.4857 20.8034L6.48779 12.6756V11.7513ZM6.48779 14.9883V29.7513C6.48779 30.3036 6.93551 30.7513 7.48779 30.7513H34.4878C35.0401 30.7513 35.4878 30.3036 35.4878 29.7513V14.9883L22.4942 22.5329C21.5627 23.0738 20.4128 23.0738 19.4814 22.5329L6.48779 14.9883Z" fill="#5E6E7C"/>
</svg>
