<svg width="41" height="41" viewBox="0 0 41 41" fill="none" xmlns="http://www.w3.org/2000/svg">
<rect x="0.987793" y="0.751282" width="40" height="40" fill="white"/>
<path fill-rule="evenodd" clip-rule="evenodd" d="M21.4899 6.04286C21.1794 5.86258 20.7961 5.86258 20.4857 6.04286L6.98566 13.8816C6.67746 14.0605 6.48779 14.39 6.48779 14.7464V15.5192L8.48779 16.6805V15.595C8.48779 14.4904 9.38322 13.595 10.4878 13.595H31.4878C32.5924 13.595 33.4878 14.4904 33.4878 15.595V16.6805L35.4878 15.5192V14.7464C35.4878 14.39 35.2981 14.0605 34.9899 13.8816L21.4899 6.04286ZM31.4878 17.8418V15.595H10.4878V17.8418L20.4857 23.647C20.7961 23.8273 21.1794 23.8273 21.4899 23.647L31.4878 17.8418ZM6.48779 32.595V17.8319L19.4814 25.3766C20.4128 25.9175 21.5627 25.9175 22.4942 25.3766L35.4878 17.8319V32.595C35.4878 33.1472 35.0401 33.595 34.4878 33.595H7.48779C6.93551 33.595 6.48779 33.1472 6.48779 32.595ZM19.4814 4.31329C20.4128 3.77244 21.5627 3.77244 22.4942 4.31329L35.9942 12.152C36.9188 12.6889 37.4878 13.6772 37.4878 14.7464V32.595C37.4878 34.2518 36.1446 35.595 34.4878 35.595H7.48779C5.83094 35.595 4.48779 34.2518 4.48779 32.595V14.7464C4.48779 13.6772 5.0568 12.6889 5.98139 12.152L19.4814 4.31329Z" fill="#5E6E7C"/>
</svg>
