<svg width="41" height="41" viewBox="0 0 41 41" fill="none" xmlns="http://www.w3.org/2000/svg">
<rect x="0.987793" y="0.751282" width="40" height="40" fill="white"/>
<path fill-rule="evenodd" clip-rule="evenodd" d="M9.66907 17.7775C9.66907 11.4092 14.8316 6.2467 21.1999 6.2467C27.5682 6.2467 32.7307 11.4092 32.7307 17.7775C32.7307 19.2584 32.4515 20.6741 31.9429 21.9749L31.8852 22.022L31.9116 22.0543C30.2128 26.3051 26.0571 29.3083 21.1999 29.3083C14.8316 29.3083 9.66907 24.1458 9.66907 17.7775ZM33.3264 23.7867C31.3073 27.8536 27.3025 30.7603 22.5802 31.2388L27.1054 36.7796L29.7851 30.8161C29.9786 30.3855 30.3636 30.0711 30.8242 29.9675L37.2028 28.5331L33.3264 23.7867ZM21.0106 32.4788L15.7876 38.7184C15.0719 39.5734 13.7065 39.3763 13.2618 38.3538L10.4316 31.8456L3.52696 30.2049C2.44209 29.9471 2.00779 28.6378 2.72353 27.7827L8.1365 21.3162C7.83168 20.1882 7.66907 19.0019 7.66907 17.7775C7.66907 10.3047 13.727 4.2467 21.1999 4.2467C28.6727 4.2467 34.7307 10.3047 34.7307 17.7775C34.7307 19.1249 34.5338 20.4262 34.1671 21.6543L39.2636 27.8946C39.9689 28.7583 39.5188 30.0623 38.4309 30.3069L31.5069 31.8639L28.5981 38.3373C28.141 39.3544 26.7734 39.535 26.0681 38.6713L21.0106 32.4788ZM4.77643 28.4461L8.92856 23.4859C10.8497 27.6087 14.7873 30.6025 19.4735 31.1992L14.7733 36.8143L12.166 30.8188C11.9777 30.3858 11.5966 30.0667 11.1372 29.9576L4.77643 28.4461ZM22.5947 11.4192C22.0946 10.1549 20.3052 10.1549 19.805 11.4192L18.5731 14.5336L15.5184 14.7911C14.2096 14.9014 13.6646 16.5213 14.6405 17.4003L17.0187 19.5423L16.2721 22.8331C15.9751 24.1424 17.4158 25.1526 18.5455 24.4271L21.1999 22.7224L23.8542 24.4271C24.9839 25.1526 26.4247 24.1424 26.1276 22.8331L25.3811 19.5423L27.7592 17.4003C28.7351 16.5213 28.1901 14.9014 26.8813 14.7911L23.8266 14.5336L22.5947 11.4192ZM20.2048 15.8458L21.1999 13.3303L22.1949 15.8458L22.423 16.4223L23.0408 16.4744L25.5628 16.687L23.6069 18.4487L23.1712 18.8411L23.3009 19.4129L23.9068 22.084L21.7402 20.6925L21.1999 20.3455L20.6595 20.6925L18.4929 22.084L19.0988 19.4129L19.2286 18.8411L18.7929 18.4487L16.837 16.687L19.3589 16.4744L19.9767 16.4223L20.2048 15.8458Z" fill="#5E6E7C"/>
</svg>
