<svg width="41" height="41" viewBox="0 0 41 41" fill="none" xmlns="http://www.w3.org/2000/svg">
<rect x="0.987793" y="0.751343" width="40" height="40" fill="white"/>
<path fill-rule="evenodd" clip-rule="evenodd" d="M16.0592 0.751343C14.9547 0.751343 14.0592 1.64677 14.0592 2.75134V6.17991C14.0592 6.87292 14.4117 7.4836 14.9472 7.84247C14.7816 9.26634 13.9603 10.6196 12.5882 11.5712L11.9666 12.0023C9.94509 13.4043 8.71637 15.5688 8.71637 17.9108V37.5799C8.71637 39.4608 10.4243 40.7513 12.2211 40.7513H29.7545C31.5512 40.7513 33.2592 39.4608 33.2592 37.5799V17.9108C33.2592 15.5688 32.0305 13.4043 30.009 12.0023L29.3874 11.5712C28.0153 10.6197 27.194 9.26635 27.0284 7.84249C27.5639 7.48362 27.9164 6.87293 27.9164 6.17991V2.75134C27.9164 1.64677 27.021 0.751343 25.9164 0.751343H16.0592ZM16.0592 2.75134L25.9164 2.75134L25.9164 6.17991L16.0592 6.17991V2.75134ZM13.728 13.2147C15.4954 11.9889 16.6568 10.1804 16.9209 8.17992H25.0547C25.3188 10.1804 26.4802 11.9889 28.2476 13.2147L28.7232 13.5445L13.2524 13.5445L13.728 13.2147ZM11.3489 15.5445L30.6266 15.5445C31.0419 16.2829 31.2592 17.0921 31.2592 17.9108V37.5799C31.2592 38.0976 30.7244 38.7513 29.7545 38.7513H12.2211C11.2512 38.7513 10.7164 38.0976 10.7164 37.5799V17.9108C10.7164 17.0921 10.9337 16.2829 11.3489 15.5445ZM19.2202 19.9281C18.3918 19.9281 17.7202 20.5997 17.7202 21.4281V23.0241H16.1242C15.2958 23.0241 14.6242 23.6957 14.6242 24.5241V28.0593C14.6242 28.8877 15.2958 29.5593 16.1242 29.5593H17.7202V31.1553C17.7202 31.9837 18.3918 32.6553 19.2202 32.6553H22.7554C23.5838 32.6553 24.2554 31.9837 24.2554 31.1553V29.5593H25.8514C26.6798 29.5593 27.3514 28.8877 27.3514 28.0593V24.5241C27.3514 23.6957 26.6798 23.0241 25.8514 23.0241H24.2554V21.4281C24.2554 20.5997 23.5838 19.9281 22.7554 19.9281H19.2202ZM19.7202 24.0241V21.9281H22.2554V24.0241V25.0241H23.2554H25.3514V27.5593H23.2554H22.2554V28.5593V30.6553H19.7202V28.5593V27.5593H18.7202H16.6242V25.0241H18.7202H19.7202V24.0241Z" fill="#5E6E7C"/>
</svg>
