<svg width="41" height="41" viewBox="0 0 41 41" fill="none" xmlns="http://www.w3.org/2000/svg">
<rect x="0.987854" y="0.751282" width="40" height="40" fill="white"/>
<path fill-rule="evenodd" clip-rule="evenodd" d="M11.6755 10.5436C11.1092 10.4003 10.5415 10.7722 10.4465 11.3486L8.93661 20.5159H33.039L31.5291 11.3486C31.4341 10.7722 30.8664 10.4003 30.3001 10.5436L21.7217 12.7137C21.24 12.8356 20.7356 12.8356 20.2538 12.7137L11.6755 10.5436ZM33.3676 22.5111H8.60801L8.19724 25.005H8.40092H33.5747H33.7783L33.3676 22.5111ZM8.47793 11.0243L6.17524 25.005H2.98477C1.58631 25.005 0.621778 26.4064 1.12122 27.7126L2.4017 31.0616C2.84471 32.2202 3.95658 32.9855 5.19702 32.9855H36.7786C38.019 32.9855 39.1309 32.2202 39.5739 31.0616L40.8544 27.7126C41.3538 26.4064 40.3893 25.005 38.9908 25.005H35.8003L33.4977 11.0243C33.2128 9.29515 31.5098 8.17962 29.8108 8.60942L21.2324 10.7795C21.0719 10.8202 20.9037 10.8202 20.7431 10.7795L12.1648 8.60942C10.4658 8.17962 8.76274 9.29514 8.47793 11.0243ZM2.98477 27.0001H5.84663H7.02194H8.40092H33.5747H34.9536H36.129H38.9908L37.7103 30.349C37.5627 30.7353 37.192 30.9903 36.7786 30.9903H5.19702C4.78354 30.9903 4.41292 30.7353 4.26525 30.349L2.98477 27.0001Z" fill="#5E6E7C"/>
</svg>
