<svg width="41" height="41" viewBox="0 0 41 41" fill="none" xmlns="http://www.w3.org/2000/svg">
<rect x="0.987793" y="0.751343" width="40" height="40" fill="white"/>
<path fill-rule="evenodd" clip-rule="evenodd" d="M5.48779 7.25134C3.83093 7.25134 2.48779 8.59449 2.48779 10.2513V31.2513C2.48779 32.9082 3.83093 34.2513 5.48779 34.2513H36.4878C38.1447 34.2513 39.4878 32.9082 39.4878 31.2513V10.2513C39.4878 8.59449 38.1447 7.25134 36.4878 7.25134H5.48779ZM4.48779 10.2513C4.48779 9.69906 4.93549 9.25134 5.48779 9.25134H36.4878C37.0401 9.25134 37.4878 9.69906 37.4878 10.2513V31.2513C37.4878 31.8036 37.0401 32.2513 36.4878 32.2513H5.48779C4.93549 32.2513 4.48779 31.8036 4.48779 31.2513V10.2513ZM7.53778 11.2513C6.95789 11.2513 6.48779 11.7214 6.48779 12.3013V29.2013C6.48779 29.7812 6.95789 30.2513 7.53778 30.2513H30.4378C31.0177 30.2513 31.4878 29.7813 31.4878 29.2013V12.3013C31.4878 11.7215 31.0177 11.2513 30.4378 11.2513H7.53778ZM8.48779 28.2513V13.2513H29.4878V28.2513H8.48779ZM26.9878 16.2513C27.5401 16.2513 27.9878 16.6991 27.9878 17.2513V23.2513C27.9878 23.8036 27.5401 24.2513 26.9878 24.2513C26.4355 24.2513 25.9878 23.8036 25.9878 23.2513V17.2513C25.9878 16.6991 26.4355 16.2513 26.9878 16.2513ZM33.5532 11.2513C33.277 11.2513 33.0532 11.4752 33.0532 11.7513V13.7513C33.0532 14.0275 33.277 14.2513 33.5532 14.2513H35.5532C35.8293 14.2513 36.0532 14.0275 36.0532 13.7513V11.7513C36.0532 11.4752 35.8293 11.2513 35.5532 11.2513H33.5532ZM33.0532 16.7513C33.0532 16.4752 33.277 16.2513 33.5532 16.2513H35.5532C35.8293 16.2513 36.0532 16.4752 36.0532 16.7513V18.7513C36.0532 19.0275 35.8293 19.2513 35.5532 19.2513H33.5532C33.277 19.2513 33.0532 19.0275 33.0532 18.7513V16.7513ZM33.5532 21.2513C33.277 21.2513 33.0532 21.4752 33.0532 21.7513V23.7513C33.0532 24.0275 33.277 24.2513 33.5532 24.2513H35.5532C35.8293 24.2513 36.0532 24.0275 36.0532 23.7513V21.7513C36.0532 21.4752 35.8293 21.2513 35.5532 21.2513H33.5532Z" fill="#5E6E7C"/>
</svg>
