<svg width="41" height="41" viewBox="0 0 41 41" fill="none" xmlns="http://www.w3.org/2000/svg">
<rect x="0.987793" y="0.751282" width="40" height="40" fill="white"/>
<path fill-rule="evenodd" clip-rule="evenodd" d="M29.2392 6.53297C29.7886 6.37978 30.3546 6.71635 30.4824 7.27218L31.2073 10.4257L6.60062 13.6282C6.38802 13.6558 6.18303 13.7053 5.98779 13.7742C5.98851 13.3261 6.28736 12.933 6.71919 12.8126L29.2392 6.53297ZM5.98779 19.4092V31.5072V32.0072C5.98779 32.5595 6.43551 33.0072 6.98779 33.0072H34.9878C35.5401 33.0072 35.9878 32.5595 35.9878 32.0072V19.0342C35.9878 18.4767 35.5319 18.0268 34.9744 18.0343L6.9744 18.4093C6.42739 18.4166 5.98779 18.8621 5.98779 19.4092ZM3.98779 16.6031V13.7758C3.98779 12.4293 4.88496 11.2478 6.182 10.8861L28.702 4.60646C30.3501 4.1469 32.0482 5.15661 32.4315 6.8241L33.228 10.2886C34.5116 10.4964 35.5591 11.5294 35.7249 12.8867L36.1375 16.2624C37.2228 16.7132 37.9878 17.7834 37.9878 19.0342V32.0072C37.9878 33.6641 36.6446 35.0072 34.9878 35.0072H6.98779C5.33094 35.0072 3.98779 33.6641 3.98779 32.0072V31.5072V19.4092V16.6031ZM33.7397 13.1293C33.6723 12.5781 33.1687 12.1873 32.618 12.259L6.85874 15.6115C6.36824 15.6753 5.99934 16.0877 5.98806 16.5799C6.28867 16.4737 6.61138 16.414 6.94762 16.4095L34.0962 16.0459L33.7397 13.1293ZM16.9878 25.5072C16.9878 23.2981 18.7787 21.5072 20.9878 21.5072C23.1969 21.5072 24.9878 23.2981 24.9878 25.5072C24.9878 27.7164 23.1969 29.5072 20.9878 29.5072C18.7787 29.5072 16.9878 27.7164 16.9878 25.5072ZM20.9878 19.5072C17.6741 19.5072 14.9878 22.1935 14.9878 25.5072C14.9878 28.8209 17.6741 31.5072 20.9878 31.5072C24.3015 31.5072 26.9878 28.8209 26.9878 25.5072C26.9878 22.1935 24.3015 19.5072 20.9878 19.5072ZM8.48779 20.0072C8.21165 20.0072 7.98779 20.2311 7.98779 20.5072V21.5072C7.98779 21.7834 8.21165 22.0072 8.48779 22.0072H11.4878C11.7639 22.0072 11.9878 21.7834 11.9878 21.5072V20.5072C11.9878 20.2311 11.7639 20.0072 11.4878 20.0072H8.48779ZM29.9878 29.5072C29.9878 29.2311 30.2117 29.0072 30.4878 29.0072H33.4878C33.7639 29.0072 33.9878 29.2311 33.9878 29.5072V30.5072C33.9878 30.7834 33.7639 31.0072 33.4878 31.0072H30.4878C30.2117 31.0072 29.9878 30.7834 29.9878 30.5072V29.5072Z" fill="#5E6E7C"/>
</svg>
