<svg width="41" height="41" viewBox="0 0 41 41" fill="none" xmlns="http://www.w3.org/2000/svg">
<rect x="0.987793" y="0.751282" width="40" height="40" fill="white"/>
<path fill-rule="evenodd" clip-rule="evenodd" d="M4.48779 5.25128C3.38324 5.25128 2.48779 6.14671 2.48779 7.25128V30.2513C2.48779 31.3559 3.38324 32.2513 4.48779 32.2513H16.976V34.2513H12.976C12.4236 34.2513 11.976 34.699 11.976 35.2513C11.976 35.8036 12.4236 36.2513 12.976 36.2513H28.976C29.5283 36.2513 29.976 35.8036 29.976 35.2513C29.976 34.699 29.5283 34.2513 28.976 34.2513H24.976V32.2513H37.4878C38.5923 32.2513 39.4878 31.3559 39.4878 30.2513V7.25128C39.4878 6.14671 38.5923 5.25128 37.4878 5.25128H4.48779ZM22.976 34.2513V32.2513H18.976V34.2513H22.976ZM4.48779 7.25128H37.4878V24.0147H4.48779V7.25128ZM4.48779 26.0147H37.4878V30.2513H4.48779V26.0147ZM21.9053 28.1616C21.9053 27.6093 21.4576 27.1616 20.9053 27.1616C20.353 27.1616 19.9053 27.6093 19.9053 28.1616C19.9053 28.7139 20.353 29.1616 20.9053 29.1616C21.4576 29.1616 21.9053 28.7139 21.9053 28.1616Z" fill="#5E6E7C"/>
</svg>
