<svg width="41" height="41" viewBox="0 0 41 41" fill="none" xmlns="http://www.w3.org/2000/svg">
<rect x="0.987793" y="0.751282" width="40" height="40" fill="white"/>
<path fill-rule="evenodd" clip-rule="evenodd" d="M23.8799 7.75692C23.8799 7.21811 24.3167 6.78131 24.8555 6.78131H27.3877C28.7327 6.78131 29.9046 7.69806 30.2284 9.00356L30.7034 10.9185C30.8597 10.7398 31.037 10.5747 31.2336 10.425C32.0472 9.80531 33.1476 9.47459 34.3943 9.40187C35.2612 9.35131 35.9146 10.0576 35.9146 10.8497V15.2786C35.9146 16.0707 35.2612 16.777 34.3943 16.7264C33.507 16.6747 32.6938 16.4922 32.0054 16.168L33.0136 20.2329C33.2481 20.21 33.4858 20.1983 33.7263 20.1983C37.7367 20.1983 40.9878 23.4494 40.9878 27.4598C40.9878 31.4702 37.7367 34.7212 33.7263 34.7212C29.7159 34.7212 26.4649 31.4702 26.4649 27.4598C26.4649 24.37 28.3947 21.7309 31.1147 20.6821L30.6399 18.768L30.3941 18.768C30.0484 18.768 29.7286 18.9509 29.5533 19.2487L24.2287 28.2963C23.3521 29.7857 21.7529 30.7002 20.0246 30.7002H15.7833C14.598 33.0835 12.138 34.7212 9.29556 34.7212C6.45309 34.7212 3.99314 33.0835 2.80783 30.7002H1.9634C1.42459 30.7002 0.987793 30.2634 0.987793 29.7245C0.987793 29.1857 1.42459 28.7489 1.9634 28.7489H2.16499C2.09215 28.3369 2.05415 27.9128 2.05415 27.4798C2.05415 23.4805 5.29624 20.2384 9.29556 20.2384C10.5969 20.2384 11.8181 20.5817 12.8735 21.1826H13.7952L15.0515 19.0805H5.86584C4.2494 19.0805 2.93901 17.7701 2.93901 16.1537V15.196C2.93901 12.9353 4.85379 11.1477 7.10908 11.3027L19.5894 12.1606C20.8126 11.1037 22.3915 10.4984 24.0551 10.4984H28.5889L28.3346 9.47328C28.2267 9.03811 27.836 8.73253 27.3877 8.73253H24.8555C24.3167 8.73253 23.8799 8.29573 23.8799 7.75692ZM16.537 27.4798C16.537 25.8491 15.998 24.3443 15.0884 23.1339H16.8708C17.8507 24.77 18.1747 26.8103 17.6915 28.7489H16.4261C16.499 28.3369 16.537 27.9128 16.537 27.4798ZM19.6581 28.7489H20.0246C21.0616 28.7489 22.0211 28.2003 22.5471 27.3066L25.0028 23.1339H19.008C19.773 24.8682 20.0142 26.8378 19.6581 28.7489ZM27.8717 18.2591L26.1511 21.1826H16.0683L19.8679 14.8251C20.7485 13.3517 22.3386 12.4496 24.0551 12.4496H29.0728L30.1583 16.8262C29.2133 16.9025 28.3575 17.4336 27.8717 18.2591ZM18.0803 14.0127L6.97526 13.2493C5.84762 13.1718 4.89023 14.0656 4.89023 15.196V16.1537C4.89023 16.6925 5.32703 17.1293 5.86584 17.1293H16.2177L18.0803 14.0127ZM28.4161 27.4598C28.4161 25.2871 29.7209 23.4192 31.5896 22.5969L32.5952 26.6513C32.4321 26.8791 32.3361 27.1582 32.3361 27.4598C32.3361 28.2276 32.9585 28.85 33.7263 28.85C34.4941 28.85 35.1166 28.2276 35.1166 27.4598C35.1166 26.9886 34.8821 26.5721 34.5235 26.3207L33.4903 22.1547C33.5685 22.1513 33.6472 22.1495 33.7263 22.1495C36.6591 22.1495 39.0366 24.527 39.0366 27.4598C39.0366 30.3925 36.6591 32.77 33.7263 32.77C30.7936 32.77 28.4161 30.3925 28.4161 27.4598ZM32.4159 11.9772C32.7474 11.7248 33.2567 11.5094 33.9633 11.4049V14.7234C33.2567 14.6189 32.7474 14.4035 32.4159 14.1511C32.0321 13.8588 31.856 13.5001 31.856 13.0642C31.856 12.6282 32.0321 12.2695 32.4159 11.9772ZM14.4325 28.7489C14.5327 28.3424 14.5858 27.9173 14.5858 27.4798C14.5858 24.5581 12.2173 22.1896 9.29556 22.1896C6.37387 22.1896 4.00537 24.5581 4.00537 27.4798C4.00537 27.9173 4.05847 28.3424 4.15858 28.7489H8.72717C8.24275 28.5316 7.90534 28.0451 7.90534 27.4798C7.90534 26.712 8.52777 26.0896 9.29558 26.0896C10.0634 26.0896 10.6858 26.712 10.6858 27.4798C10.6858 28.0451 10.3484 28.5316 9.86399 28.7489H14.4325ZM13.493 30.7002C12.5259 31.9588 11.0055 32.77 9.29556 32.77C7.58564 32.77 6.0652 31.9588 5.09813 30.7002H13.493Z" fill="#5E6E7C"/>
</svg>
