<svg width="41" height="41" viewBox="0 0 41 41" fill="none" xmlns="http://www.w3.org/2000/svg">
<rect x="0.987793" y="0.751343" width="40" height="40" fill="white"/>
<path fill-rule="evenodd" clip-rule="evenodd" d="M31.9964 9.21484C32.0319 9.03317 32.1835 8.79593 32.5826 8.6142C32.9794 8.43345 33.5469 8.35269 34.1792 8.47618C34.8115 8.59967 35.3069 8.88801 35.6066 9.20481C35.9079 9.52332 35.9592 9.80018 35.9237 9.98185C35.8882 10.1635 35.7366 10.4008 35.3375 10.5825C34.9407 10.7632 34.3732 10.844 33.7409 10.7205C33.1086 10.597 32.6132 10.3087 32.3135 9.99189C32.0122 9.67338 31.961 9.39652 31.9964 9.21484ZM34.5626 6.51326C33.5684 6.31909 32.5713 6.42165 31.7536 6.79408C31.4465 6.93396 31.1539 7.1184 30.8983 7.34635L8.45362 2.12481C7.10377 1.81078 5.76272 2.67922 5.49707 4.03942C5.23141 5.39963 6.14717 6.70883 7.51598 6.92576L30.2759 10.5329C30.427 10.8402 30.6287 11.1212 30.8606 11.3664C30.9429 11.4533 31.0299 11.537 31.1212 11.6172C30.8491 11.6796 30.5882 11.7669 30.3434 11.8784C30.0725 12.0018 29.8128 12.1599 29.5799 12.3519C29.0887 12.2593 28.5807 12.1745 28.058 12.098L7.0434 7.20917C5.69355 6.89513 4.3525 7.76357 4.08685 9.12377C3.8212 10.484 4.73695 11.7932 6.10576 12.0101L10.6384 12.7285C10.239 12.8277 9.85467 12.9326 9.48673 13.043C8.00129 13.4887 6.72633 14.0392 5.80041 14.6959C4.90047 15.3342 4.13398 16.2205 4.13398 17.3615L4.13355 21.3006L4.13355 21.3838L4.14732 21.4659C4.23032 21.961 4.45411 22.4008 4.76453 22.7897L4.76453 29.5547C4.38823 29.9183 4.15424 30.4283 4.15424 30.993L4.15424 33.932L4.15424 34.0152L4.16799 34.0973C4.34342 35.1443 5.14845 35.9445 6.07088 36.5377C7.0245 37.1509 8.29621 37.6693 9.76862 38.0906C12.7222 38.9357 16.6688 39.4422 20.9763 39.4422C25.4203 39.4422 29.4822 38.9031 32.4658 38.008C33.9512 37.5624 35.2262 37.0119 36.1521 36.3551C37.0521 35.7168 37.8186 34.8305 37.8186 33.6895L37.8186 30.5887C37.8186 30.0794 37.5799 29.6258 37.2083 29.3336V22.7365C37.578 22.2561 37.8185 21.6971 37.8185 21.058L37.8185 17.3755L37.8186 17.3615C37.8186 16.3819 37.2536 15.5901 36.5242 14.9817C36.5323 14.1843 36.1658 13.4606 35.6493 12.9147C35.567 12.8278 35.4801 12.7441 35.3887 12.6638C35.6608 12.6014 35.9217 12.5141 36.1665 12.4026C36.9821 12.0312 37.6952 11.3453 37.8866 10.3652C38.078 9.38509 37.6754 8.48137 37.0595 7.83035C36.442 7.1776 35.5568 6.70744 34.5626 6.51326ZM20.2014 6.91124L8.00044 4.0728C7.75369 4.01539 7.50854 4.17414 7.45998 4.42279C7.41142 4.67143 7.57882 4.91076 7.82904 4.95041L20.2014 6.91124ZM30.5862 14.2992C30.6217 14.1175 30.7733 13.8803 31.1724 13.6986C31.5692 13.5178 32.1367 13.437 32.769 13.5605C33.4013 13.684 33.8967 13.9724 34.1964 14.2892C34.4977 14.6077 34.5489 14.8845 34.5135 15.0662C34.478 15.2479 34.3263 15.4851 33.9273 15.6668C33.5305 15.8476 32.963 15.9284 32.3307 15.8049C31.6984 15.6814 31.203 15.393 30.9033 15.0762C30.602 14.7577 30.5507 14.4809 30.5862 14.2992ZM35.6336 16.915C35.3728 17.152 35.0722 17.3431 34.7563 17.487C33.9386 17.8594 32.9415 17.962 31.9473 17.7678C30.9531 17.5736 30.0679 17.1034 29.4504 16.4507C29.2185 16.2056 29.0168 15.9246 28.8657 15.6172L17.1106 13.7542C14.3788 13.9641 11.9567 14.3901 10.0614 14.9587C8.67998 15.3731 7.63489 15.8467 6.95748 16.3272C6.25409 16.8261 6.13398 17.1901 6.13398 17.3615C6.13398 17.5329 6.25409 17.8969 6.95748 18.3958C7.63489 18.8763 8.67998 19.3499 10.0614 19.7643C12.8116 20.5894 16.6708 21.1142 20.9763 21.1142C25.2817 21.1142 29.141 20.5894 31.8911 19.7643C33.2726 19.3499 34.3177 18.8763 34.9951 18.3958C35.6913 17.902 35.816 17.5404 35.8185 17.3668V17.3615C35.8185 17.2675 35.7824 17.1154 35.6336 16.915ZM17.588 11.7157L6.59022 9.15715C6.34347 9.09974 6.09832 9.25849 6.04976 9.50714C6.0012 9.75578 6.1686 9.99511 6.41882 10.0348L17.1941 11.7425C17.3248 11.7331 17.4562 11.7241 17.588 11.7157ZM35.2083 24.2959C34.4257 24.707 33.4949 25.0671 32.4626 25.3766C32.2753 25.4327 32.0837 25.4875 31.8881 25.5408L35.2083 28.5592L35.2083 24.2959ZM20.9659 26.8107C23.5544 26.8107 26.0134 26.6281 28.2053 26.2988L21.0145 32.7328L14.717 26.4353C16.6488 26.6781 18.7601 26.8107 20.9659 26.8107ZM9.75129 25.4592C10.0581 25.5469 10.3755 25.631 10.703 25.7112L6.76453 28.7408L6.76453 24.3173C7.60606 24.7546 8.6194 25.1355 9.75129 25.4592ZM7.70671 31.2413C7.51762 31.1197 7.3643 31.0048 7.24039 30.898L12.39 26.9368L19.142 33.6887C15.8737 33.5686 12.9565 33.1324 10.7406 32.4984C9.42475 32.1218 8.40203 31.6884 7.70671 31.2413ZM31.4597 32.426C29.2479 33.0895 26.2869 33.5512 22.9515 33.6834L30.4709 26.9554L34.7613 30.8558C34.6707 30.9371 34.5623 31.0238 34.4328 31.1157C33.7863 31.5743 32.7859 32.0281 31.4597 32.426ZM35.8186 32.5767C35.7436 32.6354 35.6672 32.6922 35.5899 32.747C34.6949 33.3818 33.4646 33.9126 32.0344 34.3416C29.1613 35.2036 25.2521 35.7222 20.9767 35.7222C16.8327 35.7222 13.0345 35.235 10.1904 34.4212C8.77283 34.0156 7.54621 33.5159 6.62499 32.9235C6.46362 32.8197 6.30569 32.7092 6.15424 32.5918L6.15424 33.8262C6.21811 34.0455 6.46047 34.4104 7.1526 34.8555C7.88033 35.3234 8.94813 35.7756 10.3188 36.1678C13.0514 36.9497 16.8054 37.4422 20.9763 37.4422C25.2817 37.4422 29.141 36.9174 31.8911 36.0923C33.2726 35.6779 34.3177 35.2043 34.9951 34.7238C35.6985 34.2249 35.8186 33.8609 35.8186 33.6895L35.8186 32.5767ZM35.8185 20.2498L35.8185 21.058C35.8185 21.2291 35.6985 21.5931 34.9945 22.0922C34.3165 22.5727 33.2706 23.0464 31.8882 23.4608C29.1361 24.2859 25.2742 24.8107 20.9659 24.8107C16.7922 24.8107 13.0357 24.3182 10.3012 23.5362C8.92951 23.144 7.8609 22.6918 7.13261 22.2238C6.43994 21.7787 6.19745 21.4138 6.13355 21.1946V20.2495C7.02241 20.8091 8.17214 21.2856 9.48673 21.68C12.4704 22.5751 16.5323 23.1142 20.9763 23.1142C25.4203 23.1142 29.4822 22.5751 32.4658 21.68C33.7802 21.2857 34.9297 20.8093 35.8185 20.2498Z" fill="#5E6E7C"/>
</svg>
