<svg width="41" height="41" viewBox="0 0 41 41" fill="none" xmlns="http://www.w3.org/2000/svg">
<rect x="0.987793" y="0.751282" width="40" height="40" fill="white"/>
<path fill-rule="evenodd" clip-rule="evenodd" d="M14.2948 3.75128C14.2948 3.199 13.8471 2.75128 13.2948 2.75129C12.7425 2.75129 12.2948 3.199 12.2948 3.75128V4.75128H10.2948C8.63794 4.75128 7.2948 6.09443 7.2948 7.75128V21.7513V35.7513C7.2948 37.4081 8.63794 38.7513 10.2948 38.7513H29.2948C30.9517 38.7513 32.2948 37.4081 32.2948 35.7513V23.5782L38.1825 15.4751C39.0291 14.31 38.7708 12.6791 37.6057 11.8325C36.4409 10.9862 34.8109 11.2439 33.964 12.408C33.4271 12.1604 32.8159 12.1687 32.2948 12.407V7.75129C32.2948 6.09443 30.9517 4.75128 29.2948 4.75129H27.2948V3.75129C27.2948 3.199 26.8471 2.75129 26.2948 2.75128C25.7425 2.75128 25.2948 3.199 25.2948 3.75128V4.75128H14.2948V3.75128ZM24.9954 24.7513L27.8872 20.7714C27.3541 19.8991 27.3643 18.7558 28.0026 17.8773L30.2948 14.7226V12.2513L9.2948 12.2513V35.7513C9.2948 36.3036 9.74252 36.7513 10.2948 36.7513H29.2948C29.8471 36.7513 30.2948 36.3036 30.2948 35.7513V26.3308L27.8053 29.757C26.889 31.0181 25.7533 32.1041 24.4525 32.9632L22.5586 34.214C21.749 34.7487 20.7095 33.9934 20.9679 33.0582L21.329 31.7513H11.7948C11.5186 31.7513 11.2948 31.5274 11.2948 31.2513V30.2513C11.2948 29.9751 11.5186 29.7513 11.7948 29.7513L21.9369 29.7513C22.3378 28.6867 22.8772 27.6779 23.5424 26.7513H11.7948C11.5186 26.7513 11.2948 26.5274 11.2948 26.2513V25.2513C11.2948 24.9751 11.5186 24.7513 11.7948 24.7513H24.9954ZM25.2948 7.75128V6.75129L14.2948 6.75128V7.75128C14.2948 8.30357 13.8471 8.75128 13.2948 8.75128C12.7425 8.75129 12.2948 8.30357 12.2948 7.75128V6.75128H10.2948C9.74252 6.75128 9.2948 7.199 9.2948 7.75128V10.2513L30.2948 10.2513V7.75128C30.2948 7.199 29.8471 6.75129 29.2948 6.75129H27.2948V7.75129C27.2948 8.30357 26.8471 8.75129 26.2948 8.75128C25.7425 8.75128 25.2948 8.30357 25.2948 7.75128ZM11.7948 16.7513C11.5186 16.7513 11.2948 16.5274 11.2948 16.2513V15.2513C11.2948 14.9751 11.5186 14.7513 11.7948 14.7513H17.7948C18.071 14.7513 18.2948 14.9751 18.2948 15.2513V16.2513C18.2948 16.5274 18.071 16.7513 17.7948 16.7513H11.7948ZM11.2948 21.2513C11.2948 21.5274 11.5186 21.7513 11.7948 21.7513L24.7948 21.7513C25.071 21.7513 25.2948 21.5274 25.2948 21.2513V20.2513C25.2948 19.9751 25.071 19.7513 24.7948 19.7513H11.7948C11.5186 19.7513 11.2948 19.9751 11.2948 20.2513V21.2513ZM36.5645 14.2995C36.7618 14.0279 36.7016 13.6478 36.4301 13.4505C36.1585 13.2532 35.7784 13.3133 35.581 13.5849L32.0734 18.4124L33.0569 19.1269L36.5645 14.2995ZM25.2039 27.8668L30.8978 20.0304L31.8812 20.7449L26.1873 28.5813C26.1669 28.6094 26.1464 28.6374 26.1257 28.6653L25.1431 27.9513C25.1632 27.923 25.1835 27.8949 25.2039 27.8668ZM24.1314 29.6884C23.9125 30.1583 23.7268 30.6437 23.576 31.1412C24.0026 30.8441 24.4069 30.5175 24.7862 30.1642L24.1314 29.6884Z" fill="#5E6E7C"/>
</svg>
