<svg width="41" height="41" viewBox="0 0 41 41" fill="none" xmlns="http://www.w3.org/2000/svg">
<rect x="0.987793" y="0.751282" width="40" height="40" fill="white"/>
<path fill-rule="evenodd" clip-rule="evenodd" d="M20.9878 5.40753C20.3665 5.40753 19.8628 5.91121 19.8628 6.53253C19.8628 7.15385 20.3665 7.65753 20.9878 7.65753C21.6091 7.65753 22.1128 7.15385 22.1128 6.53253C22.1128 5.91121 21.6091 5.40753 20.9878 5.40753ZM17.8628 6.53253C17.8628 4.80664 19.2619 3.40753 20.9878 3.40753C22.7137 3.40753 24.1128 4.80664 24.1128 6.53253C24.1128 6.73503 24.0935 6.93303 24.0567 7.1248L30.9645 14.0326H35.9878C37.6446 14.0326 38.9878 15.3757 38.9878 17.0326V31.0951C38.9878 32.7519 37.6446 34.0951 35.9878 34.0951H5.98779C4.33094 34.0951 2.98779 32.7519 2.98779 31.0951V17.0326C2.98779 15.3757 4.33094 14.0326 5.98779 14.0326H11.0111L17.9188 7.1248C17.8821 6.93303 17.8628 6.73503 17.8628 6.53253ZM20.9878 9.65753C21.7612 9.65753 22.469 9.37657 23.0147 8.91114L28.1361 14.0326H13.8395L18.9609 8.91114C19.5066 9.37657 20.2144 9.65753 20.9878 9.65753ZM4.98779 17.0326C4.98779 16.4803 5.43551 16.0326 5.98779 16.0326H35.9878C36.5401 16.0326 36.9878 16.4803 36.9878 17.0326V31.0951C36.9878 31.6473 36.5401 32.0951 35.9878 32.0951H5.98779C5.43551 32.0951 4.98779 31.6473 4.98779 31.0951V17.0326ZM12.8007 26.4055C13.1207 26.5705 13.4882 26.653 13.9032 26.653C14.3232 26.653 14.6907 26.5705 15.0057 26.4055C15.3257 26.2355 15.5732 26.0005 15.7482 25.7005C15.9232 25.3955 16.0107 25.043 16.0107 24.643V23.233C16.0107 22.843 15.9232 22.498 15.7482 22.198C15.5732 21.898 15.3257 21.6655 15.0057 21.5005C14.6907 21.3355 14.3232 21.253 13.9032 21.253C13.4882 21.253 13.1207 21.3355 12.8007 21.5005C12.4857 21.6655 12.2407 21.898 12.0657 22.198C11.8907 22.498 11.8032 22.843 11.8032 23.233V24.643C11.8032 25.043 11.8907 25.3955 12.0657 25.7005C12.2407 26.0005 12.4857 26.2355 12.8007 26.4055ZM14.4057 25.243C14.2807 25.378 14.1132 25.4455 13.9032 25.4455C13.6982 25.4455 13.5307 25.378 13.4007 25.243C13.2757 25.103 13.2132 24.918 13.2132 24.688V23.218C13.2132 22.988 13.2757 22.8055 13.4007 22.6705C13.5307 22.5305 13.6982 22.4605 13.9032 22.4605C14.1132 22.4605 14.2807 22.5305 14.4057 22.6705C14.5357 22.8055 14.6007 22.988 14.6007 23.218V24.688C14.6007 24.918 14.5357 25.103 14.4057 25.243ZM19.9039 21.5305C19.6339 21.3855 19.3214 21.313 18.9664 21.313H16.7689C16.7339 21.313 16.7064 21.323 16.6864 21.343C16.6664 21.363 16.6564 21.3905 16.6564 21.4255V26.4505C16.6564 26.4855 16.6664 26.513 16.6864 26.533C16.7064 26.553 16.7339 26.563 16.7689 26.563H17.9539C17.9889 26.563 18.0164 26.553 18.0364 26.533C18.0564 26.513 18.0664 26.4855 18.0664 26.4505V24.763C18.0664 24.738 18.0789 24.7255 18.1039 24.7255H18.8989C19.2639 24.7255 19.5864 24.6555 19.8664 24.5155C20.1464 24.3755 20.3639 24.178 20.5189 23.923C20.6739 23.668 20.7514 23.373 20.7514 23.038C20.7514 22.698 20.6764 22.398 20.5264 22.138C20.3814 21.873 20.1739 21.6705 19.9039 21.5305ZM19.1764 23.458C19.0664 23.553 18.9189 23.6005 18.7339 23.6005H18.1039C18.0789 23.6005 18.0664 23.588 18.0664 23.563V22.558C18.0664 22.533 18.0789 22.5205 18.1039 22.5205H18.7339C18.9189 22.5205 19.0664 22.5705 19.1764 22.6705C19.2914 22.7705 19.3489 22.903 19.3489 23.068C19.3489 23.228 19.2914 23.358 19.1764 23.458ZM25.0985 22.4905C25.1185 22.4705 25.1285 22.443 25.1285 22.408V21.4255C25.1285 21.3905 25.1185 21.363 25.0985 21.343C25.0785 21.323 25.051 21.313 25.016 21.313H21.4385C21.4035 21.313 21.376 21.323 21.356 21.343C21.336 21.363 21.326 21.3905 21.326 21.4255V26.4505C21.326 26.4855 21.336 26.513 21.356 26.533C21.376 26.553 21.4035 26.563 21.4385 26.563H25.016C25.051 26.563 25.0785 26.553 25.0985 26.533C25.1185 26.513 25.1285 26.4855 25.1285 26.4505V25.468C25.1285 25.433 25.1185 25.4055 25.0985 25.3855C25.0785 25.3655 25.051 25.3555 25.016 25.3555H22.7735C22.7485 25.3555 22.736 25.343 22.736 25.318V24.538C22.736 24.513 22.7485 24.5005 22.7735 24.5005H24.161C24.196 24.5005 24.2235 24.4905 24.2435 24.4705C24.2635 24.4505 24.2735 24.423 24.2735 24.388V23.413C24.2735 23.378 24.2635 23.3505 24.2435 23.3305C24.2235 23.3105 24.196 23.3005 24.161 23.3005H22.7735C22.7485 23.3005 22.736 23.288 22.736 23.263V22.558C22.736 22.533 22.7485 22.5205 22.7735 22.5205H25.016C25.051 22.5205 25.0785 22.5105 25.0985 22.4905ZM28.7234 21.343C28.7034 21.363 28.6933 21.3905 28.6933 21.4255L28.7008 23.923C28.7008 23.943 28.6959 23.9555 28.6859 23.9605C28.6758 23.9605 28.6658 23.953 28.6558 23.938L27.1334 21.388C27.1033 21.338 27.0583 21.313 26.9984 21.313H25.8659C25.8309 21.313 25.8034 21.323 25.7833 21.343C25.7633 21.363 25.7533 21.3905 25.7533 21.4255V26.4505C25.7533 26.4855 25.7633 26.513 25.7833 26.533C25.8034 26.553 25.8309 26.563 25.8659 26.563H27.0508C27.0858 26.563 27.1133 26.553 27.1334 26.533C27.1533 26.513 27.1633 26.4855 27.1633 26.4505L27.1483 23.953C27.1483 23.933 27.1533 23.923 27.1633 23.923C27.1733 23.918 27.1833 23.923 27.1933 23.938L28.7234 26.488C28.7533 26.538 28.7983 26.563 28.8584 26.563H29.9909C30.0259 26.563 30.0534 26.553 30.0733 26.533C30.0933 26.513 30.1033 26.4855 30.1033 26.4505V21.4255C30.1033 21.3905 30.0933 21.363 30.0733 21.343C30.0534 21.323 30.0259 21.313 29.9909 21.313H28.8058C28.7708 21.313 28.7433 21.323 28.7234 21.343Z" fill="#5E6E7C"/>
</svg>
