<svg width="41" height="41" viewBox="0 0 41 41" fill="none" xmlns="http://www.w3.org/2000/svg">
<rect x="0.987793" y="0.751282" width="40" height="40" fill="white"/>
<path fill-rule="evenodd" clip-rule="evenodd" d="M17.8953 4.92844V13.9089C17.8953 15.1472 16.1269 15.3648 15.8266 14.1635L13.6823 5.58252C12.0177 5.8423 10.2649 6.17313 8.61824 6.64266C10.1708 11.1649 11.1867 14.8556 11.2881 20.8136H30.9817V4.49838C26.4895 4.27815 22.0807 4.47261 17.8953 4.92844ZM6.72137 7.27681C8.31124 11.906 9.28958 15.5153 9.29638 21.748V21.8136V25.9837C9.29638 27.3428 10.2101 28.5322 11.5234 28.8824L17.7559 30.5444L17.1475 35.4119C16.8473 37.8129 18.7194 39.9335 21.139 39.9335C23.5586 39.9335 25.4307 37.8129 25.1306 35.4119L24.5222 30.5444L30.7547 28.8824C32.0679 28.5322 32.9817 27.3428 32.9817 25.9837L32.9817 21.8136V4.49234C32.9817 3.4389 32.1604 2.55396 31.0922 2.5014C26.1502 2.2583 21.3197 2.50465 16.7777 3.04263L15.8953 3.14716V4.03569V6.1889L15.4023 4.21603L15.1831 3.33885L14.2883 3.46887C12.3289 3.75359 10.1162 4.13261 8.03024 4.73064C6.91403 5.05064 6.36366 6.23528 6.72137 7.27681ZM11.2964 22.8136V25.9837C11.2964 26.4367 11.601 26.8332 12.0387 26.9499L18.5779 28.6937C19.368 28.9044 19.8813 29.6661 19.7798 30.4775L19.132 35.66C18.9811 36.8672 19.9224 37.9335 21.139 37.9335C22.3556 37.9335 23.2969 36.8672 23.1461 35.66L22.4982 30.4775C22.3968 29.6661 22.91 28.9044 23.7001 28.6937L30.2393 26.9499C30.6771 26.8332 30.9817 26.4367 30.9817 25.9837V22.8136H11.2964ZM22.1438 35.7827C22.1438 35.2304 21.6961 34.7827 21.1438 34.7827C20.5915 34.7827 20.1438 35.2304 20.1438 35.7827C20.1438 36.335 20.5915 36.7827 21.1438 36.7827C21.6961 36.7827 22.1438 36.335 22.1438 35.7827Z" fill="#5E6E7C"/>
</svg>
