<svg width="41" height="41" viewBox="0 0 41 41" fill="none" xmlns="http://www.w3.org/2000/svg">
<rect x="0.987793" y="0.751282" width="40" height="40" fill="white"/>
<path fill-rule="evenodd" clip-rule="evenodd" d="M10.1313 2.81848C9.12775 2.81848 8.27958 3.56222 8.14846 4.55718L4.12233 35.1089C3.98172 36.1759 4.71065 37.1629 5.7718 37.3423L13.5419 38.6559C14.5439 38.8253 15.5137 38.2163 15.7964 37.2402L20.9878 19.3149L26.1792 37.2402C26.4619 38.2163 27.4317 38.8253 28.4337 38.6559L36.2038 37.3423C37.2649 37.1629 37.9938 36.1759 37.8532 35.1089L33.8271 4.55718C33.696 3.56222 32.8478 2.81848 31.8443 2.81848H10.1313ZM10.1313 4.81848H31.8443L32.1078 6.81848H20.9878H9.86775L10.1313 4.81848ZM21.9878 8.81848H28.5013L28.7414 10.8671C28.9862 12.9561 30.5121 14.6685 32.5591 15.1515L33.2267 15.309L35.4434 32.1301L27.2036 33.5878L22.9088 18.7585C22.3514 16.8337 19.6242 16.8337 19.0667 18.7585L14.7689 33.5983L6.53076 32.1408L8.74886 15.309L9.41646 15.1515C11.4635 14.6685 12.9894 12.9561 13.2342 10.8671L13.4743 8.81848H19.9878L19.9878 14.3185C19.9878 14.8708 20.4355 15.3185 20.9878 15.3185C21.5401 15.3185 21.9878 14.8708 21.9878 14.3185V8.81848ZM6.2692 34.1256L6.10519 35.3702L13.8753 36.6838L14.2094 35.5304L6.2692 34.1256ZM27.7632 35.5199L28.1003 36.6838L35.8704 35.3702L35.7049 34.1149L27.7632 35.5199ZM30.7278 10.6343L30.515 8.81848H32.3714L32.9471 13.1872C31.7549 12.8751 30.8718 11.8633 30.7278 10.6343ZM11.4606 8.81848H9.60419L9.02848 13.1872C10.2207 12.8751 11.1038 11.8633 11.2478 10.6343L11.4606 8.81848Z" fill="#5E6E7C"/>
</svg>
