<svg width="41" height="41" viewBox="0 0 41 41" fill="none" xmlns="http://www.w3.org/2000/svg">
<rect x="0.987793" y="0.751282" width="40" height="40" fill="white"/>
<path fill-rule="evenodd" clip-rule="evenodd" d="M17.847 3.68793C17.847 2.58336 18.7424 1.68793 19.847 1.68793H22.1287C23.2332 1.68793 24.1287 2.58336 24.1287 3.68793V6.96962H24.6991C26.1576 6.96962 27.34 8.15196 27.34 9.61046C27.34 10.6927 26.689 11.6228 25.7573 12.0308C25.8921 12.1745 26.068 12.2953 26.2795 12.3761C31.8566 14.5065 35.8202 19.9073 35.8202 26.2364C35.8202 31.1465 33.4344 35.4979 29.7612 38.1968C29.895 38.3669 29.9748 38.5814 29.9748 38.8146C29.9748 39.3669 29.5271 39.8146 28.9748 39.8146H26.7513H15.2243H13.0317C12.4794 39.8146 12.0317 39.3669 12.0317 38.8146C12.0317 38.588 12.1071 38.379 12.2341 38.2112C8.54974 35.5134 6.1554 31.1552 6.1554 26.2364C6.1554 19.9073 10.1191 14.5065 15.696 12.3761C15.9076 12.2953 16.0836 12.1745 16.2184 12.0308C15.2867 11.6228 14.6357 10.6927 14.6357 9.61046C14.6357 8.15196 15.8181 6.96962 17.2766 6.96962H17.847V3.68793ZM22.1287 3.68793V6.96962H19.847V3.68793H22.1287ZM23.6037 12.2513H21.9878V19.5298C25.3531 20.4232 28.4507 21.193 32.1865 19.9659C30.7263 17.3634 28.3851 15.3214 25.5659 14.2444C24.6756 13.9043 23.9194 13.1837 23.6037 12.2513ZM18.3719 12.2513H19.9878V19.0101C17.1285 18.3085 14.0493 17.8347 10.4593 18.898C11.9201 16.8059 13.9886 15.1693 16.4097 14.2444C17.3 13.9043 18.0562 13.1837 18.3719 12.2513ZM9.03046 21.5695C13.21 19.6559 16.5504 20.196 19.9878 21.0721V32.1879C19.9878 32.7402 20.4355 33.1879 20.9878 33.1879C21.5401 33.1879 21.9878 32.7402 21.9878 32.1879V21.5996C25.2676 22.4644 28.8107 23.2456 33.0298 21.7922C33.541 23.1771 33.8202 24.6742 33.8202 26.2364C33.8202 31.3376 30.8436 35.7456 26.5284 37.8146H15.4471C11.132 35.7456 8.1554 31.3376 8.1554 26.2364C8.1554 24.5901 8.46545 23.016 9.03046 21.5695ZM24.6991 10.2513C25.053 10.2513 25.34 9.96439 25.34 9.61046C25.34 9.25653 25.053 8.96962 24.6991 8.96962H17.2766C16.9226 8.96962 16.6357 9.25653 16.6357 9.61046C16.6357 9.96439 16.9226 10.2513 17.2766 10.2513H17.5297H24.4459H24.6991ZM27.4905 5.68793C28.0428 5.68793 28.4905 5.24022 28.4905 4.68793C28.4905 4.13564 28.0428 3.68793 27.4905 3.68793C26.9382 3.68793 26.4905 4.13564 26.4905 4.68793C26.4905 5.24022 26.9382 5.68793 27.4905 5.68793ZM31.4905 6.68793C31.4905 7.24022 31.0428 7.68793 30.4905 7.68793C29.9382 7.68793 29.4905 7.24022 29.4905 6.68793C29.4905 6.13564 29.9382 5.68793 30.4905 5.68793C31.0428 5.68793 31.4905 6.13564 31.4905 6.68793ZM30.4905 3.68793C31.0428 3.68793 31.4905 3.24022 31.4905 2.68793C31.4905 2.13564 31.0428 1.68793 30.4905 1.68793C29.9382 1.68793 29.4905 2.13564 29.4905 2.68793C29.4905 3.24022 29.9382 3.68793 30.4905 3.68793Z" fill="#5E6E7C"/>
</svg>
