<svg width="41" height="41" viewBox="0 0 41 41" fill="none" xmlns="http://www.w3.org/2000/svg">
<rect x="0.987793" y="0.751282" width="40" height="40" fill="white"/>
<path fill-rule="evenodd" clip-rule="evenodd" d="M10.1915 4.75128C10.1915 4.199 10.6392 3.75128 11.1915 3.75128H30.784C31.3363 3.75128 31.784 4.199 31.784 4.75128V8.26066H10.1915V4.75128ZM8.19152 8.26066V4.75128C8.19152 3.09443 9.53467 1.75128 11.1915 1.75128H30.784C32.4409 1.75128 33.784 3.09443 33.784 4.75128V8.26066H33.7864L33.9057 9.12369L35.7407 22.3945L35.7501 22.4626V22.5314V36.7513C35.7501 38.4082 34.4069 39.7513 32.7501 39.7513H9.22549C7.56864 39.7513 6.22549 38.4082 6.22549 36.7513V22.5314V22.4626L6.23492 22.3945L8.06989 9.12369L8.18922 8.26066H8.19152ZM9.59489 12.6966L9.93171 10.2607H32.0439L32.3807 12.6966H9.59489ZM9.31835 14.6966L8.22549 22.6003V33.2283H33.7501V22.6003L32.6572 14.6966H9.31835ZM8.22549 36.7513V35.2283H33.7501V36.7513C33.7501 37.3036 33.3024 37.7513 32.7501 37.7513H9.22549C8.67321 37.7513 8.22549 37.3036 8.22549 36.7513ZM16.5906 6.00598C16.5906 5.45369 17.0383 5.00598 17.5906 5.00598H24.3849C24.9372 5.00598 25.3849 5.45369 25.3849 6.00598C25.3849 6.55826 24.9372 7.00598 24.3849 7.00598H17.5906C17.0383 7.00598 16.5906 6.55826 16.5906 6.00598ZM15.2912 19.4405C13.8826 19.4405 12.7107 20.4441 12.4474 21.7748C12.3457 22.289 12.4779 22.7475 12.5938 23.0475L12.9146 23.878C13.0041 24.1098 13.0041 24.3667 12.9146 24.5986L12.5938 25.429C12.4779 25.7291 12.3457 26.1876 12.4474 26.7018C12.7107 28.0324 13.8826 29.036 15.2912 29.036C16.5408 29.036 17.6056 28.2456 18.0129 27.1372H23.9627C24.3701 28.2456 25.4348 29.036 26.6844 29.036C28.091 29.036 29.2615 28.0354 29.527 26.7077C29.6309 26.1882 29.4959 25.7249 29.3777 25.4223L29.0573 24.6021C28.9659 24.3682 28.9659 24.1084 29.0573 23.8744L29.3777 23.0542C29.4959 22.7516 29.6309 22.2883 29.527 21.7689C29.2615 20.4412 28.091 19.4405 26.6844 19.4405C25.4348 19.4405 24.3701 20.231 23.9627 21.3394H18.0129C17.6056 20.231 16.5408 19.4405 15.2912 19.4405ZM14.4136 22.1735C14.4121 22.164 14.4115 22.1576 14.4113 22.1539C14.4962 21.7464 14.859 21.4405 15.2912 21.4405C15.7796 21.4405 16.1772 21.8302 16.1897 22.3152C16.204 22.8644 16.6501 23.3394 17.2401 23.3394H24.7356C25.3255 23.3394 25.7716 22.8644 25.7859 22.3152C25.7984 21.8302 26.1961 21.4405 26.6844 21.4405C27.1159 21.4405 27.4782 21.7454 27.564 22.152C27.5638 22.1541 27.5636 22.157 27.5631 22.1608C27.5628 22.1639 27.5623 22.1674 27.5616 22.1716C27.5565 22.2031 27.5435 22.253 27.5148 22.3265L27.1944 23.1467C26.9202 23.8486 26.9202 24.628 27.1944 25.3299L27.5148 26.1501C27.5435 26.2235 27.5565 26.2734 27.5616 26.3049C27.5631 26.3144 27.5637 26.3209 27.564 26.3246C27.4782 26.7311 27.1159 27.036 26.6844 27.036C26.1961 27.036 25.7984 26.6464 25.7859 26.1614C25.7716 25.6122 25.3255 25.1372 24.7356 25.1372H17.2401C16.6501 25.1372 16.204 25.6122 16.1897 26.1614C16.1772 26.6464 15.7796 27.036 15.2912 27.036C14.859 27.036 14.4962 26.7302 14.4113 26.3226C14.4114 26.32 14.4117 26.3161 14.4125 26.3107C14.4128 26.3084 14.4131 26.3059 14.4136 26.3031C14.4186 26.2719 14.4313 26.2225 14.4595 26.1497L14.7802 25.3192C15.0489 24.6236 15.0489 23.8529 14.7802 23.1573L14.4595 22.3269C14.4313 22.254 14.4186 22.2046 14.4136 22.1735Z" fill="#5E6E7C"/>
</svg>
