<svg width="41" height="41" viewBox="0 0 41 41" fill="none" xmlns="http://www.w3.org/2000/svg">
<rect x="0.987793" y="0.751282" width="40" height="40" fill="white"/>
<path fill-rule="evenodd" clip-rule="evenodd" d="M21.4793 4.25128C18.9018 4.25128 16.8123 6.3408 16.8123 8.91834C16.8123 10.2642 17.3809 11.4766 18.2941 12.3295C19.3784 12.0879 20.4918 11.9619 21.6275 11.9619C22.6788 11.9619 23.7112 12.0699 24.7192 12.2777C25.6003 11.4278 26.1464 10.2371 26.1464 8.91834C26.1464 6.3408 24.0569 4.25128 21.4793 4.25128ZM15.2187 11.2154C15.4508 11.8475 15.7757 12.4346 16.1768 12.9601C15.7645 13.1145 15.3574 13.286 14.9561 13.4739C14.706 13.5909 14.6072 13.8923 14.7315 14.1389L15.1816 15.0319C15.3059 15.2785 15.6062 15.3768 15.8568 15.2607C17.6824 14.4146 19.6206 13.9619 21.6275 13.9619C23.5315 13.9619 25.3733 14.3694 27.1157 15.1333C27.3686 15.2442 27.6668 15.1398 27.7861 14.8907L28.218 13.9888C28.3372 13.7397 28.2323 13.4404 27.9799 13.3286C27.6065 13.1631 27.2283 13.0117 26.8457 12.875C27.2275 12.358 27.5365 11.7837 27.7573 11.1673C28.5981 11.5139 29.3844 11.93 30.1073 12.4077C30.7124 12.8076 31.4822 12.4862 31.6874 11.8541C31.7805 11.5669 32.1594 11.1888 32.8598 10.8569C33.3182 10.6397 33.7747 10.5087 34.0975 10.4476C34.0289 11.102 33.9173 11.6493 33.7973 12.2378L33.7906 12.2706C33.6367 13.0255 33.4725 13.8424 33.4113 14.9418C33.3875 15.3692 33.5081 15.7703 33.7098 16.099C34.0133 16.5937 34.333 17.1807 34.5223 17.6256C35.1955 19.2074 36.6958 20.6479 38.6757 20.6479C38.7784 20.6479 38.8616 20.7312 38.8616 20.8339V25.7351C38.8616 25.8276 38.7936 25.9061 38.702 25.9192L35.8188 26.3311C34.5244 26.516 33.4523 27.253 32.6773 28.1382C32.0695 28.8325 31.368 29.4706 30.5861 30.0388L30.137 30.3652L30.4717 35.0521C30.4794 35.1597 30.3942 35.2513 30.2863 35.2513H27.4091C27.3064 35.2513 27.2232 35.1681 27.2232 35.0653V31.9052L25.9504 32.2661C24.5499 32.6632 23.0464 32.8794 21.4793 32.8794C19.8347 32.8794 18.2599 32.6412 16.801 32.2058L15.4145 31.792L15.6473 35.0521C15.655 35.1597 15.5697 35.2513 15.4618 35.2513H12.5847C12.482 35.2513 12.3987 35.1681 12.3987 35.0653V30.0688L12.0135 29.7685C9.76372 28.0151 8.25051 25.671 7.79768 23.0776C7.72924 22.6856 7.48105 22.4463 7.30087 22.3251C7.1324 22.2118 6.95973 22.1551 6.84945 22.1243C6.62701 22.0623 6.36183 22.0294 6.15179 22.0046C6.0948 21.9979 6.03756 21.9913 5.9801 21.9847C5.55547 21.9358 5.11896 21.8856 4.68478 21.7685C4.19769 21.6371 3.81878 21.4461 3.56302 21.1734C3.50964 21.1164 3.45723 21.0513 3.40813 20.9758C4.18542 21.0497 4.90858 21.0429 5.53205 20.9506C6.03424 20.8763 6.52769 20.7385 6.94008 20.4982C7.35904 20.2542 7.76446 19.8582 7.90041 19.2689C8.70077 15.7994 11.4248 12.8165 15.2187 11.2154ZM28.1464 8.91834C28.1464 9.00189 28.1448 9.08508 28.1418 9.16788C28.9221 9.46753 29.6676 9.82061 30.3722 10.2237C30.8431 9.68399 31.4687 9.30291 32.0035 9.04954C32.8556 8.6458 33.8183 8.4059 34.4468 8.4059C34.7889 8.4059 35.3959 8.43273 35.8066 8.89236C36.0267 9.13861 36.1026 9.41281 36.129 9.61197C36.153 9.79244 36.1424 9.96513 36.1366 10.0579C36.0717 11.095 35.9112 11.8817 35.762 12.6126L35.7503 12.6701C35.5998 13.4085 35.4619 14.1026 35.4088 15.042C35.7401 15.582 36.1201 16.2727 36.3626 16.8424C36.8302 17.9412 37.7424 18.6479 38.6757 18.6479C39.883 18.6479 40.8616 19.6266 40.8616 20.8339V25.7351C40.8616 26.8229 40.0617 27.7452 38.9848 27.8991L36.1016 28.311C35.4023 28.4109 34.7338 28.8256 34.1821 29.4557C33.5923 30.1293 32.9315 30.7527 32.2101 31.3183L32.4667 34.9096C32.5571 36.175 31.5549 37.2513 30.2863 37.2513H27.4091C26.2018 37.2513 25.2232 36.2726 25.2232 35.0653V34.5011C24.0217 34.7486 22.7678 34.8794 21.4793 34.8794C20.1463 34.8794 18.8503 34.7394 17.6112 34.4751L17.6422 34.9096C17.7326 36.175 16.7304 37.2513 15.4618 37.2513H12.5847C11.3774 37.2513 10.3987 36.2726 10.3987 35.0653V31.0355C8.17199 29.1797 6.56712 26.7483 5.94227 23.9938C5.89363 23.988 5.81653 23.9792 5.7611 23.9729C5.3464 23.9258 4.75378 23.8586 4.16393 23.6995C3.48936 23.5175 2.7131 23.1909 2.10412 22.5414C1.47314 21.8686 1.11402 20.9484 1.11402 19.7672L1.11401 18.5374L2.31797 18.7882C3.50674 19.0358 4.53063 19.0771 5.23918 18.9722C5.59636 18.9193 5.81801 18.8373 5.93343 18.77C6.95232 14.4757 10.3733 10.974 14.8189 9.21886C14.8145 9.11924 14.8123 9.01905 14.8123 8.91834C14.8123 5.23623 17.7972 2.25128 21.4793 2.25128C25.1614 2.25128 28.1464 5.23623 28.1464 8.91834ZM31.3923 19.3126C31.9547 19.3126 32.4106 18.8567 32.4106 18.2943C32.4106 17.7319 31.9547 17.276 31.3923 17.276C30.8299 17.276 30.374 17.7319 30.374 18.2943C30.374 18.8567 30.8299 19.3126 31.3923 19.3126Z" fill="#5E6E7C"/>
</svg>
