<svg width="41" height="41" viewBox="0 0 41 41" fill="none" xmlns="http://www.w3.org/2000/svg">
<rect x="0.987793" y="0.751343" width="40" height="40" fill="white"/>
<path fill-rule="evenodd" clip-rule="evenodd" d="M4.14569 8.88269C2.40163 8.88269 0.987793 10.2965 0.987793 12.0406V29.462C0.987793 31.2061 2.40163 32.6199 4.14569 32.6199H37.8299C39.574 32.6199 40.9878 31.2061 40.9878 29.462V12.0406C40.9878 10.2965 39.574 8.88269 37.8299 8.88269H4.14569ZM3.09306 12.0406C3.09306 11.4592 3.56433 10.988 4.14569 10.988H37.8299C38.4113 10.988 38.8825 11.4592 38.8825 12.0406V29.462C38.8825 30.0434 38.4113 30.5147 37.8299 30.5147H4.14569C3.56434 30.5147 3.09306 30.0434 3.09306 29.462V12.0406ZM9.03168 16.3679V18.9281L6.8145 17.648L5.76187 19.4712L7.97908 20.7513L5.76183 22.0314L6.81447 23.8546L9.03168 22.5745V25.1348H11.1369V22.5745L13.3542 23.8546L14.4069 22.0314L12.1896 20.7513L14.4068 19.4712L13.3542 17.648L11.1369 18.9281V16.3679H9.03168ZM19.9353 18.9281V16.3679H22.0406V18.9281L24.2578 17.648L25.3104 19.4712L23.0932 20.7513L25.3105 22.0314L24.2578 23.8546L22.0406 22.5745V25.1348H19.9353V22.5745L17.7181 23.8546L16.6654 22.0314L18.8827 20.7513L16.6655 19.4712L17.7181 17.648L19.9353 18.9281ZM30.8386 16.3679V18.9281L28.6214 17.648L27.5688 19.4712L29.786 20.7513L27.5688 22.0314L28.6214 23.8546L30.8386 22.5745V25.1348H32.9439V22.5745L35.1612 23.8546L36.2138 22.0314L33.9965 20.7513L36.2138 19.4712L35.1611 17.648L32.9439 18.9281V16.3679H30.8386Z" fill="#5E6E7C"/>
</svg>
