<svg width="41" height="41" viewBox="0 0 41 41" fill="none" xmlns="http://www.w3.org/2000/svg">
<rect x="0.987793" y="0.751282" width="40" height="40" fill="white"/>
<path fill-rule="evenodd" clip-rule="evenodd" d="M16.7256 6.57585C15.942 5.50727 14.3461 5.50727 13.5625 6.57585C12.6125 7.87131 13.5376 9.69692 15.1441 9.69692H17.2691H19.0144L16.7256 6.57585ZM11.9497 5.39313C10.946 6.76174 10.9786 8.42331 11.7023 9.69692H7.15201C6.01729 9.69692 5.10988 10.6399 5.15349 11.7738L5.36068 17.1608C5.38371 17.7597 5.75564 18.2655 6.27626 18.4855L7.1893 35.8333C7.24521 36.8955 8.12282 37.7282 9.18654 37.7282H32.789C33.8528 37.7282 34.7304 36.8955 34.7863 35.8333L35.6993 18.4855C36.22 18.2655 36.5919 17.7597 36.6149 17.1608L36.8221 11.7738C36.8657 10.6399 35.9583 9.69692 34.8236 9.69692H30.2734C30.997 8.42331 31.0296 6.76174 30.0259 5.39313C28.4432 3.23484 25.2199 3.23484 23.6372 5.39313L20.9878 9.00591L18.3384 5.39313C16.7557 3.23484 13.5324 3.23484 11.9497 5.39313ZM22.9612 9.69692H24.7066H26.8316C28.438 9.69692 29.3631 7.87131 28.4131 6.57585C27.6295 5.50727 26.0336 5.50727 25.25 6.57585L22.9612 9.69692ZM25.7066 11.6969L25.7066 16.6032H34.6349L34.8236 11.6969L26.8334 11.6969C26.8328 11.6969 26.8322 11.6969 26.8316 11.6969L25.7066 11.6969ZM7.15201 11.6969L15.1419 11.6969L15.1441 11.6969L16.2691 11.6969L16.2691 16.6032H7.34071L7.15201 11.6969ZM18.2691 11.6969L18.2691 16.6032H23.7066L23.7066 11.6969H18.2691ZM8.28522 18.6032L9.18654 35.7282H16.8003V18.6032H8.28522ZM23.1753 18.6032V35.7282H18.8003V18.6032H23.1753ZM25.1753 35.7282H32.789L33.6904 18.6032H25.1753V35.7282Z" fill="#5E6E7C"/>
</svg>
