<svg width="41" height="41" viewBox="0 0 41 41" fill="none" xmlns="http://www.w3.org/2000/svg">
<rect x="0.987793" y="0.751282" width="40" height="40" fill="white"/>
<path fill-rule="evenodd" clip-rule="evenodd" d="M3.33528 20.4512C3.00778 20.013 3.09328 19.3929 3.52715 19.0596L10.4281 13.7585L10.4799 13.7188L10.5261 13.6726L15.081 9.11772L16.1844 8.01429L19.3058 19.1059L18.5811 18.9688L18.608 18.9252L14.2194 16.2109C13.3139 15.6509 12.2701 16.6919 12.8277 17.5989L18.8322 27.3652L13.0029 31.7185C12.5605 32.0488 11.9341 31.9581 11.6035 31.5158L3.33528 20.4512ZM19.8503 21.0408L17.5667 20.6089L17.556 20.6262L17.5109 20.5983L16.9549 20.4932L18.2864 22.6588L20.4619 23.2141L19.8503 21.0408ZM21.0252 25.2157L19.6412 24.8624L21.0145 27.096L21.493 27.8743L20.761 28.421L14.1996 33.3209C12.8724 34.3121 10.993 34.0399 10.0014 32.713L1.73319 21.6484C0.750686 20.3336 1.00717 18.4734 2.3088 17.4735L9.15802 12.2122L13.6668 7.70351L15.5632 5.80703L15.5397 5.72357C15.3034 4.88359 15.9362 3.84396 17.0134 3.99852C17.1169 4.01337 17.2185 4.03122 17.3182 4.05203L18.3179 3.05231C18.9608 2.4095 19.8604 2.09284 20.7641 2.19127L29.6512 3.15924C31.0509 3.31169 32.1563 4.41705 32.3087 5.81677L33.2767 14.7039C33.3751 15.6076 33.0585 16.5072 32.4157 17.15L28.6858 20.8799L30.457 21.2149C30.617 20.7891 30.8336 20.3772 31.1083 19.9899C32.8309 17.5609 36.1964 16.9882 38.6255 18.7108C41.0917 20.4597 41.4109 23.8298 40.0126 26.1094C39.4325 27.055 38.5449 27.8522 37.2509 28.2563C35.9771 28.6542 34.3854 28.648 32.4171 28.1465L32.4137 28.1456L27.88 26.9719L29.2192 30.6979C29.8942 32.4304 30.0716 33.8977 29.834 35.1425C29.5929 36.4054 28.9414 37.3508 28.1262 38.0514C25.8537 40.0043 22.337 39.6602 20.4083 37.4159C18.4675 35.1574 18.725 31.7532 20.9834 29.8123C21.3336 29.5114 21.7121 29.2629 22.1089 29.0666L21.0252 25.2157ZM27.1432 24.9218L32.8615 26.4022L32.8632 26.4026C34.6239 26.851 35.8569 26.806 36.7143 26.5382C37.5519 26.2766 38.1024 25.7808 38.4782 25.1682C39.4564 23.5736 39.1652 21.3002 37.5842 20.179C35.9661 19.0315 33.7241 19.413 32.5765 21.0311C32.2701 21.4632 32.0736 21.9375 31.9796 22.4229L31.8091 23.3025L30.9287 23.136L26.1784 22.2376L27.1432 24.9218ZM25.4719 20.2721L26.3072 20.4301L31.0014 15.7358C31.2157 15.5215 31.3213 15.2217 31.2885 14.9204L30.3205 6.03332C30.2697 5.56675 29.9012 5.1983 29.4346 5.14748L20.5475 4.17951C20.2463 4.1467 19.9464 4.25226 19.7322 4.46653L19.2232 4.97551C19.8217 5.48213 20.3084 6.16556 20.699 7.00386L20.7163 7.041L20.7302 7.07956L25.4719 20.2721ZM25.8946 8.74792C25.8946 8.30956 26.2499 7.9542 26.6883 7.9542C27.1267 7.9542 27.482 8.30956 27.482 8.74792C27.482 9.18628 27.1267 9.54164 26.6883 9.54164C26.2499 9.54164 25.8946 9.18628 25.8946 8.74792ZM26.6883 5.9542C25.1454 5.9542 23.8946 7.20499 23.8946 8.74792C23.8946 10.2908 25.1454 11.5416 26.6883 11.5416C28.2312 11.5416 29.482 10.2908 29.482 8.74792C29.482 7.20499 28.2312 5.9542 26.6883 5.9542ZM35.5011 22.5137C35.1224 22.5137 34.8155 22.8206 34.8155 23.1993C34.8155 23.5779 35.1224 23.8849 35.5011 23.8849C35.8797 23.8849 36.1867 23.5779 36.1867 23.1993C36.1867 22.8206 35.8797 22.5137 35.5011 22.5137ZM33.0155 23.1993C33.0155 21.8265 34.1283 20.7137 35.5011 20.7137C36.8738 20.7137 37.9867 21.8265 37.9867 23.1993C37.9867 24.5721 36.8738 25.6849 35.5011 25.6849C34.1283 25.6849 33.0155 24.5721 33.0155 23.1993ZM23.8612 33.9221C23.8612 33.5217 24.1858 33.1971 24.5862 33.1971C24.9866 33.1971 25.3112 33.5217 25.3112 33.9221C25.3112 34.3225 24.9866 34.6471 24.5862 34.6471C24.1858 34.6471 23.8612 34.3225 23.8612 33.9221ZM24.5862 31.3971C23.1916 31.3971 22.0612 32.5275 22.0612 33.9221C22.0612 35.3166 23.1916 36.4471 24.5862 36.4471C25.9807 36.4471 27.1112 35.3166 27.1112 33.9221C27.1112 32.5275 25.9807 31.3971 24.5862 31.3971ZM19.0506 7.72814C18.6126 6.80216 18.1002 6.26246 17.4834 5.98551L24.0609 29.358L24.3 30.2077L23.4551 30.4633C22.9921 30.6033 22.5493 30.84 22.1566 31.1775C20.6521 32.4704 20.4806 34.7382 21.7735 36.2427C23.0786 37.7614 25.4625 37.9671 26.953 36.6862C27.508 36.2093 27.9124 35.6092 28.0659 34.805C28.2224 33.9854 28.1343 32.8676 27.5381 31.3412L27.5336 31.3297L27.5294 31.3181L19.0506 7.72814Z" fill="#5E6E7C"/>
</svg>
