<svg width="41" height="41" viewBox="0 0 41 41" fill="none" xmlns="http://www.w3.org/2000/svg">
<rect x="0.987793" y="0.751282" width="40" height="40" fill="white"/>
<path fill-rule="evenodd" clip-rule="evenodd" d="M3.8934 21.8142C2.68604 23.0216 2.68604 24.9791 3.8934 26.1865L15.5527 37.8458C16.7601 39.0531 18.7176 39.0531 19.9249 37.8458L38.0823 19.6884C38.7448 19.0259 39.0711 18.0988 38.9697 17.1675L37.8245 6.65336C37.6674 5.21089 36.5283 4.07176 35.0858 3.91465L24.5717 2.76948C23.6404 2.66804 22.7133 2.99438 22.0508 3.65682L3.8934 21.8142ZM5.35082 24.7291C4.94836 24.3266 4.94836 23.6741 5.35082 23.2716L23.5082 5.11423C23.729 4.89342 24.0381 4.78464 24.3485 4.81845L34.8626 5.96362C35.3435 6.01599 35.7232 6.3957 35.7755 6.87652L36.9207 17.3907C36.9545 17.7011 36.8457 18.0101 36.6249 18.2309L18.4675 36.3884C18.0651 36.7908 17.4126 36.7908 17.0101 36.3884L5.35082 24.7291ZM30.4742 10.198C30.4742 9.6288 30.9356 9.16741 31.5047 9.16741C32.0739 9.16741 32.5353 9.6288 32.5353 10.198C32.5353 10.7671 32.0739 11.2285 31.5047 11.2285C30.9356 11.2285 30.4742 10.7671 30.4742 10.198ZM31.5047 7.10632C29.7972 7.10632 28.4131 8.49049 28.4131 10.198C28.4131 11.9054 29.7972 13.2896 31.5047 13.2896C33.2122 13.2896 34.5963 11.9054 34.5963 10.198C34.5963 8.49049 33.2122 7.10632 31.5047 7.10632Z" fill="#5E6E7C"/>
</svg>
