<svg width="41" height="41" viewBox="0 0 41 41" fill="none" xmlns="http://www.w3.org/2000/svg">
<rect x="0.987793" y="0.751343" width="40" height="40" fill="white"/>
<path fill-rule="evenodd" clip-rule="evenodd" d="M21.1387 2.76858L20.9878 2.74554L20.8369 2.76858L7.3369 4.82918L6.48779 4.95879V5.81773V17.7526C6.48779 24.3403 9.25661 30.7349 14.5046 34.83C15.7995 35.8405 17.0785 36.7894 18.1518 37.49C18.6869 37.8393 19.1903 38.1397 19.6308 38.3563C20.0259 38.5507 20.522 38.7571 20.9878 38.7571C21.4536 38.7571 21.9497 38.5507 22.3448 38.3563C22.7853 38.1397 23.2886 37.8393 23.8238 37.49C24.8971 36.7894 26.176 35.8405 27.471 34.83C32.719 30.7349 35.4878 24.3403 35.4878 17.7526V5.81773V4.95879L34.6387 4.82918L21.1387 2.76858ZM8.48779 17.7526V6.67668L20.9878 4.76871L33.4878 6.67668V17.7526C33.4878 23.7949 30.9498 29.5786 26.2406 33.2532C24.9617 34.2512 23.7341 35.1601 22.7306 35.8152C22.2274 36.1436 21.7998 36.3956 21.462 36.5617C21.1815 36.6997 21.037 36.7404 20.9948 36.7523L20.9878 36.7543L20.9808 36.7523C20.9386 36.7404 20.7941 36.6997 20.5136 36.5617C20.1758 36.3956 19.7482 36.1436 19.245 35.8152C18.2415 35.1601 17.0139 34.2512 15.735 33.2532C11.0258 29.5786 8.48779 23.7949 8.48779 17.7526ZM21.1373 7.26837L20.9878 7.24575L20.8382 7.26837L11.3382 8.70547L10.4878 8.83411V9.69422V18.929C10.4878 23.6917 12.7496 28.1714 16.582 30.9991L20.394 33.8118L20.9878 34.2499L21.5815 33.8118L25.3936 30.9991C29.226 28.1714 31.4878 23.6917 31.4878 18.929V9.69422V8.83412L30.6374 8.70547L21.1373 7.26837ZM12.4878 10.5543L20.9878 9.2685L29.4878 10.5543V18.929C29.4878 23.0567 27.5276 26.9391 24.2061 29.3898L20.9878 31.7644L17.7694 29.3898C14.448 26.9391 12.4878 23.0567 12.4878 18.929V10.5543Z" fill="#5E6E7C"/>
</svg>
