<svg width="41" height="41" viewBox="0 0 41 41" fill="none" xmlns="http://www.w3.org/2000/svg">
<rect x="0.987793" y="0.751343" width="40" height="40" fill="white"/>
<path fill-rule="evenodd" clip-rule="evenodd" d="M23.3221 2.36442C22.5047 1.54698 21.1793 1.54699 20.3619 2.36442L15.4745 7.25185L14.7245 6.10061C12.6224 2.87321 8.08263 2.39933 5.3592 5.12276C2.63576 7.84619 3.10965 12.386 6.33704 14.4881L7.48829 15.238L2.60085 20.1255C1.78342 20.9429 1.78342 22.2682 2.60085 23.0857L7.11071 27.5955C7.81605 28.3008 8.99176 28.1781 9.5362 27.3423L10.6383 25.6503C12.0145 23.5374 14.9867 23.2271 16.7697 25.0101C18.5527 26.7931 18.2424 29.7653 16.1295 31.1415L14.4376 32.2436C13.6018 32.7881 13.479 33.9638 14.1843 34.6691L18.6535 39.1382C19.4709 39.9557 20.7962 39.9557 21.6136 39.1382L26.5011 34.2508L27.251 35.402C29.3531 38.6295 33.8929 39.1033 36.6164 36.3799C39.3398 33.6565 38.8659 29.1167 35.6385 27.0145L34.4873 26.2646L39.3747 21.3772C40.1921 20.5597 40.1921 19.2344 39.3747 18.417L34.9056 13.9479C34.2003 13.2425 33.0245 13.3653 32.4801 14.2011L31.378 15.893C30.0017 18.0059 27.0296 18.3163 25.2466 16.5333C23.4636 14.7502 23.7739 11.7781 25.8868 10.4018L27.5787 9.29973C28.4145 8.7553 28.5373 7.57958 27.8319 6.87425L23.3221 2.36442ZM21.842 3.8445L25.8956 7.89804L24.7443 8.64793C21.517 10.7501 21.043 15.2899 23.7665 18.0133C26.49 20.7368 31.0297 20.2628 33.1319 17.0355L33.8818 15.8843L37.8946 19.8971L31.182 26.6097L34.4961 28.7684C36.609 30.1447 36.9193 33.1168 35.1363 34.8998C33.3533 36.6828 30.3811 36.3725 29.0049 34.2596L26.8461 30.9456L20.1335 37.6582L16.1207 33.6453L17.272 32.8954C20.4992 30.7933 20.9733 26.2535 18.2498 23.53C15.5263 20.8066 10.9866 21.2806 8.88439 24.5079L8.13451 25.6591L4.08094 21.6056L10.7935 14.893L7.47945 12.7342C5.36656 11.358 5.05627 8.38586 6.83928 6.60285C8.62229 4.81984 11.5944 5.13017 12.9707 7.24305L15.1294 10.5571L21.842 3.8445Z" fill="#5E6E7C"/>
</svg>
