<svg width="41" height="41" viewBox="0 0 41 41" fill="none" xmlns="http://www.w3.org/2000/svg">
<rect x="0.987793" y="0.751282" width="40" height="40" fill="white"/>
<path fill-rule="evenodd" clip-rule="evenodd" d="M5.12109 6.94382C5.12109 5.21333 6.52393 3.81049 8.25443 3.81049H31.8545C33.5114 3.81049 34.8545 5.15363 34.8545 6.81049V35.8286C34.8545 37.0545 33.4637 37.7628 32.4723 37.0417L30.9212 35.9137L28.8701 37.4054C28.3441 37.7879 27.6316 37.7879 27.1056 37.4054L25.0545 35.9137L23.0034 37.4054C22.4775 37.7879 21.7649 37.7879 21.2389 37.4054L19.1879 35.9137L17.1368 37.4054C16.6108 37.7879 15.8982 37.7879 15.3723 37.4054L13.3212 35.9137L11.7701 37.0417C10.7787 37.7628 9.38785 37.0545 9.38785 35.8286V21.3618L6.62373 22.7439C5.93336 23.0891 5.12109 22.587 5.12109 21.8152V6.94382ZM11.3878 19.2105L11.3878 34.8467L12.4389 34.0823C12.9649 33.6998 13.6775 33.6998 14.2034 34.0823L16.2545 35.574L18.3056 34.0823C18.8316 33.6998 19.5441 33.6998 20.0701 34.0823L22.1212 35.574L24.1723 34.0823C24.6982 33.6998 25.4108 33.6998 25.9368 34.0823L27.9879 35.574L30.0389 34.0823C30.5649 33.6998 31.2775 33.6998 31.8034 34.0823L32.8545 34.8467V6.81049C32.8545 6.2582 32.4068 5.81049 31.8545 5.81049H11.1765C11.3129 6.16196 11.3878 6.54415 11.3878 6.94382V19.2105ZM8.25443 5.81049C7.62851 5.81049 7.12109 6.3179 7.12109 6.94382V20.2591L9.38776 19.1258V6.94382C9.38776 6.31793 8.88031 5.81053 8.25443 5.81049ZM16.2211 10.1438C15.9449 10.1438 15.7211 10.3677 15.7211 10.6438V11.7771C15.7211 12.0533 15.9449 12.2771 16.2211 12.2771H19.4877C19.7639 12.2771 19.9877 12.0533 19.9877 11.7771V10.6438C19.9877 10.3677 19.7639 10.1438 19.4877 10.1438H16.2211ZM16.2211 14.4105C15.9449 14.4105 15.7211 14.6344 15.7211 14.9105V16.0438C15.7211 16.32 15.9449 16.5438 16.2211 16.5438H19.4877C19.7639 16.5438 19.9877 16.32 19.9877 16.0438V14.9105C19.9877 14.6344 19.7639 14.4105 19.4877 14.4105H16.2211ZM22.1211 14.9105C22.1211 14.6344 22.345 14.4105 22.6211 14.4105H29.0878C29.3639 14.4105 29.5878 14.6344 29.5878 14.9105V16.0438C29.5878 16.32 29.3639 16.5438 29.0878 16.5438H22.6211C22.345 16.5438 22.1211 16.32 22.1211 16.0438V14.9105ZM16.2211 18.6772C15.9449 18.6772 15.7211 18.901 15.7211 19.1772V20.3105C15.7211 20.5866 15.9449 20.8105 16.2211 20.8105H19.4877C19.7639 20.8105 19.9877 20.5866 19.9877 20.3105V19.1772C19.9877 18.901 19.7639 18.6772 19.4877 18.6772H16.2211ZM22.1211 19.1772C22.1211 18.901 22.345 18.6772 22.6211 18.6772H29.0878C29.3639 18.6772 29.5878 18.901 29.5878 19.1772V20.3105C29.5878 20.5866 29.3639 20.8105 29.0878 20.8105H22.6211C22.345 20.8105 22.1211 20.5866 22.1211 20.3105V19.1772ZM16.2211 22.9438C15.9449 22.9438 15.7211 23.1677 15.7211 23.4438V24.5771C15.7211 24.8533 15.9449 25.0771 16.2211 25.0771H19.4877C19.7639 25.0771 19.9877 24.8533 19.9877 24.5771V23.4438C19.9877 23.1677 19.7639 22.9438 19.4877 22.9438H16.2211ZM25.3212 27.7105C25.3212 27.4343 25.545 27.2105 25.8212 27.2105H29.0878C29.364 27.2105 29.5878 27.4343 29.5878 27.7105V28.8438C29.5878 29.12 29.364 29.3438 29.0878 29.3438H25.8212C25.545 29.3438 25.3212 29.12 25.3212 28.8438V27.7105ZM22.6211 22.9438C22.345 22.9438 22.1211 23.1677 22.1211 23.4438V24.5771C22.1211 24.8533 22.345 25.0771 22.6211 25.0771H29.0878C29.3639 25.0771 29.5878 24.8533 29.5878 24.5771V23.4438C29.5878 23.1677 29.3639 22.9438 29.0878 22.9438H22.6211Z" fill="#5E6E7C"/>
</svg>
