<svg width="41" height="41" viewBox="0 0 41 41" fill="none" xmlns="http://www.w3.org/2000/svg">
<rect x="0.987793" y="0.751343" width="40" height="40" fill="white"/>
<path fill-rule="evenodd" clip-rule="evenodd" d="M17.1338 9.02598L14.5492 4.71828C15.8233 3.83919 17.6226 3.61981 19.8528 3.82013C21.765 3.99189 23.8236 4.45188 25.9034 4.91662C26.3081 5.00704 26.7136 5.09766 27.1189 5.18635C27.1231 5.18726 27.1251 5.18825 27.1251 5.18825L27.1261 5.18891C27.1261 5.18891 27.13 5.1928 27.1321 5.19779C27.1331 5.19998 27.1338 5.20286 27.1338 5.20286L27.1331 5.20418L24.84 9.02598H17.1338ZM15.0634 9.46266L12.7973 5.68589C12.3461 4.93376 12.3933 3.82116 13.2508 3.18812C15.1348 1.79727 17.596 1.60938 20.0317 1.82815C22.0867 2.01273 24.2984 2.50765 26.3753 2.97241C26.7711 3.06098 27.1624 3.14855 27.5464 3.23258C28.8795 3.52426 29.5613 5.04442 28.8481 6.23317L26.9104 9.46264C27.6316 9.9378 28.1076 10.7549 28.1076 11.6832C28.1076 12.7255 27.5076 13.6275 26.6341 14.0629C26.8537 14.4435 27.1589 14.9047 27.5375 15.4447C27.9121 15.979 28.3427 16.5683 28.8113 17.2095L28.9826 17.444C29.5149 18.1729 30.0874 18.9599 30.6595 19.7814C31.8008 21.4202 32.961 23.2245 33.8257 25.0327C34.6838 26.8273 35.2956 28.7162 35.241 30.5041C35.1843 32.3641 34.698 33.9183 33.8452 35.1887C32.995 36.4554 31.8186 37.383 30.467 38.0542C27.7958 39.3806 24.3451 39.7513 20.9956 39.7513C17.6436 39.7513 14.2768 39.3755 11.6468 38.0437C8.93499 36.6704 7.05905 34.302 6.75299 30.555C6.60914 28.7938 7.19238 26.9109 8.03651 25.1253C8.8887 23.3226 10.0607 21.5089 11.221 19.8569C11.8029 19.0283 12.3874 18.2328 12.9323 17.495L13.1526 17.197C13.6152 16.5711 14.0418 15.9941 14.4151 15.4689C14.8046 14.921 15.1195 14.4526 15.3463 14.0662C14.4692 13.6321 13.8662 12.7281 13.8662 11.6832C13.8662 10.7549 14.3422 9.93782 15.0634 9.46266ZM16.5234 11.026C16.1604 11.026 15.8662 11.3202 15.8662 11.6832C15.8662 12.0462 16.1604 12.3404 16.5234 12.3404H25.4504C25.8134 12.3404 26.1076 12.0462 26.1076 11.6832C26.1076 11.3202 25.8134 11.026 25.4504 11.026H16.5234ZM17.4543 14.3405C17.3721 14.5297 17.2729 14.723 17.1645 14.916C16.8804 15.422 16.4883 16.0044 16.0452 16.6277C15.6602 17.1693 15.2211 17.7633 14.7597 18.3875L14.5411 18.6833C13.9972 19.4196 13.4249 20.1988 12.8577 21.0064C11.7196 22.6267 10.6241 24.3312 9.84466 25.98C9.05716 27.6459 8.64471 29.1478 8.74635 30.3922C8.99334 33.4161 10.4318 35.1866 12.5503 36.2594C14.7507 37.3737 17.7303 37.7513 20.9956 37.7513C24.2633 37.7513 27.3319 37.378 29.5775 36.2629C30.6844 35.7133 31.5659 34.9959 32.1847 34.074C32.801 33.1558 33.1951 31.9779 33.242 30.4431C33.2823 29.1205 32.8231 27.5721 32.0214 25.8955C31.2261 24.2325 30.1376 22.5317 29.0183 20.9244C28.4601 20.1229 27.8993 19.3517 27.3675 18.6236L27.1957 18.3885C26.7295 17.7505 26.2865 17.1443 25.8999 16.5929C25.4683 15.9773 25.0868 15.4018 24.8105 14.9006C24.7154 14.7282 24.6176 14.5388 24.533 14.3405H20.9956H17.4543Z" fill="#5E6E7C"/>
</svg>
