<svg width="41" height="41" viewBox="0 0 41 41" fill="none" xmlns="http://www.w3.org/2000/svg">
<rect x="0.987793" y="0.751282" width="40" height="40" fill="white"/>
<path fill-rule="evenodd" clip-rule="evenodd" d="M5.98779 4.50128C5.98779 3.39671 6.88322 2.50128 7.98779 2.50128H33.9878C35.0924 2.50128 35.9878 3.39671 35.9878 4.50128V37.5013C35.9878 38.3297 35.3162 39.0013 34.4878 39.0013H31.4878C30.6594 39.0013 29.9878 38.3297 29.9878 37.5013V36.0013H11.9878V37.5013C11.9878 38.3297 11.3162 39.0013 10.4878 39.0013H7.48779C6.65937 39.0013 5.98779 38.3297 5.98779 37.5013V4.50128ZM33.9878 4.50128L7.98779 4.50128V37.0013H9.98779V36.0013C9.98779 34.8967 10.8832 34.0013 11.9878 34.0013H29.9878C31.0924 34.0013 31.9878 34.8967 31.9878 36.0013V37.0013H33.9878V4.50128ZM9.98779 6.50128H10.9878H30.9878H31.9878V7.50128V31.0013V32.0013H30.9878H10.9878H9.98779V31.0013V7.50128V6.50128ZM11.9878 8.50128V30.0013H29.9878V23.5013C29.4355 23.5013 28.9878 23.0536 28.9878 22.5013V16.0013C28.9878 15.449 29.4355 15.0013 29.9878 15.0013V8.50128H11.9878ZM18.4878 19.0013C18.4878 17.6206 19.6071 16.5013 20.9878 16.5013C22.3685 16.5013 23.4878 17.6206 23.4878 19.0013C23.4878 20.382 22.3685 21.5013 20.9878 21.5013C19.6071 21.5013 18.4878 20.382 18.4878 19.0013ZM20.9878 14.5013C18.5025 14.5013 16.4878 16.516 16.4878 19.0013C16.4878 21.4866 18.5025 23.5013 20.9878 23.5013C23.4731 23.5013 25.4878 21.4866 25.4878 19.0013C25.4878 16.516 23.4731 14.5013 20.9878 14.5013ZM21.9878 19.0013C21.9878 19.5536 21.5401 20.0013 20.9878 20.0013C20.4355 20.0013 19.9878 19.5536 19.9878 19.0013C19.9878 18.449 20.4355 18.0013 20.9878 18.0013C21.5401 18.0013 21.9878 18.449 21.9878 19.0013Z" fill="#5E6E7C"/>
</svg>
