<svg width="41" height="41" viewBox="0 0 41 41" fill="none" xmlns="http://www.w3.org/2000/svg">
<rect x="0.987793" y="0.751282" width="40" height="40" fill="white"/>
<path fill-rule="evenodd" clip-rule="evenodd" d="M10.9878 4.25128C10.9878 3.42285 11.6594 2.75128 12.4878 2.75128H29.4878C30.3162 2.75128 30.9878 3.42285 30.9878 4.25128V6.25128C30.9878 6.90439 30.5704 7.46001 29.9878 7.66593V12.266C29.9878 14.1225 29.2503 15.903 27.9375 17.2157L25.1091 20.0442C24.7186 20.4347 24.7186 21.0679 25.1091 21.4584L27.9375 24.2868C29.2503 25.5996 29.9878 27.38 29.9878 29.2366V33.8366C30.5704 34.0426 30.9878 34.5982 30.9878 35.2513V37.2513C30.9878 38.0797 30.3162 38.7513 29.4878 38.7513H12.4878C11.6594 38.7513 10.9878 38.0797 10.9878 37.2513V35.2513C10.9878 34.5982 11.4052 34.0426 11.9878 33.8366V29.2366C11.9878 27.38 12.7253 25.5996 14.038 24.2868L16.8665 21.4584C17.257 21.0679 17.257 20.4347 16.8665 20.0442L14.038 17.2157C12.7253 15.903 11.9878 14.1225 11.9878 12.266V7.66593C11.4052 7.46001 10.9878 6.90439 10.9878 6.25128V4.25128ZM13.9878 35.7513H12.9878V36.7513H28.9878V35.7513H27.9878H13.9878ZM13.9878 31.7513L20.3878 26.9513L20.9878 26.5013L21.5878 26.9513L27.9878 31.7513V29.2366C27.9878 27.9105 27.461 26.6387 26.5233 25.701L23.6949 22.8726C22.5233 21.701 22.5233 19.8015 23.6949 18.63L26.5233 15.8015C27.0936 15.2312 27.5119 14.5373 27.7522 13.7828C26.5435 13.8435 25.4055 13.985 24.314 14.1467C23.8856 14.2102 23.4573 14.2781 23.0322 14.3454C22.0408 14.5025 21.0666 14.6569 20.1474 14.7466C18.1127 14.9451 16.1599 14.8494 14.243 13.843C14.486 14.5742 14.8971 15.2464 15.4523 15.8015L18.2807 18.63C19.4523 19.8015 19.4523 21.701 18.2807 22.8726L15.4523 25.701C14.5146 26.6387 13.9878 27.9105 13.9878 29.2366V31.7513ZM27.3211 33.7513L20.9878 29.0013L14.6545 33.7513H27.3211ZM19.9532 12.756C17.6829 12.9775 15.8384 12.7763 13.9878 11.288V7.75128H27.9878V11.7705C26.5577 11.825 25.2391 11.9879 24.0209 12.1683C23.5428 12.2392 23.0875 12.3114 22.6492 12.3809L22.6492 12.3809L22.6491 12.3809C21.6891 12.5331 20.8108 12.6723 19.9532 12.756ZM28.9878 4.75128V5.75128H27.9878H13.9878H12.9878V4.75128H28.9878Z" fill="#5E6E7C"/>
</svg>
