<svg width="41" height="41" viewBox="0 0 41 41" fill="none" xmlns="http://www.w3.org/2000/svg">
<path d="M0.987793 0.751282H40.9878V40.7513H0.987793V0.751282Z" fill="white"/>
<path fill-rule="evenodd" clip-rule="evenodd" d="M20.9878 4.82312C19.6335 4.82312 18.5357 5.92094 18.5357 7.27518C18.5357 8.00132 18.8501 8.6527 19.3533 9.10311L19.6864 9.40123V9.84825V31.5903H22.2891V9.84825V9.40123L22.6222 9.10311C23.1255 8.6527 23.4398 8.00132 23.4398 7.27518C23.4398 5.92094 22.342 4.82312 20.9878 4.82312ZM17.6864 10.2621V31.5903H16.0837C14.4268 31.5903 13.0837 32.9334 13.0837 34.5903V36.1931H11.7823C11.23 36.1931 10.7823 36.6408 10.7823 37.1931C10.7823 37.7453 11.23 38.1931 11.7823 38.1931H14.0837H27.8919H30.1933C30.7456 38.1931 31.1933 37.7453 31.1933 37.1931C31.1933 36.6408 30.7456 36.1931 30.1933 36.1931H28.8919V34.5903C28.8919 32.9334 27.5488 31.5903 25.8919 31.5903H24.2891V10.2621C24.7897 9.70903 25.1539 9.02855 25.3269 8.27521H31.5275C31.6535 9.08112 32.1327 9.77 32.8016 10.1786L27.5728 20.6362L27.4867 20.8084L27.4682 21.0348C27.4682 21.0348 27.4654 21.0775 27.4637 21.1082C27.4605 21.1695 27.457 21.2553 27.455 21.3622C27.4512 21.5754 27.4538 21.8745 27.4786 22.2314C27.5277 22.9391 27.6659 23.9046 28.0341 24.8866C28.4032 25.8711 29.0178 26.9087 30.0393 27.6995C31.072 28.499 32.4453 28.9876 34.2207 28.9876C35.9961 28.9876 37.3694 28.499 38.4021 27.6995C39.4236 26.9087 40.0382 25.8711 40.4073 24.8866C40.7755 23.9046 40.9138 22.9391 40.9629 22.2314C40.9876 21.8745 40.9902 21.5754 40.9864 21.3622C40.9845 21.2553 40.9809 21.1695 40.9777 21.1082C40.9761 21.0775 40.9745 21.0529 40.9733 21.0348L40.9547 20.8084L40.8686 20.6362L35.6397 10.1785C36.4235 9.69974 36.9467 8.83624 36.9467 7.85055V7.27521C36.9467 6.72292 36.4989 6.27521 35.9467 6.27521C35.3944 6.27521 34.9467 6.72292 34.9467 7.27521V7.85055C34.9467 8.25153 34.6216 8.57658 34.2206 8.57658C33.8196 8.57658 33.4946 8.25153 33.4946 7.85055V7.73548C33.4946 6.92899 32.8408 6.27521 32.0343 6.27521H25.3271C24.8733 4.2979 23.1028 2.82312 20.9878 2.82312C18.8728 2.82312 17.1022 4.2979 16.6484 6.27521H9.94121C9.13472 6.27521 8.48093 6.92899 8.48093 7.73548V7.85055C8.48093 8.25153 8.15588 8.57658 7.7549 8.57658C7.35392 8.57658 7.02887 8.25153 7.02887 7.85055V7.27521C7.02887 6.72292 6.58115 6.27521 6.02887 6.27521C5.47658 6.27521 5.02887 6.72292 5.02887 7.27521V7.85055C5.02887 8.83626 5.55204 9.69978 6.33585 10.1786L1.10702 20.6362L1.02092 20.8084L1.00237 21.0348C1.00237 21.0348 0.999544 21.0775 0.997922 21.1082C0.994678 21.1695 0.99114 21.2553 0.989223 21.3622C0.985396 21.5754 0.98799 21.8745 1.01274 22.2314C1.06183 22.9391 1.20007 23.9046 1.56828 24.8866C1.93741 25.8711 2.55199 26.9087 3.57352 27.6995C4.60616 28.499 5.9795 28.9876 7.75489 28.9876C9.53027 28.9876 10.9036 28.499 11.9363 27.6995C12.9578 26.9087 13.5724 25.8711 13.9415 24.8866C14.3097 23.9046 14.4479 22.9391 14.497 22.2314C14.5218 21.8745 14.5244 21.5754 14.5206 21.3622C14.5186 21.2553 14.5151 21.1695 14.5119 21.1082C14.5102 21.0775 14.5087 21.0529 14.5074 21.0348L14.4889 20.8084L14.4028 20.6362L9.17393 10.1786C9.84289 9.76996 10.322 9.0811 10.4481 8.27521H16.6486C16.8217 9.02855 17.1858 9.70903 17.6864 10.2621ZM16.0837 33.5903L17.6864 33.5903H18.6864H23.2891H24.2891L25.8919 33.5903C26.4442 33.5903 26.8919 34.038 26.8919 34.5903V36.1931H15.0837V34.5903C15.0837 34.038 15.5314 33.5903 16.0837 33.5903ZM20.9878 8.42586C21.6233 8.42586 22.1385 7.91068 22.1385 7.27517C22.1385 6.63966 21.6233 6.12448 20.9878 6.12448C20.3523 6.12448 19.8371 6.63966 19.8371 7.27517C19.8371 7.91068 20.3523 8.42586 20.9878 8.42586ZM3.61948 20.0834L7.75489 11.8126L11.8903 20.0834H3.61948ZM3.00795 22.093C3.04865 22.6798 3.16201 23.4404 3.44097 24.1844C3.71902 24.926 4.14721 25.6144 4.79784 26.1181C5.43736 26.6132 6.36555 26.9876 7.75489 26.9876C9.14422 26.9876 10.0724 26.6132 10.7119 26.1181C11.3626 25.6144 11.7908 24.926 12.0688 24.1844C12.3478 23.4404 12.4611 22.6798 12.5018 22.093H3.00795ZM34.2207 11.8126L30.0853 20.0834H38.3561L34.2207 11.8126ZM29.4738 22.093L29.4731 22.0834H38.9683L38.9676 22.093C38.9269 22.6798 38.8136 23.4404 38.5346 24.1844C38.2566 24.926 37.8284 25.6144 37.1778 26.1181C36.5382 26.6132 35.61 26.9876 34.2207 26.9876C32.8314 26.9876 31.9032 26.6132 31.2637 26.1181C30.613 25.6144 30.1848 24.926 29.9068 24.1844C29.6278 23.4404 29.5145 22.6798 29.4738 22.093Z" fill="#5E6E7C"/>
</svg>
