<svg width="41" height="41" viewBox="0 0 41 41" fill="none" xmlns="http://www.w3.org/2000/svg">
<rect x="0.987793" y="0.751343" width="40" height="40" fill="white"/>
<path fill-rule="evenodd" clip-rule="evenodd" d="M16.6484 5.0592C16.8174 4.21445 17.5591 3.60638 18.4206 3.60638H23.555C24.4165 3.60638 25.1582 4.21445 25.3271 5.0592L25.8576 7.71154C26.1651 7.82642 26.4674 7.95186 26.7641 8.08741L29.0147 6.58706C29.7315 6.1092 30.6859 6.20371 31.2951 6.81286L34.9256 10.4434C35.5348 11.0526 35.6293 12.007 35.1514 12.7238L33.6513 14.9741C33.787 15.2711 33.9126 15.5737 34.0276 15.8815L36.6799 16.412C37.5247 16.5809 38.1327 17.3226 38.1327 18.1841V23.3185C38.1327 24.18 37.5247 24.9217 36.6799 25.0907L34.0276 25.6211C33.9126 25.9288 33.7871 26.2313 33.6515 26.5282L35.152 28.779C35.6299 29.4958 35.5354 30.4502 34.9262 31.0594L31.2957 34.69C30.6865 35.2991 29.7321 35.3936 29.0153 34.9158L26.7643 33.4152C26.4676 33.5507 26.1652 33.6762 25.8576 33.7911L25.3271 36.4435C25.1582 37.2882 24.4165 37.8963 23.555 37.8963H18.4206C17.5591 37.8963 16.8174 37.2882 16.6484 36.4435L16.118 33.7911C15.8102 33.6761 15.5077 33.5506 15.2108 33.415L12.9594 34.9159C12.2426 35.3937 11.2882 35.2992 10.679 34.69L7.04845 31.0595C6.43929 30.4503 6.34479 29.4959 6.82265 28.7791L8.32374 26.5274C8.18824 26.2308 8.06284 25.9286 7.94799 25.6211L5.29565 25.0907C4.4509 24.9217 3.84283 24.18 3.84283 23.3185V18.1841C3.84283 17.3226 4.4509 16.5809 5.29565 16.412L7.94799 15.8815C8.0629 15.5739 8.18836 15.2716 8.32393 14.9748L6.82325 12.7238C6.34539 12.007 6.4399 11.0525 7.04906 10.4434L10.6796 6.81279C11.2888 6.20363 12.2432 6.10912 12.96 6.58699L15.211 8.08761C15.5078 7.95199 15.8103 7.82648 16.118 7.71154L16.6484 5.0592ZM18.5786 5.60638L17.8525 9.23688L17.2962 9.41797C16.7043 9.61062 16.1327 9.84841 15.5854 10.1273L15.0637 10.3932L11.9821 8.33874L8.57501 11.7458L10.6295 14.8275L10.3637 15.3491C10.0848 15.8964 9.84704 16.4679 9.65442 17.0597L9.47334 17.616L5.84284 18.3421L5.84283 23.1605L9.47333 23.8866L9.65442 24.4429C9.84699 25.0346 10.0847 25.606 10.3635 26.1531L10.6292 26.6747L8.5744 29.757L11.9815 33.1641L15.0636 31.1094L15.5852 31.3752C16.1326 31.6542 16.7042 31.892 17.2962 32.0847L17.8525 32.2658L18.5786 35.8963H23.397L24.1231 32.2658L24.6794 32.0847C25.2712 31.8921 25.8427 31.6543 26.39 31.3754L26.9116 31.1096L29.9932 33.164L33.4003 29.7569L31.3459 26.6754L31.6118 26.1538C31.8907 25.6064 32.1285 25.0348 32.3211 24.4429L32.5022 23.8866L36.1327 23.1605V18.3421L32.5022 17.616L32.3211 17.0597C32.1284 16.4677 31.8906 15.8959 31.6116 15.3485L31.3457 14.8269L33.3997 11.7459L29.9926 8.33882L26.9114 10.3929L26.3898 10.1271C25.8426 9.84829 25.2711 9.61057 24.6794 9.41796L24.1231 9.23688L23.397 5.60638H18.5786ZM20.9878 16.7513C18.7787 16.7513 16.9878 18.5422 16.9878 20.7513C16.9878 22.9605 18.7787 24.7513 20.9878 24.7513C23.1969 24.7513 24.9878 22.9605 24.9878 20.7513C24.9878 18.5422 23.1969 16.7513 20.9878 16.7513ZM14.9878 20.7513C14.9878 17.4376 17.6741 14.7513 20.9878 14.7513C24.3015 14.7513 26.9878 17.4376 26.9878 20.7513C26.9878 24.065 24.3015 26.7513 20.9878 26.7513C17.6741 26.7513 14.9878 24.065 14.9878 20.7513ZM13.1919 20.7513C13.1919 16.4872 16.6486 13.0305 20.9127 13.0305C25.1768 13.0305 28.6336 16.4872 28.6336 20.7513C28.6336 25.0154 25.1768 28.4722 20.9127 28.4722C16.6486 28.4722 13.1919 25.0154 13.1919 20.7513ZM20.9127 11.0305C15.5441 11.0305 11.1919 15.3827 11.1919 20.7513C11.1919 26.12 15.5441 30.4722 20.9127 30.4722C26.2814 30.4722 30.6336 26.12 30.6336 20.7513C30.6336 15.3827 26.2814 11.0305 20.9127 11.0305Z" fill="#5E6E7C"/>
</svg>
