<svg width="41" height="41" viewBox="0 0 41 41" fill="none" xmlns="http://www.w3.org/2000/svg">
<rect x="0.987793" y="0.751282" width="40" height="40" fill="white"/>
<path fill-rule="evenodd" clip-rule="evenodd" d="M15.7497 11.5846C15.7497 8.69171 18.0949 6.34652 20.9878 6.34652C23.8807 6.34652 26.2259 8.69171 26.2259 11.5846V11.8465H15.7497V11.5846ZM13.6544 11.8465V11.5846C13.6544 7.53452 16.9377 4.25128 20.9878 4.25128C25.0378 4.25128 28.3211 7.53452 28.3211 11.5846V11.8465H34.5574C35.7524 11.8465 36.7054 12.8444 36.6505 14.0381L35.6738 35.2524C35.6223 36.3709 34.7005 37.2513 33.5807 37.2513H8.39479C7.27504 37.2513 6.35326 36.3709 6.30172 35.2524L5.32501 14.0381C5.27009 12.8444 6.22307 11.8465 7.41808 11.8465H13.6544ZM8.39479 35.156L7.41808 13.9418H34.5574L33.5807 35.156H8.39479ZM15.7497 16.8227C15.7497 17.4013 15.2807 17.8703 14.702 17.8703C14.1234 17.8703 13.6544 17.4013 13.6544 16.8227C13.6544 16.2441 14.1234 15.7751 14.702 15.7751C15.2807 15.7751 15.7497 16.2441 15.7497 16.8227ZM27.2735 17.8703C27.8521 17.8703 28.3211 17.4013 28.3211 16.8227C28.3211 16.2441 27.8521 15.7751 27.2735 15.7751C26.6949 15.7751 26.2259 16.2441 26.2259 16.8227C26.2259 17.4013 26.6949 17.8703 27.2735 17.8703Z" fill="#5E6E7C"/>
</svg>
