<svg width="41" height="41" viewBox="0 0 41 41" fill="none" xmlns="http://www.w3.org/2000/svg">
<rect x="0.987793" y="0.751282" width="40" height="40" fill="white"/>
<path fill-rule="evenodd" clip-rule="evenodd" d="M2.09714 6.24686C2.09714 5.69458 2.54483 5.24686 3.09714 5.24686H5.16C6.5007 5.24686 7.6622 6.13309 8.03555 7.39117H36.7221C37.9842 7.39117 38.9308 8.54581 38.6832 9.78339L35.8598 23.9006C35.6792 24.8035 34.9054 25.4665 33.9855 25.5065L11.294 26.493L11.6906 28.8341L14.3547 28.8341L30.4369 28.8341C32.7655 28.8341 34.6533 30.7219 34.6533 33.0505C34.6533 35.3792 32.7655 37.267 30.4369 37.267C28.1082 37.267 26.2204 35.3792 26.2204 33.0505C26.2204 32.2374 26.4506 31.4781 26.8493 30.8341H17.9422C18.341 31.4781 18.5711 32.2374 18.5711 33.0505C18.5711 35.3792 16.6834 37.267 14.3547 37.267C12.026 37.267 10.1382 35.3792 10.1382 33.0505C10.1382 32.1639 10.4118 31.3413 10.8793 30.6624C10.2824 30.3971 9.83377 29.8468 9.71878 29.1682L6.14597 8.0798C6.06448 7.59885 5.6478 7.24686 5.16 7.24686H3.09714C2.54483 7.24686 2.09714 6.79913 2.09714 6.24686ZM12.1382 33.0505C12.1382 31.8264 13.1306 30.8341 14.3547 30.8341C15.5788 30.8341 16.5711 31.8264 16.5711 33.0505C16.5711 34.2746 15.5788 35.267 14.3547 35.267C13.1306 35.267 12.1382 34.2746 12.1382 33.0505ZM30.4369 30.8341C29.2128 30.8341 28.2204 31.8264 28.2204 33.0505C28.2204 34.2746 29.2128 35.267 30.4369 35.267C31.661 35.267 32.6533 34.2746 32.6533 33.0505C32.6533 31.8264 31.661 30.8341 30.4369 30.8341ZM10.9574 24.5058L8.39658 9.39117H36.7221L33.8987 23.5084L10.9574 24.5058ZM14.3546 34.0813C14.9239 34.0813 15.3854 33.6198 15.3854 33.0505C15.3854 32.4813 14.9239 32.0198 14.3546 32.0198C13.7854 32.0198 13.3239 32.4813 13.3239 33.0505C13.3239 33.6198 13.7854 34.0813 14.3546 34.0813ZM31.4676 33.0505C31.4676 33.6198 31.0061 34.0813 30.4369 34.0813C29.8676 34.0813 29.4061 33.6198 29.4061 33.0505C29.4061 32.4813 29.8676 32.0198 30.4369 32.0198C31.0061 32.0198 31.4676 32.4813 31.4676 33.0505ZM13.1496 13.1735C13.1496 12.6212 13.5973 12.1735 14.1496 12.1735C14.7019 12.1735 15.1496 12.6212 15.1496 13.1735V14.7812C15.1496 15.3335 14.7019 15.7812 14.1496 15.7812C13.5973 15.7812 13.1496 15.3335 13.1496 14.7812V13.1735ZM17.2727 13.1735C17.2727 12.6212 17.7204 12.1735 18.2727 12.1735C18.825 12.1735 19.2727 12.6212 19.2727 13.1735V14.7812C19.2727 15.3335 18.825 15.7812 18.2727 15.7812C17.7204 15.7812 17.2727 15.3335 17.2727 14.7812V13.1735ZM22.3958 12.1735C21.8435 12.1735 21.3958 12.6212 21.3958 13.1735V14.7812C21.3958 15.3335 21.8435 15.7812 22.3958 15.7812C22.948 15.7812 23.3958 15.3335 23.3958 14.7812V13.1735C23.3958 12.6212 22.948 12.1735 22.3958 12.1735ZM25.5189 13.1735C25.5189 12.6212 25.9666 12.1735 26.5189 12.1735C27.0711 12.1735 27.5189 12.6212 27.5189 13.1735V14.7812C27.5189 15.3335 27.0711 15.7812 26.5189 15.7812C25.9666 15.7812 25.5189 15.3335 25.5189 14.7812V13.1735ZM30.6419 12.1735C30.0896 12.1735 29.6419 12.6212 29.6419 13.1735V14.7812C29.6419 15.3335 30.0896 15.7812 30.6419 15.7812C31.1942 15.7812 31.6419 15.3335 31.6419 14.7812V13.1735C31.6419 12.6212 31.1942 12.1735 30.6419 12.1735ZM13.1496 18.3274C13.1496 17.7751 13.5973 17.3274 14.1496 17.3274C14.7019 17.3274 15.1496 17.7751 15.1496 18.3274V19.935C15.1496 20.4873 14.7019 20.9351 14.1496 20.9351C13.5973 20.9351 13.1496 20.4873 13.1496 19.935V18.3274ZM18.2727 17.3274C17.7204 17.3274 17.2727 17.7751 17.2727 18.3274V19.935C17.2727 20.4873 17.7204 20.9351 18.2727 20.9351C18.825 20.9351 19.2727 20.4873 19.2727 19.935V18.3274C19.2727 17.7751 18.825 17.3274 18.2727 17.3274ZM21.3958 18.3274C21.3958 17.7751 21.8435 17.3274 22.3958 17.3274C22.948 17.3274 23.3958 17.7751 23.3958 18.3274V19.935C23.3958 20.4873 22.948 20.9351 22.3958 20.9351C21.8435 20.9351 21.3958 20.4873 21.3958 19.935V18.3274ZM26.5189 17.3274C25.9666 17.3274 25.5189 17.7751 25.5189 18.3274V19.935C25.5189 20.4873 25.9666 20.9351 26.5189 20.9351C27.0711 20.9351 27.5189 20.4873 27.5189 19.935V18.3274C27.5189 17.7751 27.0711 17.3274 26.5189 17.3274ZM29.6419 18.3274C29.6419 17.7751 30.0896 17.3274 30.6419 17.3274C31.1942 17.3274 31.6419 17.7751 31.6419 18.3274V19.935C31.6419 20.4873 31.1942 20.9351 30.6419 20.9351C30.0896 20.9351 29.6419 20.4873 29.6419 19.935V18.3274Z" fill="#5E6E7C"/>
</svg>
