<svg width="41" height="41" viewBox="0 0 41 41" fill="none" xmlns="http://www.w3.org/2000/svg">
<rect x="0.987793" y="0.751282" width="40" height="40" fill="white"/>
<path fill-rule="evenodd" clip-rule="evenodd" d="M8.69922 5.3849C8.95331 4.87673 9.4727 4.55573 10.0409 4.55573H31.9347C32.5029 4.55573 33.0223 4.87673 33.2764 5.3849L37.5878 14.0077C37.6919 14.216 37.7461 14.4457 37.7461 14.6785V17.4373C37.7461 18.1364 37.2678 18.7239 36.6205 18.8902V35.4468C36.6205 36.2752 35.949 36.9468 35.1205 36.9468H6.85506C6.02663 36.9468 5.35506 36.2752 5.35506 35.4468V18.8902C4.70779 18.7239 4.22946 18.1364 4.22946 17.4373V14.6785C4.22946 14.4457 4.28368 14.216 4.38782 14.0077L8.69922 5.3849ZM7.35506 18.9373H8.8414L8.8414 34.9468H7.35506V18.9373ZM10.8414 25.942L10.8414 18.9373H31.079V25.942L10.8414 25.942ZM31.079 27.942L10.8414 27.942L10.8414 34.9468H31.079V27.942ZM33.079 34.9468H34.6205V18.9373H33.079V34.9468ZM10.3499 6.55573L6.22946 14.7966V16.9373H9.85744V14.5605V14.3791L9.92111 14.2094L12.7912 6.55573H10.3499ZM16.611 16.9373H11.8574V14.7418L14.9272 6.55573H17.6038L16.6187 14.4364L16.611 14.4982V14.5605V16.9373ZM25.3646 16.9373H30.1182V14.7418L27.0484 6.55573H24.3718L25.3569 14.4364L25.3646 14.4982V14.5605V16.9373ZM23.3646 16.9373V14.6227L22.3562 6.55573H19.6194L18.611 14.6227V16.9373H23.3646ZM35.7461 16.9373H32.1182V14.5605V14.3791L32.0545 14.2094L29.1844 6.55573H31.6257L35.7461 14.7966V16.9373Z" fill="#5E6E7C"/>
</svg>
