<svg width="41" height="41" viewBox="0 0 41 41" fill="none" xmlns="http://www.w3.org/2000/svg">
<rect x="0.987793" y="0.751282" width="40" height="40" fill="white"/>
<path fill-rule="evenodd" clip-rule="evenodd" d="M8.4756 6.21574C9.01667 5.30762 9.99574 4.75128 11.0528 4.75128H30.9228C31.9799 4.75128 32.9589 5.30762 33.5 6.21574L37.4408 12.8299C37.8097 13.4491 38.0045 14.1565 38.0045 14.8773V18.7179C38.0045 19.5464 37.3329 20.2179 36.5045 20.2179H36.4545V34.7513C36.4545 35.8559 35.559 36.7513 34.4545 36.7513H7.52112C6.41655 36.7513 5.52112 35.8559 5.52112 34.7513V20.2179H5.47113C4.6427 20.2179 3.97113 19.5464 3.97113 18.7179V14.8773C3.97113 14.1565 4.16589 13.4491 4.53483 12.8299L8.4756 6.21574ZM7.52112 20.2179V34.7513H9.65448V29.0346V23.3346C9.65448 22.5062 10.3261 21.8346 11.1545 21.8346H30.8211C31.6495 21.8346 32.3211 22.5062 32.3211 23.3346V34.718H30.3211V23.8346H19.4045V34.7513H34.4545V20.2179H29.2545H12.7211H7.52112ZM17.4045 34.7513V34.718L17.4044 23.8346H11.6545V29.0346V34.7513H17.4045ZM11.0528 6.75128C10.7005 6.75128 10.3741 6.93673 10.1937 7.23943L6.25298 13.8536C6.06851 14.1632 5.97113 14.5169 5.97113 14.8773V18.2179H11.7211V15.0513C11.7211 13.9467 12.6166 13.0513 13.7211 13.0513H28.2545C29.359 13.0513 30.2545 13.9467 30.2545 15.0513V18.2179H36.0045V14.8773C36.0045 14.5169 35.9071 14.1632 35.7226 13.8536L31.7818 7.23943C31.6015 6.93673 31.2751 6.75128 30.9228 6.75128H11.0528ZM28.2545 18.2179V15.0513H13.7211V18.2179H28.2545Z" fill="#5E6E7C"/>
</svg>
