<svg width="41" height="41" viewBox="0 0 41 41" fill="none" xmlns="http://www.w3.org/2000/svg">
<rect x="0.987793" y="0.751282" width="40" height="40" fill="white"/>
<path fill-rule="evenodd" clip-rule="evenodd" d="M31.7211 2.56274C32.8257 2.56274 33.7211 3.45817 33.7211 4.56274V7.78648L37.8835 33.2209C37.9957 33.9068 37.7428 34.6625 37.0927 35.1016C36.2074 35.6997 34.2267 36.842 30.9647 37.7257C28.4324 38.4117 25.1352 38.9398 20.9878 38.9398C16.8404 38.9398 13.5432 38.4117 11.0109 37.7257C7.74888 36.8421 5.76821 35.6997 4.88286 35.1016C4.2328 34.6625 3.97989 33.9068 4.09214 33.221L8.25447 7.78648V4.56275C8.25447 3.45818 9.1499 2.56275 10.2545 2.56275L31.7211 2.56274ZM10.1041 8.86777L6.07432 33.4924C6.73354 33.9284 8.15051 34.7443 10.4379 35.4729L13.3821 13.7735C13.4563 13.2263 13.9602 12.8428 14.5075 12.9171C15.0547 12.9913 15.4382 13.4952 15.3639 14.0424L12.3832 36.0111C14.4085 36.4927 16.928 36.8621 19.9878 36.929V15.5089C19.9878 14.9567 20.4355 14.5089 20.9878 14.5089C21.5401 14.5089 21.9878 14.9567 21.9878 15.5089V36.929C25.0461 36.8621 27.5647 36.4931 29.5895 36.0118L26.535 14.0457C26.4589 13.4987 26.8407 12.9936 27.3877 12.9175C27.9347 12.8415 28.4399 13.2232 28.5159 13.7703L31.5339 35.4741C33.8236 34.7452 35.2417 33.9287 35.9013 33.4924L31.8715 8.86776L10.1041 8.86777ZM31.7211 6.86776V4.56274L10.2545 4.56275V6.86777L31.7211 6.86776Z" fill="#5E6E7C"/>
</svg>
