<svg width="41" height="41" viewBox="0 0 41 41" fill="none" xmlns="http://www.w3.org/2000/svg">
<rect x="0.987793" y="0.751343" width="40" height="40" fill="white"/>
<path fill-rule="evenodd" clip-rule="evenodd" d="M12.4878 3.75134C11.9355 3.75134 11.4878 4.19906 11.4878 4.75134V7.75134L30.4878 7.75134V4.75134C30.4878 4.19906 30.0401 3.75134 29.4878 3.75134H12.4878ZM9.48779 4.75134V8.75134V32.7513V36.7513C9.48779 38.4082 10.8309 39.7513 12.4878 39.7513H29.4878C31.1446 39.7513 32.4878 38.4082 32.4878 36.7513V32.7513V8.75134V4.75134C32.4878 3.09449 31.1446 1.75134 29.4878 1.75134H12.4878C10.8309 1.75134 9.48779 3.09449 9.48779 4.75134ZM30.4878 31.7513V9.75134L11.4878 9.75134V31.7513L30.4878 31.7513ZM11.4878 33.7513H30.4878V36.7513C30.4878 37.3036 30.0401 37.7513 29.4878 37.7513H12.4878C11.9355 37.7513 11.4878 37.3036 11.4878 36.7513V33.7513ZM22.4878 35.7513C22.4878 36.5798 21.8162 37.2513 20.9878 37.2513C20.1594 37.2513 19.4878 36.5798 19.4878 35.7513C19.4878 34.9229 20.1594 34.2513 20.9878 34.2513C21.8162 34.2513 22.4878 34.9229 22.4878 35.7513ZM18.4878 4.75134C17.9355 4.75134 17.4878 5.19906 17.4878 5.75134C17.4878 6.30363 17.9355 6.75134 18.4878 6.75134L23.4878 6.75134C24.0401 6.75134 24.4878 6.30363 24.4878 5.75134C24.4878 5.19906 24.0401 4.75134 23.4878 4.75134L18.4878 4.75134Z" fill="#5E6E7C"/>
</svg>
