<svg width="41" height="41" viewBox="0 0 41 41" fill="none" xmlns="http://www.w3.org/2000/svg">
<rect x="0.987793" y="0.751343" width="40" height="40" fill="white"/>
<path fill-rule="evenodd" clip-rule="evenodd" d="M12.6292 4.00134C12.6292 2.48256 13.8605 1.25134 15.3792 1.25134H25.816C26.2452 1.25134 26.6694 1.34343 27.0599 1.5214L31.3171 3.46126C32.674 4.07952 33.2945 5.66362 32.7185 7.03894C32.1091 8.49438 30.4056 9.14355 28.9821 8.4629L25.4025 6.75134H24.0422V8.25134H24.5422C26.1991 8.25134 27.5422 9.59449 27.5422 11.2513V12.276C30.0689 12.5269 32.0422 14.6587 32.0422 17.2513V35.2513C32.0422 38.0128 29.8037 40.2513 27.0422 40.2513H14.0422C11.2808 40.2513 9.04224 38.0128 9.04224 35.2513V17.2513C9.04224 14.6587 11.0156 12.5269 13.5422 12.276V11.2513C13.5422 9.59449 14.8854 8.25134 16.5422 8.25134H18.0422V6.75134H15.3792C13.8605 6.75134 12.6292 5.52013 12.6292 4.00134ZM20.0422 6.75134H22.0422V8.25134H20.0422V6.75134ZM15.3792 3.25134C14.965 3.25134 14.6292 3.58713 14.6292 4.00134C14.6292 4.41556 14.965 4.75134 15.3792 4.75134H25.6292H25.856L26.0606 4.84917L29.8448 6.65855C30.2368 6.84598 30.7059 6.66722 30.8738 6.26643C31.0323 5.8877 30.8615 5.45148 30.4878 5.28123L26.2307 3.34136C26.1005 3.28204 25.9591 3.25134 25.816 3.25134H15.3792ZM15.5422 11.2513C15.5422 10.6991 15.99 10.2513 16.5422 10.2513H24.5422C25.0945 10.2513 25.5422 10.6991 25.5422 11.2513V12.2513H15.5422V11.2513ZM11.0422 17.2513C11.0422 15.5945 12.3854 14.2513 14.0422 14.2513H27.0422C28.6991 14.2513 30.0422 15.5945 30.0422 17.2513V19.5463C26.4303 18.979 23.3611 19.4849 20.7053 19.9227C20.2467 19.9983 19.8003 20.0719 19.3657 20.1376C16.2819 20.6034 13.7577 20.696 11.0422 18.7513V17.2513ZM11.0422 21.115V35.2513C11.0422 36.9082 12.3854 38.2513 14.0422 38.2513H27.0422C28.6991 38.2513 30.0422 36.9082 30.0422 35.2513V21.5732C26.6494 20.9789 23.8065 21.4437 21.0667 21.8916L21.0665 21.8917C20.5968 21.9685 20.1302 22.0448 19.6644 22.1151C16.7957 22.5485 13.9781 22.7379 11.0422 21.115Z" fill="#5E6E7C"/>
</svg>
