<svg width="41" height="41" viewBox="0 0 41 41" fill="none" xmlns="http://www.w3.org/2000/svg">
<rect x="0.987793" y="0.751282" width="40" height="40" fill="white"/>
<path fill-rule="evenodd" clip-rule="evenodd" d="M29.9899 22.0124H11.9857C11.8207 20.2719 10.7635 18.7914 9.27658 18.0331V8.40131C9.27658 6.74445 10.6197 5.40131 12.2766 5.40131H29.699C31.3559 5.40131 32.699 6.74445 32.699 8.40131V18.0331C31.2121 18.7914 30.1549 20.2719 29.9899 22.0124ZM12.0082 24.0124H29.9674V26.7957H12.0082V24.0124ZM12.0082 28.7957V34.0667C12.2175 34.0137 12.4366 33.9855 12.6624 33.9855H29.3132C29.539 33.9855 29.7581 34.0137 29.9674 34.0667V28.7957H12.0082ZM29.9679 36.6397H29.9674C29.9674 36.2784 29.6745 35.9855 29.3132 35.9855H12.6624C12.3011 35.9855 12.0082 36.2784 12.0082 36.6397H12.0077C11.9873 37.4504 11.3238 38.1012 10.5082 38.1012H5.63784C4.80942 38.1012 4.13785 37.4296 4.13785 36.6012V25.3298C2.80882 25.1305 1.7897 23.984 1.7897 22.5994V21.4253C1.7897 19.252 3.55154 17.4902 5.72488 17.4902H7.0082C7.09823 17.4902 7.18772 17.4925 7.27658 17.4972V8.40131C7.27658 5.63989 9.51516 3.40131 12.2766 3.40131H29.699C32.4604 3.40131 34.699 5.63988 34.699 8.40131V17.4972C34.7879 17.4925 34.8774 17.4902 34.9674 17.4902H36.2507C38.4241 17.4902 40.1859 19.252 40.1859 21.4253V22.5994C40.1859 23.984 39.1668 25.1305 37.8378 25.3298V36.6012C37.8378 37.4296 37.1662 38.1012 36.3378 38.1012H31.4674C30.6518 38.1012 29.9883 37.4504 29.9679 36.6397ZM7.0082 19.4902C8.66505 19.4902 10.0082 20.8333 10.0082 22.4902V36.1012H6.13785V24.9475C6.13785 24.071 5.4273 23.3605 4.55081 23.3605C4.13046 23.3605 3.7897 23.0198 3.7897 22.5994V21.4253C3.7897 20.3566 4.65611 19.4902 5.72488 19.4902H7.0082ZM31.9674 22.4902C31.9674 20.8333 33.3105 19.4902 34.9674 19.4902H36.2507C37.3195 19.4902 38.1859 20.3566 38.1859 21.4253V22.5994C38.1859 23.0198 37.8451 23.3605 37.4248 23.3605C36.5483 23.3605 35.8378 24.071 35.8378 24.9475V36.1012H31.9674V22.4902Z" fill="#5E6E7C"/>
</svg>
