<svg width="41" height="41" viewBox="0 0 41 41" fill="none" xmlns="http://www.w3.org/2000/svg">
<rect x="0.987793" y="0.751282" width="40" height="40" fill="white"/>
<path fill-rule="evenodd" clip-rule="evenodd" d="M8.0501 4.78944L7.34299 4.08234L6.63588 4.78944L2.38424 9.04109C2.18898 9.23635 2.18898 9.55293 2.38424 9.74819L3.09135 10.4553C3.28661 10.6506 3.60319 10.6506 3.79845 10.4553L6.34299 7.91077V33.5918L3.79845 31.0472C3.60319 30.852 3.28661 30.852 3.09135 31.0472L2.38424 31.7543C2.18898 31.9496 2.18898 32.2662 2.38424 32.4614L6.63588 36.7131L7.34299 37.4202L8.0501 36.7131L12.3017 32.4614C12.497 32.2662 12.497 31.9496 12.3017 31.7543L11.5946 31.0472C11.3994 30.852 11.0828 30.852 10.8875 31.0472L8.34299 33.5918V7.91077L10.8875 10.4553C11.0828 10.6506 11.3994 10.6506 11.5946 10.4553L12.3017 9.74819C12.497 9.55293 12.497 9.23635 12.3017 9.04109L8.0501 4.78944ZM15.5605 5.9357C14.4559 5.9357 13.5605 6.83113 13.5605 7.9357V16.1461V17.1461L13.5605 24.3565V25.3565V26.3565V33.5669C13.5605 34.6715 14.4559 35.5669 15.5605 35.5669H37.7378C38.8424 35.5669 39.7378 34.6715 39.7378 33.5669V26.3565C39.7378 25.2519 38.8424 24.3565 37.7378 24.3565L33.9813 24.3565V17.1461C33.9813 16.0415 33.0859 15.1461 31.9813 15.1461H28.2248V7.9357C28.2248 6.83113 27.3293 5.9357 26.2248 5.9357H15.5605ZM31.9813 24.3565H15.5605V17.1461H31.9813V24.3565ZM15.5605 33.5669V26.3565L31.9813 26.3565L31.9869 26.3565H37.7378V33.5669L15.5605 33.5669ZM15.5605 7.9357L26.2248 7.9357L26.2248 15.1461H15.5605V7.9357Z" fill="#5E6E7C"/>
</svg>
