<svg width="41" height="41" viewBox="0 0 41 41" fill="none" xmlns="http://www.w3.org/2000/svg">
<rect x="0.987793" y="0.751282" width="40" height="40" fill="white"/>
<path fill-rule="evenodd" clip-rule="evenodd" d="M28.762 8.16729L24.6635 10.8972C22.4174 12.3933 19.938 13.4744 17.3426 14.1048V25.3332C19.938 25.9637 22.4174 27.0448 24.6635 28.5409L28.762 31.2708V8.16729ZM15.3426 24.9403V14.4978C14.2121 14.6683 13.0659 14.7549 11.9132 14.7549H9.05234C8.58739 14.7549 8.19655 15.0722 8.08457 15.5021V17.1061H8.05234V23.6832C8.05234 24.2355 8.50006 24.6832 9.05234 24.6832H11.9132C13.0659 24.6832 14.2121 24.7698 15.3426 24.9403ZM6.12267 15.1061C6.41917 13.7611 7.61824 12.7549 9.05234 12.7549H11.9132C16.0562 12.7549 20.1067 11.5294 23.5548 9.23265L28.9841 5.61627C29.4317 4.52214 30.5068 3.75128 31.762 3.75128H31.891C33.5479 3.75128 34.891 5.09443 34.891 6.75128V15.2036C37.245 15.6688 39.0201 17.7447 39.0201 20.2352C39.0201 22.7256 37.245 24.8016 34.891 25.2668V32.6868C34.891 34.3436 33.5479 35.6868 31.891 35.6868H31.762C30.5068 35.6868 29.4317 34.9159 28.9841 33.8218L23.5548 30.2054C21.0654 28.5473 18.2621 27.4475 15.3367 26.9641L16.1955 35.5523C16.3132 36.7296 15.3887 37.7513 14.2054 37.7513H10.1169C9.01229 37.7513 8.11686 36.8559 8.11686 35.7513V26.5345C7.11883 26.2072 6.35163 25.3706 6.12267 24.3319H5.95554C4.29868 24.3319 2.95554 22.9888 2.95554 21.3319V18.1061C2.95554 16.4493 4.29868 15.1061 5.95554 15.1061H6.12267ZM11.9132 26.6832C12.3779 26.6832 12.8415 26.6986 13.3032 26.7292L14.2054 35.7513H10.1169V26.6832H11.9132ZM6.05234 22.3319H5.95554C5.40325 22.3319 4.95554 21.8842 4.95554 21.3319V18.1061C4.95554 17.5538 5.40325 17.1061 5.95554 17.1061H6.05234V22.3319ZM37.0201 20.2352C37.0201 21.6136 36.1287 22.7838 34.891 23.201V17.2693C36.1287 17.6865 37.0201 18.8567 37.0201 20.2352ZM30.762 32.6933C30.7655 33.2426 31.2119 33.6868 31.762 33.6868H31.891C32.4433 33.6868 32.891 33.239 32.891 32.6868V6.75128C32.891 6.199 32.4433 5.75128 31.891 5.75128H31.762C31.2119 5.75128 30.7655 6.19546 30.762 6.74474V32.6933Z" fill="#5E6E7C"/>
</svg>
