<svg width="41" height="41" viewBox="0 0 41 41" fill="none" xmlns="http://www.w3.org/2000/svg">
<rect x="0.987793" y="0.751282" width="40" height="40" fill="white"/>
<path fill-rule="evenodd" clip-rule="evenodd" d="M12.7327 2.45258C8.42713 2.45258 4.93677 5.94293 4.93677 10.2485V10.5917C4.93677 11.4072 5.45255 12.1022 6.17567 12.3683C6.17348 12.4066 6.17237 12.4452 6.17237 12.4841V14.8088H5.943C4.89221 14.8088 4.02061 15.622 3.94781 16.6703L2.61642 35.8422C2.49597 37.5767 3.87054 39.05 5.60922 39.05H19.8562L19.863 39.05H27.2115C34.3912 39.05 40.2115 33.2297 40.2115 26.05V25.2273C40.2115 24.1227 39.3161 23.2273 38.2115 23.2273H38.0444L38.0455 23.2199C37.1975 23.0884 36.3164 22.6519 35.352 21.9795C34.5192 21.3988 33.6932 20.6935 32.8135 19.9424C32.6716 19.8212 32.5283 19.6988 32.3834 19.5756C31.3635 18.7085 30.2702 17.8068 29.1125 17.1175C27.949 16.4247 26.6607 15.9092 25.2429 15.8733C24.1596 15.8459 23.0424 16.111 22.2375 16.3584C21.9642 16.4423 21.7185 16.5269 21.5117 16.6026C21.407 15.5872 20.5505 14.8088 19.5224 14.8088H19.293V12.4841C19.293 12.4452 19.2919 12.4066 19.2897 12.3683C20.0128 12.1022 20.5286 11.4072 20.5286 10.5917V10.2485C20.5286 5.94293 17.0383 2.45258 12.7327 2.45258ZM21.6582 18.6951L21.9729 23.2273H33.6669C32.9315 22.674 32.2061 22.0541 31.5044 21.4546L31.5043 21.4545C31.3646 21.3351 31.2257 21.2165 31.088 21.0994C30.0658 20.2304 29.0868 19.4298 28.0893 18.8359C27.0977 18.2455 26.1481 17.8968 25.1923 17.8727C24.4273 17.8533 23.5512 18.047 22.8249 18.2701C22.4705 18.379 22.1694 18.4894 21.9582 18.572C21.8529 18.6131 21.7707 18.6471 21.7163 18.6701C21.6904 18.6811 21.6708 18.6896 21.6582 18.6951ZM22.1118 25.2273L22.849 35.8422C22.8784 36.2663 22.8185 36.6749 22.6857 37.05H27.2115C33.2866 37.05 38.2115 32.1252 38.2115 26.05V25.2273H22.1118ZM19.8601 37.05C20.4378 37.0478 20.8938 36.5576 20.8538 35.9808L19.8602 21.6737C18.6627 21.822 17.5041 22.015 16.3661 22.2071L16.1919 22.2365H16.1919L16.1919 22.2365C14.8383 22.4651 13.5021 22.6907 12.2114 22.8184C9.94651 23.0424 7.72475 22.9764 5.57786 22.0669L4.61162 35.9808C4.57147 36.5589 5.02966 37.05 5.60922 37.05L18.293 37.05H19.8601ZM19.5224 16.8088L19.7215 19.6757C18.4323 19.8324 17.2002 20.038 16.0333 20.2349L15.8868 20.2597L15.8868 20.2597C14.5099 20.4922 13.2351 20.7074 12.0146 20.8281C9.6564 21.0613 7.62266 20.9269 5.72658 19.9253L5.943 16.8088L8.17237 16.8088H17.293H19.5224ZM17.293 12.4841H8.17237V14.8088H17.293L17.293 12.4841ZM17.293 10.4841L18.5286 10.4841V10.2485C18.5286 7.0475 15.9337 4.45258 12.7327 4.45258C9.5317 4.45258 6.93677 7.0475 6.93677 10.2485V10.4841L8.17237 10.4841H17.293ZM10.8641 8.4814C10.8641 9.03369 10.4164 9.4814 9.86408 9.4814C9.3118 9.4814 8.86408 9.03369 8.86408 8.4814C8.86408 7.92912 9.3118 7.4814 9.86408 7.4814C10.4164 7.4814 10.8641 7.92912 10.8641 8.4814ZM15.6013 9.4814C16.1536 9.4814 16.6013 9.03369 16.6013 8.4814C16.6013 7.92912 16.1536 7.4814 15.6013 7.4814C15.049 7.4814 14.6013 7.92912 14.6013 8.4814C14.6013 9.03369 15.049 9.4814 15.6013 9.4814ZM13.7327 6.45528C13.7327 7.00757 13.285 7.45528 12.7327 7.45528C12.1804 7.45528 11.7327 7.00757 11.7327 6.45528C11.7327 5.903 12.1804 5.45528 12.7327 5.45528C13.285 5.45528 13.7327 5.903 13.7327 6.45528Z" fill="#5E6E7C"/>
</svg>
