<svg width="24" height="22" viewBox="0 0 24 22" fill="none" xmlns="http://www.w3.org/2000/svg">
<path d="M14.7216 7.6876L14.8353 8.02092L15.1875 8.02608L22.3214 8.13072C22.7983 8.13772 22.9956 8.74486 22.6139 9.03082L16.9039 13.3087L16.6221 13.5199L16.726 13.8564L18.831 20.6735C18.9717 21.1292 18.4552 21.5044 18.0653 21.2298L12.2323 17.1212L11.9444 16.9184L11.6564 17.1212L5.82345 21.2298C5.43354 21.5044 4.91707 21.1292 5.05778 20.6735L7.16277 13.8564L7.26668 13.5199L6.98482 13.3087L1.27484 9.03082C0.893154 8.74486 1.09043 8.13772 1.56731 8.13072L8.70125 8.02608L9.0534 8.02092L9.16713 7.6876L11.4712 0.935156C11.6252 0.483778 12.2636 0.483777 12.4176 0.935156L14.7216 7.6876Z" stroke="#393D46"/>
</svg>
