<svg width="41" height="41" viewBox="0 0 41 41" fill="none" xmlns="http://www.w3.org/2000/svg">
<rect x="0.987793" y="0.751282" width="40" height="40" fill="white"/>
<path fill-rule="evenodd" clip-rule="evenodd" d="M7.2331 4.74601C8.20536 3.40441 10.0811 3.10501 11.4227 4.07727L36.1721 22.0133L36.3311 22.1286L36.4348 22.2955L39.5978 27.3893C40.0938 28.188 39.3706 29.186 38.4571 28.9633L32.6317 27.5432L32.4408 27.4967L32.2817 27.3814L7.5324 9.44538C6.19081 8.47312 5.8914 6.59737 6.86366 5.25578L7.2331 4.74601ZM10.2491 5.69672C9.80188 5.37263 9.17663 5.47243 8.85255 5.91963L8.48311 6.4294C8.15902 6.8766 8.25883 7.50185 8.70602 7.82594L11.4769 9.83397L13.0199 7.70475L10.2491 5.69672ZM32.2787 24.9092L13.0963 11.0076L14.6394 8.87837L33.8217 22.78L32.2787 24.9092ZM34.0764 25.8368L36.6726 26.4697L35.2629 24.1996L34.0764 25.8368ZM5.38744 10.4068C4.06479 9.45151 2.21646 10.3966 2.21646 12.0281V35.0724C2.21646 36.1769 3.11189 37.0724 4.21646 37.0724H36.1239C38.0642 37.0724 38.8679 34.5871 37.2949 33.451L5.38744 10.4068ZM4.21646 12.0281L36.1239 35.0724H32.2165V33.5724C32.2165 33.2962 31.9926 33.0724 31.7165 33.0724H30.7165C30.4403 33.0724 30.2165 33.2962 30.2165 33.5724V35.0724H28.2165V33.5724C28.2165 33.2962 27.9926 33.0724 27.7165 33.0724H26.7165C26.4403 33.0724 26.2165 33.2962 26.2165 33.5724V35.0724H24.2165V33.5724C24.2165 33.2962 23.9926 33.0724 23.7165 33.0724H22.7165C22.4403 33.0724 22.2165 33.2962 22.2165 33.5724V35.0724H20.2165V33.5724C20.2165 33.2962 19.9926 33.0724 19.7165 33.0724H18.7165C18.4403 33.0724 18.2165 33.2962 18.2165 33.5724V35.0724H16.2165V33.5724C16.2165 33.2962 15.9926 33.0724 15.7165 33.0724H14.7165C14.4403 33.0724 14.2165 33.2962 14.2165 33.5724V35.0724H12.2165V33.5724C12.2165 33.2962 11.9926 33.0724 11.7165 33.0724H10.7165C10.4403 33.0724 10.2165 33.2962 10.2165 33.5724V35.0724H8.21646V33.5724C8.21646 33.2962 7.9926 33.0724 7.71646 33.0724H6.71646C6.44032 33.0724 6.21646 33.2962 6.21646 33.5724V35.0724H4.21646V12.0281ZM10.2165 28.8951V23.7636L17.9137 28.8951H10.2165ZM9.8489 21.1149C9.1511 20.6497 8.21646 21.1499 8.21646 21.9885V29.8451C8.21646 30.425 8.68656 30.8951 9.26646 30.8951H21.0513C22.0902 30.8951 22.4982 29.5477 21.6338 28.9715L9.8489 21.1149Z" fill="#5E6E7C"/>
</svg>
