<svg width="41" height="41" viewBox="0 0 41 41" fill="none" xmlns="http://www.w3.org/2000/svg">
<rect x="0.987793" y="0.751282" width="40" height="40" fill="white"/>
<path fill-rule="evenodd" clip-rule="evenodd" d="M4.68921 20.7513C4.68921 12.467 11.4049 5.75128 19.6892 5.75128C23.4973 5.75128 26.9724 7.16915 29.6182 9.50757L28.8798 12.2633L27.534 13.0403C25.5384 11.0103 22.7608 9.75128 19.6892 9.75128C13.6141 9.75128 8.68921 14.6761 8.68921 20.7513C8.68921 26.8264 13.6141 31.7513 19.6892 31.7513C25.7643 31.7513 30.6892 26.8264 30.6892 20.7513C30.6892 19.7291 30.5498 18.7396 30.289 17.8005L31.6298 17.0264L34.3925 17.7667C34.587 18.7304 34.6892 19.7284 34.6892 20.7513C34.6892 29.0356 27.9735 35.7513 19.6892 35.7513C11.4049 35.7513 4.68921 29.0356 4.68921 20.7513ZM30.9885 15.0873L28.8977 16.2944L26.3797 17.7481L25.6298 16.4491L28.1478 14.9953L30.2385 13.7882L34.5297 11.3108C34.8884 11.1037 35.347 11.2266 35.5541 11.5853C35.7612 11.944 35.6383 12.4027 35.2796 12.6098L30.9885 15.0873ZM37.2862 10.5853C37.5753 11.086 37.689 11.6399 37.6464 12.1757L39.8756 12.773C41.1664 13.1189 41.3947 14.8528 40.2373 15.5209L36.804 17.5032C36.6781 17.5758 36.5479 17.6388 36.4145 17.692C36.595 18.6851 36.6892 19.7076 36.6892 20.7513C36.6892 30.1401 29.078 37.7513 19.6892 37.7513C10.3004 37.7513 2.68921 30.1401 2.68921 20.7513C2.68921 11.3624 10.3004 3.75128 19.6892 3.75128C23.8845 3.75128 27.7263 5.27205 30.6908 7.79073C30.805 7.70021 30.9263 7.61762 31.054 7.54388L34.4874 5.56165C35.6447 4.89347 37.0321 5.95809 36.6863 7.24891L36.0889 9.47812C36.5743 9.70917 36.9971 10.0846 37.2862 10.5853ZM34.0793 15.6122L36.2796 14.3418L36.8259 14.0264L38.192 14.3924L35.804 15.7711C35.5743 15.9037 35.3014 15.9397 35.0452 15.871L34.0793 15.6122ZM33.5297 9.57875L34.076 9.26328L34.442 7.89725L32.054 9.27593C31.8244 9.40854 31.6568 9.62696 31.5881 9.88314L31.3293 10.8491L33.5297 9.57875ZM10.6892 20.7513C10.6892 15.7807 14.7186 11.7513 19.6892 11.7513C22.0147 11.7513 24.1342 12.6333 25.7315 14.081L21.9258 16.2782C21.2528 15.941 20.4932 15.7513 19.6892 15.7513C16.9278 15.7513 14.6892 17.9899 14.6892 20.7513C14.6892 23.5127 16.9278 25.7513 19.6892 25.7513C22.3543 25.7513 24.5324 23.6661 24.6811 21.0382L28.4862 18.8414C28.6192 19.4569 28.6892 20.0959 28.6892 20.7513C28.6892 25.7218 24.6598 29.7513 19.6892 29.7513C14.7186 29.7513 10.6892 25.7218 10.6892 20.7513ZM19.6892 17.7513C20.0217 17.7513 20.3416 17.8054 20.6405 17.9053C20.5305 18.2851 20.502 18.6882 20.5627 19.0859L19.2882 19.8217C18.8099 20.0979 18.646 20.7095 18.9222 21.1878C19.1983 21.6661 19.8099 21.8299 20.2882 21.5538L21.5627 20.818C21.8787 21.0709 22.2445 21.2483 22.631 21.3426C22.3564 22.7162 21.1437 23.7513 19.6892 23.7513C18.0324 23.7513 16.6892 22.4081 16.6892 20.7513C16.6892 19.0944 18.0324 17.7513 19.6892 17.7513ZM23.8977 17.4491L22.9069 18.0212C22.5481 18.2283 22.4252 18.687 22.6323 19.0457C22.8394 19.4044 23.2981 19.5273 23.6568 19.3202L24.6477 18.7481L23.8977 17.4491Z" fill="#5E6E7C"/>
</svg>
