<svg width="41" height="41" viewBox="0 0 41 41" fill="none" xmlns="http://www.w3.org/2000/svg">
<rect x="0.987793" y="0.751282" width="40" height="40" fill="white"/>
<path fill-rule="evenodd" clip-rule="evenodd" d="M30.2049 3.72186C33.4614 3.72186 36.5208 5.2106 38.5303 7.73166H33.2034C32.1339 7.73166 31.2605 8.57114 31.2061 9.62712H31.2049V9.65435C31.2039 9.68 31.2034 9.70577 31.2034 9.73166V10.6637H29.705V9.73166C29.705 8.62709 28.8095 7.73166 27.705 7.73166H24.9273V3.72186L30.2049 3.72186ZM39.4558 9.73166H33.2049V22.9007C33.9389 23.1969 34.4569 23.916 34.4569 24.7561V36.7806C34.4569 38.4375 33.1138 39.7806 31.4569 39.7806H29.4471C27.7903 39.7806 26.4471 38.4375 26.4471 36.7806V24.7561C26.4471 23.916 26.9651 23.1969 27.6992 22.9007V9.73166L24.9273 9.73166C23.8227 9.73166 22.9273 8.83623 22.9273 7.73166V3.70129C22.9273 2.60808 23.8135 1.72186 24.9067 1.72186H30.2049C34.4337 1.72186 38.3827 3.8353 40.7284 7.35384C41.406 8.37024 40.6774 9.73166 39.4558 9.73166ZM31.2034 12.6637L31.2049 12.6637V22.7561H29.6992V12.6637L29.705 12.6637H31.2034ZM12.901 4.29097V7.96637C12.901 10.0546 11.2081 11.7475 9.11982 11.7475C7.03156 11.7475 5.33867 10.0546 5.33867 7.96637V4.29097C4.17512 5.33135 3.44507 6.84149 3.44507 8.5226C3.44507 10.9919 5.02274 13.0952 7.22815 13.8747L7.8949 14.1104V14.8175V36.5557C7.8949 37.2322 8.44332 37.7806 9.11982 37.7806C9.79632 37.7806 10.3447 37.2322 10.3447 36.5557V14.8175V14.1104L11.0115 13.8747C13.2169 13.0952 14.7946 10.9919 14.7946 8.5226C14.7946 6.84149 14.0645 5.33135 12.901 4.29097ZM11.8448 2.33277C12.4362 1.9865 13.2154 1.98191 13.8458 2.47513C15.639 3.87823 16.7946 6.06573 16.7946 8.5226C16.7946 11.6107 14.9712 14.2707 12.3447 15.4886V36.5557C12.3447 38.3368 10.9009 39.7806 9.11982 39.7806C7.33875 39.7806 5.8949 38.3368 5.8949 36.5557V15.4886C3.26846 14.2707 1.44507 11.6107 1.44507 8.5226C1.44507 6.06573 2.60064 3.87823 4.39388 2.47513C5.02424 1.98191 5.80342 1.9865 6.39489 2.33277C6.96381 2.66585 7.33867 3.29521 7.33867 4.01233V7.96637C7.33867 8.95006 8.13613 9.74752 9.11982 9.74752C10.1035 9.74752 10.901 8.95006 10.901 7.96637V4.01233C10.901 3.29521 11.2758 2.66585 11.8448 2.33277ZM16.8809 19.7512C16.3286 19.7512 15.8809 20.199 15.8809 20.7512C15.8809 21.3035 16.3286 21.7512 16.8809 21.7512H16.8825V23.0228C16.2838 23.3684 15.8809 24.0152 15.8809 24.7562V36.7807C15.8809 38.4375 17.224 39.7807 18.8809 39.7807H20.8907C22.5475 39.7807 23.8907 38.4375 23.8907 36.7807V24.7562C23.8907 24.0152 23.4878 23.3684 22.8891 23.0228V21.7512H22.8907C23.443 21.7512 23.8907 21.3035 23.8907 20.7512C23.8907 20.199 23.443 19.7512 22.8907 19.7512H20.8858V7.52828C21.1532 7.32591 21.3145 6.99298 21.2783 6.63052L20.8874 2.72186H18.8842L18.4933 6.63052C18.457 6.99298 18.6184 7.32591 18.8858 7.52828V19.7512H16.8809ZM20.8891 21.7512H18.8825V22.7562H20.8891V21.7512ZM32.4569 24.7561H28.4471V36.7806C28.4471 37.3329 28.8948 37.7806 29.4471 37.7806H31.4569C32.0092 37.7806 32.4569 37.3329 32.4569 36.7806V24.7561ZM21.8907 24.7603H17.8809V36.7848C17.8809 37.3371 18.3286 37.7848 18.8809 37.7848H20.8907C21.443 37.7848 21.8907 37.3371 21.8907 36.7848V24.7603Z" fill="#5E6E7C"/>
</svg>
