<svg width="41" height="41" viewBox="0 0 41 41" fill="none" xmlns="http://www.w3.org/2000/svg">
<rect x="0.987793" y="0.751282" width="40" height="40" fill="white"/>
<path fill-rule="evenodd" clip-rule="evenodd" d="M31.0199 5.90006C30.0753 4.95388 28.4584 5.62286 28.4584 6.95983V8.84219H14.5172C12.8603 8.84219 11.5172 10.1853 11.5172 11.8422V16.4499C11.3171 16.5211 11.1255 16.639 10.9556 16.8091L2.28008 25.4993L1.57475 26.2058L2.28008 26.9123L10.9556 35.6025C11.9002 36.5487 13.5172 35.8797 13.5172 34.5427V32.6604H27.4584C29.1152 32.6604 30.4584 31.3172 30.4584 29.6604V25.0527C30.6584 24.9815 30.8501 24.8636 31.0199 24.6934L39.6955 16.0032L40.4008 15.2967L39.6955 14.5902L31.0199 5.90006ZM30.4584 9.84219V8.16837L37.5748 15.2967L30.4584 22.4251V20.7513V19.7513H29.4584H13.5172V11.8422C13.5172 11.2899 13.9649 10.8422 14.5172 10.8422H29.4584H30.4584V9.84219ZM11.5172 20.7513V19.0775L4.4008 26.2058L11.5172 33.3342V31.6604V30.6604H12.5172H27.4584C28.0106 30.6604 28.4584 30.2126 28.4584 29.6604V21.7513H12.5172H11.5172V20.7513Z" fill="#5E6E7C"/>
</svg>
