<svg width="41" height="41" viewBox="0 0 41 41" fill="none" xmlns="http://www.w3.org/2000/svg">
<rect x="0.987793" y="0.751282" width="40" height="40" fill="white"/>
<path fill-rule="evenodd" clip-rule="evenodd" d="M19.7976 5.25128C19.2453 5.25128 18.7976 5.699 18.7976 6.25128V6.5416H23.178V6.25128C23.178 5.699 22.7303 5.25128 22.178 5.25128H19.7976ZM16.7976 6.25128V6.5416H9.76724C8.11039 6.5416 6.76724 7.88475 6.76724 9.5416V10.9287C6.76724 11.8829 7.43549 12.6811 8.32954 12.8807L9.27426 35.3771C9.34172 36.9836 10.6637 38.2513 12.2716 38.2513H29.704C31.3119 38.2513 32.6339 36.9836 32.7013 35.3771L33.6461 12.8807C34.5401 12.681 35.2083 11.8829 35.2083 10.9287V9.5416C35.2083 7.88475 33.8652 6.5416 32.2083 6.5416H25.178V6.25128C25.178 4.59443 23.8348 3.25128 22.178 3.25128H19.7976C18.1408 3.25128 16.7976 4.59443 16.7976 6.25128ZM33.2083 10.9287L32.6852 10.9287H9.29045H8.76724V9.5416C8.76724 8.98932 9.21496 8.5416 9.76724 8.5416H32.2083C32.7606 8.5416 33.2083 8.98932 33.2083 9.5416V10.9287ZM10.3333 12.9287L11.2725 35.2932C11.295 35.8287 11.7357 36.2513 12.2716 36.2513H29.704C30.2399 36.2513 30.6806 35.8287 30.7031 35.2932L31.6423 12.9287H10.3333ZM15.9002 17.6697C15.9002 17.1174 15.4525 16.6697 14.9002 16.6697C14.348 16.6697 13.9002 17.1174 13.9002 17.6697V30.831C13.9002 31.3833 14.348 31.831 14.9002 31.831C15.4525 31.831 15.9002 31.3833 15.9002 30.831V17.6697ZM21.9878 17.6697C21.9878 17.1174 21.5401 16.6697 20.9878 16.6697C20.4355 16.6697 19.9878 17.1174 19.9878 17.6697V30.831C19.9878 31.3833 20.4355 31.831 20.9878 31.831C21.5401 31.831 21.9878 31.3833 21.9878 30.831V17.6697ZM27.0753 16.6697C27.6276 16.6697 28.0753 17.1174 28.0753 17.6697V30.831C28.0753 31.3833 27.6276 31.831 27.0753 31.831C26.5231 31.831 26.0753 31.3833 26.0753 30.831V17.6697C26.0753 17.1174 26.5231 16.6697 27.0753 16.6697Z" fill="#5E6E7C"/>
</svg>
