<svg width="41" height="41" viewBox="0 0 41 41" fill="none" xmlns="http://www.w3.org/2000/svg">
<rect x="0.987793" y="0.751282" width="40" height="40" fill="white"/>
<path fill-rule="evenodd" clip-rule="evenodd" d="M10.1916 6.88094C9.58143 4.78883 7.35531 3.62245 5.28786 4.3116C3.27467 4.98266 2.18666 7.15868 2.85772 9.17188L3.18052 10.1403C3.35517 10.6642 3.92149 10.9474 4.44543 10.7727C4.96938 10.5981 5.25254 10.0318 5.07789 9.50783L4.75509 8.53942C4.43332 7.57412 4.95501 6.53073 5.92032 6.20896C6.91164 5.87852 7.97904 6.43779 8.27163 7.44094L14.7891 29.7866C13.1317 30.5364 11.9786 32.2045 11.9786 34.1419C11.9786 36.7805 14.1176 38.9196 16.7563 38.9196C19.3949 38.9196 21.534 36.7805 21.534 34.1419C21.534 33.9943 21.5273 33.8483 21.5142 33.7041L36.3517 29.323C37.4086 29.011 38.0139 27.9028 37.7053 26.8448L33.4875 12.3855C33.1753 11.3152 32.0483 10.7068 30.9822 11.0331L22.4448 13.646L20.4043 6.88905C20.0874 5.83951 18.9845 5.24077 17.9317 5.54664L10.4375 7.72392L10.1916 6.88094ZM16.7563 29.3642L16.7492 29.3642L13.5716 18.4695L31.5676 12.9455L35.7854 27.4049L20.9186 31.7946C20.0986 30.3436 18.5418 29.3642 16.7563 29.3642ZM18.4897 7.46723L20.5323 14.2313L18.0499 14.9911L15.9965 8.19157L18.4897 7.46723ZM14.0758 8.74958L16.1374 15.5764L13.0072 16.5344L10.9975 9.64392L14.0758 8.74958ZM29.8315 16.6417C29.9112 16.9063 29.7613 17.1854 29.4967 17.2649L26.444 18.1825C26.1797 18.2619 25.901 18.1122 25.8213 17.848L25.5447 16.9307C25.465 16.6662 25.6149 16.3871 25.8795 16.3075L28.9323 15.3899C29.1965 15.3105 29.4752 15.4602 29.5549 15.7244L29.8315 16.6417ZM16.7563 31.3642C15.2222 31.3642 13.9786 32.6078 13.9786 34.1419C13.9786 35.6759 15.2222 36.9196 16.7563 36.9196C18.2904 36.9196 19.534 35.6759 19.534 34.1419C19.534 32.6078 18.2904 31.3642 16.7563 31.3642ZM16.7563 35.4011C17.4517 35.4011 18.0155 34.8373 18.0155 34.1419C18.0155 33.4464 17.4517 32.8826 16.7563 32.8826C16.0608 32.8826 15.497 33.4464 15.497 34.1419C15.497 34.8373 16.0608 35.4011 16.7563 35.4011Z" fill="#5E6E7C"/>
</svg>
