<svg width="41" height="41" viewBox="0 0 41 41" fill="none" xmlns="http://www.w3.org/2000/svg">
<rect x="0.987793" y="0.751282" width="40" height="40" fill="white"/>
<path fill-rule="evenodd" clip-rule="evenodd" d="M21.9878 2.33459C21.9878 1.78231 21.5401 1.33459 20.9878 1.33459C20.4355 1.33459 19.9878 1.78231 19.9878 2.33459V4.19523C10.5118 4.71411 2.98779 12.5624 2.98779 22.1679V23.4604L4.23887 23.1359C5.39004 22.8373 6.23964 22.704 7.07364 22.7047C7.90998 22.7054 8.78219 22.8409 9.9801 23.1384L10.2196 23.1979L10.4592 23.1392C12.5291 22.6317 14.0875 22.3932 15.6168 22.3939C16.9512 22.3946 18.3013 22.5774 19.9878 22.9591V36.3346C19.9878 37.3471 19.167 38.1679 18.1545 38.1679C17.1419 38.1679 16.3211 37.3471 16.3211 36.3346V34.6346C16.3211 34.0823 15.8734 33.6346 15.3211 33.6346C14.7689 33.6346 14.3211 34.0823 14.3211 34.6346V36.3346C14.3211 38.4517 16.0374 40.1679 18.1545 40.1679C20.2716 40.1679 21.9878 38.4517 21.9878 36.3346V22.9509C23.6704 22.5525 25.016 22.361 26.3478 22.3596C27.8721 22.358 29.4305 22.6054 31.5065 23.1367L31.7412 23.1967L31.9773 23.1428C33.142 22.8766 34.0032 22.751 34.8493 22.7488C35.6947 22.7466 36.5709 22.8677 37.7633 23.1424L38.9878 23.4245V22.1679C38.9878 12.5624 31.4638 4.71412 21.9878 4.19523V2.33459ZM19.9878 6.25331C17.8417 6.62089 15.8138 8.16479 14.2194 10.6822C12.559 13.304 11.4457 16.8825 11.2515 20.9054C12.8426 20.5679 14.2237 20.3932 15.6178 20.3939C17.0178 20.3946 18.3992 20.5721 19.9878 20.9112V6.25331ZM21.9878 20.8987V6.25332C24.1339 6.6209 26.1618 8.1648 27.7562 10.6822C29.4149 13.3012 30.5276 16.8751 30.7235 20.8928C29.1274 20.54 27.7423 20.3582 26.3457 20.3596C24.9457 20.3611 23.5676 20.5467 21.9878 20.8987ZM5.03688 20.9053C5.7438 20.7732 6.40249 20.7041 7.07537 20.7047C7.78277 20.7053 8.48314 20.7829 9.24834 20.9281C9.44066 16.5601 10.6424 12.5921 12.5298 9.61206C12.9257 8.98695 13.3553 8.40076 13.8154 7.86168C8.9358 10.3128 5.48327 15.1871 5.03688 20.9053ZM29.4458 9.61206C29.0499 8.98695 28.6203 8.40076 28.1602 7.86168C33.0485 10.3172 36.5046 15.2044 36.9411 20.9358C36.2028 20.8108 35.5266 20.7471 34.8442 20.7488C34.1489 20.7506 33.4673 20.8203 32.7282 20.949C32.5388 16.5728 31.3362 12.5968 29.4458 9.61206Z" fill="#5E6E7C"/>
</svg>
