<svg width="41" height="41" viewBox="0 0 41 41" fill="none" xmlns="http://www.w3.org/2000/svg">
<rect x="0.987793" y="0.751282" width="40" height="40" fill="white"/>
<path fill-rule="evenodd" clip-rule="evenodd" d="M4.23779 7.58995C4.23779 7.0822 4.6494 6.67059 5.15715 6.67059H15.4131C15.5572 6.67059 15.6997 6.70176 15.8307 6.76197L19.4297 8.41615C19.8227 8.59677 20.2501 8.69028 20.6826 8.69028H27.5604C28.1086 8.69028 28.5604 9.14019 28.5604 9.69657C28.5604 10.2529 28.1086 10.7029 27.5604 10.7029H20.1138C19.9739 10.7029 19.8356 10.6735 19.7077 10.6167L15.5479 8.76787C15.1643 8.59739 14.7492 8.5093 14.3295 8.5093H5.15714C4.6494 8.5093 4.23779 8.0977 4.23779 7.58995ZM5.15715 4.67059C3.54483 4.67059 2.23779 5.97763 2.23779 7.58995C2.23779 9.20226 3.54483 10.5093 5.15714 10.5093H14.3295C14.4694 10.5093 14.6078 10.5387 14.7356 10.5955L18.8954 12.4443C19.279 12.6148 19.6941 12.7029 20.1138 12.7029H21.4313V14.4929C19.7418 15.0413 18.2748 16.0148 17.208 17.2835H13.2056H10.5281C7.21443 17.2835 4.52814 19.9698 4.52814 23.2835V25.9609V28.4663C3.87736 28.7963 3.43134 29.4717 3.43134 30.2513V34.8319C3.43134 35.9365 4.32677 36.8319 5.43133 36.8319H13.3023C14.4069 36.8319 15.3023 35.9365 15.3023 34.8319V30.2513C15.3023 29.4717 14.8563 28.7963 14.2056 28.4664V26.9609H17.2079C18.9055 28.9797 21.6163 30.2513 24.6249 30.2513C27.6335 30.2513 30.3443 28.9797 32.0418 26.9609H33.9C34.2064 27.6724 34.9139 28.1706 35.7378 28.1706H37.7378C38.8424 28.1706 39.7378 27.2752 39.7378 26.1706V18.1706C39.7378 17.066 38.8424 16.1706 37.7378 16.1706H35.7378C34.9518 16.1706 34.2717 16.624 33.9448 17.2835H32.0418C30.975 16.0148 29.508 15.0413 27.8184 14.4929V12.6919C29.3578 12.5603 30.5604 11.2628 30.5604 9.69657C30.5604 8.0438 29.2213 6.69028 27.5604 6.69028H20.6826C20.5384 6.69028 20.3959 6.65911 20.2649 6.59891L16.6659 4.94473C16.273 4.76411 15.8456 4.67059 15.4131 4.67059H5.15715ZM25.8184 12.7029H23.4313V14.0606C23.8227 14.0161 24.2211 13.9932 24.6249 13.9932C25.0287 13.9932 25.4271 14.0161 25.8184 14.0606V12.7029ZM18.6922 25.6177V18.6267C19.9812 17.0582 22.1366 15.9932 24.6249 15.9932C27.1132 15.9932 29.2686 17.0582 30.5576 18.6267V25.6177C29.2686 27.1863 27.1132 28.2513 24.6249 28.2513C22.1366 28.2513 19.9812 27.1863 18.6922 25.6177ZM33.7378 19.2835H32.5576V24.9609H33.7378V19.2835ZM16.6922 24.9609V19.2835H13.2056H10.5281C8.319 19.2835 6.52814 21.0744 6.52814 23.2835V25.9609V28.2513H12.2056V26.4609C12.2056 25.6325 12.8771 24.9609 13.7056 24.9609H16.6922ZM5.43134 30.2513H13.3023V34.8319H5.43134V30.2513ZM37.7378 18.1706V26.1706H35.7378V18.1706H37.7378Z" fill="#5E6E7C"/>
</svg>
