<svg width="41" height="41" viewBox="0 0 41 41" fill="none" xmlns="http://www.w3.org/2000/svg">
<rect x="0.987793" y="0.751282" width="40" height="40" fill="white"/>
<path fill-rule="evenodd" clip-rule="evenodd" d="M12.2764 10.7262C13.8346 6.64634 17.7849 3.75128 22.4088 3.75128C28.3968 3.75128 33.2509 8.60545 33.2509 14.5934C33.2509 14.7389 33.2481 14.8837 33.2424 15.0277L33.2015 16.0671H34.2416H34.2417H34.2417H34.2417H34.2417H34.2417H34.2417H34.2418H34.2418H34.2418H34.2418H34.2418H34.2419H34.2419H34.2419H34.2419H34.2419H34.2419H34.242H34.242H34.242H34.242H34.242H34.2421H34.2421H34.2421H34.2421H34.2421H34.2421H34.2422H34.2422H34.2422H34.2422H34.2422H34.2422H34.2423H34.2423H34.2423H34.2423H34.2423H34.2424H34.2424H34.2424H34.2424H34.2424H34.2425H34.2425H34.2425H34.2425H34.2425H34.2425H34.2426H34.2426H34.2426H34.2426H34.2426H34.2427H34.2427H34.2427H34.2427H34.2427H34.2427H34.2428H34.2428H34.2428H34.2428H34.2428H34.2429H34.2429H34.2429H34.2429H34.2429H34.2429H34.243H34.243H34.243H34.243H34.243H34.243H34.2431H34.2431H34.2431H34.2431H34.2431H34.2432H34.2432H34.2432H34.2432H34.2432H34.2432H34.2433H34.2433H34.2433H34.2433H34.2433H34.2434H34.2434H34.2434H34.2434H34.2434H34.2435H34.2435H34.2435H34.2435H34.2435H34.2435H34.2436H34.2436H34.2436H34.2436H34.2436H34.2437H34.2437H34.2437H34.2437H34.2437H34.2437H34.2438H34.2438H34.2438H34.2438H34.2438H34.2439H34.2439H34.2439H34.2439H34.2439H34.2439H34.244H34.244H34.244H34.244H34.244H34.244H34.2441H34.2441H34.2441H34.2441H34.2441H34.2442H34.2442H34.2442H34.2442H34.2442H34.2442H34.2443H34.2443H34.2443H34.2443H34.2443H34.2444H34.2444H34.2444H34.2444H34.2444H34.2444H34.2445H34.2445H34.2445H34.2445H34.2445H34.2446H34.2446H34.2446H34.2446H34.2446H34.2447H34.2447H34.2447H34.2447H34.2447H34.2447H34.2448H34.2448H34.2448H34.2448H34.2448H34.2449H34.2449H34.2449H34.2449H34.2449H34.2449H34.245H34.245H34.245H34.245H34.245H34.245H34.2451H34.2451H34.2451H34.2451H34.2451H34.2452H34.2452H34.2452H34.2452H34.2452H34.2453H34.2453H34.2453H34.2453H34.2453H34.2453H34.2454H34.2454H34.2454H34.2454H34.2454H34.2455H34.2455H34.2455H34.2455H34.2455H34.2455H34.2456H34.2456H34.2456H34.2456H34.2456H34.2457H34.2457H34.2457H34.2457H34.2457H34.2457H34.2458H34.2458H34.2458H34.2458H34.2458H34.2458H34.2459H34.2459H34.2459H34.2459H34.2459H34.246H34.246H34.246H34.246H34.246H34.2461H34.2461H34.2461H34.2461H34.2461H34.2461H34.2462H34.2462H34.2462H34.2462H34.2462H34.2463H34.2463H34.2463H34.2463H34.2463H34.2463H34.2464H34.2464H34.2464H34.2464H34.2464H34.2465H34.2465H34.2465H34.2465H34.2465H34.2465H34.2466H34.2466H34.2466H34.2466H34.2466H34.2467H34.2467H34.2467H34.2467H34.2467H34.2467H34.2468H34.2468H34.2468H34.2468H34.2468H34.2469H34.2469H34.2469H34.2469H34.2469H34.2469H34.247H34.247H34.247H34.247H34.247H34.2471H34.2471H34.2471H34.2471H34.2471H34.2471H34.2472H34.2472H34.2472H34.2472H34.2472H34.2473H34.2473H34.2473H34.2473H34.2473H34.2473H34.2474H34.2474H34.2474H34.2474H34.2474H34.2475H34.2475H34.2475H34.2475H34.2475H34.2475H34.2476H34.2476H34.2476H34.2476H34.2476H34.2477H34.2477H34.2477H34.2477H34.2477H34.2477H34.2478H34.2478H34.2478H34.2478H34.2478H34.2479H34.2479H34.2479H34.2479H34.2479H34.2479H34.248H34.248H34.248H34.248H34.248H34.2481H34.2481H34.2481H34.2481H34.2481H34.2481H34.2482H34.2482H34.2482H34.2482H34.2482H34.2483H34.2483H34.2483H34.2483H34.2483H34.2483H34.2484H34.2484H34.2484H34.2484H34.2484H34.2485H34.2485H34.2485H34.2485H34.2485H34.2485H34.2486H34.2486H34.2486H34.2486H34.2486H34.2487H34.2487H34.2487H34.2487H34.2487H34.2487H34.2488H34.2488H34.2488H34.2488H34.2488H34.2489H34.2489H34.2489H34.2489H34.2489H34.2489H34.249H34.249H34.249H34.249H34.249H34.2491H34.2491H34.2491H34.2491H34.2491H34.2491H34.2492H34.2492H34.2492H34.2492H34.2492H34.2493H34.2493H34.2493H34.2493H34.2493H34.2493H34.2494H34.2494H34.2494H34.2494H34.2494H34.2495H34.2495H34.2495H34.2495H34.2495H34.2495H34.2496H34.2496H34.2496H34.2496H34.2496H34.2497H34.2497H34.2497H34.2497H34.2497H34.2497H34.2498H34.2498H34.2498H34.2498H34.2498H34.2499H34.2499H34.2499H34.2499H34.2499H34.2499H34.25H34.25H34.25H34.25H34.25H34.2501H34.2501H34.2501H34.2501H34.2501H34.2501H34.2502H34.2502H34.2502H34.2502H34.2502H34.2503H34.2503H34.2503H34.2503H34.2503H34.2503H34.2504H34.2504H34.2504H34.2504H34.2504H34.2505H34.2505H34.2505H34.2505H34.2505H34.2505H34.2506H34.2506H34.2506H34.2506H34.2506H34.2507H34.2507H34.2507H34.2507H34.2507H34.2507H34.2508H34.2508H34.2508H34.2508H34.2508H34.2509H34.2509H34.2509H34.2509H34.2509H34.2509C36.3147 16.0671 37.9878 17.7401 37.9878 19.8039C37.9878 21.8677 36.3147 23.5408 34.2509 23.5408C33.1578 23.5408 32.1754 23.0726 31.4907 22.3228L30.7876 21.5529L30.0477 22.2875C28.0868 24.2344 25.3891 25.4355 22.4088 25.4355C20.4873 25.4355 18.6841 24.9364 17.1199 24.0604C17.0686 24.0288 17.017 23.9972 16.965 23.9658C16.9315 23.9455 16.8972 23.9275 16.8625 23.9116C16.484 23.6857 16.1203 23.4375 15.7734 23.1686C14.5103 22.1161 13.222 20.5715 12.5547 19.1222C12.3238 18.6205 11.7298 18.4011 11.2282 18.632C10.7265 18.863 10.5071 19.4569 10.738 19.9586C11.3687 21.3285 12.404 22.6949 13.5039 23.7979C12.6202 24.2397 11.6232 24.4881 10.5667 24.4881C6.93329 24.4881 3.98779 21.5426 3.98779 17.9092C3.98779 14.2757 6.93329 11.3302 10.5667 11.3302C10.7947 11.3302 11.0197 11.3418 11.2412 11.3643L12.0032 11.4417L12.2764 10.7262ZM16.1022 25.7826C15.7687 25.5942 15.4443 25.3914 15.1301 25.1749C14.4687 25.5911 13.7462 25.9196 12.9795 26.1439C13.0777 26.1992 13.1765 26.2556 13.2756 26.3132C14.3517 26.9378 15.4966 27.7103 16.4615 28.6114C17.418 29.5047 18.2635 30.5854 18.6314 31.8379C18.8774 32.6754 18.9355 33.654 18.9259 34.5116C18.9161 35.3842 18.8346 36.2052 18.765 36.7596C18.7639 36.7683 18.7642 36.7762 18.7653 36.7827L18.7655 36.784C20.0749 37.4463 21.2613 37.7522 22.4141 37.7513C23.5669 37.7504 24.7537 37.4425 26.0638 36.7781C26.0647 36.7726 26.065 36.7659 26.0642 36.7584C25.9478 35.7122 25.7651 33.4815 26.1768 31.8719C26.4875 30.6576 27.1911 29.5433 28.0029 28.5802C28.8202 27.6106 29.7907 26.7431 30.706 26.0235C31.1493 25.675 31.5839 25.3577 31.9882 25.077C31.5458 24.8869 31.1322 24.6428 30.7557 24.3533C30.0114 24.9904 29.193 25.5439 28.3154 25.9993C28.2992 26.0099 28.2825 26.0202 28.2654 26.03C27.8237 26.2842 27.3584 26.6643 26.9764 27.087C26.5839 27.5214 26.3462 27.9266 26.2646 28.2113C26.1124 28.7422 25.5587 29.0493 25.0278 28.8971C24.4969 28.7449 24.1899 28.1911 24.3421 27.6602C24.3797 27.5288 24.4266 27.3982 24.4812 27.269C23.8065 27.3786 23.1143 27.4355 22.4088 27.4355C21.8707 27.4355 21.3402 27.4023 20.8193 27.338C21.4297 28.1662 21.8915 29.0531 22.2379 30.0124C22.4254 30.5318 22.1563 31.105 21.6369 31.2925C21.1174 31.4801 20.5443 31.211 20.3567 30.6916C19.684 28.8283 18.474 27.2545 16.1022 25.7826ZM35.0941 25.4792C37.8627 25.0715 39.9878 22.6858 39.9878 19.8039C39.9878 16.9741 37.9388 14.6228 35.2435 14.1526C35.0112 7.2642 29.3538 1.75128 22.4088 1.75128C17.19 1.75128 12.7004 4.86399 10.6912 9.33112C10.6498 9.33052 10.6083 9.33023 10.5667 9.33023C5.82872 9.33023 1.98779 13.1712 1.98779 17.9092C1.98779 21.9291 4.75263 25.3032 8.48441 26.2337L8.49984 26.2394C8.55216 26.2592 8.63087 26.2895 8.73253 26.3297C8.93593 26.4103 9.23061 26.5308 9.58906 26.6882C10.3077 27.0038 11.274 27.4638 12.2715 28.0429C13.2731 28.6243 14.2801 29.3108 15.0964 30.0731C15.9211 30.8433 16.4859 31.6304 16.7125 32.4016C16.8757 32.957 16.9348 33.7036 16.926 34.4892C16.9173 35.2599 16.8446 36 16.7805 36.5105C16.6818 37.2965 17.0416 38.1514 17.8376 38.556C19.3749 39.3373 20.8782 39.7526 22.4158 39.7513C23.9532 39.75 25.4565 39.3324 26.9939 38.5489C27.7753 38.1506 28.1385 37.3151 28.0519 36.5372C27.9329 35.4681 27.8045 33.5792 28.1144 32.3676C28.3225 31.5543 28.8256 30.7074 29.5321 29.8692C30.2331 29.0376 31.0925 28.2638 31.9422 27.5957C32.7893 26.9296 33.6084 26.3829 34.2165 26.0026C34.5199 25.8128 34.7691 25.6655 34.9409 25.5665C35.0022 25.5311 35.0537 25.5019 35.0941 25.4792ZM30.1777 10.1403C30.1777 10.6644 29.7529 11.0892 29.2288 11.0892C28.7047 11.0892 28.2799 10.6644 28.2799 10.1403C28.2799 9.61622 28.7047 9.19138 29.2288 9.19138C29.7529 9.19138 30.1777 9.61622 30.1777 10.1403ZM30.8092 16.4912C31.3333 16.4912 31.7581 16.0664 31.7581 15.5423C31.7581 15.0182 31.3333 14.5934 30.8092 14.5934C30.2851 14.5934 29.8603 15.0182 29.8603 15.5423C29.8603 16.0664 30.2851 16.4912 30.8092 16.4912ZM27.0262 13.9619C27.0262 14.486 26.6014 14.9108 26.0773 14.9108C25.5532 14.9108 25.1284 14.486 25.1284 13.9619C25.1284 13.4378 25.5532 13.013 26.0773 13.013C26.6014 13.013 27.0262 13.4378 27.0262 13.9619ZM10.9693 16.8087C11.4934 16.8087 11.9182 16.3838 11.9182 15.8597C11.9182 15.3357 11.4934 14.9108 10.9693 14.9108C10.4452 14.9108 10.0204 15.3357 10.0204 15.8597C10.0204 16.3838 10.4452 16.8087 10.9693 16.8087Z" fill="#5E6E7C"/>
</svg>
