<svg width="41" height="41" viewBox="0 0 41 41" fill="none" xmlns="http://www.w3.org/2000/svg">
<rect x="0.987793" y="0.751282" width="40" height="40" fill="white"/>
<path fill-rule="evenodd" clip-rule="evenodd" d="M28.7987 7.73855C28.6505 7.18831 28.0732 6.87297 27.5301 7.04564L7.18478 13.5147C6.76971 13.6467 6.48779 14.0321 6.48779 14.4677V33.5049C6.48779 34.0572 6.93551 34.5049 7.48779 34.5049H34.4878C35.0401 34.5049 35.4878 34.0572 35.4878 33.5049V30.4234H31.405C28.6893 30.4234 26.4878 28.2219 26.4878 25.5062C26.4878 22.7905 28.6893 20.589 31.405 20.589H35.4878V16.7939C35.4878 16.2363 35.0317 15.7864 34.4742 15.794L10.5014 16.1202C9.94917 16.1277 9.4954 15.6861 9.48789 15.1339C9.48195 14.6974 9.75657 14.3225 10.1446 14.1807L10.1446 14.1806L10.1475 14.1797C10.1706 14.1713 10.1941 14.1638 10.218 14.1571L28.9157 8.17282L28.7987 7.73855ZM35.4878 22.589H31.405C29.7939 22.589 28.4878 23.8951 28.4878 25.5062C28.4878 27.1173 29.7939 28.4234 31.405 28.4234H35.4878V22.589ZM30.8228 7.5634L30.7299 7.21839C30.2853 5.56769 28.5533 4.62166 26.9241 5.13967L6.57875 11.6087C5.33353 12.0046 4.48779 13.161 4.48779 14.4677V33.5049C4.48779 35.1618 5.83094 36.5049 7.48779 36.5049H34.4878C36.1446 36.5049 37.4878 35.1618 37.4878 33.5049V16.7939C37.4878 15.3055 36.4047 14.073 34.9878 13.8353V12.6078C34.9878 11.6495 34.32 10.8676 33.4498 10.6609L33.3697 9.36284C33.2906 8.08224 32.0458 7.21184 30.8228 7.5634ZM31.4559 10.8213L31.3735 9.48614L23.209 12.0992L31.4559 10.8213ZM32.9878 13.814L24.4542 13.9302L32.9878 12.6078L32.9878 13.814ZM32.5799 25.5062C32.5799 26.1965 32.0203 26.7562 31.3299 26.7562C30.6395 26.7562 30.0799 26.1965 30.0799 25.5062C30.0799 24.8158 30.6395 24.2562 31.3299 24.2562C32.0203 24.2562 32.5799 24.8158 32.5799 25.5062Z" fill="#5E6E7C"/>
</svg>
