<svg width="41" height="41" viewBox="0 0 41 41" fill="none" xmlns="http://www.w3.org/2000/svg">
<rect x="0.987793" y="0.751282" width="40" height="40" fill="white"/>
<path fill-rule="evenodd" clip-rule="evenodd" d="M8.0658 1.9621C6.96123 1.9621 6.0658 2.85752 6.0658 3.9621V38.0405C6.0658 38.869 6.73737 39.5405 7.5658 39.5405H10.5435C11.3719 39.5405 12.0435 38.869 12.0435 38.0405V36.9761H29.9321V38.0405C29.9321 38.869 30.6037 39.5405 31.4321 39.5405H34.4098C35.2382 39.5405 35.9098 38.869 35.9098 38.0405V3.9621C35.9098 2.85753 35.0144 1.9621 33.9098 1.9621H8.0658ZM29.9321 34.9761H12.0435V28.959H18.4512C18.4772 29.4881 18.9144 29.9092 19.45 29.9092H22.6168C23.1524 29.9092 23.5896 29.4881 23.6156 28.959H29.9321V34.9761ZM29.9321 26.959H21.9878L21.9878 7.93535H29.9321V26.959ZM19.9878 26.959H12.0435V7.93535H19.9878L19.9878 26.959ZM8.0658 3.9621L33.9098 3.9621V37.5405H31.9321V35.9761V6.98535C31.9321 6.40548 31.462 5.93535 30.8821 5.93535H11.0935C10.5136 5.93535 10.0435 6.40542 10.0435 6.98535V35.9761V37.5405H8.0658V3.9621ZM16.5758 19.3393C16.5758 19.8916 17.0236 20.3393 17.5758 20.3393C18.1281 20.3393 18.5758 19.8916 18.5758 19.3393V16.1725C18.5758 15.6202 18.1281 15.1725 17.5758 15.1725C17.0236 15.1725 16.5758 15.6202 16.5758 16.1725V19.3393ZM24.3997 20.3393C23.8474 20.3393 23.3997 19.8916 23.3997 19.3393V16.1725C23.3997 15.6202 23.8474 15.1725 24.3997 15.1725C24.952 15.1725 25.3997 15.6202 25.3997 16.1725V19.3393C25.3997 19.8916 24.952 20.3393 24.3997 20.3393Z" fill="#5E6E7C"/>
</svg>
