<svg width="41" height="41" viewBox="0 0 41 41" fill="none" xmlns="http://www.w3.org/2000/svg">
<rect x="0.987793" y="0.751282" width="40" height="40" fill="white"/>
<path fill-rule="evenodd" clip-rule="evenodd" d="M1.5753 14.7003C12.2826 2.74572 29.6929 2.74573 40.4003 14.7003L40.9878 15.3563L40.4003 16.0122L37.0039 19.8043L36.2715 20.622L35.5392 19.8043C27.4899 10.8173 14.4857 10.8173 6.43642 19.8043L5.70407 20.622L4.97171 19.8043L1.5753 16.0122L0.987793 15.3563L1.5753 14.7003ZM3.63692 15.3668L5.7206 17.6932C14.3433 8.89926 27.6323 8.89926 36.255 17.6932L38.3387 15.3668C28.5779 5.14535 13.3976 5.14536 3.63692 15.3668ZM38.4179 27.72C38.4179 23.7932 35.6057 20.5232 31.8854 19.8143C24.8939 13.7896 14.7741 14.3534 8.36798 21.5058L7.78047 22.1617L8.36799 22.8177L11.7644 26.6097L12.4968 27.4273L13.2291 26.6097C16.0494 23.4608 20.0023 22.3791 23.6008 23.3643C23.1036 24.1355 22.7345 24.9972 22.5238 25.9192C19.9339 25.3782 17.1511 26.2188 15.1608 28.441L14.5733 29.0969L15.1608 29.7529L19.8892 35.0321C20.4754 35.6865 21.5001 35.6865 22.0863 35.0321L24.1073 32.7756C25.5827 34.6009 27.8399 35.7682 30.3697 35.7682C34.8146 35.7682 38.4179 32.1649 38.4179 27.72ZM12.5257 24.5124C16.0373 21.1677 20.7877 20.2433 24.984 21.7393C26.0005 20.8233 27.2518 20.1627 28.6366 19.8588C22.8664 16.2761 15.5291 17.0494 10.4353 22.1786L12.5257 24.5124ZM17.2518 29.1402C18.7301 27.8771 20.5919 27.4605 22.3233 27.8903C22.3465 29.0076 22.5974 30.0688 23.0314 31.0297L20.9877 33.3114L17.2518 29.1402ZM30.3697 21.6381C27.0108 21.6381 24.2879 24.361 24.2879 27.72C24.2879 31.0789 27.0108 33.8018 30.3697 33.8018C33.7287 33.8018 36.4516 31.0789 36.4516 27.72C36.4516 24.361 33.7287 21.6381 30.3697 21.6381ZM30.4496 30.4841L34.5875 26.3462L33.1971 24.9558L29.7544 28.3985L27.5424 26.1865L26.152 27.5769L29.0592 30.4841L29.7544 31.1793L30.4496 30.4841Z" fill="#5E6E7C"/>
</svg>
