<svg width="41" height="41" viewBox="0 0 41 41" fill="none" xmlns="http://www.w3.org/2000/svg">
<rect x="0.987793" y="0.751282" width="40" height="40" fill="white"/>
<path fill-rule="evenodd" clip-rule="evenodd" d="M40.4003 14.7003C29.6929 2.74573 12.2826 2.74573 1.5753 14.7003L0.987793 15.3563L1.5753 16.0122L4.97171 19.8043L5.70407 20.622L6.43642 19.8043C14.4857 10.8173 27.4899 10.8173 35.5392 19.8043L36.2715 20.622L37.0039 19.8043L40.4003 16.0122L40.9878 15.3563L40.4003 14.7003ZM5.7206 17.6932L3.63692 15.3668C13.3976 5.14536 28.5779 5.14535 38.3387 15.3668L36.255 17.6932C27.6323 8.89926 14.3433 8.89926 5.7206 17.6932ZM31.8854 19.8143C35.6057 20.5232 38.4179 23.7932 38.4179 27.7199C38.4179 32.1648 34.8146 35.7682 30.3697 35.7682C27.8399 35.7682 25.5827 34.6009 24.1073 32.7756L22.0863 35.0321C21.5001 35.6865 20.4754 35.6865 19.8892 35.0321L15.1608 29.7529L14.5733 29.0969L15.1608 28.441C17.1511 26.2188 19.9339 25.3782 22.5238 25.9192C22.7345 24.9972 23.1036 24.1355 23.6008 23.3643C20.0023 22.3791 16.0494 23.4608 13.2291 26.6097L12.4968 27.4273L11.7644 26.6097L8.36799 22.8177L7.78047 22.1617L8.36798 21.5058C14.7741 14.3534 24.8939 13.7896 31.8854 19.8143ZM24.984 21.7393C20.7877 20.2433 16.0373 21.1677 12.5257 24.5124L10.4353 22.1786C15.5291 17.0494 22.8664 16.2761 28.6366 19.8588C27.2518 20.1627 26.0005 20.8233 24.984 21.7393ZM22.3233 27.8903C20.5919 27.4605 18.7301 27.8771 17.2518 29.1402L20.9877 33.3114L23.0314 31.0297C22.5974 30.0688 22.3465 29.0076 22.3233 27.8903ZM24.2879 27.7199C24.2879 24.361 27.0108 21.6381 30.3697 21.6381C33.7287 21.6381 36.4516 24.361 36.4516 27.7199C36.4516 31.0789 33.7287 33.8018 30.3697 33.8018C27.0108 33.8018 24.2879 31.0789 24.2879 27.7199ZM28.9793 27.7199L27.1465 25.8871L28.5369 24.4967L30.3697 26.3295L32.2025 24.4967L33.593 25.8871L31.7602 27.7199L33.5929 29.5527L32.2025 30.9431L30.3697 29.1103L28.537 30.9431L27.1466 29.5527L28.9793 27.7199Z" fill="#5E6E7C"/>
</svg>
