<svg width="41" height="41" viewBox="0 0 41 41" fill="none" xmlns="http://www.w3.org/2000/svg">
<rect x="0.987793" y="0.751282" width="40" height="40" fill="white"/>
<path fill-rule="evenodd" clip-rule="evenodd" d="M4.98779 5.88461V7.55128C4.98779 8.65585 5.88322 9.55128 6.98779 9.55128H34.9878C36.0924 9.55128 36.9878 8.65585 36.9878 7.55128V5.88461H35.606V7.14286C35.606 7.72276 35.1359 8.19286 34.556 8.19286H7.54445C6.96455 8.19286 6.49445 7.72275 6.49445 7.14286V5.88461H4.98779ZM2.98779 5.38461C2.98779 4.55619 3.65936 3.88461 4.48779 3.88461H6.99445C7.82288 3.88461 8.49445 4.55619 8.49445 5.38461V6.19286H33.606V5.38461C33.606 4.55619 34.2775 3.88461 35.106 3.88461H37.4878C38.3162 3.88461 38.9878 4.55618 38.9878 5.38461V7.55128C38.9878 9.76042 37.1969 11.5513 34.9878 11.5513H27.3003V14.0846H29.7047C31.1936 14.0846 32.4572 15.1766 32.673 16.6497L35.2418 34.1831C35.507 35.9937 34.1034 37.6179 32.2735 37.6179H9.70218C7.87221 37.6179 6.4686 35.9937 6.73387 34.1831L9.30265 16.6497C9.51848 15.1766 10.7821 14.0846 12.271 14.0846H14.6753V11.5513H6.98779C4.77865 11.5513 2.98779 9.76042 2.98779 7.55128V5.38461ZM16.6753 11.5513H25.3003V14.0846H16.6753V11.5513ZM11.2815 16.9397C11.3535 16.4486 11.7747 16.0846 12.271 16.0846H29.7047C30.201 16.0846 30.6222 16.4486 30.6941 16.9396L33.2629 34.473C33.3513 35.0765 32.8834 35.6179 32.2735 35.6179H9.70218C9.09219 35.6179 8.62432 35.0765 8.71275 34.473L11.2815 16.9397ZM15.1877 25.8513C15.1877 22.648 17.7845 20.0513 20.9877 20.0513C24.191 20.0513 26.7877 22.648 26.7877 25.8513C26.7877 29.0545 24.191 31.6513 20.9877 31.6513C17.7845 31.6513 15.1877 29.0545 15.1877 25.8513ZM20.9877 18.0513C16.6799 18.0513 13.1877 21.5434 13.1877 25.8513C13.1877 30.1591 16.6799 33.6513 20.9877 33.6513C25.2956 33.6513 28.7877 30.1591 28.7877 25.8513C28.7877 21.5434 25.2956 18.0513 20.9877 18.0513ZM21.9878 22.4513C21.9878 21.899 21.5401 21.4513 20.9878 21.4513C20.4355 21.4513 19.9878 21.899 19.9878 22.4513V25.8513C19.9878 26.4035 20.4355 26.8513 20.9878 26.8513C21.5401 26.8513 21.9878 26.4035 21.9878 25.8513V22.4513Z" fill="#5E6E7C"/>
</svg>
