<svg width="41" height="41" viewBox="0 0 41 41" fill="none" xmlns="http://www.w3.org/2000/svg">
<rect x="0.987793" y="0.751282" width="40" height="40" fill="white"/>
<path fill-rule="evenodd" clip-rule="evenodd" d="M9.48144 16.0229C9.98833 10.1107 14.9474 5.46246 20.9878 5.46246C27.0282 5.46246 31.9872 10.1107 32.4941 16.0229H9.48144ZM7.47254 16.0588C7.96691 9.0259 13.8279 3.46246 20.9878 3.46246C28.1476 3.46246 34.0086 9.0259 34.503 16.0588C35.8815 16.2737 36.9571 17.4285 37.0336 18.8631L37.8878 34.8804C37.9794 36.5976 36.6117 38.0402 34.8921 38.0402H7.08349C5.36386 38.0402 3.99617 36.5976 4.08775 34.8804L4.942 18.8631C5.01852 17.4285 6.09411 16.2737 7.47254 16.0588ZM6.93917 18.9696C6.96748 18.4388 7.40616 18.0229 7.93775 18.0229H34.0378C34.5694 18.0229 35.0081 18.4388 35.0364 18.9696L35.1142 20.4283C34.9558 20.5369 34.7349 20.6844 34.4574 20.8603C33.8316 21.2568 32.9201 21.7957 31.7889 22.3575C29.7476 23.3714 27.0217 24.4441 23.987 24.905C23.9224 23.3042 22.6024 22.0281 20.9878 22.0281C19.3732 22.0281 18.0532 23.3042 17.9886 24.905C14.9539 24.4441 12.228 23.3714 10.1867 22.3575C9.05548 21.7957 8.14401 21.2568 7.5182 20.8603C7.24064 20.6844 7.01977 20.5369 6.86137 20.4283L6.93917 18.9696ZM23.9895 27.0333V26.9256C27.4167 26.4498 30.4576 25.2518 32.6786 24.1488C33.7183 23.6324 34.5856 23.1331 35.2371 22.7314L35.8907 34.9869C35.9212 35.5593 35.4653 36.0402 34.8921 36.0402H7.08349C6.51028 36.0402 6.05438 35.5593 6.08491 34.9869L6.73854 22.7314C7.39001 23.1332 8.25724 23.6324 9.29702 24.1488C11.518 25.2518 14.5589 26.4498 17.9861 26.9256V27.0333C17.9861 28.6912 19.3321 30.0333 20.9878 30.0333C22.6435 30.0333 23.9895 28.6912 23.9895 27.0333ZM20.9878 24.0281C20.4344 24.0281 19.9861 24.4769 19.9861 25.0281V27.0333C19.9861 27.5844 20.4344 28.0333 20.9878 28.0333C21.5412 28.0333 21.9895 27.5844 21.9895 27.0333V25.0281C21.9895 24.4769 21.5412 24.0281 20.9878 24.0281Z" fill="#5E6E7C"/>
</svg>
