<svg width="41" height="41" viewBox="0 0 41 41" fill="none" xmlns="http://www.w3.org/2000/svg">
<rect x="0.012207" y="0.751282" width="40" height="40" fill="white"/>
<path fill-rule="evenodd" clip-rule="evenodd" d="M19.1778 19.2449H8.36125C9.4789 13.5427 14.4829 9.39935 20.3284 9.39935C25.207 9.39935 29.4996 12.2855 31.4358 16.5552L30.079 17.2697C29.5563 16.8608 28.9114 16.604 28.1924 16.604C27.4734 16.604 26.8284 16.8608 26.3058 17.2697L23.4713 15.7772C22.551 15.2926 21.0921 15.2039 20.24 16.3521C19.618 17.1903 19.2652 18.2046 19.1778 19.2449ZM33.2166 15.6398C30.9439 10.7188 25.9732 7.39935 20.3284 7.39935C13.3788 7.39935 7.45091 12.4307 6.32148 19.2879L5.40094 24.877C5.17095 25.025 4.96011 25.2053 4.77551 25.4145L1.07353 29.6101C0.137481 30.6709 0.564295 32.4004 1.99012 32.8096C8.02588 34.5415 13.4742 34.2386 19.0786 33.5992C20.1266 33.4797 21.1785 33.3487 22.2409 33.2164C26.883 32.6384 31.7251 32.0356 37.314 32.2514C39.0414 32.3181 40.1497 30.2521 38.9395 28.8806L35.8812 25.4145C35.6966 25.2053 35.4858 25.025 35.2558 24.877L35.1171 24.0351C35.4614 23.8965 35.7832 23.6682 36.0491 23.3263C37.5795 21.3583 37.6296 18.3536 36.1444 16.3522C35.3809 15.3234 34.1305 15.2877 33.2166 15.6398ZM33.0836 23.9949L33.1502 24.3994H7.50655L8.0261 21.2449H19.3372C19.5249 21.9982 19.8581 22.7126 20.3353 23.3262C21.1577 24.3837 22.5146 24.3546 23.4179 23.9448L26.2695 22.6512C26.7985 23.0768 27.4567 23.3457 28.1924 23.3457C28.928 23.3457 29.5862 23.0769 30.1151 22.6514L32.9665 23.9449C33.0047 23.9623 33.0438 23.9789 33.0836 23.9949ZM6.27519 26.7377C6.46441 26.5233 6.73636 26.4001 7.02226 26.3994H33.6345C33.9204 26.4001 34.1923 26.5233 34.3816 26.7377L37.4324 30.2219C31.6654 29.9993 26.5928 30.6576 21.9411 31.2377C20.8936 31.3683 19.8651 31.4965 18.852 31.6121C13.3362 32.2414 8.22415 32.5059 2.59938 30.9036L6.27519 26.7377ZM25.1295 18.9107C24.8965 19.5762 24.8798 20.2914 25.1079 20.982L22.5917 22.1235C22.418 22.2022 22.2486 22.2226 22.1242 22.2052C22.0111 22.1893 21.9524 22.1476 21.9141 22.0985C20.9284 20.8309 20.9024 18.8156 21.8461 17.5439C21.8833 17.4939 21.9394 17.4527 22.0549 17.4397C22.1841 17.4251 22.3621 17.4535 22.5394 17.5469L25.1295 18.9107ZM33.7927 22.1236L31.2769 20.9822C31.5054 20.2906 31.4879 19.5752 31.2552 18.9107L33.845 17.547C34.0223 17.4536 34.2003 17.4252 34.3295 17.4398C34.445 17.4528 34.5012 17.494 34.5383 17.544C35.482 18.8157 35.456 20.831 34.4703 22.0985C34.432 22.1477 34.3733 22.1894 34.2602 22.2052C34.1358 22.2227 33.9664 22.2023 33.7927 22.1236ZM27.2744 19.1109C27.5484 18.7603 27.8809 18.604 28.1924 18.604C28.5039 18.604 28.8363 18.7603 29.1104 19.1108C29.5336 19.6523 29.5638 20.2588 29.1103 20.8389C28.8363 21.1894 28.5038 21.3457 28.1924 21.3457C27.881 21.3457 27.5485 21.1894 27.2744 20.8388C26.8221 20.2601 26.8499 19.654 27.2744 19.1109Z" fill="#5E6E7C"/>
</svg>
