<svg width="41" height="41" viewBox="0 0 41 41" fill="none" xmlns="http://www.w3.org/2000/svg">
<rect x="0.987793" y="0.751282" width="40" height="40" fill="white"/>
<path fill-rule="evenodd" clip-rule="evenodd" d="M20.9688 2.75128C16.4049 2.75128 13.0967 3.27474 9.87323 4.99393L9.82994 5.01702L9.78912 5.04423L5.58047 7.84998C4.89956 8.30392 4.52977 9.15985 4.77236 10.007C5.34077 11.9918 6.34594 13.6667 8.15358 15.263C8.74344 15.7839 9.5633 15.8758 10.241 15.5788L10.7586 15.352C10.8783 17.4685 11.236 19.813 11.7929 21.4603C11.8925 21.7551 11.9025 22.0214 11.8417 22.238C11.5113 23.4147 10.8179 25.8978 10.2013 28.1952C9.46128 30.9528 8.78511 33.8395 8.47899 35.1743C8.27423 36.0672 8.71348 37.0591 9.68824 37.3866C11.1676 37.8837 14.6568 38.7513 20.9881 38.7513C27.3256 38.7513 30.8155 37.882 32.2924 37.3852C33.2629 37.0587 33.7028 36.0726 33.5028 35.182C33.2032 33.8481 32.538 30.9572 31.7967 28.1952C31.1809 25.9007 30.4573 23.4235 30.1074 22.2396C30.0416 22.0169 30.05 21.7433 30.1513 21.445C30.7098 19.8011 31.0872 17.4651 31.2146 15.3506L31.7353 15.5788C32.413 15.8758 33.2328 15.7839 33.8227 15.263C35.6294 13.6675 36.6345 11.9935 37.2031 10.0098C37.4467 9.15994 37.0739 8.30145 36.389 7.84857L32.1454 5.04217L32.1061 5.01613L32.0644 4.99391C28.8409 3.27474 25.5328 2.75128 20.9688 2.75128ZM10.714 11.1888V13.1879L9.45168 13.7411C7.95882 12.4156 7.16999 11.0877 6.70821 9.50185L10.8571 6.73595C12.4572 5.88863 14.0986 5.36179 16.0285 5.06574C16.0396 5.10615 16.051 5.1472 16.0627 5.18881C16.2507 5.85675 16.5428 6.75308 16.9324 7.43492C17.4559 8.35112 18.3601 9.2387 19.0609 9.85607C19.4235 10.1755 19.7563 10.4437 19.9988 10.6324C20.1204 10.727 20.2199 10.8021 20.2901 10.8543C20.3251 10.8804 20.3529 10.9008 20.3724 10.9151L20.3955 10.9318L20.4021 10.9366L20.4042 10.9381L20.4052 10.9388L20.9881 11.3567L21.5708 10.939L21.572 10.9381L21.5741 10.9366L21.5808 10.9318L21.6038 10.9151C21.6234 10.9008 21.6511 10.8804 21.6862 10.8543C21.7563 10.8021 21.8559 10.727 21.9774 10.6324C22.22 10.4437 22.5528 10.1755 22.9154 9.85607C23.6162 9.2387 24.5203 8.35112 25.0439 7.43492C25.4335 6.75308 25.7256 5.85675 25.9136 5.18881C25.9248 5.14916 25.9356 5.11002 25.9462 5.07146C27.8607 5.36865 29.4918 5.89441 31.0822 6.7368L35.2673 9.50451C34.8054 11.0892 34.0166 12.4163 32.5246 13.7411L31.2622 13.1879V11.1888C31.2622 10.6365 30.8145 10.1888 30.2622 10.1888C29.7099 10.1888 29.2622 10.6365 29.2622 11.1888V12.7866L12.714 12.7866V11.1888C12.714 10.6365 12.2663 10.1888 11.714 10.1888C11.1618 10.1888 10.714 10.6365 10.714 11.1888ZM12.7335 14.7866C12.7763 15.8635 12.8887 17.0155 13.0584 18.0908L28.8978 18.0908C29.0753 17.0144 29.1952 15.8619 29.2412 14.7866L12.7335 14.7866ZM28.473 20.0908L13.4697 20.0908C13.5384 20.3495 13.6111 20.5937 13.6875 20.8199C13.8872 21.4104 13.9591 22.0954 13.7673 22.7786C13.4374 23.9533 12.7465 26.4276 12.133 28.7136C11.4185 31.3759 10.7622 34.1688 10.449 35.5315C11.7782 35.961 15.033 36.7513 20.9881 36.7513C26.9492 36.7513 30.2044 35.9595 31.5312 35.5303C31.2247 34.1692 30.5795 31.3758 29.8651 28.7136C29.2559 26.4438 28.538 23.9858 28.1894 22.8065C27.9841 22.1118 28.0513 21.4091 28.2576 20.8017C28.3327 20.5806 28.4046 20.3425 28.473 20.0908ZM23.9305 4.84737C23.0167 4.78099 22.0359 4.75128 20.9688 4.75128C19.9165 4.75128 18.948 4.78018 18.0449 4.84465C18.2174 5.42775 18.4342 6.03195 18.6689 6.44264C19.0187 7.05491 19.7084 7.76108 20.3829 8.35534C20.6017 8.54805 20.8092 8.72066 20.9881 8.8648C21.1671 8.72066 21.3746 8.54805 21.5933 8.35534C22.2679 7.76108 22.9575 7.05491 23.3074 6.44264C23.5417 6.03259 23.7582 5.42963 23.9305 4.84737Z" fill="#5E6E7C"/>
</svg>
