<svg width="41" height="41" viewBox="0 0 41 41" fill="none" xmlns="http://www.w3.org/2000/svg">
<rect x="0.987793" y="0.751282" width="40" height="40" fill="white"/>
<path fill-rule="evenodd" clip-rule="evenodd" d="M5.98779 6.81378H35.9878V9.06378H33.2378H8.73779L5.98779 9.06378V6.81378ZM33.7378 11.0638H35.9878V30.4388H33.7378V11.0638ZM33.2382 32.4388H33.2378H8.73779L8.73647 32.4388H5.98779V34.6888H35.9878V32.4388H33.2382ZM5.98779 30.4388H8.23779V11.0638H5.98779L5.98779 30.4388ZM10.2378 30.4388H16.2926L31.7378 17.053V11.0638H25.6829L10.2378 24.4496V30.4388ZM19.3464 30.4388H31.7378V27.0638H23.2406L19.3464 30.4388ZM31.7378 25.0638V19.6996L25.5483 25.0638H31.7378ZM10.2378 21.803V17.5013H15.2013L10.2378 21.803ZM10.2378 11.0638V15.5013H17.509L22.6292 11.0638H10.2378ZM3.98779 6.81378C3.98779 5.70921 4.88322 4.81378 5.98779 4.81378H35.9878C37.0924 4.81378 37.9878 5.70921 37.9878 6.81378V34.6888C37.9878 35.7934 37.0924 36.6888 35.9878 36.6888H5.98779C4.88322 36.6888 3.98779 35.7934 3.98779 34.6888V6.81378ZM30.4253 13.2513C30.4253 13.8036 29.9776 14.2513 29.4253 14.2513C28.873 14.2513 28.4253 13.8036 28.4253 13.2513C28.4253 12.699 28.873 12.2513 29.4253 12.2513C29.9776 12.2513 30.4253 12.699 30.4253 13.2513ZM12.4253 29.1263C12.9776 29.1263 13.4253 28.6786 13.4253 28.1263C13.4253 27.574 12.9776 27.1263 12.4253 27.1263C11.873 27.1263 11.4253 27.574 11.4253 28.1263C11.4253 28.6786 11.873 29.1263 12.4253 29.1263Z" fill="#5E6E7C"/>
</svg>
