<?xml version="1.0" encoding="utf-8"?>
<!-- Generator: Adobe Illustrator 25.2.3, SVG Export Plug-In . SVG Version: 6.00 Build 0)  -->
<svg version="1.1" id="Layer_1" xmlns="http://www.w3.org/2000/svg" xmlns:xlink="http://www.w3.org/1999/xlink" x="0px" y="0px"
	 viewBox="0 0 41 41" style="enable-background:new 0 0 41 41;" xml:space="preserve">
<style type="text/css">
	.st0{fill-rule:evenodd;clip-rule:evenodd;fill:#FFFFFF;}
</style>
<path class="st0" d="M22.6,4.7c-0.8-1-2.4-1-3.2,0L13.1,12h-7c-1.2,0-2.1,1-2.1,2.1v2.1c0,0.8,0.5,1.6,1.2,1.9c0,0.1,0,0.3,0,0.5
	l1.9,15.9c0.1,1.1,1,1.9,2.1,1.9h23.6c1.1,0,2-0.8,2.1-1.9l1.9-15.9c0-0.2,0-0.3,0-0.5c0.7-0.3,1.2-1.1,1.2-1.9v-2.1
	c0-1.2-1-2.1-2.1-2.1h-7L22.6,4.7z M26.1,12L21,6.1L15.9,12H26.1z M9.2,34.3L7.3,18.3h27.4l-1.9,15.9H9.2z M35.9,16.2h-1.2H7.3H6.1
	v-2.1h29.8V16.2z M11.2,22.6c0-0.6,0.5-1.1,1.1-1.1c0.6,0,1.1,0.5,1.1,1.1v1.7c0,0.6-0.5,1.1-1.1,1.1c-0.6,0-1.1-0.5-1.1-1.1V22.6z
	 M15.5,22.6c0-0.6,0.5-1.1,1.1-1.1s1.1,0.5,1.1,1.1v1.7c0,0.6-0.5,1.1-1.1,1.1s-1.1-0.5-1.1-1.1V22.6z M21,21.5
	c-0.6,0-1.1,0.5-1.1,1.1v1.7c0,0.6,0.5,1.1,1.1,1.1c0.6,0,1.1-0.5,1.1-1.1v-1.7C22.1,22,21.6,21.5,21,21.5z M24.3,22.6
	c0-0.6,0.5-1.1,1.1-1.1c0.6,0,1.1,0.5,1.1,1.1v1.7c0,0.6-0.5,1.1-1.1,1.1c-0.6,0-1.1-0.5-1.1-1.1V22.6z M29.7,21.5
	c-0.6,0-1.1,0.5-1.1,1.1v1.7c0,0.6,0.5,1.1,1.1,1.1s1.1-0.5,1.1-1.1v-1.7C30.8,22,30.3,21.5,29.7,21.5z M11.2,28.1
	c0-0.6,0.5-1.1,1.1-1.1c0.6,0,1.1,0.5,1.1,1.1v1.7c0,0.6-0.5,1.1-1.1,1.1c-0.6,0-1.1-0.5-1.1-1.1V28.1z M16.6,27
	c-0.6,0-1.1,0.5-1.1,1.1v1.7c0,0.6,0.5,1.1,1.1,1.1s1.1-0.5,1.1-1.1v-1.7C17.7,27.5,17.2,27,16.6,27z M19.9,28.1
	c0-0.6,0.5-1.1,1.1-1.1c0.6,0,1.1,0.5,1.1,1.1v1.7c0,0.6-0.5,1.1-1.1,1.1c-0.6,0-1.1-0.5-1.1-1.1V28.1z M25.4,27
	c-0.6,0-1.1,0.5-1.1,1.1v1.7c0,0.6,0.5,1.1,1.1,1.1c0.6,0,1.1-0.5,1.1-1.1v-1.7C26.4,27.5,26,27,25.4,27z M28.7,28.1
	c0-0.6,0.5-1.1,1.1-1.1s1.1,0.5,1.1,1.1v1.7c0,0.6-0.5,1.1-1.1,1.1s-1.1-0.5-1.1-1.1V28.1z"/>
</svg>
